%TF.GenerationSoftware,KiCad,Pcbnew,8.0.8*%
%TF.CreationDate,2025-04-07T11:11:10-04:00*%
%TF.ProjectId,PROTOTYPE,50524f54-4f54-4595-9045-2e6b69636164,rev?*%
%TF.SameCoordinates,Original*%
%TF.FileFunction,Soldermask,Top*%
%TF.FilePolarity,Negative*%
%FSLAX46Y46*%
G04 Gerber Fmt 4.6, Leading zero omitted, Abs format (unit mm)*
G04 Created by KiCad (PCBNEW 8.0.8) date 2025-04-07 11:11:10*
%MOMM*%
%LPD*%
G01*
G04 APERTURE LIST*
G04 Aperture macros list*
%AMRoundRect*
0 Rectangle with rounded corners*
0 $1 Rounding radius*
0 $2 $3 $4 $5 $6 $7 $8 $9 X,Y pos of 4 corners*
0 Add a 4 corners polygon primitive as box body*
4,1,4,$2,$3,$4,$5,$6,$7,$8,$9,$2,$3,0*
0 Add four circle primitives for the rounded corners*
1,1,$1+$1,$2,$3*
1,1,$1+$1,$4,$5*
1,1,$1+$1,$6,$7*
1,1,$1+$1,$8,$9*
0 Add four rect primitives between the rounded corners*
20,1,$1+$1,$2,$3,$4,$5,0*
20,1,$1+$1,$4,$5,$6,$7,0*
20,1,$1+$1,$6,$7,$8,$9,0*
20,1,$1+$1,$8,$9,$2,$3,0*%
G04 Aperture macros list end*
%ADD10C,1.600000*%
%ADD11O,1.600000X1.600000*%
%ADD12RoundRect,0.250000X1.050000X-1.050000X1.050000X1.050000X-1.050000X1.050000X-1.050000X-1.050000X0*%
%ADD13C,2.600000*%
%ADD14RoundRect,0.250000X1.050000X1.050000X-1.050000X1.050000X-1.050000X-1.050000X1.050000X-1.050000X0*%
%ADD15R,2.000000X2.000000*%
%ADD16C,2.000000*%
%ADD17RoundRect,0.102000X0.654000X0.654000X-0.654000X0.654000X-0.654000X-0.654000X0.654000X-0.654000X0*%
%ADD18C,1.512000*%
%ADD19RoundRect,0.102000X1.125000X-1.125000X1.125000X1.125000X-1.125000X1.125000X-1.125000X-1.125000X0*%
%ADD20C,2.454000*%
%ADD21RoundRect,0.102000X0.600000X-0.600000X0.600000X0.600000X-0.600000X0.600000X-0.600000X-0.600000X0*%
%ADD22C,1.404000*%
%ADD23RoundRect,0.250000X-1.050000X1.050000X-1.050000X-1.050000X1.050000X-1.050000X1.050000X1.050000X0*%
%ADD24C,3.200000*%
%ADD25C,1.500000*%
%ADD26R,1.800000X1.800000*%
%ADD27C,1.800000*%
%ADD28RoundRect,0.102000X0.780000X0.780000X-0.780000X0.780000X-0.780000X-0.780000X0.780000X-0.780000X0*%
%ADD29C,1.764000*%
%ADD30O,1.800000X1.800000*%
G04 APERTURE END LIST*
D10*
%TO.C,R7*%
X73600000Y-45740000D03*
D11*
X73600000Y-53360000D03*
%TD*%
D12*
%TO.C,J3*%
X53550000Y-108650000D03*
D13*
X53550000Y-105150000D03*
%TD*%
D10*
%TO.C,R6*%
X106260000Y-110850000D03*
D11*
X98640000Y-110850000D03*
%TD*%
D10*
%TO.C,R3*%
X77400000Y-55490000D03*
D11*
X77400000Y-63110000D03*
%TD*%
D14*
%TO.C,J14*%
X104575000Y-123882500D03*
D13*
X101075000Y-123882500D03*
%TD*%
D12*
%TO.C,J4*%
X53550000Y-99650000D03*
D13*
X53550000Y-96150000D03*
%TD*%
D15*
%TO.C,C1*%
X97500000Y-43500000D03*
D16*
X97500000Y-48500000D03*
%TD*%
D10*
%TO.C,R2-1*%
X80750000Y-55390000D03*
D11*
X80750000Y-63010000D03*
%TD*%
D12*
%TO.C,J5*%
X53550000Y-90600000D03*
D13*
X53550000Y-87100000D03*
%TD*%
D14*
%TO.C,J7*%
X95550000Y-123857500D03*
D13*
X92050000Y-123857500D03*
%TD*%
D17*
%TO.C,U1*%
X96483000Y-97390000D03*
D18*
X96483000Y-94850000D03*
X96483000Y-92310000D03*
X96483000Y-89770000D03*
X96483000Y-87230000D03*
X96483000Y-84690000D03*
X96483000Y-82150000D03*
X96483000Y-79610000D03*
X114517000Y-79610000D03*
X114517000Y-82150000D03*
X114517000Y-84690000D03*
X114517000Y-87230000D03*
X114517000Y-89770000D03*
X114517000Y-92310000D03*
X114517000Y-94850000D03*
X114517000Y-97390000D03*
%TD*%
D19*
%TO.C,D1*%
X69000000Y-63137500D03*
D20*
X69000000Y-43237500D03*
%TD*%
D21*
%TO.C,C2*%
X98000000Y-57250000D03*
D22*
X98000000Y-53750000D03*
%TD*%
D23*
%TO.C,J16*%
X112782500Y-121100000D03*
D13*
X112782500Y-124600000D03*
%TD*%
D24*
%TO.C,L1*%
X95500000Y-64500000D03*
X89500000Y-64500000D03*
%TD*%
D23*
%TO.C,J8*%
X112800000Y-112050000D03*
D13*
X112800000Y-115550000D03*
%TD*%
D10*
%TO.C,R2*%
X73610000Y-68600000D03*
D11*
X65990000Y-68600000D03*
%TD*%
D10*
%TO.C,R1*%
X88900000Y-46290000D03*
D11*
X88900000Y-53910000D03*
%TD*%
D23*
%TO.C,J13*%
X109175000Y-62375000D03*
D13*
X109175000Y-65875000D03*
%TD*%
D25*
%TO.C,EYESPI_18IN_BREAKOUT_BOARD1*%
X63500000Y-63920000D03*
X63500000Y-61380000D03*
X63500000Y-58840000D03*
X63500000Y-56300000D03*
X63500000Y-53760000D03*
X63500000Y-51220000D03*
X63500000Y-48680000D03*
X63500000Y-46140000D03*
X63500000Y-43600000D03*
X50800000Y-43600000D03*
X50800000Y-46140000D03*
X50800000Y-48680000D03*
X50800000Y-51220000D03*
X50800000Y-53760000D03*
X50800000Y-56300000D03*
X50800000Y-58840000D03*
X50800000Y-61380000D03*
X50800000Y-63920000D03*
%TD*%
D26*
%TO.C,D2*%
X143275000Y-103405000D03*
D27*
X143275000Y-105945000D03*
%TD*%
D28*
%TO.C,U3*%
X87700000Y-120260000D03*
D29*
X87700000Y-117720000D03*
X87700000Y-115180000D03*
X87700000Y-112640000D03*
X87700000Y-110100000D03*
X87700000Y-107560000D03*
X87700000Y-105020000D03*
X87700000Y-102480000D03*
X87700000Y-99940000D03*
X87700000Y-97400000D03*
X87700000Y-94860000D03*
X87700000Y-92320000D03*
X87700000Y-89780000D03*
X87700000Y-87240000D03*
X87700000Y-84700000D03*
X87700000Y-82160000D03*
X87700000Y-79620000D03*
X87700000Y-77080000D03*
X87700000Y-74540000D03*
X62300000Y-120260000D03*
X62300000Y-117720000D03*
X62300000Y-115180000D03*
X62300000Y-112640000D03*
X62300000Y-110100000D03*
X62300000Y-107560000D03*
X62300000Y-105020000D03*
X62300000Y-102480000D03*
X62300000Y-99940000D03*
X62300000Y-97400000D03*
X62300000Y-94860000D03*
X62300000Y-92320000D03*
X62300000Y-89780000D03*
X62300000Y-87240000D03*
X62300000Y-84700000D03*
X62300000Y-82160000D03*
X62300000Y-79620000D03*
X62300000Y-77080000D03*
X62300000Y-74540000D03*
%TD*%
D23*
%TO.C,J10*%
X112800000Y-103000000D03*
D13*
X112800000Y-106500000D03*
%TD*%
D10*
%TO.C,R2-2*%
X77200000Y-67550000D03*
D11*
X84820000Y-67550000D03*
%TD*%
D23*
%TO.C,J12*%
X108965000Y-52900000D03*
D13*
X108965000Y-56400000D03*
%TD*%
D12*
%TO.C,J6*%
X53550000Y-81600000D03*
D13*
X53550000Y-78100000D03*
%TD*%
D23*
%TO.C,J15*%
X109000000Y-71500000D03*
D13*
X109000000Y-75000000D03*
%TD*%
D26*
%TO.C,U2*%
X84100000Y-45800000D03*
D30*
X82400000Y-49500000D03*
X80700000Y-45800000D03*
X79000000Y-49500000D03*
X77300000Y-45800000D03*
%TD*%
D12*
%TO.C,J1*%
X53550000Y-126700000D03*
D13*
X53550000Y-123200000D03*
%TD*%
D23*
%TO.C,J11*%
X108965000Y-42850000D03*
D13*
X108965000Y-46350000D03*
%TD*%
D12*
%TO.C,J2*%
X53550000Y-117700000D03*
D13*
X53550000Y-114200000D03*
%TD*%
M02*
