M48
; DRILL file {KiCad 8.0.8} date 2025-04-07T11:11:06-0400
; FORMAT={-:-/ absolute / metric / decimal}
; #@! TF.CreationDate,2025-04-07T11:11:06-04:00
; #@! TF.GenerationSoftware,Kicad,Pcbnew,8.0.8
; #@! TF.FileFunction,MixedPlating,1,2
FMAT,2
METRIC
; #@! TA.AperFunction,Plated,PTH,ComponentDrill
T1C0.800
; #@! TA.AperFunction,Plated,PTH,ComponentDrill
T2C0.850
; #@! TA.AperFunction,Plated,PTH,ViaDrill
T3C0.900
; #@! TA.AperFunction,Plated,PTH,ComponentDrill
T4C0.900
; #@! TA.AperFunction,Plated,PTH,ComponentDrill
T5C1.000
; #@! TA.AperFunction,Plated,PTH,ComponentDrill
T6C1.040
; #@! TA.AperFunction,Plated,PTH,ComponentDrill
T7C1.100
; #@! TA.AperFunction,Plated,PTH,ComponentDrill
T8C1.300
; #@! TA.AperFunction,Plated,PTH,ComponentDrill
T9C1.500
; #@! TA.AperFunction,Plated,PTH,ComponentDrill
T10C1.600
%
G90
G05
T1
X50.8Y-43.6
X50.8Y-46.14
X50.8Y-48.68
X50.8Y-51.22
X50.8Y-53.76
X50.8Y-56.3
X50.8Y-58.84
X50.8Y-61.38
X50.8Y-63.92
X63.5Y-43.6
X63.5Y-46.14
X63.5Y-48.68
X63.5Y-51.22
X63.5Y-53.76
X63.5Y-56.3
X63.5Y-58.84
X63.5Y-61.38
X63.5Y-63.92
X65.99Y-68.6
X73.6Y-45.74
X73.6Y-53.36
X73.61Y-68.6
X77.2Y-67.55
X77.4Y-55.49
X77.4Y-63.11
X80.75Y-55.39
X80.75Y-63.01
X84.82Y-67.55
X88.9Y-46.29
X88.9Y-53.91
X96.483Y-79.61
X96.483Y-82.15
X96.483Y-84.69
X96.483Y-87.23
X96.483Y-89.77
X96.483Y-92.31
X96.483Y-94.85
X96.483Y-97.39
X98.64Y-110.85
X106.26Y-110.85
X114.517Y-79.61
X114.517Y-82.15
X114.517Y-84.69
X114.517Y-87.23
X114.517Y-89.77
X114.517Y-92.31
X114.517Y-94.85
X114.517Y-97.39
T2
X98.0Y-53.75
X98.0Y-57.25
T3
X65.9Y-87.05
X72.7Y-87.0
X72.75Y-84.3
X85.0Y-87.0
X85.15Y-84.55
X139.525Y-102.975
X139.525Y-105.925
T4
X143.275Y-103.405
X143.275Y-105.945
T5
X97.5Y-43.5
X97.5Y-48.5
T6
X62.3Y-74.54
X62.3Y-77.08
X62.3Y-79.62
X62.3Y-82.16
X62.3Y-84.7
X62.3Y-87.24
X62.3Y-89.78
X62.3Y-92.32
X62.3Y-94.86
X62.3Y-97.4
X62.3Y-99.94
X62.3Y-102.48
X62.3Y-105.02
X62.3Y-107.56
X62.3Y-110.1
X62.3Y-112.64
X62.3Y-115.18
X62.3Y-117.72
X62.3Y-120.26
X87.7Y-74.54
X87.7Y-77.08
X87.7Y-79.62
X87.7Y-82.16
X87.7Y-84.7
X87.7Y-87.24
X87.7Y-89.78
X87.7Y-92.32
X87.7Y-94.86
X87.7Y-97.4
X87.7Y-99.94
X87.7Y-102.48
X87.7Y-105.02
X87.7Y-107.56
X87.7Y-110.1
X87.7Y-112.64
X87.7Y-115.18
X87.7Y-117.72
X87.7Y-120.26
T7
X77.3Y-45.8
X79.0Y-49.5
X80.7Y-45.8
X82.4Y-49.5
X84.1Y-45.8
T8
X53.55Y-78.1
X53.55Y-81.6
X53.55Y-87.1
X53.55Y-90.6
X53.55Y-96.15
X53.55Y-99.65
X53.55Y-105.15
X53.55Y-108.65
X53.55Y-114.2
X53.55Y-117.7
X53.55Y-123.2
X53.55Y-126.7
X92.05Y-123.857
X95.55Y-123.857
X101.075Y-123.882
X104.575Y-123.882
X108.965Y-42.85
X108.965Y-46.35
X108.965Y-52.9
X108.965Y-56.4
X109.0Y-71.5
X109.0Y-75.0
X109.175Y-62.375
X109.175Y-65.875
X112.782Y-121.1
X112.782Y-124.6
X112.8Y-103.0
X112.8Y-106.5
X112.8Y-112.05
X112.8Y-115.55
T9
X69.0Y-43.237
X69.0Y-63.137
T10
X89.5Y-64.5
X95.5Y-64.5
M30
