%TF.GenerationSoftware,KiCad,Pcbnew,8.0.8*%
%TF.CreationDate,2025-04-07T11:11:10-04:00*%
%TF.ProjectId,PROTOTYPE,50524f54-4f54-4595-9045-2e6b69636164,rev?*%
%TF.SameCoordinates,Original*%
%TF.FileFunction,Copper,L2,Bot*%
%TF.FilePolarity,Positive*%
%FSLAX46Y46*%
G04 Gerber Fmt 4.6, Leading zero omitted, Abs format (unit mm)*
G04 Created by KiCad (PCBNEW 8.0.8) date 2025-04-07 11:11:10*
%MOMM*%
%LPD*%
G01*
G04 APERTURE LIST*
G04 Aperture macros list*
%AMRoundRect*
0 Rectangle with rounded corners*
0 $1 Rounding radius*
0 $2 $3 $4 $5 $6 $7 $8 $9 X,Y pos of 4 corners*
0 Add a 4 corners polygon primitive as box body*
4,1,4,$2,$3,$4,$5,$6,$7,$8,$9,$2,$3,0*
0 Add four circle primitives for the rounded corners*
1,1,$1+$1,$2,$3*
1,1,$1+$1,$4,$5*
1,1,$1+$1,$6,$7*
1,1,$1+$1,$8,$9*
0 Add four rect primitives between the rounded corners*
20,1,$1+$1,$2,$3,$4,$5,0*
20,1,$1+$1,$4,$5,$6,$7,0*
20,1,$1+$1,$6,$7,$8,$9,0*
20,1,$1+$1,$8,$9,$2,$3,0*%
G04 Aperture macros list end*
%TA.AperFunction,ComponentPad*%
%ADD10C,1.600000*%
%TD*%
%TA.AperFunction,ComponentPad*%
%ADD11O,1.600000X1.600000*%
%TD*%
%TA.AperFunction,ComponentPad*%
%ADD12RoundRect,0.250000X1.050000X-1.050000X1.050000X1.050000X-1.050000X1.050000X-1.050000X-1.050000X0*%
%TD*%
%TA.AperFunction,ComponentPad*%
%ADD13C,2.600000*%
%TD*%
%TA.AperFunction,ComponentPad*%
%ADD14RoundRect,0.250000X1.050000X1.050000X-1.050000X1.050000X-1.050000X-1.050000X1.050000X-1.050000X0*%
%TD*%
%TA.AperFunction,ComponentPad*%
%ADD15R,2.000000X2.000000*%
%TD*%
%TA.AperFunction,ComponentPad*%
%ADD16C,2.000000*%
%TD*%
%TA.AperFunction,ComponentPad*%
%ADD17R,1.308000X1.308000*%
%TD*%
%TA.AperFunction,ComponentPad*%
%ADD18C,1.308000*%
%TD*%
%TA.AperFunction,ComponentPad*%
%ADD19R,2.250000X2.250000*%
%TD*%
%TA.AperFunction,ComponentPad*%
%ADD20C,2.250000*%
%TD*%
%TA.AperFunction,ComponentPad*%
%ADD21R,1.200000X1.200000*%
%TD*%
%TA.AperFunction,ComponentPad*%
%ADD22C,1.200000*%
%TD*%
%TA.AperFunction,ComponentPad*%
%ADD23RoundRect,0.250000X-1.050000X1.050000X-1.050000X-1.050000X1.050000X-1.050000X1.050000X1.050000X0*%
%TD*%
%TA.AperFunction,ComponentPad*%
%ADD24C,3.200000*%
%TD*%
%TA.AperFunction,ComponentPad*%
%ADD25C,1.500000*%
%TD*%
%TA.AperFunction,ComponentPad*%
%ADD26R,1.800000X1.800000*%
%TD*%
%TA.AperFunction,ComponentPad*%
%ADD27C,1.800000*%
%TD*%
%TA.AperFunction,ComponentPad*%
%ADD28R,1.560000X1.560000*%
%TD*%
%TA.AperFunction,ComponentPad*%
%ADD29C,1.560000*%
%TD*%
%TA.AperFunction,ComponentPad*%
%ADD30O,1.800000X1.800000*%
%TD*%
%TA.AperFunction,ViaPad*%
%ADD31C,1.800000*%
%TD*%
%TA.AperFunction,Conductor*%
%ADD32C,0.500000*%
%TD*%
G04 APERTURE END LIST*
D10*
%TO.P,R7,1*%
%TO.N,GNDREF*%
X73600000Y-45740000D03*
D11*
%TO.P,R7,2*%
%TO.N,Net-(U2-FB)*%
X73600000Y-53360000D03*
%TD*%
D12*
%TO.P,J3,1,Pin_1*%
%TO.N,Net-(EYESPI_18IN_BREAKOUT_BOARD1-SCK)*%
X53550000Y-108650000D03*
D13*
%TO.P,J3,2,Pin_2*%
%TO.N,Net-(EYESPI_18IN_BREAKOUT_BOARD1-SDCS)*%
X53550000Y-105150000D03*
%TD*%
D10*
%TO.P,R6,1*%
%TO.N,Net-(J8-Pin_2)*%
X106260000Y-110850000D03*
D11*
%TO.P,R6,2*%
%TO.N,Net-(U3-IO25)*%
X98640000Y-110850000D03*
%TD*%
D10*
%TO.P,R3,1*%
%TO.N,Net-(U2-~{ON}{slash}OFF)*%
X77400000Y-55490000D03*
D11*
%TO.P,R3,2*%
%TO.N,Net-(U3-IO32)*%
X77400000Y-63110000D03*
%TD*%
D14*
%TO.P,J14,1,Pin_1*%
%TO.N,GNDREF*%
X104575000Y-123882500D03*
D13*
%TO.P,J14,2,Pin_2*%
X101075000Y-123882500D03*
%TD*%
D12*
%TO.P,J4,1,Pin_1*%
%TO.N,Net-(J4-Pin_1)*%
X53550000Y-99650000D03*
D13*
%TO.P,J4,2,Pin_2*%
%TO.N,Net-(J4-Pin_2)*%
X53550000Y-96150000D03*
%TD*%
D15*
%TO.P,C1,1*%
%TO.N,+6V*%
X97500000Y-43500000D03*
D16*
%TO.P,C1,2*%
%TO.N,GNDREF*%
X97500000Y-48500000D03*
%TD*%
D10*
%TO.P,R2-1,1*%
%TO.N,Net-(U2-FB)*%
X80750000Y-55390000D03*
D11*
%TO.P,R2-1,2*%
%TO.N,Net-(R2-1-Pad2)*%
X80750000Y-63010000D03*
%TD*%
D12*
%TO.P,J5,1,Pin_1*%
%TO.N,Net-(EYESPI_18IN_BREAKOUT_BOARD1-RST)*%
X53550000Y-90600000D03*
D13*
%TO.P,J5,2,Pin_2*%
%TO.N,Net-(J5-Pin_2)*%
X53550000Y-87100000D03*
%TD*%
D14*
%TO.P,J7,1,Pin_1*%
%TO.N,Net-(J7-Pin_1)*%
X95550000Y-123857500D03*
D13*
%TO.P,J7,2,Pin_2*%
%TO.N,unconnected-(J7-Pin_2-Pad2)*%
X92050000Y-123857500D03*
%TD*%
D17*
%TO.P,U1,1,VCC*%
%TO.N,+6V*%
X96483000Y-97390000D03*
D18*
%TO.P,U1,2,RX*%
%TO.N,Net-(U1-RX)*%
X96483000Y-94850000D03*
%TO.P,U1,3,TX*%
%TO.N,Net-(U1-TX)*%
X96483000Y-92310000D03*
%TO.P,U1,4,DAC_R*%
%TO.N,unconnected-(U1-DAC_R-Pad4)*%
X96483000Y-89770000D03*
%TO.P,U1,5,DAC_L*%
%TO.N,unconnected-(U1-DAC_L-Pad5)*%
X96483000Y-87230000D03*
%TO.P,U1,6,SPK1*%
%TO.N,Net-(J15-Pin_2)*%
X96483000Y-84690000D03*
%TO.P,U1,7,GND*%
%TO.N,GNDREF*%
X96483000Y-82150000D03*
%TO.P,U1,8,SPK2*%
%TO.N,Net-(J15-Pin_1)*%
X96483000Y-79610000D03*
%TO.P,U1,9,IO1*%
%TO.N,unconnected-(U1-IO1-Pad9)*%
X114517000Y-79610000D03*
%TO.P,U1,10,GND__1*%
%TO.N,unconnected-(U1-GND__1-Pad10)*%
X114517000Y-82150000D03*
%TO.P,U1,11,IO2*%
%TO.N,unconnected-(U1-IO2-Pad11)*%
X114517000Y-84690000D03*
%TO.P,U1,12,ADKEY1*%
%TO.N,unconnected-(U1-ADKEY1-Pad12)*%
X114517000Y-87230000D03*
%TO.P,U1,13,ADKEY2*%
%TO.N,unconnected-(U1-ADKEY2-Pad13)*%
X114517000Y-89770000D03*
%TO.P,U1,14,USB+*%
%TO.N,unconnected-(U1-USB+-Pad14)*%
X114517000Y-92310000D03*
%TO.P,U1,15,USB-*%
%TO.N,unconnected-(U1-USB--Pad15)*%
X114517000Y-94850000D03*
%TO.P,U1,16,BUSY*%
%TO.N,unconnected-(U1-BUSY-Pad16)*%
X114517000Y-97390000D03*
%TD*%
D19*
%TO.P,D1,1,K*%
%TO.N,Net-(D1-K)*%
X69000000Y-63137500D03*
D20*
%TO.P,D1,2,A*%
%TO.N,GNDREF*%
X69000000Y-43237500D03*
%TD*%
D21*
%TO.P,C2,1*%
%TO.N,Net-(EYESPI_18IN_BREAKOUT_BOARD1-Vin)*%
X98000000Y-57250000D03*
D22*
%TO.P,C2,2*%
%TO.N,GNDREF*%
X98000000Y-53750000D03*
%TD*%
D23*
%TO.P,J16,1,Pin_1*%
%TO.N,+3.3V*%
X112782500Y-121100000D03*
D13*
%TO.P,J16,2,Pin_2*%
%TO.N,GNDREF*%
X112782500Y-124600000D03*
%TD*%
D24*
%TO.P,L1,1,1*%
%TO.N,Net-(EYESPI_18IN_BREAKOUT_BOARD1-Vin)*%
X95500000Y-64500000D03*
%TO.P,L1,2,2*%
%TO.N,Net-(D1-K)*%
X89500000Y-64500000D03*
%TD*%
D23*
%TO.P,J8,1,Pin_1*%
%TO.N,Net-(J8-Pin_1)*%
X112800000Y-112050000D03*
D13*
%TO.P,J8,2,Pin_2*%
%TO.N,Net-(J8-Pin_2)*%
X112800000Y-115550000D03*
%TD*%
D10*
%TO.P,R2,1*%
%TO.N,Net-(U3-IO35)*%
X73610000Y-68600000D03*
D11*
%TO.P,R2,2*%
%TO.N,GNDREF*%
X65990000Y-68600000D03*
%TD*%
D10*
%TO.P,R1,1*%
%TO.N,+6V*%
X88900000Y-46290000D03*
D11*
%TO.P,R1,2*%
%TO.N,Net-(U3-IO35)*%
X88900000Y-53910000D03*
%TD*%
D23*
%TO.P,J13,1,Pin_1*%
%TO.N,Net-(EYESPI_18IN_BREAKOUT_BOARD1-Vin)*%
X109175000Y-62375000D03*
D13*
%TO.P,J13,2,Pin_2*%
%TO.N,GNDREF*%
X109175000Y-65875000D03*
%TD*%
D25*
%TO.P,EYESPI_18IN_BREAKOUT_BOARD1,1,Vin*%
%TO.N,Net-(EYESPI_18IN_BREAKOUT_BOARD1-Vin)*%
X63500000Y-63920000D03*
%TO.P,EYESPI_18IN_BREAKOUT_BOARD1,2,Lite*%
%TO.N,Net-(EYESPI_18IN_BREAKOUT_BOARD1-Lite)*%
X63500000Y-61380000D03*
%TO.P,EYESPI_18IN_BREAKOUT_BOARD1,3,Gnd*%
%TO.N,GNDREF*%
X63500000Y-58840000D03*
%TO.P,EYESPI_18IN_BREAKOUT_BOARD1,4,SCK*%
%TO.N,Net-(EYESPI_18IN_BREAKOUT_BOARD1-SCK)*%
X63500000Y-56300000D03*
%TO.P,EYESPI_18IN_BREAKOUT_BOARD1,5,MOSI*%
%TO.N,Net-(EYESPI_18IN_BREAKOUT_BOARD1-MOSI)*%
X63500000Y-53760000D03*
%TO.P,EYESPI_18IN_BREAKOUT_BOARD1,6,MISO*%
%TO.N,Net-(EYESPI_18IN_BREAKOUT_BOARD1-MISO)*%
X63500000Y-51220000D03*
%TO.P,EYESPI_18IN_BREAKOUT_BOARD1,7,DC*%
%TO.N,Net-(EYESPI_18IN_BREAKOUT_BOARD1-DC)*%
X63500000Y-48680000D03*
%TO.P,EYESPI_18IN_BREAKOUT_BOARD1,8,RST*%
%TO.N,Net-(EYESPI_18IN_BREAKOUT_BOARD1-RST)*%
X63500000Y-46140000D03*
%TO.P,EYESPI_18IN_BREAKOUT_BOARD1,9,TCS*%
%TO.N,Net-(EYESPI_18IN_BREAKOUT_BOARD1-TCS)*%
X63500000Y-43600000D03*
%TO.P,EYESPI_18IN_BREAKOUT_BOARD1,10,SDCS*%
%TO.N,Net-(EYESPI_18IN_BREAKOUT_BOARD1-SDCS)*%
X50800000Y-43600000D03*
%TO.P,EYESPI_18IN_BREAKOUT_BOARD1,11,MEMCS*%
%TO.N,unconnected-(EYESPI_18IN_BREAKOUT_BOARD1-MEMCS-Pad11)*%
X50800000Y-46140000D03*
%TO.P,EYESPI_18IN_BREAKOUT_BOARD1,12,TSCS*%
%TO.N,unconnected-(EYESPI_18IN_BREAKOUT_BOARD1-TSCS-Pad12)*%
X50800000Y-48680000D03*
%TO.P,EYESPI_18IN_BREAKOUT_BOARD1,13,SCL*%
%TO.N,unconnected-(EYESPI_18IN_BREAKOUT_BOARD1-SCL-Pad13)*%
X50800000Y-51220000D03*
%TO.P,EYESPI_18IN_BREAKOUT_BOARD1,14,SDA*%
%TO.N,unconnected-(EYESPI_18IN_BREAKOUT_BOARD1-SDA-Pad14)*%
X50800000Y-53760000D03*
%TO.P,EYESPI_18IN_BREAKOUT_BOARD1,15,INT*%
%TO.N,unconnected-(EYESPI_18IN_BREAKOUT_BOARD1-INT-Pad15)*%
X50800000Y-56300000D03*
%TO.P,EYESPI_18IN_BREAKOUT_BOARD1,16,BUSY*%
%TO.N,unconnected-(EYESPI_18IN_BREAKOUT_BOARD1-BUSY-Pad16)*%
X50800000Y-58840000D03*
%TO.P,EYESPI_18IN_BREAKOUT_BOARD1,17,GP1*%
%TO.N,unconnected-(EYESPI_18IN_BREAKOUT_BOARD1-GP1-Pad17)*%
X50800000Y-61380000D03*
%TO.P,EYESPI_18IN_BREAKOUT_BOARD1,18,GP2*%
%TO.N,unconnected-(EYESPI_18IN_BREAKOUT_BOARD1-GP2-Pad18)*%
X50800000Y-63920000D03*
%TD*%
D26*
%TO.P,D2,1,K*%
%TO.N,unconnected-(D2-K-Pad1)*%
X143275000Y-103405000D03*
D27*
%TO.P,D2,2,A*%
%TO.N,unconnected-(D2-A-Pad2)*%
X143275000Y-105945000D03*
%TD*%
D28*
%TO.P,U3,J2-1,3V3*%
%TO.N,+3.3V*%
X87700000Y-120260000D03*
D29*
%TO.P,U3,J2-2,EN*%
%TO.N,unconnected-(U3-EN-PadJ2-2)*%
X87700000Y-117720000D03*
%TO.P,U3,J2-3,SENSOR_VP*%
%TO.N,unconnected-(U3-SENSOR_VP-PadJ2-3)*%
X87700000Y-115180000D03*
%TO.P,U3,J2-4,SENSOR_VN*%
%TO.N,unconnected-(U3-SENSOR_VN-PadJ2-4)*%
X87700000Y-112640000D03*
%TO.P,U3,J2-5,IO34*%
%TO.N,unconnected-(U3-IO34-PadJ2-5)*%
X87700000Y-110100000D03*
%TO.P,U3,J2-6,IO35*%
%TO.N,Net-(U3-IO35)*%
X87700000Y-107560000D03*
%TO.P,U3,J2-7,IO32*%
%TO.N,Net-(U3-IO32)*%
X87700000Y-105020000D03*
%TO.P,U3,J2-8,IO33*%
%TO.N,Net-(J7-Pin_1)*%
X87700000Y-102480000D03*
%TO.P,U3,J2-9,IO25*%
%TO.N,Net-(U3-IO25)*%
X87700000Y-99940000D03*
%TO.P,U3,J2-10,IO26*%
%TO.N,Net-(U1-TX)*%
X87700000Y-97400000D03*
%TO.P,U3,J2-11,IO27*%
%TO.N,Net-(U1-RX)*%
X87700000Y-94860000D03*
%TO.P,U3,J2-12,IO14*%
%TO.N,Net-(J8-Pin_1)*%
X87700000Y-92320000D03*
%TO.P,U3,J2-13,IO12*%
%TO.N,Net-(J10-Pin_2)*%
X87700000Y-89780000D03*
%TO.P,U3,J2-14,GND1*%
%TO.N,GNDREF*%
X87700000Y-87240000D03*
%TO.P,U3,J2-15,IO13*%
%TO.N,Net-(EYESPI_18IN_BREAKOUT_BOARD1-Lite)*%
X87700000Y-84700000D03*
%TO.P,U3,J2-16,SD2*%
%TO.N,unconnected-(U3-SD2-PadJ2-16)*%
X87700000Y-82160000D03*
%TO.P,U3,J2-17,SD3*%
%TO.N,unconnected-(U3-SD3-PadJ2-17)*%
X87700000Y-79620000D03*
%TO.P,U3,J2-18,CMD*%
%TO.N,unconnected-(U3-CMD-PadJ2-18)*%
X87700000Y-77080000D03*
%TO.P,U3,J2-19,EXT_5V*%
%TO.N,+6V*%
X87700000Y-74540000D03*
%TO.P,U3,J3-1,GND3*%
%TO.N,GNDREF*%
X62300000Y-120260000D03*
%TO.P,U3,J3-2,IO23*%
%TO.N,Net-(EYESPI_18IN_BREAKOUT_BOARD1-MOSI)*%
X62300000Y-117720000D03*
%TO.P,U3,J3-3,IO22*%
%TO.N,Net-(J1-Pin_2)*%
X62300000Y-115180000D03*
%TO.P,U3,J3-4,TXD0*%
%TO.N,unconnected-(U3-TXD0-PadJ3-4)*%
X62300000Y-112640000D03*
%TO.P,U3,J3-5,RXD0*%
%TO.N,unconnected-(U3-RXD0-PadJ3-5)*%
X62300000Y-110100000D03*
%TO.P,U3,J3-6,IO21*%
%TO.N,Net-(J2-Pin_1)*%
X62300000Y-107560000D03*
%TO.P,U3,J3-7,GND2*%
%TO.N,GNDREF*%
X62300000Y-105020000D03*
%TO.P,U3,J3-8,IO19*%
%TO.N,Net-(EYESPI_18IN_BREAKOUT_BOARD1-MISO)*%
X62300000Y-102480000D03*
%TO.P,U3,J3-9,IO18*%
%TO.N,Net-(EYESPI_18IN_BREAKOUT_BOARD1-SCK)*%
X62300000Y-99940000D03*
%TO.P,U3,J3-10,IO5*%
%TO.N,Net-(EYESPI_18IN_BREAKOUT_BOARD1-SDCS)*%
X62300000Y-97400000D03*
%TO.P,U3,J3-11,IO17*%
%TO.N,Net-(J4-Pin_1)*%
X62300000Y-94860000D03*
%TO.P,U3,J3-12,IO16*%
%TO.N,Net-(J4-Pin_2)*%
X62300000Y-92320000D03*
%TO.P,U3,J3-13,IO4*%
%TO.N,Net-(EYESPI_18IN_BREAKOUT_BOARD1-RST)*%
X62300000Y-89780000D03*
%TO.P,U3,J3-14,IO0*%
%TO.N,Net-(J5-Pin_2)*%
X62300000Y-87240000D03*
%TO.P,U3,J3-15,IO2*%
%TO.N,Net-(EYESPI_18IN_BREAKOUT_BOARD1-DC)*%
X62300000Y-84700000D03*
%TO.P,U3,J3-16,IO15*%
%TO.N,Net-(EYESPI_18IN_BREAKOUT_BOARD1-TCS)*%
X62300000Y-82160000D03*
%TO.P,U3,J3-17,SD1*%
%TO.N,unconnected-(U3-SD1-PadJ3-17)*%
X62300000Y-79620000D03*
%TO.P,U3,J3-18,SD0*%
%TO.N,unconnected-(U3-SD0-PadJ3-18)*%
X62300000Y-77080000D03*
%TO.P,U3,J3-19,CLK*%
%TO.N,unconnected-(U3-CLK-PadJ3-19)*%
X62300000Y-74540000D03*
%TD*%
D23*
%TO.P,J10,1,Pin_1*%
%TO.N,Net-(EYESPI_18IN_BREAKOUT_BOARD1-Lite)*%
X112800000Y-103000000D03*
D13*
%TO.P,J10,2,Pin_2*%
%TO.N,Net-(J10-Pin_2)*%
X112800000Y-106500000D03*
%TD*%
D10*
%TO.P,R2-2,1*%
%TO.N,Net-(R2-1-Pad2)*%
X77200000Y-67550000D03*
D11*
%TO.P,R2-2,2*%
%TO.N,Net-(EYESPI_18IN_BREAKOUT_BOARD1-Vin)*%
X84820000Y-67550000D03*
%TD*%
D23*
%TO.P,J12,1,Pin_1*%
%TO.N,Net-(EYESPI_18IN_BREAKOUT_BOARD1-Vin)*%
X108965000Y-52900000D03*
D13*
%TO.P,J12,2,Pin_2*%
X108965000Y-56400000D03*
%TD*%
D12*
%TO.P,J6,1,Pin_1*%
%TO.N,Net-(EYESPI_18IN_BREAKOUT_BOARD1-DC)*%
X53550000Y-81600000D03*
D13*
%TO.P,J6,2,Pin_2*%
%TO.N,Net-(EYESPI_18IN_BREAKOUT_BOARD1-TCS)*%
X53550000Y-78100000D03*
%TD*%
D23*
%TO.P,J15,1,Pin_1*%
%TO.N,Net-(J15-Pin_1)*%
X109000000Y-71500000D03*
D13*
%TO.P,J15,2,Pin_2*%
%TO.N,Net-(J15-Pin_2)*%
X109000000Y-75000000D03*
%TD*%
D26*
%TO.P,U2,1,VIN*%
%TO.N,+6V*%
X84100000Y-45800000D03*
D30*
%TO.P,U2,2,OUT*%
%TO.N,Net-(D1-K)*%
X82400000Y-49500000D03*
%TO.P,U2,3,GND*%
%TO.N,GNDREF*%
X80700000Y-45800000D03*
%TO.P,U2,4,FB*%
%TO.N,Net-(U2-FB)*%
X79000000Y-49500000D03*
%TO.P,U2,5,~{ON}/OFF*%
%TO.N,Net-(U2-~{ON}{slash}OFF)*%
X77300000Y-45800000D03*
%TD*%
D12*
%TO.P,J1,1,Pin_1*%
%TO.N,Net-(EYESPI_18IN_BREAKOUT_BOARD1-MOSI)*%
X53550000Y-126700000D03*
D13*
%TO.P,J1,2,Pin_2*%
%TO.N,Net-(J1-Pin_2)*%
X53550000Y-123200000D03*
%TD*%
D23*
%TO.P,J11,1,Pin_1*%
%TO.N,+6V*%
X108965000Y-42850000D03*
D13*
%TO.P,J11,2,Pin_2*%
%TO.N,GNDREF*%
X108965000Y-46350000D03*
%TD*%
D12*
%TO.P,J2,1,Pin_1*%
%TO.N,Net-(J2-Pin_1)*%
X53550000Y-117700000D03*
D13*
%TO.P,J2,2,Pin_2*%
%TO.N,Net-(EYESPI_18IN_BREAKOUT_BOARD1-MISO)*%
X53550000Y-114200000D03*
%TD*%
D31*
%TO.N,GNDREF*%
X85000000Y-87000000D03*
X72700000Y-87000000D03*
X65900000Y-87050000D03*
%TO.N,unconnected-(D2-K-Pad1)*%
X139525000Y-102975000D03*
%TO.N,Net-(EYESPI_18IN_BREAKOUT_BOARD1-Lite)*%
X85150000Y-84550000D03*
X72750000Y-84300000D03*
%TO.N,unconnected-(D2-A-Pad2)*%
X139525000Y-105925000D03*
%TD*%
D32*
%TO.N,GNDREF*%
X62980000Y-105020000D02*
X62300000Y-105020000D01*
X85000000Y-87000000D02*
X87460000Y-87000000D01*
%TO.N,Net-(EYESPI_18IN_BREAKOUT_BOARD1-Vin)*%
X95500000Y-66000000D02*
X95500000Y-64500000D01*
X84210000Y-67400000D02*
X85310000Y-68500000D01*
X95500000Y-64500000D02*
X95500000Y-62000000D01*
X93000000Y-68500000D02*
X95500000Y-66000000D01*
X95500000Y-62000000D02*
X98000000Y-59500000D01*
X108965000Y-52900000D02*
X108965000Y-62165000D01*
X98000000Y-59500000D02*
X98000000Y-57250000D01*
X108115000Y-57250000D02*
X108965000Y-56400000D01*
X98000000Y-57250000D02*
X108115000Y-57250000D01*
X85310000Y-68500000D02*
X93000000Y-68500000D01*
%TO.N,Net-(D1-K)*%
X74750000Y-57450000D02*
X81400000Y-57450000D01*
X83000000Y-50100000D02*
X82400000Y-49500000D01*
X69150000Y-63287500D02*
X69000000Y-63137500D01*
X82650000Y-49800000D02*
X82400000Y-49550000D01*
X85050000Y-50100000D02*
X83000000Y-50100000D01*
X69000000Y-63137500D02*
X69062500Y-63137500D01*
X81400000Y-57450000D02*
X82650000Y-56200000D01*
X91650000Y-50900000D02*
X85850000Y-50900000D01*
X93350000Y-60650000D02*
X93350000Y-52600000D01*
X82650000Y-56200000D02*
X82650000Y-49800000D01*
X93350000Y-52600000D02*
X91650000Y-50900000D01*
X85850000Y-50900000D02*
X85050000Y-50100000D01*
X69062500Y-63137500D02*
X74750000Y-57450000D01*
X89500000Y-64500000D02*
X93350000Y-60650000D01*
%TO.N,Net-(EYESPI_18IN_BREAKOUT_BOARD1-MOSI)*%
X53550000Y-126700000D02*
X53600000Y-126750000D01*
X53600000Y-126750000D02*
X57900000Y-126750000D01*
X68700000Y-111320000D02*
X62300000Y-117720000D01*
X59600000Y-120420000D02*
X62300000Y-117720000D01*
X68700000Y-75947825D02*
X68700000Y-111320000D01*
X58250000Y-69121572D02*
X59364213Y-70235785D01*
X59364213Y-70235785D02*
X62987960Y-70235785D01*
X58250000Y-54664214D02*
X58250000Y-69121572D01*
X59154214Y-53760000D02*
X58250000Y-54664214D01*
X59600000Y-125050000D02*
X59600000Y-120420000D01*
X63500000Y-53760000D02*
X59154214Y-53760000D01*
X57900000Y-126750000D02*
X59600000Y-125050000D01*
X62987960Y-70235785D02*
X68700000Y-75947825D01*
%TO.N,Net-(J1-Pin_2)*%
X56950000Y-123250000D02*
X58600000Y-121600000D01*
X53600000Y-123250000D02*
X56950000Y-123250000D01*
X53550000Y-123200000D02*
X53600000Y-123250000D01*
X58599999Y-120005787D02*
X60550000Y-118055786D01*
X58599999Y-120834213D02*
X58599999Y-120005787D01*
X60550000Y-116150000D02*
X61520000Y-115180000D01*
X61520000Y-115180000D02*
X62300000Y-115180000D01*
X60550000Y-118055786D02*
X60550000Y-116150000D01*
X58600000Y-121600000D02*
X58599999Y-120834213D01*
%TO.N,Net-(J2-Pin_1)*%
X60100000Y-115185786D02*
X60100000Y-109760000D01*
X59549999Y-115735787D02*
X60100000Y-115185786D01*
X58350000Y-117700000D02*
X59549999Y-116500001D01*
X53550000Y-117700000D02*
X58350000Y-117700000D01*
X60100000Y-109760000D02*
X62300000Y-107560000D01*
X59549999Y-116500001D02*
X59549999Y-115735787D01*
%TO.N,Net-(EYESPI_18IN_BREAKOUT_BOARD1-SDCS)*%
X59450000Y-102501572D02*
X59450000Y-101375786D01*
X53600000Y-105200000D02*
X57450000Y-105200000D01*
X53250000Y-46050000D02*
X53250000Y-73585786D01*
X58349998Y-103601574D02*
X59450000Y-102501572D01*
X53550000Y-105150000D02*
X53600000Y-105200000D01*
X57450000Y-105200000D02*
X58349998Y-104300002D01*
X50049999Y-101649999D02*
X53550000Y-105150000D01*
X50049999Y-76785787D02*
X50049999Y-101649999D01*
X59450000Y-101375786D02*
X60300000Y-100525786D01*
X61750000Y-97400000D02*
X62300000Y-97400000D01*
X53250000Y-73585786D02*
X50049999Y-76785787D01*
X50800000Y-43600000D02*
X53250000Y-46050000D01*
X60300000Y-98850000D02*
X61750000Y-97400000D01*
X60300000Y-100525786D02*
X60300000Y-98850000D01*
X58349998Y-104300002D02*
X58349998Y-103601574D01*
%TO.N,Net-(EYESPI_18IN_BREAKOUT_BOARD1-SCK)*%
X52250000Y-68125000D02*
X52250000Y-73171572D01*
X60450000Y-101790000D02*
X62300000Y-99940000D01*
X49049998Y-104149998D02*
X53550000Y-108650000D01*
X53550000Y-108650000D02*
X53600000Y-108700000D01*
X63500000Y-56300000D02*
X65450000Y-54350000D01*
X48800000Y-43000000D02*
X48800000Y-64675000D01*
X64900000Y-40850000D02*
X50950000Y-40850000D01*
X66450000Y-42400000D02*
X64900000Y-40850000D01*
X52250000Y-73171572D02*
X49049998Y-76371574D01*
X65450000Y-47600000D02*
X66450000Y-46600000D01*
X65450000Y-54350000D02*
X65450000Y-47600000D01*
X59349999Y-105000001D02*
X59349999Y-104015787D01*
X53600000Y-108700000D02*
X55650000Y-108700000D01*
X48800000Y-64675000D02*
X52250000Y-68125000D01*
X49049998Y-76371574D02*
X49049998Y-104149998D01*
X59349999Y-104015787D02*
X60450000Y-102915786D01*
X66450000Y-46600000D02*
X66450000Y-42400000D01*
X55650000Y-108700000D02*
X59349999Y-105000001D01*
X60450000Y-102915786D02*
X60450000Y-101790000D01*
X50950000Y-40850000D02*
X48800000Y-43000000D01*
%TO.N,Net-(J4-Pin_1)*%
X61590000Y-94860000D02*
X62300000Y-94860000D01*
X58050000Y-99650000D02*
X60450000Y-97250000D01*
X60450000Y-97250000D02*
X60450000Y-96000000D01*
X53550000Y-99650000D02*
X58050000Y-99650000D01*
X60450000Y-96000000D02*
X61590000Y-94860000D01*
%TO.N,Net-(J4-Pin_2)*%
X58090000Y-96150000D02*
X61920000Y-92320000D01*
X61920000Y-92320000D02*
X62300000Y-92320000D01*
X53550000Y-96150000D02*
X58090000Y-96150000D01*
%TO.N,Net-(J5-Pin_2)*%
X61760000Y-87240000D02*
X62300000Y-87240000D01*
X53690000Y-87240000D02*
X62300000Y-87240000D01*
X53550000Y-87100000D02*
X53690000Y-87240000D01*
%TO.N,Net-(EYESPI_18IN_BREAKOUT_BOARD1-RST)*%
X63500000Y-46140000D02*
X63510000Y-46140000D01*
X51050000Y-77200000D02*
X51050000Y-88100000D01*
X63510000Y-46140000D02*
X65450000Y-44200000D01*
X51050000Y-88100000D02*
X53550000Y-90600000D01*
X65450000Y-44200000D02*
X65450000Y-42814214D01*
X65450000Y-42814214D02*
X64485786Y-41850000D01*
X62300000Y-89780000D02*
X61530000Y-90550000D01*
X54250000Y-74000000D02*
X51050000Y-77200000D01*
X64485786Y-41850000D02*
X62700000Y-41850000D01*
X61530000Y-90550000D02*
X53600000Y-90550000D01*
X61000000Y-44685786D02*
X54250000Y-51435786D01*
X61000000Y-43550000D02*
X61000000Y-44685786D01*
X54250000Y-51435786D02*
X54250000Y-74000000D01*
X53600000Y-90550000D02*
X53550000Y-90600000D01*
X62700000Y-41850000D02*
X61000000Y-43550000D01*
%TO.N,Net-(EYESPI_18IN_BREAKOUT_BOARD1-TCS)*%
X53600000Y-78150000D02*
X56000000Y-78150000D01*
X56000000Y-78150000D02*
X60010000Y-82160000D01*
X60010000Y-82160000D02*
X62300000Y-82160000D01*
X53550000Y-78100000D02*
X53600000Y-78150000D01*
X55250000Y-51850000D02*
X55250000Y-76400000D01*
X63500000Y-43600000D02*
X55250000Y-51850000D01*
X55250000Y-76400000D02*
X53550000Y-78100000D01*
%TO.N,Net-(J8-Pin_1)*%
X90000000Y-94620000D02*
X87700000Y-92320000D01*
X95450000Y-105250000D02*
X90000000Y-99800000D01*
X107450000Y-105250000D02*
X95450000Y-105250000D01*
X112800000Y-110600000D02*
X107450000Y-105250000D01*
X112800000Y-112050000D02*
X112800000Y-110600000D01*
X90000000Y-99800000D02*
X90000000Y-94620000D01*
%TO.N,Net-(J8-Pin_2)*%
X107050000Y-110850000D02*
X106260000Y-110850000D01*
X112800000Y-115550000D02*
X111750000Y-115550000D01*
X111750000Y-115550000D02*
X107050000Y-110850000D01*
%TO.N,Net-(EYESPI_18IN_BREAKOUT_BOARD1-DC)*%
X62273747Y-72350000D02*
X63850000Y-73926253D01*
X63500000Y-48680000D02*
X59834214Y-48680000D01*
X58650000Y-72350000D02*
X62273747Y-72350000D01*
X59834214Y-48680000D02*
X56250000Y-52264214D01*
X53550000Y-81600000D02*
X53600000Y-81650000D01*
X56250000Y-52264214D02*
X56250000Y-69950000D01*
X61050000Y-84700000D02*
X62300000Y-84700000D01*
X56250000Y-69950000D02*
X58650000Y-72350000D01*
X53600000Y-81650000D02*
X58000000Y-81650000D01*
X63850000Y-73926253D02*
X63850000Y-83150000D01*
X63850000Y-83150000D02*
X62300000Y-84700000D01*
X58000000Y-81650000D02*
X61050000Y-84700000D01*
%TO.N,Net-(EYESPI_18IN_BREAKOUT_BOARD1-Lite)*%
X89750000Y-90415786D02*
X89750000Y-86250000D01*
X87550000Y-84550000D02*
X87700000Y-84700000D01*
X59250000Y-68707358D02*
X59250000Y-63275000D01*
X96228428Y-103200000D02*
X92000000Y-98971572D01*
X61145000Y-61380000D02*
X63500000Y-61380000D01*
X91150000Y-92941572D02*
X91150000Y-91815786D01*
X89750000Y-86250000D02*
X88200000Y-84700000D01*
X85150000Y-84550000D02*
X87550000Y-84550000D01*
X63402174Y-69235785D02*
X59778427Y-69235785D01*
X59250000Y-63275000D02*
X61145000Y-61380000D01*
X59778427Y-69235785D02*
X59250000Y-68707358D01*
X92000000Y-93791572D02*
X91150000Y-92941572D01*
X72750000Y-84300000D02*
X72750000Y-78583611D01*
X72750000Y-78583611D02*
X63402174Y-69235785D01*
X92000000Y-98971572D02*
X92000000Y-93791572D01*
X112600000Y-103200000D02*
X96228428Y-103200000D01*
X112800000Y-103000000D02*
X112600000Y-103200000D01*
X91150000Y-91815786D02*
X89750000Y-90415786D01*
%TO.N,Net-(J15-Pin_2)*%
X99310000Y-84690000D02*
X96483000Y-84690000D01*
X109000000Y-75000000D02*
X99310000Y-84690000D01*
%TO.N,Net-(J15-Pin_1)*%
X100890000Y-79610000D02*
X96483000Y-79610000D01*
X109000000Y-71500000D02*
X100890000Y-79610000D01*
%TO.N,+3.3V*%
X87840000Y-120400000D02*
X87700000Y-120260000D01*
%TO.N,Net-(U3-IO35)*%
X76150000Y-61200000D02*
X84700000Y-61200000D01*
X73900000Y-63450000D02*
X76150000Y-61200000D01*
X84700000Y-61200000D02*
X88900000Y-57000000D01*
X73900000Y-69740000D02*
X73900000Y-63450000D01*
X87700000Y-107560000D02*
X78100000Y-97960000D01*
X75700000Y-70700000D02*
X74860000Y-70700000D01*
X74860000Y-70700000D02*
X73900000Y-69740000D01*
X78100000Y-73100000D02*
X75700000Y-70700000D01*
X88900000Y-57000000D02*
X88900000Y-53910000D01*
X78100000Y-97960000D02*
X78100000Y-73100000D01*
%TO.N,Net-(U2-FB)*%
X80750000Y-51250000D02*
X79000000Y-49500000D01*
X73600000Y-53360000D02*
X73990000Y-53360000D01*
X80750000Y-55390000D02*
X80750000Y-51250000D01*
X77850000Y-49500000D02*
X79000000Y-49500000D01*
X73990000Y-53360000D02*
X77850000Y-49500000D01*
%TO.N,Net-(R2-1-Pad2)*%
X77200000Y-66560000D02*
X80750000Y-63010000D01*
X76740000Y-67550000D02*
X77200000Y-67550000D01*
X77200000Y-67550000D02*
X77200000Y-66560000D01*
%TO.N,Net-(U2-~{ON}{slash}OFF)*%
X71850000Y-54250000D02*
X71850000Y-51250000D01*
X71850000Y-51250000D02*
X77300000Y-45800000D01*
X73090000Y-55490000D02*
X71850000Y-54250000D01*
X77400000Y-55490000D02*
X73090000Y-55490000D01*
%TO.N,Net-(U3-IO32)*%
X75350000Y-68850000D02*
X79100000Y-72600000D01*
X75350000Y-65500000D02*
X75350000Y-68850000D01*
X77400000Y-63110000D02*
X77400000Y-63450000D01*
X77400000Y-63450000D02*
X75350000Y-65500000D01*
X79100000Y-72600000D02*
X79100000Y-96300000D01*
X79100000Y-96300000D02*
X87700000Y-104900000D01*
%TO.N,Net-(U3-IO25)*%
X98640000Y-110850000D02*
X98640000Y-109890000D01*
X88690000Y-99940000D02*
X87700000Y-99940000D01*
X98640000Y-109890000D02*
X88690000Y-99940000D01*
%TO.N,Net-(U1-TX)*%
X91200000Y-69900000D02*
X92992894Y-71692894D01*
X92992894Y-71692894D02*
X92992894Y-82557106D01*
X96483000Y-92133000D02*
X96483000Y-92310000D01*
X80300000Y-92900000D02*
X80300000Y-73300000D01*
X87700000Y-97400000D02*
X84800000Y-97400000D01*
X92950000Y-82600000D02*
X94600000Y-84250000D01*
X96483000Y-92118786D02*
X96483000Y-92310000D01*
X80300000Y-73300000D02*
X83700000Y-69900000D01*
X94600000Y-84250000D02*
X94600000Y-90235786D01*
X84800000Y-97400000D02*
X80300000Y-92900000D01*
X92992894Y-82557106D02*
X92950000Y-82600000D01*
X83700000Y-69900000D02*
X91200000Y-69900000D01*
X94600000Y-90235786D02*
X96483000Y-92118786D01*
%TO.N,Net-(U1-RX)*%
X84114214Y-70900000D02*
X81400000Y-73614214D01*
X94750000Y-93050000D02*
X94750000Y-91800000D01*
X93600000Y-90650000D02*
X93600000Y-84700000D01*
X81400000Y-92500000D02*
X83760000Y-94860000D01*
X91992893Y-72107107D02*
X90785786Y-70900000D01*
X94750000Y-91800000D02*
X93600000Y-90650000D01*
X90785786Y-70900000D02*
X84114214Y-70900000D01*
X91950000Y-72150000D02*
X91992893Y-72107107D01*
X93600000Y-84700000D02*
X91950000Y-83050000D01*
X81400000Y-73614214D02*
X81400000Y-92500000D01*
X96414000Y-94714000D02*
X94750000Y-93050000D01*
X83760000Y-94860000D02*
X87700000Y-94860000D01*
X91950000Y-83050000D02*
X91950000Y-72150000D01*
%TO.N,Net-(J10-Pin_2)*%
X90150000Y-93355786D02*
X90150000Y-92230000D01*
X95864214Y-104250000D02*
X91000000Y-99385786D01*
X91000000Y-99385786D02*
X91000000Y-94205786D01*
X109800000Y-104250000D02*
X95864214Y-104250000D01*
X90150000Y-92230000D02*
X87700000Y-89780000D01*
X112050000Y-106500000D02*
X109800000Y-104250000D01*
X91000000Y-94205786D02*
X90150000Y-93355786D01*
X112800000Y-106500000D02*
X112050000Y-106500000D01*
%TO.N,Net-(J7-Pin_1)*%
X95550000Y-110330000D02*
X95550000Y-123857500D01*
X87700000Y-102480000D02*
X95550000Y-110330000D01*
%TO.N,Net-(EYESPI_18IN_BREAKOUT_BOARD1-MISO)*%
X64250000Y-100530000D02*
X62300000Y-102480000D01*
X54550000Y-114200000D02*
X56050000Y-112700000D01*
X58628428Y-51300000D02*
X57250000Y-52678428D01*
X64900000Y-73562039D02*
X64900000Y-83514214D01*
X63420000Y-51300000D02*
X58628428Y-51300000D01*
X53550000Y-114200000D02*
X54550000Y-114200000D01*
X57250000Y-69535786D02*
X58949999Y-71235785D01*
X56050000Y-112700000D02*
X56050000Y-110150000D01*
X60350000Y-104430000D02*
X62300000Y-102480000D01*
X57250000Y-52678428D02*
X57250000Y-69535786D01*
X62573746Y-71235785D02*
X64900000Y-73562039D01*
X63500000Y-51220000D02*
X63420000Y-51300000D01*
X56050000Y-110150000D02*
X60350000Y-105850000D01*
X64900000Y-83514214D02*
X64250000Y-84164214D01*
X64250000Y-84164214D02*
X64250000Y-100530000D01*
X60350000Y-105850000D02*
X60350000Y-104430000D01*
X58949999Y-71235785D02*
X62573746Y-71235785D01*
%TD*%
%TA.AperFunction,Conductor*%
%TO.N,Net-(EYESPI_18IN_BREAKOUT_BOARD1-Vin)*%
G36*
X109976418Y-50547766D02*
G01*
X110043089Y-50568659D01*
X110087883Y-50622281D01*
X110098162Y-50673590D01*
X110093637Y-50977844D01*
X110072958Y-51044583D01*
X110019479Y-51089548D01*
X109969651Y-51100000D01*
X109215000Y-51100000D01*
X109215000Y-52299998D01*
X109154598Y-52274979D01*
X109029019Y-52250000D01*
X108900981Y-52250000D01*
X108775402Y-52274979D01*
X108715000Y-52299998D01*
X108715000Y-51100000D01*
X107865028Y-51100000D01*
X107865012Y-51100001D01*
X107762302Y-51110494D01*
X107595880Y-51165641D01*
X107595875Y-51165643D01*
X107446654Y-51257684D01*
X107322684Y-51381654D01*
X107230643Y-51530875D01*
X107230641Y-51530880D01*
X107175494Y-51697302D01*
X107175493Y-51697309D01*
X107165000Y-51800013D01*
X107165000Y-52650000D01*
X108364999Y-52650000D01*
X108339979Y-52710402D01*
X108315000Y-52835981D01*
X108315000Y-52964019D01*
X108339979Y-53089598D01*
X108364999Y-53150000D01*
X107165001Y-53150000D01*
X107165001Y-53999986D01*
X107175494Y-54102697D01*
X107230641Y-54269119D01*
X107230643Y-54269124D01*
X107322684Y-54418345D01*
X107446654Y-54542315D01*
X107595875Y-54634356D01*
X107595880Y-54634358D01*
X107762302Y-54689505D01*
X107762309Y-54689506D01*
X107865003Y-54699998D01*
X107867440Y-54700122D01*
X107867946Y-54700298D01*
X107868162Y-54700321D01*
X107868156Y-54700372D01*
X107933395Y-54723181D01*
X107976414Y-54778237D01*
X107982838Y-54847811D01*
X107950628Y-54909813D01*
X107931005Y-54926416D01*
X107879848Y-54961294D01*
X108717512Y-55798958D01*
X108657110Y-55823978D01*
X108550649Y-55895112D01*
X108460112Y-55985649D01*
X108388978Y-56092110D01*
X108363958Y-56152512D01*
X107527294Y-55315848D01*
X107473602Y-55383177D01*
X107338709Y-55616818D01*
X107240148Y-55867947D01*
X107240142Y-55867966D01*
X107180113Y-56130971D01*
X107180113Y-56130973D01*
X107159953Y-56399995D01*
X107159953Y-56400004D01*
X107180113Y-56669026D01*
X107180113Y-56669028D01*
X107240142Y-56932033D01*
X107240148Y-56932052D01*
X107338709Y-57183181D01*
X107338708Y-57183181D01*
X107473600Y-57416818D01*
X107527294Y-57484150D01*
X107527295Y-57484150D01*
X108363958Y-56647487D01*
X108388978Y-56707890D01*
X108460112Y-56814351D01*
X108550649Y-56904888D01*
X108657110Y-56976022D01*
X108717510Y-57001041D01*
X107879848Y-57838703D01*
X108062476Y-57963216D01*
X108062485Y-57963221D01*
X108305539Y-58080269D01*
X108305537Y-58080269D01*
X108563337Y-58159790D01*
X108563343Y-58159792D01*
X108830101Y-58199999D01*
X108830110Y-58200000D01*
X109099890Y-58200000D01*
X109099898Y-58199999D01*
X109366656Y-58159792D01*
X109366662Y-58159790D01*
X109624458Y-58080270D01*
X109809876Y-57990978D01*
X109878818Y-57979626D01*
X109942952Y-58007348D01*
X109981918Y-58065344D01*
X109987664Y-58104542D01*
X109952745Y-60452844D01*
X109932066Y-60519583D01*
X109878588Y-60564548D01*
X109828759Y-60575000D01*
X109425000Y-60575000D01*
X109425000Y-61774998D01*
X109364598Y-61749979D01*
X109239019Y-61725000D01*
X109110981Y-61725000D01*
X108985402Y-61749979D01*
X108925000Y-61774998D01*
X108925000Y-60575000D01*
X108075028Y-60575000D01*
X108075012Y-60575001D01*
X107972302Y-60585494D01*
X107805880Y-60640641D01*
X107805875Y-60640643D01*
X107656654Y-60732684D01*
X107532684Y-60856654D01*
X107440643Y-61005875D01*
X107440641Y-61005880D01*
X107385494Y-61172302D01*
X107385493Y-61172309D01*
X107375000Y-61275013D01*
X107375000Y-62125000D01*
X108574999Y-62125000D01*
X108549979Y-62185402D01*
X108525000Y-62310981D01*
X108525000Y-62439019D01*
X108549979Y-62564598D01*
X108574999Y-62625000D01*
X107375001Y-62625000D01*
X107375001Y-63474986D01*
X107385494Y-63577697D01*
X107440641Y-63744119D01*
X107440643Y-63744124D01*
X107532684Y-63893345D01*
X107656654Y-64017315D01*
X107805875Y-64109356D01*
X107805880Y-64109358D01*
X107972302Y-64164505D01*
X107972309Y-64164506D01*
X108075005Y-64174998D01*
X108076612Y-64175080D01*
X108076946Y-64175196D01*
X108078162Y-64175321D01*
X108078132Y-64175611D01*
X108142568Y-64198136D01*
X108185588Y-64253191D01*
X108192015Y-64322764D01*
X108159807Y-64384768D01*
X108140182Y-64401374D01*
X108049256Y-64463367D01*
X107957468Y-64548533D01*
X107907606Y-64576744D01*
X92819449Y-68944369D01*
X92779769Y-68949150D01*
X85844515Y-68658015D01*
X85778360Y-68635536D01*
X85734860Y-68580859D01*
X85727826Y-68511345D01*
X85759491Y-68449062D01*
X85762035Y-68446443D01*
X85819657Y-68388820D01*
X85950134Y-68202482D01*
X86046265Y-67996326D01*
X86046269Y-67996317D01*
X86098872Y-67800000D01*
X85135686Y-67800000D01*
X85140080Y-67795606D01*
X85192741Y-67704394D01*
X85220000Y-67602661D01*
X85220000Y-67497339D01*
X85192741Y-67395606D01*
X85140080Y-67304394D01*
X85135686Y-67300000D01*
X86098872Y-67300000D01*
X86098872Y-67299999D01*
X86046269Y-67103682D01*
X86046265Y-67103673D01*
X85950134Y-66897517D01*
X85819657Y-66711179D01*
X85658820Y-66550342D01*
X85472482Y-66419865D01*
X85266328Y-66323734D01*
X85070000Y-66271127D01*
X85070000Y-67234314D01*
X85065606Y-67229920D01*
X84974394Y-67177259D01*
X84872661Y-67150000D01*
X84767339Y-67150000D01*
X84665606Y-67177259D01*
X84574394Y-67229920D01*
X84570000Y-67234314D01*
X84570000Y-66271127D01*
X84373671Y-66323734D01*
X84167517Y-66419865D01*
X83981179Y-66550342D01*
X83820342Y-66711179D01*
X83689865Y-66897517D01*
X83593734Y-67103673D01*
X83593730Y-67103682D01*
X83541127Y-67299999D01*
X83541128Y-67300000D01*
X84504314Y-67300000D01*
X84499920Y-67304394D01*
X84447259Y-67395606D01*
X84420000Y-67497339D01*
X84420000Y-67602661D01*
X84447259Y-67704394D01*
X84499920Y-67795606D01*
X84504314Y-67800000D01*
X83541128Y-67800000D01*
X83593730Y-67996317D01*
X83593734Y-67996326D01*
X83689865Y-68202482D01*
X83809322Y-68373082D01*
X83831649Y-68439288D01*
X83814639Y-68507056D01*
X83763691Y-68554869D01*
X83702546Y-68568097D01*
X78452359Y-68347699D01*
X78386204Y-68325220D01*
X78342704Y-68270543D01*
X78335670Y-68201029D01*
X78345178Y-68171403D01*
X78382848Y-68090619D01*
X78426739Y-67996496D01*
X78485635Y-67776692D01*
X78505468Y-67550000D01*
X78485635Y-67323308D01*
X78426739Y-67103504D01*
X78330568Y-66897266D01*
X78222848Y-66743425D01*
X78200522Y-66677220D01*
X78217532Y-66609452D01*
X78236739Y-66584626D01*
X80484652Y-64336714D01*
X80545973Y-64303231D01*
X80583135Y-64300869D01*
X80726366Y-64313400D01*
X80749999Y-64315468D01*
X80750000Y-64315468D01*
X80750002Y-64315468D01*
X80808339Y-64310364D01*
X80976692Y-64295635D01*
X81196496Y-64236739D01*
X81402734Y-64140568D01*
X81589139Y-64010047D01*
X81750047Y-63849139D01*
X81880568Y-63662734D01*
X81976739Y-63456496D01*
X82035635Y-63236692D01*
X82055468Y-63010000D01*
X82035635Y-62783308D01*
X81976739Y-62563504D01*
X81880568Y-62357266D01*
X81750047Y-62170861D01*
X81750045Y-62170858D01*
X81741368Y-62162181D01*
X81707883Y-62100858D01*
X81712867Y-62031166D01*
X81754739Y-61975233D01*
X81820203Y-61950816D01*
X81829049Y-61950500D01*
X84773920Y-61950500D01*
X84871462Y-61931096D01*
X84918913Y-61921658D01*
X85055495Y-61865084D01*
X85104729Y-61832186D01*
X85178416Y-61782952D01*
X89482952Y-57478416D01*
X89524110Y-57416818D01*
X89543957Y-57387115D01*
X89543959Y-57387110D01*
X89543965Y-57387102D01*
X89565084Y-57355495D01*
X89621658Y-57218913D01*
X89643944Y-57106877D01*
X89650500Y-57073920D01*
X89650500Y-55036662D01*
X89670185Y-54969623D01*
X89703379Y-54935086D01*
X89739140Y-54910046D01*
X89900045Y-54749141D01*
X89900047Y-54749139D01*
X90030568Y-54562734D01*
X90126739Y-54356496D01*
X90185635Y-54136692D01*
X90205468Y-53910000D01*
X90185635Y-53683308D01*
X90126739Y-53463504D01*
X90030568Y-53257266D01*
X89900047Y-53070861D01*
X89900045Y-53070858D01*
X89739141Y-52909954D01*
X89552734Y-52779432D01*
X89552732Y-52779431D01*
X89346497Y-52683261D01*
X89346488Y-52683258D01*
X89126697Y-52624366D01*
X89126693Y-52624365D01*
X89126692Y-52624365D01*
X89126691Y-52624364D01*
X89126686Y-52624364D01*
X88900002Y-52604532D01*
X88899998Y-52604532D01*
X88673313Y-52624364D01*
X88673302Y-52624366D01*
X88453511Y-52683258D01*
X88453502Y-52683261D01*
X88247267Y-52779431D01*
X88247265Y-52779432D01*
X88060858Y-52909954D01*
X87899954Y-53070858D01*
X87769432Y-53257265D01*
X87769431Y-53257267D01*
X87673261Y-53463502D01*
X87673258Y-53463511D01*
X87614366Y-53683302D01*
X87614364Y-53683313D01*
X87594532Y-53909998D01*
X87594532Y-53910001D01*
X87614364Y-54136686D01*
X87614366Y-54136697D01*
X87673258Y-54356488D01*
X87673261Y-54356497D01*
X87769431Y-54562732D01*
X87769432Y-54562734D01*
X87899954Y-54749141D01*
X88060859Y-54910046D01*
X88096621Y-54935086D01*
X88140247Y-54989662D01*
X88149500Y-55036662D01*
X88149500Y-56637770D01*
X88129815Y-56704809D01*
X88113181Y-56725451D01*
X84425451Y-60413181D01*
X84364128Y-60446666D01*
X84337770Y-60449500D01*
X76076076Y-60449500D01*
X76047242Y-60455234D01*
X76047243Y-60455235D01*
X75931093Y-60478339D01*
X75931083Y-60478342D01*
X75851081Y-60511479D01*
X75851082Y-60511480D01*
X75794506Y-60534915D01*
X75737324Y-60573123D01*
X75671582Y-60617049D01*
X73317047Y-62971584D01*
X73304186Y-62990833D01*
X73291380Y-63010000D01*
X73263051Y-63052397D01*
X73234914Y-63094507D01*
X73178343Y-63231082D01*
X73178340Y-63231092D01*
X73149500Y-63376079D01*
X73149500Y-67300794D01*
X73129815Y-67367833D01*
X73077905Y-67413176D01*
X72957268Y-67469430D01*
X72770858Y-67599954D01*
X72609954Y-67760858D01*
X72479432Y-67947266D01*
X72445919Y-68019134D01*
X72399746Y-68071572D01*
X72332552Y-68090724D01*
X72328336Y-68090619D01*
X67127497Y-67872293D01*
X67061342Y-67849814D01*
X67031125Y-67819527D01*
X66990047Y-67760861D01*
X66990046Y-67760860D01*
X66990044Y-67760857D01*
X66829141Y-67599954D01*
X66642734Y-67469432D01*
X66642732Y-67469431D01*
X66436497Y-67373261D01*
X66436488Y-67373258D01*
X66216697Y-67314366D01*
X66216693Y-67314365D01*
X66216692Y-67314365D01*
X66216691Y-67314364D01*
X66216686Y-67314364D01*
X65990002Y-67294532D01*
X65989998Y-67294532D01*
X65763313Y-67314364D01*
X65763302Y-67314366D01*
X65543511Y-67373258D01*
X65543502Y-67373261D01*
X65337267Y-67469431D01*
X65337265Y-67469432D01*
X65150858Y-67599954D01*
X65007620Y-67743193D01*
X64946297Y-67776678D01*
X64914738Y-67779403D01*
X60119299Y-67578096D01*
X60053144Y-67555617D01*
X60009644Y-67500940D01*
X60000500Y-67454205D01*
X60000500Y-63637229D01*
X60020185Y-63570190D01*
X60036814Y-63549553D01*
X60871047Y-62715320D01*
X60932366Y-62681838D01*
X60957310Y-62679013D01*
X62726896Y-62659018D01*
X62794151Y-62677943D01*
X62840499Y-62730226D01*
X62851223Y-62799268D01*
X62822918Y-62863148D01*
X62810649Y-62874338D01*
X62810427Y-62876875D01*
X63453554Y-63520000D01*
X63447339Y-63520000D01*
X63345606Y-63547259D01*
X63254394Y-63599920D01*
X63179920Y-63674394D01*
X63127259Y-63765606D01*
X63100000Y-63867339D01*
X63100000Y-63873552D01*
X62456875Y-63230427D01*
X62456875Y-63230428D01*
X62413333Y-63292612D01*
X62413332Y-63292614D01*
X62320898Y-63490840D01*
X62320894Y-63490849D01*
X62264289Y-63702105D01*
X62264287Y-63702115D01*
X62245225Y-63919999D01*
X62245225Y-63920000D01*
X62264287Y-64137884D01*
X62264289Y-64137894D01*
X62320894Y-64349150D01*
X62320898Y-64349159D01*
X62413333Y-64547387D01*
X62456874Y-64609571D01*
X63100000Y-63966445D01*
X63100000Y-63972661D01*
X63127259Y-64074394D01*
X63179920Y-64165606D01*
X63254394Y-64240080D01*
X63345606Y-64292741D01*
X63447339Y-64320000D01*
X63453553Y-64320000D01*
X62810427Y-64963124D01*
X62872612Y-65006666D01*
X63070840Y-65099101D01*
X63070849Y-65099105D01*
X63282105Y-65155710D01*
X63282115Y-65155712D01*
X63499999Y-65174775D01*
X63500001Y-65174775D01*
X63717884Y-65155712D01*
X63717894Y-65155710D01*
X63929150Y-65099105D01*
X63929164Y-65099100D01*
X64127383Y-65006669D01*
X64127385Y-65006668D01*
X64189571Y-64963124D01*
X63546448Y-64320000D01*
X63552661Y-64320000D01*
X63654394Y-64292741D01*
X63745606Y-64240080D01*
X63820080Y-64165606D01*
X63872741Y-64074394D01*
X63900000Y-63972661D01*
X63900000Y-63966446D01*
X64543124Y-64609570D01*
X64586668Y-64547385D01*
X64586669Y-64547383D01*
X64679100Y-64349164D01*
X64679105Y-64349150D01*
X64735710Y-64137894D01*
X64735712Y-64137884D01*
X64754775Y-63920000D01*
X64754775Y-63919999D01*
X64735712Y-63702115D01*
X64735710Y-63702105D01*
X64679105Y-63490849D01*
X64679101Y-63490840D01*
X64586668Y-63292615D01*
X64543123Y-63230428D01*
X63900000Y-63873551D01*
X63900000Y-63867339D01*
X63872741Y-63765606D01*
X63820080Y-63674394D01*
X63745606Y-63599920D01*
X63654394Y-63547259D01*
X63552661Y-63520000D01*
X63546447Y-63520000D01*
X64189571Y-62876874D01*
X64189571Y-62876873D01*
X64176071Y-62867420D01*
X64132446Y-62812843D01*
X64125254Y-62743344D01*
X64156777Y-62680990D01*
X64217007Y-62645577D01*
X64245781Y-62641855D01*
X67249105Y-62607919D01*
X67316357Y-62626844D01*
X67362705Y-62679127D01*
X67374500Y-62731910D01*
X67374500Y-64310370D01*
X67374501Y-64310376D01*
X67380908Y-64369983D01*
X67431202Y-64504828D01*
X67431206Y-64504835D01*
X67517452Y-64620044D01*
X67517455Y-64620047D01*
X67632664Y-64706293D01*
X67632671Y-64706297D01*
X67767517Y-64756591D01*
X67767516Y-64756591D01*
X67774444Y-64757335D01*
X67827127Y-64763000D01*
X70172872Y-64762999D01*
X70232483Y-64756591D01*
X70367331Y-64706296D01*
X70482546Y-64620046D01*
X70568796Y-64504831D01*
X70619091Y-64369983D01*
X70625500Y-64310373D01*
X70625499Y-62687228D01*
X70645184Y-62620190D01*
X70661813Y-62599553D01*
X75024548Y-58236819D01*
X75085871Y-58203334D01*
X75112229Y-58200500D01*
X81473920Y-58200500D01*
X81571462Y-58181096D01*
X81618913Y-58171658D01*
X81755495Y-58115084D01*
X81804729Y-58082186D01*
X81807599Y-58080269D01*
X81829936Y-58065344D01*
X81878416Y-58032952D01*
X83232952Y-56678416D01*
X83282186Y-56604729D01*
X83315084Y-56555495D01*
X83371658Y-56418913D01*
X83396742Y-56292812D01*
X83400500Y-56273920D01*
X83400500Y-56268622D01*
X83420185Y-56201583D01*
X83435813Y-56181957D01*
X84200000Y-55400000D01*
X84250000Y-53550000D01*
X83806886Y-53093039D01*
X83435480Y-52710026D01*
X83402943Y-52648195D01*
X83400500Y-52623704D01*
X83400500Y-50974500D01*
X83420185Y-50907461D01*
X83472989Y-50861706D01*
X83524500Y-50850500D01*
X84687770Y-50850500D01*
X84754809Y-50870185D01*
X84775451Y-50886819D01*
X85371584Y-51482952D01*
X85371590Y-51482957D01*
X85425401Y-51518910D01*
X85425404Y-51518913D01*
X85425405Y-51518913D01*
X85494505Y-51565084D01*
X85494506Y-51565084D01*
X85494507Y-51565085D01*
X85631082Y-51621656D01*
X85631087Y-51621658D01*
X85631091Y-51621658D01*
X85631092Y-51621659D01*
X85776079Y-51650500D01*
X85776082Y-51650500D01*
X85776083Y-51650500D01*
X85923918Y-51650500D01*
X91287770Y-51650500D01*
X91354809Y-51670185D01*
X91375451Y-51686819D01*
X92563181Y-52874549D01*
X92596666Y-52935872D01*
X92599500Y-52962230D01*
X92599500Y-60287769D01*
X92579815Y-60354808D01*
X92563181Y-60375450D01*
X90416311Y-62522319D01*
X90354988Y-62555804D01*
X90285296Y-62550820D01*
X90279229Y-62548372D01*
X90205064Y-62516158D01*
X90205060Y-62516156D01*
X90205058Y-62516156D01*
X90116826Y-62491434D01*
X89928364Y-62438630D01*
X89928359Y-62438629D01*
X89928358Y-62438629D01*
X89786018Y-62419064D01*
X89643679Y-62399500D01*
X89643678Y-62399500D01*
X89356322Y-62399500D01*
X89356321Y-62399500D01*
X89071642Y-62438629D01*
X89071635Y-62438630D01*
X88863861Y-62496845D01*
X88794942Y-62516156D01*
X88794939Y-62516156D01*
X88794936Y-62516158D01*
X88794935Y-62516158D01*
X88531382Y-62630634D01*
X88285853Y-62779944D01*
X88062950Y-62961289D01*
X87866812Y-63171299D01*
X87701098Y-63406064D01*
X87568894Y-63661206D01*
X87472667Y-63931962D01*
X87472666Y-63931965D01*
X87414201Y-64213319D01*
X87394592Y-64500000D01*
X87414201Y-64786680D01*
X87472666Y-65068034D01*
X87472667Y-65068037D01*
X87568894Y-65338793D01*
X87568893Y-65338793D01*
X87701098Y-65593935D01*
X87866812Y-65828700D01*
X87910054Y-65875000D01*
X88062947Y-66038708D01*
X88285853Y-66220055D01*
X88484872Y-66341082D01*
X88531382Y-66369365D01*
X88718237Y-66450526D01*
X88794942Y-66483844D01*
X89071642Y-66561371D01*
X89321920Y-66595771D01*
X89356321Y-66600500D01*
X89356322Y-66600500D01*
X89643679Y-66600500D01*
X89674370Y-66596281D01*
X89928358Y-66561371D01*
X90205058Y-66483844D01*
X90352353Y-66419865D01*
X90468617Y-66369365D01*
X90468620Y-66369363D01*
X90468625Y-66369361D01*
X90714147Y-66220055D01*
X90937053Y-66038708D01*
X91133189Y-65828698D01*
X91298901Y-65593936D01*
X91431104Y-65338797D01*
X91527334Y-65068032D01*
X91585798Y-64786686D01*
X91605408Y-64500000D01*
X93395093Y-64500000D01*
X93414697Y-64786618D01*
X93414698Y-64786619D01*
X93473145Y-65067885D01*
X93473150Y-65067902D01*
X93569355Y-65338595D01*
X93701527Y-65593677D01*
X93701531Y-65593683D01*
X93846867Y-65799576D01*
X93846868Y-65799577D01*
X94784152Y-64862292D01*
X94791049Y-64878942D01*
X94878599Y-65009970D01*
X94990030Y-65121401D01*
X95121058Y-65208951D01*
X95137706Y-65215846D01*
X94202198Y-66151353D01*
X94286144Y-66219647D01*
X94286146Y-66219648D01*
X94531607Y-66368917D01*
X94795108Y-66483371D01*
X95071737Y-66560879D01*
X95071744Y-66560880D01*
X95356355Y-66600000D01*
X95643645Y-66600000D01*
X95928255Y-66560880D01*
X95928262Y-66560879D01*
X96204891Y-66483371D01*
X96468392Y-66368917D01*
X96713854Y-66219648D01*
X96797800Y-66151353D01*
X95862293Y-65215847D01*
X95878942Y-65208951D01*
X96009970Y-65121401D01*
X96121401Y-65009970D01*
X96208951Y-64878942D01*
X96215847Y-64862293D01*
X97153130Y-65799576D01*
X97153131Y-65799576D01*
X97298472Y-65593676D01*
X97430644Y-65338595D01*
X97526849Y-65067902D01*
X97526854Y-65067885D01*
X97585301Y-64786619D01*
X97585302Y-64786618D01*
X97604906Y-64500000D01*
X97585302Y-64213381D01*
X97585301Y-64213380D01*
X97526854Y-63932114D01*
X97526849Y-63932097D01*
X97430644Y-63661404D01*
X97298472Y-63406323D01*
X97153130Y-63200422D01*
X96215846Y-64137705D01*
X96208951Y-64121058D01*
X96121401Y-63990030D01*
X96009970Y-63878599D01*
X95878942Y-63791049D01*
X95862293Y-63784152D01*
X96797800Y-62848645D01*
X96713862Y-62780357D01*
X96713853Y-62780351D01*
X96468392Y-62631082D01*
X96204891Y-62516628D01*
X95928262Y-62439120D01*
X95928255Y-62439119D01*
X95643645Y-62400000D01*
X95356355Y-62400000D01*
X95071744Y-62439119D01*
X95071737Y-62439120D01*
X94795108Y-62516628D01*
X94531610Y-62631081D01*
X94286140Y-62780355D01*
X94286137Y-62780357D01*
X94202199Y-62848645D01*
X95137706Y-63784152D01*
X95121058Y-63791049D01*
X94990030Y-63878599D01*
X94878599Y-63990030D01*
X94791049Y-64121058D01*
X94784153Y-64137706D01*
X93846868Y-63200421D01*
X93846867Y-63200421D01*
X93701531Y-63406316D01*
X93701527Y-63406322D01*
X93569355Y-63661404D01*
X93473150Y-63932097D01*
X93473145Y-63932114D01*
X93414698Y-64213380D01*
X93414697Y-64213381D01*
X93395093Y-64500000D01*
X91605408Y-64500000D01*
X91585798Y-64213314D01*
X91527334Y-63931968D01*
X91449223Y-63712187D01*
X91445321Y-63642429D01*
X91478381Y-63582985D01*
X93932951Y-61128416D01*
X94015084Y-61005495D01*
X94071658Y-60868913D01*
X94094842Y-60752362D01*
X94100500Y-60723920D01*
X94100500Y-56602155D01*
X96900000Y-56602155D01*
X96900000Y-57000000D01*
X97653590Y-57000000D01*
X97603963Y-57085956D01*
X97575000Y-57194048D01*
X97575000Y-57305952D01*
X97603963Y-57414044D01*
X97653590Y-57500000D01*
X96900000Y-57500000D01*
X96900000Y-57897844D01*
X96906401Y-57957372D01*
X96906403Y-57957379D01*
X96956645Y-58092086D01*
X96956649Y-58092093D01*
X97042809Y-58207187D01*
X97042812Y-58207190D01*
X97157906Y-58293350D01*
X97157913Y-58293354D01*
X97292620Y-58343596D01*
X97292627Y-58343598D01*
X97352155Y-58349999D01*
X97352172Y-58350000D01*
X97750000Y-58350000D01*
X97750000Y-57596409D01*
X97835956Y-57646037D01*
X97944048Y-57675000D01*
X98055952Y-57675000D01*
X98164044Y-57646037D01*
X98250000Y-57596409D01*
X98250000Y-58350000D01*
X98647828Y-58350000D01*
X98647844Y-58349999D01*
X98707372Y-58343598D01*
X98707379Y-58343596D01*
X98842086Y-58293354D01*
X98842093Y-58293350D01*
X98957187Y-58207190D01*
X98957190Y-58207187D01*
X99043350Y-58092093D01*
X99043354Y-58092086D01*
X99093596Y-57957379D01*
X99093598Y-57957372D01*
X99099999Y-57897844D01*
X99100000Y-57897827D01*
X99100000Y-57500000D01*
X98346410Y-57500000D01*
X98396037Y-57414044D01*
X98425000Y-57305952D01*
X98425000Y-57194048D01*
X98396037Y-57085956D01*
X98346410Y-57000000D01*
X99100000Y-57000000D01*
X99100000Y-56602172D01*
X99099999Y-56602155D01*
X99093598Y-56542627D01*
X99093596Y-56542620D01*
X99043354Y-56407913D01*
X99043350Y-56407906D01*
X98957190Y-56292812D01*
X98957187Y-56292809D01*
X98842093Y-56206649D01*
X98842086Y-56206645D01*
X98707379Y-56156403D01*
X98707372Y-56156401D01*
X98647844Y-56150000D01*
X98250000Y-56150000D01*
X98250000Y-56903590D01*
X98164044Y-56853963D01*
X98055952Y-56825000D01*
X97944048Y-56825000D01*
X97835956Y-56853963D01*
X97750000Y-56903590D01*
X97750000Y-56150000D01*
X97352155Y-56150000D01*
X97292627Y-56156401D01*
X97292620Y-56156403D01*
X97157913Y-56206645D01*
X97157906Y-56206649D01*
X97042812Y-56292809D01*
X97042809Y-56292812D01*
X96956649Y-56407906D01*
X96956645Y-56407913D01*
X96906403Y-56542620D01*
X96906401Y-56542627D01*
X96900000Y-56602155D01*
X94100500Y-56602155D01*
X94100500Y-55283800D01*
X94112079Y-55231478D01*
X94116640Y-55221678D01*
X94162774Y-55169205D01*
X94229061Y-55150000D01*
X101750000Y-55150000D01*
X101798684Y-50524928D01*
X101819073Y-50458103D01*
X101872356Y-50412907D01*
X101924915Y-50402257D01*
X109976418Y-50547766D01*
G37*
%TD.AperFunction*%
%TD*%
%TA.AperFunction,Conductor*%
%TO.N,GNDREF*%
G36*
X85900306Y-38819454D02*
G01*
X85981088Y-38873430D01*
X86035064Y-38954212D01*
X86054018Y-39049500D01*
X86053860Y-39057945D01*
X86085462Y-41775772D01*
X86085462Y-41775780D01*
X86085747Y-41800361D01*
X86067899Y-41895863D01*
X86014863Y-41977264D01*
X85934713Y-42032174D01*
X85839651Y-42052231D01*
X85839305Y-42052235D01*
X81967175Y-42091746D01*
X81944528Y-42092484D01*
X81922321Y-42093706D01*
X81802633Y-42114927D01*
X81709695Y-42143270D01*
X81658851Y-42161804D01*
X81535887Y-42236507D01*
X81535881Y-42236511D01*
X81460884Y-42298248D01*
X81420999Y-42334833D01*
X81335984Y-42450899D01*
X81290309Y-42536658D01*
X81267465Y-42585711D01*
X81250563Y-42654937D01*
X81233337Y-42725487D01*
X81231493Y-42744498D01*
X81231493Y-42744499D01*
X81223959Y-42822176D01*
X81223959Y-42822189D01*
X81224106Y-42921268D01*
X81224107Y-42921284D01*
X81349063Y-44170845D01*
X81339685Y-44267546D01*
X81294014Y-44353297D01*
X81219005Y-44415044D01*
X81126075Y-44443385D01*
X81055309Y-44438125D01*
X81055016Y-44439883D01*
X80950000Y-44422358D01*
X80950000Y-45309252D01*
X80912292Y-45287482D01*
X80772409Y-45250000D01*
X80627591Y-45250000D01*
X80487708Y-45287482D01*
X80450000Y-45309252D01*
X80450000Y-44422359D01*
X80449999Y-44422358D01*
X80355141Y-44438188D01*
X80135696Y-44513523D01*
X79931650Y-44623948D01*
X79748560Y-44766454D01*
X79748548Y-44766464D01*
X79591417Y-44937154D01*
X79591411Y-44937161D01*
X79464518Y-45131388D01*
X79464515Y-45131393D01*
X79371320Y-45343856D01*
X79319118Y-45550000D01*
X80209252Y-45550000D01*
X80187482Y-45587708D01*
X80150000Y-45727591D01*
X80150000Y-45872409D01*
X80187482Y-46012292D01*
X80209252Y-46050000D01*
X79319118Y-46050000D01*
X79371320Y-46256143D01*
X79464515Y-46468606D01*
X79464518Y-46468611D01*
X79591411Y-46662838D01*
X79591417Y-46662845D01*
X79748548Y-46833535D01*
X79748560Y-46833545D01*
X79931650Y-46976051D01*
X80135695Y-47086475D01*
X80355138Y-47161811D01*
X80449999Y-47177640D01*
X80450000Y-47177639D01*
X80450000Y-46290747D01*
X80487708Y-46312518D01*
X80627591Y-46350000D01*
X80772409Y-46350000D01*
X80912292Y-46312518D01*
X80950000Y-46290747D01*
X80950000Y-47177640D01*
X81044859Y-47161811D01*
X81044862Y-47161811D01*
X81264304Y-47086475D01*
X81468350Y-46976050D01*
X81501883Y-46949951D01*
X81588720Y-46906381D01*
X81685621Y-46899358D01*
X81777833Y-46929952D01*
X81819690Y-46959845D01*
X81889470Y-47021501D01*
X81933568Y-47053350D01*
X81933569Y-47053351D01*
X81973537Y-47082217D01*
X81973539Y-47082219D01*
X82009247Y-47108008D01*
X82009263Y-47108018D01*
X82058831Y-47139601D01*
X82058842Y-47139607D01*
X82109342Y-47167794D01*
X82110828Y-47168597D01*
X82121404Y-47174314D01*
X82121406Y-47174315D01*
X82121409Y-47174316D01*
X82257094Y-47222183D01*
X82352382Y-47241137D01*
X82405944Y-47248838D01*
X82549618Y-47241137D01*
X82644906Y-47222183D01*
X82697335Y-47208801D01*
X82766704Y-47175613D01*
X82860838Y-47151587D01*
X82957004Y-47165414D01*
X83020947Y-47199093D01*
X83022190Y-47200000D01*
X84708857Y-47333862D01*
X84802335Y-47360293D01*
X84878593Y-47420491D01*
X84911698Y-47471876D01*
X84911767Y-47471838D01*
X84912375Y-47472926D01*
X84914589Y-47476362D01*
X84916108Y-47479602D01*
X84963513Y-47564382D01*
X84963522Y-47564396D01*
X84963523Y-47564398D01*
X84981526Y-47592898D01*
X84992424Y-47610149D01*
X84992423Y-47610149D01*
X84992425Y-47610151D01*
X85091521Y-47714465D01*
X85158483Y-47767325D01*
X85167787Y-47774669D01*
X85180482Y-47783630D01*
X85211987Y-47805870D01*
X85343459Y-47864321D01*
X85436949Y-47890754D01*
X85534488Y-47908238D01*
X87072061Y-48030268D01*
X87862404Y-48092994D01*
X87862406Y-48092994D01*
X87862418Y-48092995D01*
X87904438Y-48094576D01*
X87904440Y-48094575D01*
X87904441Y-48094576D01*
X87904925Y-48094574D01*
X87945836Y-48094410D01*
X88085258Y-48074220D01*
X88178532Y-48047034D01*
X88229593Y-48029136D01*
X88353479Y-47955966D01*
X88429250Y-47895156D01*
X88469584Y-47859071D01*
X88548168Y-47754529D01*
X88620574Y-47689752D01*
X88712259Y-47657612D01*
X88766897Y-47655929D01*
X89078949Y-47680695D01*
X89172435Y-47707127D01*
X89248693Y-47767325D01*
X89264187Y-47787493D01*
X89293367Y-47829780D01*
X89359357Y-47901070D01*
X89359379Y-47901092D01*
X89398201Y-47938769D01*
X89519015Y-48016904D01*
X89607256Y-48057510D01*
X89607260Y-48057511D01*
X89607274Y-48057518D01*
X89657573Y-48077475D01*
X89799093Y-48103429D01*
X89896176Y-48107176D01*
X89995094Y-48101274D01*
X96337507Y-47092253D01*
X96434589Y-47096000D01*
X96522848Y-47136614D01*
X96588846Y-47207912D01*
X96604904Y-47251349D01*
X97370592Y-48017037D01*
X97307007Y-48034075D01*
X97192993Y-48099901D01*
X97099901Y-48192993D01*
X97034075Y-48307007D01*
X97017037Y-48370592D01*
X96276562Y-47630117D01*
X96176268Y-47783630D01*
X96176268Y-47783631D01*
X96076413Y-48011277D01*
X96076410Y-48011285D01*
X96015389Y-48252251D01*
X96015387Y-48252258D01*
X95994859Y-48500000D01*
X96015387Y-48747741D01*
X96015389Y-48747748D01*
X96076410Y-48988714D01*
X96076413Y-48988722D01*
X96176268Y-49216368D01*
X96176268Y-49216369D01*
X96276562Y-49369881D01*
X97017036Y-48629406D01*
X97034075Y-48692993D01*
X97099901Y-48807007D01*
X97192993Y-48900099D01*
X97307007Y-48965925D01*
X97370590Y-48982962D01*
X96629943Y-49723610D01*
X96676761Y-49760050D01*
X96676769Y-49760055D01*
X96895392Y-49878368D01*
X97130509Y-49959083D01*
X97130512Y-49959084D01*
X97375706Y-50000000D01*
X97624294Y-50000000D01*
X97869487Y-49959084D01*
X97869490Y-49959083D01*
X98104607Y-49878368D01*
X98323232Y-49760054D01*
X98370055Y-49723610D01*
X97629407Y-48982962D01*
X97692993Y-48965925D01*
X97807007Y-48900099D01*
X97900099Y-48807007D01*
X97965925Y-48692993D01*
X97982962Y-48629408D01*
X98723435Y-49369881D01*
X98823733Y-49216364D01*
X98923586Y-48988722D01*
X98923589Y-48988714D01*
X98984610Y-48747748D01*
X98984612Y-48747741D01*
X99005140Y-48500000D01*
X98984612Y-48252258D01*
X98984610Y-48252251D01*
X98923589Y-48011285D01*
X98923586Y-48011277D01*
X98823731Y-47783631D01*
X98823731Y-47783630D01*
X98723436Y-47630117D01*
X97982962Y-48370591D01*
X97965925Y-48307007D01*
X97900099Y-48192993D01*
X97807007Y-48099901D01*
X97692993Y-48034075D01*
X97629406Y-48017036D01*
X98370055Y-47276388D01*
X98370056Y-47276388D01*
X98323236Y-47239947D01*
X98307043Y-47231184D01*
X98232260Y-47169163D01*
X98186905Y-47083244D01*
X98177881Y-46986509D01*
X98206564Y-46893685D01*
X98268585Y-46818902D01*
X98354504Y-46773547D01*
X98386431Y-46766288D01*
X101318450Y-46299830D01*
X107002825Y-45395497D01*
X107099906Y-45399244D01*
X107188165Y-45439858D01*
X107254163Y-45511156D01*
X107287852Y-45602282D01*
X107284105Y-45699365D01*
X107273734Y-45732371D01*
X107240144Y-45817958D01*
X107180115Y-46080968D01*
X107159953Y-46350000D01*
X107180115Y-46619031D01*
X107240144Y-46882041D01*
X107338705Y-47133173D01*
X107338713Y-47133189D01*
X107473598Y-47366816D01*
X107473604Y-47366824D01*
X107527294Y-47434150D01*
X108363957Y-46597486D01*
X108388978Y-46657890D01*
X108460112Y-46764351D01*
X108550649Y-46854888D01*
X108657110Y-46926022D01*
X108717510Y-46951041D01*
X107879849Y-47788703D01*
X108062473Y-47913215D01*
X108062478Y-47913217D01*
X108305535Y-48030268D01*
X108305540Y-48030270D01*
X108563333Y-48109789D01*
X108830112Y-48150000D01*
X109099888Y-48150000D01*
X109366666Y-48109789D01*
X109624459Y-48030270D01*
X109624465Y-48030268D01*
X109867519Y-47913219D01*
X110050149Y-47788703D01*
X109212487Y-46951041D01*
X109272890Y-46926022D01*
X109379351Y-46854888D01*
X109469888Y-46764351D01*
X109541022Y-46657890D01*
X109566041Y-46597487D01*
X110404072Y-47435518D01*
X110492955Y-47448066D01*
X110576636Y-47497428D01*
X110613334Y-47538365D01*
X111122715Y-48251497D01*
X111156318Y-48317484D01*
X112081722Y-51093696D01*
X112094500Y-51172437D01*
X112094500Y-67192458D01*
X112075546Y-67287746D01*
X112021570Y-67368528D01*
X112003176Y-67385173D01*
X110047775Y-68985046D01*
X110047760Y-68985060D01*
X109987490Y-69043364D01*
X109987474Y-69043380D01*
X109987466Y-69043388D01*
X109987465Y-69043390D01*
X109982609Y-69048939D01*
X109933216Y-69105383D01*
X109908759Y-69135603D01*
X109908755Y-69135608D01*
X109839888Y-69261925D01*
X109805993Y-69352988D01*
X109805991Y-69352992D01*
X109793088Y-69394300D01*
X109789860Y-69404634D01*
X109783355Y-69465517D01*
X109782133Y-69476955D01*
X109753162Y-69569690D01*
X109690908Y-69644280D01*
X109604849Y-69689368D01*
X109534542Y-69699500D01*
X107899993Y-69699500D01*
X107797199Y-69710001D01*
X107630667Y-69765185D01*
X107481346Y-69857286D01*
X107357286Y-69981346D01*
X107265184Y-70130668D01*
X107210002Y-70297197D01*
X107210001Y-70297204D01*
X107199500Y-70399988D01*
X107199500Y-71736932D01*
X107180546Y-71832220D01*
X107126570Y-71913002D01*
X107108176Y-71929647D01*
X105394450Y-73331785D01*
X105308699Y-73377456D01*
X105211997Y-73386834D01*
X105164141Y-73377241D01*
X105153460Y-73373984D01*
X105112038Y-73363739D01*
X105100932Y-73360992D01*
X104957211Y-73354359D01*
X104957199Y-73354359D01*
X104860514Y-73363736D01*
X104860492Y-73363739D01*
X104807001Y-73371836D01*
X104806995Y-73371838D01*
X104671669Y-73420712D01*
X104585925Y-73466380D01*
X104503453Y-73521309D01*
X104503440Y-73521319D01*
X101348516Y-76102621D01*
X101348509Y-76102627D01*
X101295098Y-76153248D01*
X101246394Y-76206656D01*
X101227754Y-76228292D01*
X101153771Y-76351686D01*
X101153766Y-76351695D01*
X101116183Y-76441261D01*
X101116179Y-76441272D01*
X101086978Y-76535965D01*
X101086978Y-76535967D01*
X101086974Y-76535979D01*
X100940235Y-77256329D01*
X100932608Y-77306551D01*
X100927590Y-77356341D01*
X100927062Y-77361879D01*
X100927062Y-77361883D01*
X100934763Y-77505551D01*
X100953718Y-77600847D01*
X100967100Y-77653272D01*
X100967101Y-77653277D01*
X101000314Y-77722697D01*
X101029195Y-77783064D01*
X101083171Y-77863846D01*
X101083175Y-77863851D01*
X101122935Y-77916964D01*
X101121618Y-77917949D01*
X101164410Y-77988621D01*
X101179097Y-78084659D01*
X101173818Y-78125733D01*
X101151294Y-78230843D01*
X101112794Y-78320044D01*
X101083891Y-78354738D01*
X100652063Y-78786569D01*
X100571282Y-78840546D01*
X100475994Y-78859500D01*
X97469886Y-78859500D01*
X97374598Y-78840546D01*
X97302137Y-78794514D01*
X97181720Y-78684740D01*
X96999815Y-78572110D01*
X96999814Y-78572109D01*
X96999810Y-78572107D01*
X96946977Y-78551639D01*
X96800293Y-78494813D01*
X96589984Y-78455500D01*
X96589980Y-78455500D01*
X96376020Y-78455500D01*
X96376016Y-78455500D01*
X96165706Y-78494813D01*
X95966192Y-78572106D01*
X95966184Y-78572110D01*
X95784283Y-78684738D01*
X95784279Y-78684740D01*
X95784278Y-78684742D01*
X95705218Y-78756814D01*
X95626154Y-78828890D01*
X95626154Y-78828891D01*
X95497219Y-78999628D01*
X95497213Y-78999639D01*
X95401853Y-79191151D01*
X95401845Y-79191171D01*
X95343297Y-79396943D01*
X95343295Y-79396954D01*
X95323554Y-79610000D01*
X95343295Y-79823045D01*
X95343297Y-79823056D01*
X95401845Y-80028828D01*
X95401847Y-80028833D01*
X95401849Y-80028840D01*
X95401853Y-80028848D01*
X95497213Y-80220360D01*
X95497219Y-80220371D01*
X95626154Y-80391108D01*
X95626154Y-80391109D01*
X95626157Y-80391112D01*
X95626159Y-80391114D01*
X95784278Y-80535258D01*
X95966190Y-80647893D01*
X95966195Y-80647894D01*
X95966197Y-80647896D01*
X95966682Y-80648084D01*
X95967071Y-80648331D01*
X95976499Y-80653026D01*
X95976009Y-80654009D01*
X96048687Y-80700181D01*
X96104514Y-80779695D01*
X96125663Y-80874520D01*
X96108913Y-80970221D01*
X96056816Y-81052226D01*
X95977302Y-81108053D01*
X95966685Y-81112451D01*
X95966414Y-81112555D01*
X95966412Y-81112556D01*
X95863086Y-81176532D01*
X95863086Y-81176533D01*
X96436553Y-81750000D01*
X96430339Y-81750000D01*
X96328606Y-81777259D01*
X96237394Y-81829920D01*
X96162920Y-81904394D01*
X96110259Y-81995606D01*
X96083000Y-82097339D01*
X96083000Y-82103553D01*
X95506980Y-81527533D01*
X95497646Y-81539894D01*
X95497642Y-81539901D01*
X95402319Y-81731335D01*
X95402315Y-81731345D01*
X95343790Y-81937036D01*
X95343788Y-81937048D01*
X95324056Y-82150000D01*
X95343788Y-82362951D01*
X95343790Y-82362963D01*
X95402315Y-82568654D01*
X95402319Y-82568664D01*
X95497646Y-82760105D01*
X95497645Y-82760105D01*
X95506979Y-82772465D01*
X96083000Y-82196444D01*
X96083000Y-82202661D01*
X96110259Y-82304394D01*
X96162920Y-82395606D01*
X96237394Y-82470080D01*
X96328606Y-82522741D01*
X96430339Y-82550000D01*
X96436552Y-82550000D01*
X95863085Y-83123466D01*
X95966408Y-83187440D01*
X95966415Y-83187444D01*
X95966678Y-83187546D01*
X95966888Y-83187680D01*
X95976723Y-83192577D01*
X95976212Y-83193602D01*
X96048684Y-83239642D01*
X96104512Y-83319155D01*
X96125663Y-83413980D01*
X96108915Y-83509681D01*
X96056819Y-83591687D01*
X95977306Y-83647515D01*
X95966682Y-83651916D01*
X95966197Y-83652103D01*
X95966184Y-83652110D01*
X95784279Y-83764740D01*
X95621683Y-83912965D01*
X95538495Y-83963153D01*
X95442433Y-83977685D01*
X95348122Y-83954350D01*
X95269920Y-83896700D01*
X95246898Y-83867287D01*
X95182955Y-83771589D01*
X95182949Y-83771582D01*
X95078416Y-83667048D01*
X95078416Y-83667049D01*
X93816324Y-82404956D01*
X93762348Y-82324174D01*
X93743394Y-82228886D01*
X93743394Y-71618975D01*
X93743393Y-71618973D01*
X93714552Y-71473982D01*
X93714552Y-71473981D01*
X93657978Y-71337399D01*
X93603251Y-71255494D01*
X93575846Y-71214478D01*
X92225888Y-69864520D01*
X92171915Y-69783742D01*
X92152961Y-69688454D01*
X92171915Y-69593166D01*
X92225891Y-69512384D01*
X92306673Y-69458408D01*
X92401961Y-69439454D01*
X92412390Y-69439672D01*
X92758567Y-69454205D01*
X92840239Y-69451020D01*
X92879919Y-69446239D01*
X92946869Y-69432608D01*
X92960003Y-69429935D01*
X92960005Y-69429934D01*
X92960007Y-69429934D01*
X107072848Y-65344637D01*
X107169640Y-65336348D01*
X107262245Y-65365734D01*
X107336554Y-65428321D01*
X107381256Y-65514582D01*
X107390380Y-65602426D01*
X107369953Y-65874999D01*
X107390115Y-66144031D01*
X107450144Y-66407041D01*
X107548705Y-66658173D01*
X107548713Y-66658189D01*
X107683598Y-66891816D01*
X107683604Y-66891824D01*
X107737294Y-66959150D01*
X108573957Y-66122487D01*
X108598978Y-66182890D01*
X108670112Y-66289351D01*
X108760649Y-66379888D01*
X108867110Y-66451022D01*
X108927510Y-66476041D01*
X108089849Y-67313703D01*
X108272473Y-67438215D01*
X108272478Y-67438217D01*
X108515535Y-67555268D01*
X108515540Y-67555270D01*
X108773333Y-67634789D01*
X109040112Y-67675000D01*
X109309888Y-67675000D01*
X109576666Y-67634789D01*
X109834459Y-67555270D01*
X109834465Y-67555268D01*
X110077519Y-67438219D01*
X110260149Y-67313703D01*
X109422487Y-66476041D01*
X109482890Y-66451022D01*
X109589351Y-66379888D01*
X109679888Y-66289351D01*
X109751022Y-66182890D01*
X109776041Y-66122487D01*
X110612704Y-66959150D01*
X110666401Y-66891817D01*
X110801286Y-66658189D01*
X110801294Y-66658173D01*
X110899855Y-66407041D01*
X110959884Y-66144031D01*
X110980046Y-65875000D01*
X110959884Y-65605968D01*
X110899855Y-65342958D01*
X110801294Y-65091826D01*
X110801286Y-65091810D01*
X110666405Y-64858189D01*
X110666402Y-64858184D01*
X110612704Y-64790848D01*
X109776041Y-65627510D01*
X109751022Y-65567110D01*
X109679888Y-65460649D01*
X109589351Y-65370112D01*
X109482890Y-65298978D01*
X109422487Y-65273957D01*
X110260150Y-64436294D01*
X110257522Y-64408266D01*
X110267497Y-64311625D01*
X110313695Y-64226157D01*
X110389085Y-64164874D01*
X110427112Y-64148658D01*
X110544331Y-64109815D01*
X110544331Y-64109814D01*
X110544334Y-64109814D01*
X110693656Y-64017712D01*
X110817712Y-63893656D01*
X110909814Y-63744334D01*
X110964999Y-63577797D01*
X110975500Y-63475009D01*
X110975499Y-61274992D01*
X110964999Y-61172203D01*
X110961626Y-61162025D01*
X110909814Y-61005667D01*
X110909814Y-61005666D01*
X110817712Y-60856344D01*
X110693656Y-60732288D01*
X110576677Y-60660135D01*
X110505527Y-60593980D01*
X110465108Y-60505632D01*
X110458424Y-60444511D01*
X110485936Y-58594394D01*
X110493108Y-58112076D01*
X110493107Y-58112072D01*
X110493108Y-58112058D01*
X110487819Y-58031225D01*
X110482073Y-57992027D01*
X110463936Y-57913064D01*
X110401508Y-57783432D01*
X110395355Y-57774274D01*
X110394971Y-57773702D01*
X110357564Y-57684037D01*
X110357318Y-57586882D01*
X110394270Y-57497029D01*
X110406967Y-57479608D01*
X110456815Y-57417102D01*
X110591743Y-57183398D01*
X110690334Y-56932195D01*
X110750383Y-56669103D01*
X110770549Y-56400000D01*
X110750383Y-56130897D01*
X110690334Y-55867805D01*
X110591743Y-55616602D01*
X110456815Y-55382898D01*
X110456813Y-55382895D01*
X110456811Y-55382892D01*
X110288562Y-55171916D01*
X110182774Y-55073759D01*
X110125815Y-54995053D01*
X110103311Y-54900540D01*
X110118689Y-54804609D01*
X110169607Y-54721866D01*
X110248313Y-54664907D01*
X110273804Y-54654871D01*
X110334334Y-54634814D01*
X110483656Y-54542712D01*
X110607712Y-54418656D01*
X110699814Y-54269334D01*
X110754999Y-54102797D01*
X110765500Y-54000009D01*
X110765499Y-51799992D01*
X110754999Y-51697203D01*
X110739135Y-51649330D01*
X110722884Y-51600286D01*
X110699814Y-51530666D01*
X110607712Y-51381344D01*
X110607711Y-51381343D01*
X110600098Y-51369000D01*
X110601728Y-51367994D01*
X110565867Y-51297867D01*
X110558101Y-51201023D01*
X110567573Y-51156231D01*
X110576490Y-51127455D01*
X110581857Y-51093696D01*
X110599081Y-50985363D01*
X110603606Y-50681115D01*
X110603606Y-50681111D01*
X110603180Y-50676468D01*
X110593814Y-50574294D01*
X110583535Y-50522985D01*
X110551420Y-50420628D01*
X110546787Y-50413124D01*
X110475832Y-50298204D01*
X110431038Y-50244582D01*
X110420277Y-50234912D01*
X110324027Y-50148416D01*
X110260628Y-50118066D01*
X110194247Y-50086288D01*
X110136717Y-50068260D01*
X110132538Y-50066772D01*
X110127574Y-50065394D01*
X109985549Y-50042348D01*
X109985550Y-50042348D01*
X101934051Y-49896839D01*
X101934040Y-49896840D01*
X101824541Y-49906824D01*
X101824526Y-49906826D01*
X101771965Y-49917476D01*
X101667221Y-49950900D01*
X101667219Y-49950901D01*
X101545365Y-50027409D01*
X101492087Y-50072601D01*
X101492080Y-50072609D01*
X101396723Y-50180341D01*
X101396722Y-50180343D01*
X101335577Y-50310580D01*
X101315187Y-50377410D01*
X101293211Y-50519612D01*
X101279463Y-51825766D01*
X101252386Y-54398121D01*
X101232430Y-54493204D01*
X101177607Y-54573413D01*
X101096262Y-54626536D01*
X101003400Y-54644500D01*
X99185567Y-54644500D01*
X99090279Y-54625546D01*
X99009497Y-54571570D01*
X98955521Y-54490788D01*
X98936567Y-54395500D01*
X98955521Y-54300212D01*
X98962671Y-54284511D01*
X99030113Y-54149068D01*
X99085903Y-53952987D01*
X99104712Y-53750000D01*
X99085903Y-53547012D01*
X99030113Y-53350931D01*
X98939244Y-53168442D01*
X98937466Y-53166087D01*
X98421725Y-53681828D01*
X98396037Y-53585956D01*
X98340084Y-53489044D01*
X98260956Y-53409916D01*
X98164044Y-53353963D01*
X98068169Y-53328273D01*
X98580686Y-52815757D01*
X98492416Y-52761103D01*
X98492413Y-52761101D01*
X98302316Y-52687458D01*
X98101934Y-52650000D01*
X97898066Y-52650000D01*
X97697684Y-52687458D01*
X97697682Y-52687458D01*
X97507587Y-52761101D01*
X97419312Y-52815758D01*
X97931827Y-53328274D01*
X97835956Y-53353963D01*
X97739044Y-53409916D01*
X97659916Y-53489044D01*
X97603963Y-53585956D01*
X97578274Y-53681827D01*
X97062532Y-53166086D01*
X97060756Y-53168440D01*
X96969886Y-53350931D01*
X96914096Y-53547012D01*
X96895287Y-53750000D01*
X96914096Y-53952987D01*
X96969886Y-54149068D01*
X97037329Y-54284511D01*
X97062835Y-54378258D01*
X97050525Y-54474630D01*
X97002272Y-54558955D01*
X96925422Y-54618396D01*
X96831675Y-54643902D01*
X96814433Y-54644500D01*
X94349500Y-54644500D01*
X94254212Y-54625546D01*
X94173430Y-54571570D01*
X94119454Y-54490788D01*
X94100500Y-54395500D01*
X94100500Y-52526081D01*
X94100499Y-52526079D01*
X94100044Y-52523793D01*
X94071658Y-52381087D01*
X94015084Y-52244505D01*
X93982186Y-52195270D01*
X93932952Y-52121584D01*
X92128416Y-50317048D01*
X92118740Y-50310583D01*
X92040641Y-50258400D01*
X92028818Y-50250500D01*
X92005495Y-50234916D01*
X92005487Y-50234912D01*
X91868914Y-50178342D01*
X91868911Y-50178341D01*
X91723920Y-50149500D01*
X91723918Y-50149500D01*
X86264008Y-50149500D01*
X86168720Y-50130546D01*
X86087939Y-50076570D01*
X85528415Y-49517047D01*
X85528411Y-49517043D01*
X85454732Y-49467815D01*
X85454729Y-49467812D01*
X85454729Y-49467813D01*
X85405495Y-49434916D01*
X85268913Y-49378342D01*
X85268911Y-49378341D01*
X85123920Y-49349500D01*
X85123918Y-49349500D01*
X84000401Y-49349500D01*
X83905113Y-49330546D01*
X83824331Y-49276570D01*
X83770355Y-49195788D01*
X83759021Y-49161627D01*
X83733357Y-49060286D01*
X83729157Y-49043700D01*
X83645751Y-48853554D01*
X83635925Y-48831153D01*
X83601421Y-48778341D01*
X83537172Y-48680000D01*
X83508980Y-48636848D01*
X83508977Y-48636844D01*
X83351785Y-48466088D01*
X83351779Y-48466083D01*
X83168628Y-48323531D01*
X82964512Y-48213068D01*
X82964507Y-48213066D01*
X82964503Y-48213064D01*
X82744981Y-48137702D01*
X82744978Y-48137701D01*
X82744974Y-48137700D01*
X82516049Y-48099500D01*
X82283951Y-48099500D01*
X82055025Y-48137700D01*
X82055019Y-48137701D01*
X82055019Y-48137702D01*
X81835497Y-48213064D01*
X81835494Y-48213065D01*
X81835487Y-48213068D01*
X81631371Y-48323531D01*
X81448220Y-48466083D01*
X81448214Y-48466088D01*
X81291022Y-48636844D01*
X81291019Y-48636848D01*
X81164074Y-48831153D01*
X81070842Y-49043702D01*
X81070841Y-49043706D01*
X81013868Y-49268684D01*
X81013866Y-49268691D01*
X80994700Y-49500000D01*
X81013866Y-49731308D01*
X81013868Y-49731315D01*
X81036432Y-49820417D01*
X81041451Y-49917442D01*
X81008957Y-50009002D01*
X80943898Y-50081158D01*
X80856179Y-50122924D01*
X80759154Y-50127943D01*
X80667594Y-50095449D01*
X80618982Y-50057614D01*
X80460592Y-49899224D01*
X80406616Y-49818442D01*
X80387662Y-49723154D01*
X80388510Y-49702621D01*
X80405300Y-49500000D01*
X80386134Y-49268695D01*
X80329157Y-49043700D01*
X80245751Y-48853554D01*
X80235925Y-48831153D01*
X80201421Y-48778341D01*
X80137172Y-48680000D01*
X80108980Y-48636848D01*
X80108977Y-48636844D01*
X79951785Y-48466088D01*
X79951779Y-48466083D01*
X79768628Y-48323531D01*
X79564512Y-48213068D01*
X79564507Y-48213066D01*
X79564503Y-48213064D01*
X79344981Y-48137702D01*
X79344978Y-48137701D01*
X79344974Y-48137700D01*
X79116049Y-48099500D01*
X78883951Y-48099500D01*
X78655025Y-48137700D01*
X78655019Y-48137701D01*
X78655019Y-48137702D01*
X78435497Y-48213064D01*
X78435494Y-48213065D01*
X78435487Y-48213068D01*
X78231371Y-48323531D01*
X78048220Y-48466083D01*
X78048214Y-48466088D01*
X77891022Y-48636844D01*
X77891018Y-48636850D01*
X77880828Y-48652446D01*
X77812840Y-48721849D01*
X77723468Y-48759951D01*
X77720959Y-48760464D01*
X77631087Y-48778341D01*
X77494507Y-48834915D01*
X77494503Y-48834917D01*
X77371587Y-48917046D01*
X74234016Y-52054615D01*
X74153234Y-52108591D01*
X74057946Y-52127545D01*
X73993501Y-52119061D01*
X73826694Y-52074365D01*
X73826679Y-52074363D01*
X73600006Y-52054532D01*
X73599994Y-52054532D01*
X73373320Y-52074363D01*
X73373305Y-52074365D01*
X73153506Y-52133260D01*
X72954732Y-52225950D01*
X72860361Y-52249042D01*
X72764337Y-52234262D01*
X72681278Y-52183861D01*
X72623829Y-52105511D01*
X72600737Y-52011140D01*
X72600500Y-52000279D01*
X72600500Y-51664007D01*
X72619454Y-51568719D01*
X72673428Y-51487939D01*
X76902142Y-47259224D01*
X76982921Y-47205251D01*
X77078209Y-47186297D01*
X77119183Y-47189692D01*
X77183951Y-47200500D01*
X77183954Y-47200500D01*
X77416049Y-47200500D01*
X77644981Y-47162298D01*
X77864503Y-47086936D01*
X78068626Y-46976470D01*
X78251784Y-46833913D01*
X78408979Y-46663153D01*
X78535924Y-46468849D01*
X78629157Y-46256300D01*
X78686134Y-46031305D01*
X78705300Y-45800000D01*
X78686134Y-45568695D01*
X78629157Y-45343700D01*
X78535924Y-45131151D01*
X78428837Y-44967242D01*
X78408980Y-44936848D01*
X78408977Y-44936844D01*
X78251785Y-44766088D01*
X78251779Y-44766083D01*
X78068628Y-44623531D01*
X77864512Y-44513068D01*
X77864507Y-44513066D01*
X77864503Y-44513064D01*
X77644981Y-44437702D01*
X77644978Y-44437701D01*
X77644974Y-44437700D01*
X77416049Y-44399500D01*
X77183951Y-44399500D01*
X76955025Y-44437700D01*
X76955019Y-44437701D01*
X76955019Y-44437702D01*
X76735497Y-44513064D01*
X76735494Y-44513065D01*
X76735487Y-44513068D01*
X76531371Y-44623531D01*
X76348220Y-44766083D01*
X76348214Y-44766088D01*
X76191022Y-44936844D01*
X76191019Y-44936848D01*
X76064074Y-45131153D01*
X75970842Y-45343702D01*
X75970841Y-45343706D01*
X75913868Y-45568684D01*
X75913866Y-45568691D01*
X75903441Y-45694505D01*
X75894700Y-45800000D01*
X75910158Y-45986561D01*
X75911487Y-46002592D01*
X75900466Y-46099119D01*
X75853344Y-46184082D01*
X75839407Y-46199223D01*
X71267046Y-50771586D01*
X71230635Y-50826081D01*
X71230634Y-50826083D01*
X71184917Y-50894503D01*
X71184915Y-50894507D01*
X71128341Y-51031088D01*
X71099500Y-51176079D01*
X71099500Y-54323920D01*
X71128341Y-54468911D01*
X71168918Y-54566873D01*
X71184916Y-54605495D01*
X71210978Y-54644500D01*
X71267048Y-54728416D01*
X72611584Y-56072952D01*
X72669513Y-56111658D01*
X72734505Y-56155084D01*
X72871087Y-56211658D01*
X73016080Y-56240499D01*
X73016081Y-56240500D01*
X73016082Y-56240500D01*
X73016083Y-56240500D01*
X73163918Y-56240500D01*
X74460661Y-56240500D01*
X74555949Y-56259454D01*
X74636731Y-56313430D01*
X74690707Y-56394212D01*
X74709661Y-56489500D01*
X74690707Y-56584788D01*
X74636731Y-56665570D01*
X74555949Y-56719546D01*
X74532947Y-56727777D01*
X74531084Y-56728342D01*
X74465538Y-56755493D01*
X74465536Y-56755494D01*
X74394505Y-56784915D01*
X74312374Y-56839792D01*
X74312373Y-56839794D01*
X74291841Y-56853513D01*
X74271586Y-56867047D01*
X69699560Y-61439070D01*
X69618778Y-61493046D01*
X69523490Y-61512000D01*
X67827134Y-61512000D01*
X67827130Y-61512000D01*
X67827128Y-61512001D01*
X67814314Y-61513378D01*
X67767519Y-61518408D01*
X67767515Y-61518409D01*
X67632670Y-61568703D01*
X67517455Y-61654953D01*
X67517453Y-61654955D01*
X67431204Y-61770169D01*
X67380907Y-61905022D01*
X67379281Y-61911904D01*
X67338920Y-62000278D01*
X67267812Y-62066480D01*
X67176782Y-62100431D01*
X67139769Y-62103621D01*
X64921315Y-62128689D01*
X64825819Y-62110813D01*
X64744433Y-62057753D01*
X64689547Y-61977586D01*
X64669518Y-61882518D01*
X64677986Y-61815259D01*
X64679575Y-61809330D01*
X64736207Y-61597977D01*
X64755277Y-61380000D01*
X64736207Y-61162023D01*
X64679575Y-60950670D01*
X64587102Y-60752362D01*
X64461598Y-60573123D01*
X64306877Y-60418402D01*
X64157293Y-60313662D01*
X64090110Y-60243481D01*
X64054898Y-60152932D01*
X64057017Y-60055800D01*
X64096146Y-59966873D01*
X64157293Y-59905726D01*
X64189570Y-59883124D01*
X63546447Y-59240000D01*
X63552661Y-59240000D01*
X63654394Y-59212741D01*
X63745606Y-59160080D01*
X63820080Y-59085606D01*
X63872741Y-58994394D01*
X63900000Y-58892661D01*
X63900000Y-58886446D01*
X64543124Y-59529570D01*
X64543125Y-59529570D01*
X64586663Y-59467393D01*
X64586664Y-59467392D01*
X64679103Y-59269155D01*
X64735711Y-59057891D01*
X64735713Y-59057876D01*
X64754775Y-58840005D01*
X64754775Y-58839994D01*
X64735713Y-58622123D01*
X64735711Y-58622108D01*
X64679103Y-58410844D01*
X64586667Y-58212613D01*
X64543123Y-58150428D01*
X63900000Y-58793551D01*
X63900000Y-58787339D01*
X63872741Y-58685606D01*
X63820080Y-58594394D01*
X63745606Y-58519920D01*
X63654394Y-58467259D01*
X63552661Y-58440000D01*
X63546444Y-58440000D01*
X64189570Y-57796874D01*
X64189570Y-57796873D01*
X64157294Y-57774273D01*
X64090110Y-57704091D01*
X64054898Y-57613542D01*
X64057017Y-57516410D01*
X64096146Y-57427483D01*
X64157289Y-57366340D01*
X64306877Y-57261598D01*
X64461598Y-57106877D01*
X64587102Y-56927639D01*
X64679575Y-56729330D01*
X64736207Y-56517977D01*
X64755277Y-56300000D01*
X64755276Y-56299996D01*
X64755277Y-56299994D01*
X64749797Y-56237359D01*
X64760373Y-56140782D01*
X64807104Y-56055603D01*
X64821768Y-56039598D01*
X66032951Y-54828416D01*
X66115084Y-54705495D01*
X66171658Y-54568913D01*
X66187242Y-54490568D01*
X66200500Y-54423918D01*
X66200500Y-48014007D01*
X66219454Y-47918719D01*
X66273430Y-47837937D01*
X66647475Y-47463892D01*
X67032952Y-47078415D01*
X67077007Y-47012481D01*
X67115084Y-46955495D01*
X67152968Y-46864035D01*
X67171659Y-46818912D01*
X67200500Y-46673917D01*
X67200500Y-46526082D01*
X67200500Y-45740000D01*
X72295034Y-45740000D01*
X72314859Y-45966602D01*
X72314859Y-45966603D01*
X72373732Y-46186323D01*
X72469866Y-46392483D01*
X72469868Y-46392485D01*
X72520973Y-46465471D01*
X73200000Y-45786444D01*
X73200000Y-45792661D01*
X73227259Y-45894394D01*
X73279920Y-45985606D01*
X73354394Y-46060080D01*
X73445606Y-46112741D01*
X73547339Y-46140000D01*
X73553553Y-46140000D01*
X72874527Y-46819025D01*
X72874527Y-46819027D01*
X72947510Y-46870129D01*
X72947514Y-46870132D01*
X73153676Y-46966267D01*
X73373396Y-47025140D01*
X73600000Y-47044965D01*
X73826602Y-47025140D01*
X73826603Y-47025140D01*
X74046323Y-46966267D01*
X74252486Y-46870132D01*
X74252488Y-46870130D01*
X74325471Y-46819027D01*
X74325471Y-46819026D01*
X73646445Y-46140000D01*
X73652661Y-46140000D01*
X73754394Y-46112741D01*
X73845606Y-46060080D01*
X73920080Y-45985606D01*
X73972741Y-45894394D01*
X74000000Y-45792661D01*
X74000000Y-45786445D01*
X74679026Y-46465471D01*
X74679027Y-46465471D01*
X74730130Y-46392488D01*
X74730132Y-46392486D01*
X74826267Y-46186323D01*
X74885140Y-45966603D01*
X74885140Y-45966602D01*
X74904965Y-45740000D01*
X74885140Y-45513397D01*
X74885140Y-45513396D01*
X74826267Y-45293676D01*
X74730132Y-45087514D01*
X74730129Y-45087510D01*
X74679027Y-45014527D01*
X74679025Y-45014527D01*
X74000000Y-45693552D01*
X74000000Y-45687339D01*
X73972741Y-45585606D01*
X73920080Y-45494394D01*
X73845606Y-45419920D01*
X73754394Y-45367259D01*
X73652661Y-45340000D01*
X73646445Y-45340000D01*
X74325472Y-44660973D01*
X74252485Y-44609868D01*
X74252483Y-44609866D01*
X74046323Y-44513732D01*
X73826603Y-44454859D01*
X73600000Y-44435034D01*
X73373397Y-44454859D01*
X73373396Y-44454859D01*
X73153676Y-44513732D01*
X72947513Y-44609868D01*
X72874527Y-44660972D01*
X73553555Y-45340000D01*
X73547339Y-45340000D01*
X73445606Y-45367259D01*
X73354394Y-45419920D01*
X73279920Y-45494394D01*
X73227259Y-45585606D01*
X73200000Y-45687339D01*
X73200000Y-45693555D01*
X72520972Y-45014527D01*
X72469868Y-45087513D01*
X72373732Y-45293676D01*
X72314859Y-45513396D01*
X72314859Y-45513397D01*
X72295034Y-45740000D01*
X67200500Y-45740000D01*
X67200500Y-44293927D01*
X67219454Y-44198639D01*
X67273430Y-44117857D01*
X67354212Y-44063881D01*
X67449500Y-44044927D01*
X67544788Y-44063881D01*
X67625570Y-44117857D01*
X67661808Y-44163826D01*
X67681279Y-44195601D01*
X67681285Y-44195608D01*
X67684533Y-44199411D01*
X68322421Y-43561523D01*
X68335359Y-43592758D01*
X68417437Y-43715597D01*
X68521903Y-43820063D01*
X68644742Y-43902141D01*
X68675973Y-43915077D01*
X68038086Y-44552964D01*
X68041895Y-44556218D01*
X68259984Y-44689863D01*
X68496288Y-44787743D01*
X68496296Y-44787746D01*
X68745010Y-44847457D01*
X68999994Y-44867525D01*
X69000006Y-44867525D01*
X69254989Y-44847457D01*
X69503703Y-44787746D01*
X69503711Y-44787743D01*
X69740010Y-44689865D01*
X69958107Y-44556215D01*
X69958108Y-44556214D01*
X69961911Y-44552965D01*
X69324024Y-43915078D01*
X69355258Y-43902141D01*
X69478097Y-43820063D01*
X69582563Y-43715597D01*
X69664641Y-43592758D01*
X69677578Y-43561524D01*
X70315465Y-44199411D01*
X70318714Y-44195608D01*
X70318715Y-44195607D01*
X70452365Y-43977510D01*
X70550243Y-43741211D01*
X70550246Y-43741203D01*
X70609957Y-43492489D01*
X70630025Y-43237505D01*
X70630025Y-43237494D01*
X70609957Y-42982510D01*
X70550246Y-42733796D01*
X70550243Y-42733788D01*
X70452363Y-42497484D01*
X70318718Y-42279395D01*
X70315464Y-42275586D01*
X69677577Y-42913473D01*
X69664641Y-42882242D01*
X69582563Y-42759403D01*
X69478097Y-42654937D01*
X69355258Y-42572859D01*
X69324023Y-42559920D01*
X69961911Y-41922033D01*
X69958108Y-41918785D01*
X69958106Y-41918783D01*
X69740010Y-41785134D01*
X69503711Y-41687256D01*
X69503703Y-41687253D01*
X69254989Y-41627542D01*
X69000006Y-41607475D01*
X68999994Y-41607475D01*
X68745010Y-41627542D01*
X68496296Y-41687253D01*
X68496288Y-41687256D01*
X68259984Y-41785136D01*
X68041901Y-41918778D01*
X68041883Y-41918790D01*
X68038087Y-41922033D01*
X68038086Y-41922034D01*
X68675975Y-42559921D01*
X68644742Y-42572859D01*
X68521903Y-42654937D01*
X68417437Y-42759403D01*
X68335359Y-42882242D01*
X68322421Y-42913474D01*
X67684534Y-42275586D01*
X67684533Y-42275587D01*
X67681290Y-42279383D01*
X67681282Y-42279394D01*
X67643712Y-42340703D01*
X67577762Y-42412045D01*
X67489531Y-42452719D01*
X67392451Y-42456532D01*
X67301301Y-42422904D01*
X67229959Y-42356954D01*
X67189285Y-42268723D01*
X67187199Y-42259215D01*
X67171658Y-42181087D01*
X67121701Y-42060481D01*
X67115087Y-42044512D01*
X67115086Y-42044510D01*
X67115084Y-42044505D01*
X67082186Y-41995270D01*
X67032952Y-41921584D01*
X65378416Y-40267048D01*
X65378412Y-40267045D01*
X65378410Y-40267043D01*
X65378411Y-40267043D01*
X65304732Y-40217815D01*
X65304729Y-40217812D01*
X65304729Y-40217813D01*
X65255495Y-40184916D01*
X65118913Y-40128342D01*
X65118911Y-40128341D01*
X64973920Y-40099500D01*
X64973918Y-40099500D01*
X51023917Y-40099500D01*
X50876082Y-40099500D01*
X50876079Y-40099500D01*
X50731088Y-40128341D01*
X50594507Y-40184915D01*
X50594503Y-40184917D01*
X50471587Y-40267046D01*
X48217046Y-42521586D01*
X48177623Y-42580589D01*
X48177622Y-42580591D01*
X48134916Y-42644504D01*
X48134912Y-42644512D01*
X48078342Y-42781085D01*
X48078341Y-42781088D01*
X48049500Y-42926079D01*
X48049500Y-64748920D01*
X48078341Y-64893911D01*
X48078342Y-64893913D01*
X48134916Y-65030495D01*
X48167813Y-65079729D01*
X48217048Y-65153416D01*
X51426572Y-68362940D01*
X51480546Y-68443719D01*
X51499500Y-68539007D01*
X51499500Y-72757564D01*
X51480546Y-72852852D01*
X51426570Y-72933634D01*
X48467041Y-75893163D01*
X48448054Y-75921582D01*
X48448052Y-75921585D01*
X48384916Y-76016076D01*
X48384911Y-76016084D01*
X48328339Y-76152662D01*
X48299498Y-76297653D01*
X48299498Y-104223918D01*
X48328339Y-104368909D01*
X48328340Y-104368912D01*
X48384911Y-104505488D01*
X48384914Y-104505493D01*
X48404574Y-104534916D01*
X48467046Y-104628414D01*
X50074432Y-106235800D01*
X51676570Y-107837938D01*
X51730546Y-107918720D01*
X51749500Y-108014008D01*
X51749500Y-109750006D01*
X51760001Y-109852800D01*
X51815185Y-110019332D01*
X51815186Y-110019334D01*
X51907288Y-110168656D01*
X52031344Y-110292712D01*
X52180666Y-110384814D01*
X52180669Y-110384815D01*
X52180667Y-110384815D01*
X52344310Y-110439040D01*
X52347203Y-110439999D01*
X52449991Y-110450500D01*
X54650008Y-110450499D01*
X54752797Y-110439999D01*
X54919334Y-110384814D01*
X54919777Y-110384540D01*
X54920490Y-110384275D01*
X54932476Y-110378686D01*
X54932923Y-110379646D01*
X55010827Y-110350647D01*
X55107918Y-110354177D01*
X55196267Y-110394593D01*
X55262425Y-110465742D01*
X55296319Y-110556793D01*
X55299500Y-110596466D01*
X55299500Y-112285992D01*
X55280546Y-112381280D01*
X55226570Y-112462062D01*
X55226569Y-112462062D01*
X54955123Y-112733507D01*
X54874342Y-112787483D01*
X54779054Y-112806437D01*
X54683765Y-112787483D01*
X54638787Y-112763170D01*
X54452778Y-112636350D01*
X54452773Y-112636348D01*
X54209649Y-112519265D01*
X54209644Y-112519263D01*
X54209641Y-112519262D01*
X53951772Y-112439720D01*
X53684929Y-112399500D01*
X53415071Y-112399500D01*
X53214938Y-112429665D01*
X53148227Y-112439720D01*
X52890353Y-112519264D01*
X52647227Y-112636348D01*
X52424257Y-112788366D01*
X52226437Y-112971916D01*
X52058189Y-113182892D01*
X52058188Y-113182892D01*
X51923257Y-113416601D01*
X51923256Y-113416604D01*
X51824667Y-113667801D01*
X51824663Y-113667812D01*
X51764616Y-113930899D01*
X51744451Y-114200000D01*
X51764616Y-114469100D01*
X51824663Y-114732187D01*
X51824666Y-114732195D01*
X51923257Y-114983398D01*
X51930344Y-114995674D01*
X52058188Y-115217107D01*
X52226437Y-115428083D01*
X52332225Y-115526240D01*
X52389184Y-115604946D01*
X52411688Y-115699459D01*
X52396310Y-115795389D01*
X52345392Y-115878133D01*
X52266686Y-115935092D01*
X52241186Y-115945131D01*
X52180666Y-115965185D01*
X52031346Y-116057286D01*
X51907286Y-116181346D01*
X51815184Y-116330668D01*
X51760002Y-116497197D01*
X51760002Y-116497199D01*
X51760001Y-116497203D01*
X51758476Y-116512128D01*
X51749500Y-116599988D01*
X51749500Y-118800006D01*
X51760001Y-118902800D01*
X51815185Y-119069331D01*
X51815186Y-119069334D01*
X51907288Y-119218656D01*
X52031344Y-119342712D01*
X52180666Y-119434814D01*
X52180669Y-119434815D01*
X52180667Y-119434815D01*
X52344310Y-119489040D01*
X52347203Y-119489999D01*
X52449991Y-119500500D01*
X54650008Y-119500499D01*
X54752797Y-119489999D01*
X54919334Y-119434814D01*
X55068656Y-119342712D01*
X55192712Y-119218656D01*
X55284814Y-119069334D01*
X55339999Y-118902797D01*
X55350500Y-118800009D01*
X55350500Y-118699500D01*
X55369454Y-118604212D01*
X55423430Y-118523430D01*
X55504212Y-118469454D01*
X55599500Y-118450500D01*
X58423917Y-118450500D01*
X58423918Y-118450500D01*
X58455207Y-118444275D01*
X58552360Y-118444275D01*
X58642120Y-118481453D01*
X58710820Y-118550151D01*
X58748001Y-118639910D01*
X58748002Y-118737065D01*
X58710824Y-118826825D01*
X58679856Y-118864560D01*
X58017049Y-119527367D01*
X57980984Y-119581344D01*
X57934915Y-119650291D01*
X57878340Y-119786875D01*
X57849499Y-119931866D01*
X57849499Y-121185993D01*
X57830545Y-121281281D01*
X57776569Y-121362063D01*
X56712062Y-122426570D01*
X56631280Y-122480546D01*
X56535992Y-122499500D01*
X55368365Y-122499500D01*
X55273077Y-122480546D01*
X55192295Y-122426570D01*
X55152725Y-122375000D01*
X55041817Y-122182902D01*
X55041815Y-122182898D01*
X54873561Y-121971915D01*
X54675741Y-121788365D01*
X54675738Y-121788362D01*
X54452778Y-121636350D01*
X54452773Y-121636348D01*
X54209649Y-121519265D01*
X54209644Y-121519263D01*
X54209641Y-121519262D01*
X53951772Y-121439720D01*
X53684929Y-121399500D01*
X53415071Y-121399500D01*
X53214938Y-121429665D01*
X53148227Y-121439720D01*
X52890353Y-121519264D01*
X52647227Y-121636348D01*
X52424257Y-121788366D01*
X52226437Y-121971916D01*
X52058189Y-122182892D01*
X52058188Y-122182892D01*
X51923257Y-122416601D01*
X51923256Y-122416604D01*
X51824667Y-122667801D01*
X51824663Y-122667812D01*
X51764616Y-122930899D01*
X51744451Y-123200000D01*
X51764616Y-123469100D01*
X51824663Y-123732187D01*
X51824667Y-123732198D01*
X51845866Y-123786212D01*
X51896445Y-123915084D01*
X51923256Y-123983395D01*
X51923257Y-123983398D01*
X52058188Y-124217107D01*
X52226437Y-124428083D01*
X52332225Y-124526240D01*
X52389184Y-124604946D01*
X52411688Y-124699459D01*
X52396310Y-124795389D01*
X52345392Y-124878133D01*
X52266686Y-124935092D01*
X52241186Y-124945131D01*
X52180666Y-124965185D01*
X52031346Y-125057286D01*
X51907286Y-125181346D01*
X51815184Y-125330668D01*
X51760002Y-125497197D01*
X51760001Y-125497204D01*
X51749500Y-125599988D01*
X51749500Y-127800006D01*
X51760001Y-127902800D01*
X51815185Y-128069331D01*
X51815186Y-128069334D01*
X51907288Y-128218656D01*
X52031344Y-128342712D01*
X52180666Y-128434814D01*
X52180669Y-128434815D01*
X52180667Y-128434815D01*
X52344310Y-128489040D01*
X52347203Y-128489999D01*
X52449991Y-128500500D01*
X54650008Y-128500499D01*
X54752797Y-128489999D01*
X54919334Y-128434814D01*
X55068656Y-128342712D01*
X55192712Y-128218656D01*
X55284814Y-128069334D01*
X55339999Y-127902797D01*
X55350500Y-127800009D01*
X55350500Y-127749500D01*
X55369454Y-127654212D01*
X55423430Y-127573430D01*
X55504212Y-127519454D01*
X55599500Y-127500500D01*
X57973919Y-127500500D01*
X57973919Y-127500499D01*
X58118913Y-127471658D01*
X58205039Y-127435983D01*
X58255491Y-127415086D01*
X58255492Y-127415085D01*
X58255495Y-127415084D01*
X58304729Y-127382186D01*
X58378416Y-127332952D01*
X60182952Y-125528416D01*
X60218787Y-125474783D01*
X60254622Y-125421153D01*
X60254623Y-125421151D01*
X60265084Y-125405495D01*
X60321658Y-125268913D01*
X60350500Y-125123918D01*
X60350500Y-120834005D01*
X60369454Y-120738717D01*
X60423425Y-120657941D01*
X60637456Y-120443910D01*
X60718232Y-120389939D01*
X60813520Y-120370985D01*
X60908808Y-120389939D01*
X60989590Y-120443915D01*
X61043566Y-120524697D01*
X61054035Y-120555539D01*
X61092596Y-120699450D01*
X61092596Y-120699452D01*
X61187254Y-120902448D01*
X61187256Y-120902450D01*
X61235332Y-120971110D01*
X61235334Y-120971110D01*
X61800707Y-120405738D01*
X61815437Y-120460712D01*
X61883896Y-120579287D01*
X61980713Y-120676104D01*
X62099288Y-120744563D01*
X62154259Y-120759292D01*
X61588888Y-121324663D01*
X61588888Y-121324665D01*
X61657553Y-121372745D01*
X61860543Y-121467401D01*
X62076882Y-121525368D01*
X62300000Y-121544888D01*
X62523116Y-121525368D01*
X62523117Y-121525368D01*
X62739459Y-121467400D01*
X62942438Y-121372750D01*
X62942445Y-121372746D01*
X63011110Y-121324665D01*
X62445738Y-120759293D01*
X62500712Y-120744563D01*
X62619287Y-120676104D01*
X62716104Y-120579287D01*
X62784563Y-120460712D01*
X62799293Y-120405738D01*
X63364665Y-120971110D01*
X63412746Y-120902445D01*
X63412750Y-120902438D01*
X63507400Y-120699459D01*
X63565368Y-120483117D01*
X63565368Y-120483116D01*
X63584888Y-120260000D01*
X63565368Y-120036883D01*
X63565368Y-120036882D01*
X63507401Y-119820543D01*
X63412747Y-119617558D01*
X63364664Y-119548888D01*
X62799292Y-120114260D01*
X62784563Y-120059288D01*
X62716104Y-119940713D01*
X62619287Y-119843896D01*
X62500712Y-119775437D01*
X62445738Y-119760707D01*
X63011110Y-119195334D01*
X63009596Y-119194274D01*
X62942412Y-119124093D01*
X62907200Y-119033543D01*
X62909319Y-118936411D01*
X62948448Y-118847484D01*
X63009595Y-118786337D01*
X63126233Y-118704667D01*
X63284667Y-118546233D01*
X63413181Y-118362696D01*
X63507872Y-118159630D01*
X63565863Y-117943206D01*
X63585391Y-117720000D01*
X63585390Y-117719994D01*
X63577488Y-117629669D01*
X63588064Y-117533091D01*
X63634794Y-117447913D01*
X63649458Y-117431908D01*
X69282952Y-111798416D01*
X69355967Y-111689139D01*
X69365084Y-111675495D01*
X69421658Y-111538913D01*
X69450500Y-111393918D01*
X69450500Y-76946618D01*
X69469454Y-76851330D01*
X69523430Y-76770548D01*
X69604212Y-76716572D01*
X69699500Y-76697618D01*
X69794788Y-76716572D01*
X69875570Y-76770548D01*
X71926570Y-78821548D01*
X71980546Y-78902330D01*
X71999500Y-78997618D01*
X71999500Y-82987692D01*
X71980546Y-83082980D01*
X71926570Y-83163762D01*
X71903439Y-83184188D01*
X71798220Y-83266083D01*
X71798214Y-83266088D01*
X71641022Y-83436844D01*
X71641019Y-83436848D01*
X71514074Y-83631153D01*
X71420842Y-83843702D01*
X71420841Y-83843706D01*
X71363868Y-84068684D01*
X71363866Y-84068691D01*
X71344700Y-84300000D01*
X71363866Y-84531308D01*
X71363868Y-84531315D01*
X71420841Y-84756293D01*
X71420842Y-84756297D01*
X71514074Y-84968846D01*
X71641019Y-85163151D01*
X71641022Y-85163155D01*
X71767457Y-85300500D01*
X71798216Y-85333913D01*
X71809913Y-85343017D01*
X71974492Y-85471114D01*
X71981374Y-85476470D01*
X72068148Y-85523430D01*
X72185487Y-85586931D01*
X72185489Y-85586931D01*
X72185497Y-85586936D01*
X72405019Y-85662298D01*
X72633951Y-85700500D01*
X72866049Y-85700500D01*
X73094981Y-85662298D01*
X73314503Y-85586936D01*
X73518626Y-85476470D01*
X73701784Y-85333913D01*
X73858979Y-85163153D01*
X73985924Y-84968849D01*
X74079157Y-84756300D01*
X74136134Y-84531305D01*
X74155300Y-84300000D01*
X74136134Y-84068695D01*
X74079157Y-83843700D01*
X73985924Y-83631151D01*
X73858979Y-83436847D01*
X73858977Y-83436844D01*
X73701785Y-83266088D01*
X73701779Y-83266083D01*
X73596561Y-83184188D01*
X73533007Y-83110703D01*
X73502412Y-83018491D01*
X73500500Y-82987692D01*
X73500500Y-78509692D01*
X73500499Y-78509690D01*
X73497540Y-78494815D01*
X73471658Y-78364698D01*
X73415084Y-78228116D01*
X73332951Y-78105195D01*
X73285050Y-78057294D01*
X73228416Y-78000659D01*
X73228416Y-78000660D01*
X65531897Y-70304140D01*
X65477923Y-70223361D01*
X65458969Y-70128073D01*
X65477923Y-70032785D01*
X65531899Y-69952003D01*
X65612681Y-69898027D01*
X65707969Y-69879073D01*
X65735084Y-69882643D01*
X65740000Y-69878871D01*
X65740000Y-68915686D01*
X65744394Y-68920080D01*
X65835606Y-68972741D01*
X65937339Y-69000000D01*
X66042661Y-69000000D01*
X66144394Y-68972741D01*
X66235606Y-68920080D01*
X66240000Y-68915686D01*
X66240000Y-69878871D01*
X66436323Y-69826267D01*
X66642483Y-69730133D01*
X66828812Y-69599664D01*
X66989664Y-69438812D01*
X67120133Y-69252483D01*
X67216267Y-69046323D01*
X67268871Y-68850000D01*
X67223889Y-68791378D01*
X67180919Y-68704242D01*
X67179287Y-68679355D01*
X67156220Y-68736926D01*
X67088322Y-68806417D01*
X66999000Y-68844636D01*
X66947593Y-68850000D01*
X66305686Y-68850000D01*
X66310080Y-68845606D01*
X66362741Y-68754394D01*
X66390000Y-68652661D01*
X66390000Y-68547339D01*
X66362741Y-68445606D01*
X66310080Y-68354394D01*
X66305686Y-68350000D01*
X66936891Y-68350000D01*
X66982626Y-68354236D01*
X66993336Y-68356238D01*
X67083519Y-68392373D01*
X67153010Y-68460271D01*
X67191229Y-68549593D01*
X67191325Y-68557916D01*
X67205793Y-68515296D01*
X67269852Y-68442251D01*
X67356988Y-68399281D01*
X67431873Y-68391015D01*
X72085598Y-68586374D01*
X72180007Y-68609308D01*
X72258453Y-68666625D01*
X72308994Y-68749599D01*
X72323206Y-68813451D01*
X72324363Y-68826680D01*
X72324365Y-68826694D01*
X72383261Y-69046496D01*
X72383262Y-69046499D01*
X72479428Y-69252727D01*
X72479436Y-69252741D01*
X72603508Y-69429935D01*
X72609953Y-69439139D01*
X72770861Y-69600047D01*
X72957266Y-69730568D01*
X73036514Y-69767522D01*
X73114863Y-69824969D01*
X73165265Y-69908028D01*
X73175497Y-69944613D01*
X73176967Y-69952003D01*
X73178342Y-69958913D01*
X73234916Y-70095495D01*
X73267813Y-70144729D01*
X73317048Y-70218416D01*
X74381584Y-71282952D01*
X74381587Y-71282954D01*
X74381589Y-71282956D01*
X74421613Y-71309698D01*
X74421615Y-71309699D01*
X74421621Y-71309703D01*
X74504505Y-71365084D01*
X74641087Y-71421658D01*
X74786080Y-71450499D01*
X74786081Y-71450500D01*
X74786082Y-71450500D01*
X74786083Y-71450500D01*
X74933917Y-71450500D01*
X75285992Y-71450500D01*
X75381280Y-71469454D01*
X75462062Y-71523430D01*
X77276570Y-73337937D01*
X77330546Y-73418719D01*
X77349500Y-73514007D01*
X77349500Y-98033920D01*
X77378341Y-98178911D01*
X77434916Y-98315497D01*
X77434917Y-98315498D01*
X77440325Y-98323591D01*
X77440331Y-98323598D01*
X77517048Y-98438416D01*
X81998261Y-102919628D01*
X86350528Y-107271895D01*
X86404504Y-107352677D01*
X86423458Y-107447965D01*
X86422511Y-107469663D01*
X86414609Y-107560000D01*
X86414609Y-107560005D01*
X86434135Y-107783193D01*
X86434136Y-107783202D01*
X86434137Y-107783206D01*
X86451526Y-107848101D01*
X86475649Y-107938132D01*
X86492128Y-107999630D01*
X86586819Y-108202696D01*
X86715333Y-108386233D01*
X86873767Y-108544667D01*
X86873770Y-108544669D01*
X86873771Y-108544670D01*
X86989967Y-108626032D01*
X87057151Y-108696213D01*
X87092363Y-108786762D01*
X87090244Y-108883894D01*
X87051114Y-108972821D01*
X86989967Y-109033968D01*
X86873771Y-109115329D01*
X86715330Y-109273770D01*
X86586823Y-109457298D01*
X86586820Y-109457302D01*
X86492127Y-109660371D01*
X86434137Y-109876795D01*
X86434135Y-109876806D01*
X86414609Y-110099994D01*
X86414609Y-110100005D01*
X86434135Y-110323193D01*
X86434136Y-110323202D01*
X86434137Y-110323206D01*
X86453265Y-110394593D01*
X86468245Y-110450500D01*
X86492128Y-110539630D01*
X86586819Y-110742696D01*
X86715333Y-110926233D01*
X86873767Y-111084667D01*
X86873770Y-111084669D01*
X86873771Y-111084670D01*
X86989967Y-111166032D01*
X87057151Y-111236213D01*
X87092363Y-111326762D01*
X87090244Y-111423894D01*
X87051114Y-111512821D01*
X86989967Y-111573968D01*
X86873771Y-111655329D01*
X86715330Y-111813770D01*
X86586823Y-111997298D01*
X86586820Y-111997302D01*
X86492127Y-112200371D01*
X86434137Y-112416795D01*
X86434135Y-112416806D01*
X86414609Y-112639994D01*
X86414609Y-112640005D01*
X86434135Y-112863193D01*
X86434136Y-112863202D01*
X86434137Y-112863206D01*
X86492128Y-113079630D01*
X86586819Y-113282696D01*
X86715333Y-113466233D01*
X86873767Y-113624667D01*
X86873770Y-113624669D01*
X86873771Y-113624670D01*
X86989967Y-113706032D01*
X87057151Y-113776213D01*
X87092363Y-113866762D01*
X87090244Y-113963894D01*
X87051114Y-114052821D01*
X86989967Y-114113968D01*
X86873771Y-114195329D01*
X86715330Y-114353770D01*
X86586823Y-114537298D01*
X86586820Y-114537302D01*
X86492127Y-114740371D01*
X86492127Y-114740372D01*
X86436535Y-114947847D01*
X86434137Y-114956795D01*
X86434135Y-114956806D01*
X86414609Y-115179994D01*
X86414609Y-115180005D01*
X86434135Y-115403193D01*
X86434136Y-115403202D01*
X86434137Y-115403206D01*
X86464594Y-115516874D01*
X86489985Y-115611635D01*
X86492128Y-115619630D01*
X86586819Y-115822696D01*
X86715333Y-116006233D01*
X86873767Y-116164667D01*
X86873770Y-116164669D01*
X86873771Y-116164670D01*
X86989967Y-116246032D01*
X87057151Y-116316213D01*
X87092363Y-116406762D01*
X87090244Y-116503894D01*
X87051114Y-116592821D01*
X86989967Y-116653968D01*
X86873771Y-116735329D01*
X86715330Y-116893770D01*
X86586823Y-117077298D01*
X86586820Y-117077302D01*
X86492127Y-117280371D01*
X86434137Y-117496795D01*
X86434135Y-117496806D01*
X86414609Y-117719994D01*
X86414609Y-117720005D01*
X86434135Y-117943193D01*
X86434136Y-117943200D01*
X86434137Y-117943206D01*
X86434138Y-117943208D01*
X86450650Y-118004833D01*
X86457004Y-118101780D01*
X86425774Y-118193779D01*
X86361715Y-118266824D01*
X86274579Y-118309794D01*
X86210134Y-118318278D01*
X83745152Y-118318278D01*
X83745146Y-118318278D01*
X83745135Y-118318279D01*
X83650414Y-118327235D01*
X83650384Y-118327239D01*
X83558704Y-118344735D01*
X83509933Y-118356578D01*
X83379200Y-118416644D01*
X83379195Y-118416646D01*
X83297584Y-118469357D01*
X83253764Y-118501108D01*
X83253763Y-118501109D01*
X83155965Y-118606631D01*
X83100738Y-118686561D01*
X83100711Y-118686602D01*
X83072404Y-118732662D01*
X83047463Y-118799999D01*
X83022428Y-118867587D01*
X83014851Y-118902802D01*
X83001992Y-118962564D01*
X82990742Y-119061027D01*
X82990742Y-119061028D01*
X82972100Y-120258092D01*
X82972100Y-120258093D01*
X82960008Y-121034501D01*
X82888125Y-125650126D01*
X82888125Y-125650127D01*
X82877073Y-126359789D01*
X82873433Y-126593482D01*
X82878071Y-126649731D01*
X82881551Y-126691924D01*
X82898897Y-126787175D01*
X82898900Y-126787189D01*
X82911334Y-126839506D01*
X82911338Y-126839516D01*
X82971232Y-126970329D01*
X82971232Y-126970330D01*
X83023829Y-127051997D01*
X83023840Y-127052014D01*
X83055529Y-127095868D01*
X83055529Y-127095869D01*
X83055531Y-127095871D01*
X83055532Y-127095872D01*
X83160932Y-127193813D01*
X83177599Y-127205361D01*
X83240775Y-127249135D01*
X83240789Y-127249143D01*
X83240791Y-127249145D01*
X83286854Y-127277537D01*
X83421711Y-127327687D01*
X83516666Y-127348247D01*
X83615110Y-127359624D01*
X89287372Y-127455358D01*
X89295779Y-127455430D01*
X89304018Y-127455432D01*
X89311672Y-127455371D01*
X89312346Y-127455366D01*
X94712874Y-127367790D01*
X98313233Y-127309406D01*
X98407670Y-127298943D01*
X98498921Y-127280022D01*
X98547335Y-127267456D01*
X98677126Y-127205361D01*
X98757908Y-127151385D01*
X98801233Y-127118952D01*
X98897380Y-127011913D01*
X98951356Y-126931131D01*
X98978966Y-126884596D01*
X99026833Y-126748911D01*
X99045787Y-126653623D01*
X99055500Y-126555005D01*
X99055500Y-124913903D01*
X99074454Y-124818615D01*
X99128430Y-124737833D01*
X99209212Y-124683857D01*
X99304500Y-124664903D01*
X99399788Y-124683857D01*
X99480570Y-124737833D01*
X99520140Y-124789403D01*
X99583598Y-124899316D01*
X99583604Y-124899324D01*
X99637294Y-124966650D01*
X100473957Y-124129986D01*
X100498978Y-124190390D01*
X100570112Y-124296851D01*
X100660649Y-124387388D01*
X100767110Y-124458522D01*
X100827510Y-124483541D01*
X99989849Y-125321203D01*
X100172473Y-125445715D01*
X100172478Y-125445717D01*
X100415535Y-125562768D01*
X100415540Y-125562770D01*
X100673333Y-125642289D01*
X100940112Y-125682500D01*
X101209888Y-125682500D01*
X101476666Y-125642289D01*
X101734459Y-125562770D01*
X101734465Y-125562768D01*
X101977519Y-125445719D01*
X102160149Y-125321203D01*
X101322487Y-124483541D01*
X101382890Y-124458522D01*
X101489351Y-124387388D01*
X101579888Y-124296851D01*
X101651022Y-124190390D01*
X101676041Y-124129987D01*
X102512704Y-124966650D01*
X102551592Y-124964467D01*
X102647793Y-124978048D01*
X102731474Y-125027410D01*
X102789894Y-125105038D01*
X102801914Y-125134751D01*
X102840642Y-125251622D01*
X102932681Y-125400841D01*
X102932684Y-125400845D01*
X103056654Y-125524815D01*
X103056658Y-125524818D01*
X103205878Y-125616858D01*
X103205879Y-125616859D01*
X103372298Y-125672004D01*
X103372305Y-125672005D01*
X103475023Y-125682499D01*
X104324998Y-125682499D01*
X104325000Y-125682498D01*
X104325000Y-124482501D01*
X104385402Y-124507521D01*
X104510981Y-124532500D01*
X104639019Y-124532500D01*
X104764598Y-124507521D01*
X104825000Y-124482501D01*
X104825000Y-125682498D01*
X104825001Y-125682499D01*
X105674968Y-125682499D01*
X105674984Y-125682498D01*
X105777699Y-125672005D01*
X105777702Y-125672004D01*
X105944119Y-125616859D01*
X105944121Y-125616858D01*
X106093341Y-125524818D01*
X106093345Y-125524815D01*
X106217315Y-125400845D01*
X106217318Y-125400841D01*
X106309358Y-125251621D01*
X106309359Y-125251620D01*
X106364504Y-125085201D01*
X106364505Y-125085194D01*
X106374999Y-124982481D01*
X106375000Y-124982471D01*
X106375000Y-124132501D01*
X106374999Y-124132500D01*
X105175001Y-124132500D01*
X105200021Y-124072098D01*
X105225000Y-123946519D01*
X105225000Y-123818481D01*
X105200021Y-123692902D01*
X105175001Y-123632500D01*
X106374998Y-123632500D01*
X106399155Y-123608343D01*
X106479936Y-123554366D01*
X106575224Y-123535412D01*
X106596868Y-123536355D01*
X106632882Y-123539499D01*
X106632885Y-123539498D01*
X106632886Y-123539499D01*
X106973425Y-123535715D01*
X110915751Y-123491910D01*
X111011242Y-123509804D01*
X111092618Y-123562880D01*
X111147489Y-123643057D01*
X111167501Y-123738128D01*
X111150304Y-123831864D01*
X111057644Y-124067958D01*
X110997615Y-124330968D01*
X110977453Y-124600000D01*
X110997615Y-124869031D01*
X111057644Y-125132041D01*
X111156205Y-125383173D01*
X111156213Y-125383189D01*
X111291098Y-125616816D01*
X111291104Y-125616824D01*
X111344794Y-125684150D01*
X112181457Y-124847486D01*
X112206478Y-124907890D01*
X112277612Y-125014351D01*
X112368149Y-125104888D01*
X112474610Y-125176022D01*
X112535010Y-125201041D01*
X111697349Y-126038703D01*
X111879973Y-126163215D01*
X111879978Y-126163217D01*
X112123035Y-126280268D01*
X112123040Y-126280270D01*
X112380833Y-126359789D01*
X112647612Y-126400000D01*
X112917388Y-126400000D01*
X113184166Y-126359789D01*
X113441959Y-126280270D01*
X113441965Y-126280268D01*
X113685019Y-126163219D01*
X113867649Y-126038703D01*
X113029987Y-125201041D01*
X113090390Y-125176022D01*
X113196851Y-125104888D01*
X113287388Y-125014351D01*
X113358522Y-124907890D01*
X113383541Y-124847487D01*
X114220204Y-125684150D01*
X114273901Y-125616817D01*
X114408786Y-125383189D01*
X114408794Y-125383173D01*
X114507355Y-125132041D01*
X114567384Y-124869031D01*
X114587546Y-124600000D01*
X114567384Y-124330968D01*
X114507355Y-124067958D01*
X114408794Y-123816826D01*
X114404750Y-123808429D01*
X114406434Y-123807617D01*
X114379420Y-123728056D01*
X114385766Y-123631108D01*
X114428729Y-123543969D01*
X114501769Y-123479904D01*
X114593765Y-123448667D01*
X114647941Y-123447478D01*
X114678069Y-123450108D01*
X114678070Y-123450107D01*
X114678071Y-123450108D01*
X114715320Y-123449694D01*
X116298445Y-123432104D01*
X116306639Y-123431946D01*
X116314689Y-123431726D01*
X116314693Y-123431725D01*
X116321301Y-123431545D01*
X116321354Y-123433508D01*
X116406053Y-123443321D01*
X116490937Y-123490584D01*
X116551273Y-123566733D01*
X116577875Y-123660175D01*
X116578691Y-123679490D01*
X116596987Y-129149667D01*
X116578351Y-129245018D01*
X116524645Y-129325980D01*
X116444045Y-129380226D01*
X116348821Y-129399499D01*
X116347988Y-129399500D01*
X88481803Y-129399500D01*
X88477600Y-129399231D01*
X88399351Y-129399499D01*
X88398501Y-129399500D01*
X88320712Y-129399500D01*
X88316509Y-129399782D01*
X59199554Y-129499499D01*
X59198701Y-129499500D01*
X46749500Y-129499500D01*
X46654212Y-129480546D01*
X46573430Y-129426570D01*
X46519454Y-129345788D01*
X46500500Y-129250500D01*
X46500500Y-39049500D01*
X46519454Y-38954212D01*
X46573430Y-38873430D01*
X46654212Y-38819454D01*
X46749500Y-38800500D01*
X85805018Y-38800500D01*
X85900306Y-38819454D01*
G37*
%TD.AperFunction*%
%TA.AperFunction,Conductor*%
G36*
X61815437Y-105220712D02*
G01*
X61883896Y-105339287D01*
X61980713Y-105436104D01*
X62099288Y-105504563D01*
X62154259Y-105519292D01*
X61588887Y-106084663D01*
X61590404Y-106085726D01*
X61657587Y-106155908D01*
X61692799Y-106246457D01*
X61690679Y-106343589D01*
X61651550Y-106432516D01*
X61590404Y-106493662D01*
X61473769Y-106575331D01*
X61315330Y-106733770D01*
X61186823Y-106917298D01*
X61186820Y-106917302D01*
X61092127Y-107120371D01*
X61034137Y-107336795D01*
X61034135Y-107336806D01*
X61014609Y-107559994D01*
X61014609Y-107559999D01*
X61014609Y-107560000D01*
X61015302Y-107567926D01*
X61022511Y-107650334D01*
X61011932Y-107746911D01*
X60965201Y-107832089D01*
X60950528Y-107848101D01*
X59517048Y-109281583D01*
X59494667Y-109315081D01*
X59494665Y-109315084D01*
X59434917Y-109404503D01*
X59434915Y-109404507D01*
X59378341Y-109541088D01*
X59349500Y-109686079D01*
X59349500Y-114771778D01*
X59330546Y-114867066D01*
X59276570Y-114947847D01*
X58967046Y-115257371D01*
X58951330Y-115280894D01*
X58951328Y-115280896D01*
X58884917Y-115380288D01*
X58884912Y-115380297D01*
X58828340Y-115516875D01*
X58799499Y-115661866D01*
X58799499Y-116085993D01*
X58780545Y-116181281D01*
X58726569Y-116262063D01*
X58112062Y-116876570D01*
X58031280Y-116930546D01*
X57935992Y-116949500D01*
X55599499Y-116949500D01*
X55504211Y-116930546D01*
X55423429Y-116876570D01*
X55369453Y-116795788D01*
X55350499Y-116700500D01*
X55350499Y-116599993D01*
X55350499Y-116599991D01*
X55339999Y-116497203D01*
X55327958Y-116460867D01*
X55303770Y-116387872D01*
X55284814Y-116330666D01*
X55192712Y-116181344D01*
X55068656Y-116057288D01*
X54919334Y-115965186D01*
X54919333Y-115965185D01*
X54919332Y-115965185D01*
X54858814Y-115945131D01*
X54774324Y-115897166D01*
X54714622Y-115820519D01*
X54688795Y-115726860D01*
X54700776Y-115630447D01*
X54748741Y-115545957D01*
X54767765Y-115526248D01*
X54873561Y-115428085D01*
X55041815Y-115217102D01*
X55176743Y-114983398D01*
X55275334Y-114732195D01*
X55317384Y-114547958D01*
X55357065Y-114459277D01*
X55384065Y-114427301D01*
X56632951Y-113178416D01*
X56715084Y-113055495D01*
X56771658Y-112918913D01*
X56800500Y-112773918D01*
X56800500Y-112626083D01*
X56800500Y-110564006D01*
X56819454Y-110468718D01*
X56873427Y-110387939D01*
X60932951Y-106328416D01*
X61015084Y-106205495D01*
X61071658Y-106068913D01*
X61089671Y-105978355D01*
X61096151Y-105962711D01*
X61099452Y-105929186D01*
X61100154Y-105925655D01*
X61137325Y-105835892D01*
X61168305Y-105798139D01*
X61800707Y-105165738D01*
X61815437Y-105220712D01*
G37*
%TD.AperFunction*%
%TA.AperFunction,Conductor*%
G36*
X65994788Y-74330786D02*
G01*
X66075570Y-74384762D01*
X67876570Y-76185762D01*
X67930546Y-76266544D01*
X67949500Y-76361832D01*
X67949500Y-110905991D01*
X67930546Y-111001279D01*
X67876570Y-111082061D01*
X63962956Y-114995674D01*
X63882174Y-115049650D01*
X63786886Y-115068604D01*
X63691598Y-115049650D01*
X63610816Y-114995674D01*
X63556840Y-114914892D01*
X63546374Y-114884061D01*
X63507872Y-114740370D01*
X63413181Y-114537305D01*
X63284667Y-114353767D01*
X63126233Y-114195333D01*
X63126227Y-114195329D01*
X63010033Y-114113969D01*
X62942849Y-114043788D01*
X62907636Y-113953239D01*
X62909755Y-113856107D01*
X62948884Y-113767180D01*
X63010033Y-113706031D01*
X63017304Y-113700940D01*
X63126233Y-113624667D01*
X63284667Y-113466233D01*
X63413181Y-113282696D01*
X63507872Y-113079630D01*
X63565863Y-112863206D01*
X63585391Y-112640000D01*
X63585391Y-112639994D01*
X63565864Y-112416806D01*
X63565863Y-112416794D01*
X63507872Y-112200370D01*
X63413181Y-111997305D01*
X63284667Y-111813767D01*
X63126233Y-111655333D01*
X63126227Y-111655329D01*
X63010033Y-111573969D01*
X62942849Y-111503788D01*
X62907636Y-111413239D01*
X62909755Y-111316107D01*
X62948884Y-111227180D01*
X63010033Y-111166031D01*
X63126233Y-111084667D01*
X63284667Y-110926233D01*
X63413181Y-110742696D01*
X63507872Y-110539630D01*
X63565863Y-110323206D01*
X63570530Y-110269860D01*
X63585391Y-110100005D01*
X63585391Y-110099994D01*
X63565864Y-109876806D01*
X63565863Y-109876794D01*
X63507872Y-109660370D01*
X63413181Y-109457305D01*
X63284667Y-109273767D01*
X63126233Y-109115333D01*
X63126227Y-109115329D01*
X63010033Y-109033969D01*
X62942849Y-108963788D01*
X62907636Y-108873239D01*
X62909755Y-108776107D01*
X62948884Y-108687180D01*
X63010033Y-108626031D01*
X63126233Y-108544667D01*
X63284667Y-108386233D01*
X63413181Y-108202696D01*
X63507872Y-107999630D01*
X63565863Y-107783206D01*
X63580902Y-107611308D01*
X63585391Y-107560005D01*
X63585391Y-107559994D01*
X63565864Y-107336806D01*
X63565863Y-107336794D01*
X63507872Y-107120370D01*
X63413181Y-106917305D01*
X63284667Y-106733767D01*
X63126233Y-106575333D01*
X63126229Y-106575330D01*
X63126228Y-106575329D01*
X63009596Y-106493662D01*
X62942412Y-106423481D01*
X62907200Y-106332932D01*
X62909319Y-106235800D01*
X62948449Y-106146873D01*
X63009595Y-106085726D01*
X63011110Y-106084665D01*
X62445738Y-105519293D01*
X62500712Y-105504563D01*
X62619287Y-105436104D01*
X62716104Y-105339287D01*
X62784563Y-105220712D01*
X62799293Y-105165738D01*
X63364665Y-105731110D01*
X63412746Y-105662445D01*
X63412750Y-105662438D01*
X63507400Y-105459459D01*
X63565368Y-105243117D01*
X63565368Y-105243116D01*
X63584888Y-105020000D01*
X63565368Y-104796883D01*
X63565368Y-104796882D01*
X63507401Y-104580543D01*
X63412747Y-104377558D01*
X63364664Y-104308888D01*
X62799292Y-104874260D01*
X62784563Y-104819288D01*
X62716104Y-104700713D01*
X62619287Y-104603896D01*
X62500712Y-104535437D01*
X62445738Y-104520707D01*
X63011110Y-103955334D01*
X63009596Y-103954274D01*
X62942412Y-103884093D01*
X62907200Y-103793543D01*
X62909319Y-103696411D01*
X62948448Y-103607484D01*
X63009595Y-103546337D01*
X63126233Y-103464667D01*
X63284667Y-103306233D01*
X63413181Y-103122696D01*
X63507872Y-102919630D01*
X63565863Y-102703206D01*
X63585391Y-102480000D01*
X63583804Y-102461866D01*
X63577488Y-102389669D01*
X63588064Y-102293091D01*
X63634794Y-102207913D01*
X63649459Y-102191907D01*
X64832951Y-101008416D01*
X64915084Y-100885495D01*
X64971658Y-100748913D01*
X64983277Y-100690500D01*
X65000500Y-100603918D01*
X65000500Y-84578221D01*
X65019454Y-84482933D01*
X65073427Y-84402154D01*
X65482952Y-83992630D01*
X65550198Y-83891987D01*
X65565084Y-83869709D01*
X65565086Y-83869706D01*
X65602016Y-83780546D01*
X65621658Y-83733127D01*
X65650500Y-83588132D01*
X65650500Y-74560832D01*
X65669454Y-74465544D01*
X65723430Y-74384762D01*
X65804212Y-74330786D01*
X65899500Y-74311832D01*
X65994788Y-74330786D01*
G37*
%TD.AperFunction*%
%TA.AperFunction,Conductor*%
G36*
X82422034Y-80177768D02*
G01*
X86108730Y-80512923D01*
X86153628Y-80514998D01*
X86197872Y-80515074D01*
X86340194Y-80494880D01*
X86379746Y-80483351D01*
X86433448Y-80467699D01*
X86433450Y-80467697D01*
X86433468Y-80467693D01*
X86484531Y-80449793D01*
X86484542Y-80449786D01*
X86486559Y-80448849D01*
X86488737Y-80448318D01*
X86496075Y-80445746D01*
X86496328Y-80446468D01*
X86580952Y-80425845D01*
X86676962Y-80440715D01*
X86759973Y-80491194D01*
X86767625Y-80498525D01*
X86873767Y-80604667D01*
X86873770Y-80604669D01*
X86873771Y-80604670D01*
X86989967Y-80686032D01*
X87057151Y-80756213D01*
X87092363Y-80846762D01*
X87090244Y-80943894D01*
X87051114Y-81032821D01*
X86989967Y-81093968D01*
X86873771Y-81175329D01*
X86715330Y-81333770D01*
X86586823Y-81517298D01*
X86586820Y-81517302D01*
X86492127Y-81720371D01*
X86434137Y-81936795D01*
X86434135Y-81936806D01*
X86414609Y-82159994D01*
X86414609Y-82160005D01*
X86434135Y-82383193D01*
X86434136Y-82383202D01*
X86434137Y-82383206D01*
X86438771Y-82400500D01*
X86483830Y-82568664D01*
X86492128Y-82599630D01*
X86586819Y-82802696D01*
X86715333Y-82986233D01*
X86873767Y-83144667D01*
X86873770Y-83144669D01*
X86873771Y-83144670D01*
X86989967Y-83226032D01*
X87057151Y-83296213D01*
X87092363Y-83386762D01*
X87090244Y-83483894D01*
X87051114Y-83572821D01*
X86989967Y-83633968D01*
X86873771Y-83715329D01*
X86873767Y-83715332D01*
X86873767Y-83715333D01*
X86862527Y-83726572D01*
X86781749Y-83780546D01*
X86686461Y-83799500D01*
X86467331Y-83799500D01*
X86372043Y-83780546D01*
X86291261Y-83726570D01*
X86265488Y-83694831D01*
X86265305Y-83694974D01*
X86258977Y-83686844D01*
X86101785Y-83516088D01*
X86101779Y-83516083D01*
X85918628Y-83373531D01*
X85714512Y-83263068D01*
X85714507Y-83263066D01*
X85714503Y-83263064D01*
X85494981Y-83187702D01*
X85494978Y-83187701D01*
X85494974Y-83187700D01*
X85266049Y-83149500D01*
X85033951Y-83149500D01*
X84805025Y-83187700D01*
X84805019Y-83187701D01*
X84805019Y-83187702D01*
X84585497Y-83263064D01*
X84585494Y-83263065D01*
X84585487Y-83263068D01*
X84381371Y-83373531D01*
X84198220Y-83516083D01*
X84198214Y-83516088D01*
X84041022Y-83686844D01*
X84041019Y-83686848D01*
X83914074Y-83881153D01*
X83820842Y-84093702D01*
X83820841Y-84093706D01*
X83763868Y-84318684D01*
X83763866Y-84318691D01*
X83744700Y-84550000D01*
X83763866Y-84781308D01*
X83763868Y-84781315D01*
X83820841Y-85006293D01*
X83820842Y-85006297D01*
X83914074Y-85218846D01*
X84041019Y-85413151D01*
X84041022Y-85413155D01*
X84198214Y-85583911D01*
X84198220Y-85583916D01*
X84348007Y-85700500D01*
X84381374Y-85726470D01*
X84454478Y-85766032D01*
X84585487Y-85836931D01*
X84585489Y-85836931D01*
X84585497Y-85836936D01*
X84805019Y-85912298D01*
X85033951Y-85950500D01*
X85266049Y-85950500D01*
X85494981Y-85912298D01*
X85714503Y-85836936D01*
X85918626Y-85726470D01*
X86101784Y-85583913D01*
X86205622Y-85471114D01*
X86263575Y-85408161D01*
X86342056Y-85350892D01*
X86436480Y-85328017D01*
X86532470Y-85343017D01*
X86615413Y-85393609D01*
X86650738Y-85433983D01*
X86713370Y-85523430D01*
X86715333Y-85526233D01*
X86873767Y-85684667D01*
X86879050Y-85688366D01*
X86990403Y-85766337D01*
X87057586Y-85836518D01*
X87092798Y-85927068D01*
X87090678Y-86024200D01*
X87051549Y-86113127D01*
X86990401Y-86174274D01*
X86988887Y-86175333D01*
X87554261Y-86740707D01*
X87499288Y-86755437D01*
X87380713Y-86823896D01*
X87283896Y-86920713D01*
X87215437Y-87039288D01*
X87200707Y-87094260D01*
X86635334Y-86528887D01*
X86587253Y-86597554D01*
X86587253Y-86597555D01*
X86492598Y-86800543D01*
X86434631Y-87016882D01*
X86434631Y-87016883D01*
X86415111Y-87240000D01*
X86434631Y-87463116D01*
X86434631Y-87463117D01*
X86492598Y-87679456D01*
X86587254Y-87882448D01*
X86587256Y-87882450D01*
X86635333Y-87951110D01*
X87200706Y-87385736D01*
X87215437Y-87440712D01*
X87283896Y-87559287D01*
X87380713Y-87656104D01*
X87499288Y-87724563D01*
X87554260Y-87739292D01*
X86988888Y-88304664D01*
X86990404Y-88305726D01*
X87057587Y-88375908D01*
X87092799Y-88466457D01*
X87090679Y-88563589D01*
X87051550Y-88652516D01*
X86990404Y-88713662D01*
X86873769Y-88795331D01*
X86715330Y-88953770D01*
X86586823Y-89137298D01*
X86586820Y-89137302D01*
X86492127Y-89340371D01*
X86471402Y-89417719D01*
X86435824Y-89550500D01*
X86434137Y-89556795D01*
X86434135Y-89556806D01*
X86414609Y-89779994D01*
X86414609Y-89780005D01*
X86434135Y-90003193D01*
X86434136Y-90003202D01*
X86434137Y-90003206D01*
X86492128Y-90219630D01*
X86586819Y-90422696D01*
X86715333Y-90606233D01*
X86873767Y-90764667D01*
X86873770Y-90764669D01*
X86873771Y-90764670D01*
X86989967Y-90846032D01*
X87057151Y-90916213D01*
X87092363Y-91006762D01*
X87090244Y-91103894D01*
X87051114Y-91192821D01*
X86989967Y-91253968D01*
X86873771Y-91335329D01*
X86715330Y-91493770D01*
X86586823Y-91677298D01*
X86586820Y-91677302D01*
X86576233Y-91700006D01*
X86500501Y-91862416D01*
X86487534Y-91890223D01*
X86485317Y-91889189D01*
X86443905Y-91957426D01*
X86365551Y-92014869D01*
X86271178Y-92037955D01*
X86175155Y-92023169D01*
X86102659Y-91981908D01*
X85966894Y-91870827D01*
X82877270Y-89342953D01*
X82877262Y-89342947D01*
X82877255Y-89342942D01*
X82816732Y-89300418D01*
X82816723Y-89300412D01*
X82754369Y-89263101D01*
X82729087Y-89248940D01*
X82631339Y-89214457D01*
X82593406Y-89201075D01*
X82593403Y-89201074D01*
X82593402Y-89201074D01*
X82498121Y-89182121D01*
X82475162Y-89178820D01*
X82444556Y-89174420D01*
X82444553Y-89174420D01*
X82444552Y-89174420D01*
X82444548Y-89174419D01*
X82412825Y-89176120D01*
X82316659Y-89162293D01*
X82233105Y-89112717D01*
X82174883Y-89034939D01*
X82150857Y-88940802D01*
X82150500Y-88927477D01*
X82150500Y-80425746D01*
X82169454Y-80330458D01*
X82223430Y-80249676D01*
X82304212Y-80195700D01*
X82399500Y-80176746D01*
X82422034Y-80177768D01*
G37*
%TD.AperFunction*%
%TA.AperFunction,Conductor*%
G36*
X100098357Y-80379454D02*
G01*
X100179139Y-80433430D01*
X100233115Y-80514212D01*
X100252069Y-80609500D01*
X100247058Y-80659202D01*
X100044888Y-81651671D01*
X100044885Y-81651688D01*
X100037263Y-81701881D01*
X100032254Y-81751556D01*
X100031714Y-81757228D01*
X100031714Y-81757241D01*
X100039414Y-81900901D01*
X100058369Y-81996197D01*
X100071751Y-82048622D01*
X100071752Y-82048627D01*
X100133845Y-82178412D01*
X100187825Y-82259200D01*
X100197900Y-82272659D01*
X100239829Y-82360301D01*
X100245027Y-82457316D01*
X100242035Y-82474047D01*
X100196749Y-82685385D01*
X100158250Y-82774587D01*
X100129346Y-82809282D01*
X99072061Y-83866569D01*
X98991279Y-83920546D01*
X98895991Y-83939500D01*
X97469886Y-83939500D01*
X97374598Y-83920546D01*
X97302137Y-83874514D01*
X97181720Y-83764740D01*
X96999815Y-83652110D01*
X96999814Y-83652109D01*
X96999810Y-83652107D01*
X96999322Y-83651918D01*
X96998934Y-83651671D01*
X96989501Y-83646974D01*
X96989990Y-83645990D01*
X96917317Y-83599824D01*
X96861488Y-83520312D01*
X96840337Y-83425487D01*
X96857083Y-83329786D01*
X96909178Y-83247779D01*
X96988690Y-83191950D01*
X96999329Y-83187543D01*
X96999590Y-83187441D01*
X97102912Y-83123466D01*
X96529446Y-82550000D01*
X96535661Y-82550000D01*
X96637394Y-82522741D01*
X96728606Y-82470080D01*
X96803080Y-82395606D01*
X96855741Y-82304394D01*
X96883000Y-82202661D01*
X96883000Y-82196446D01*
X97459019Y-82772465D01*
X97468353Y-82760106D01*
X97563684Y-82568655D01*
X97563684Y-82568654D01*
X97622209Y-82362963D01*
X97622211Y-82362951D01*
X97641943Y-82150000D01*
X97622211Y-81937048D01*
X97622209Y-81937036D01*
X97563684Y-81731345D01*
X97563684Y-81731344D01*
X97468352Y-81539893D01*
X97459019Y-81527532D01*
X96883000Y-82103551D01*
X96883000Y-82097339D01*
X96855741Y-81995606D01*
X96803080Y-81904394D01*
X96728606Y-81829920D01*
X96637394Y-81777259D01*
X96535661Y-81750000D01*
X96529445Y-81750000D01*
X97102912Y-81176533D01*
X96999586Y-81112555D01*
X96999580Y-81112552D01*
X96999310Y-81112448D01*
X96999092Y-81112309D01*
X96989286Y-81107427D01*
X96989795Y-81106403D01*
X96917306Y-81060349D01*
X96861482Y-80980833D01*
X96840336Y-80886007D01*
X96857089Y-80790307D01*
X96909188Y-80708303D01*
X96988704Y-80652479D01*
X96999293Y-80648093D01*
X96999810Y-80647893D01*
X97181722Y-80535258D01*
X97275473Y-80449793D01*
X97302137Y-80425486D01*
X97385325Y-80375298D01*
X97469886Y-80360500D01*
X100003069Y-80360500D01*
X100098357Y-80379454D01*
G37*
%TD.AperFunction*%
%TA.AperFunction,Conductor*%
G36*
X64089757Y-68250716D02*
G01*
X64536835Y-68269484D01*
X64631237Y-68292416D01*
X64709683Y-68349733D01*
X64709907Y-68350000D01*
X65674314Y-68350000D01*
X65669920Y-68354394D01*
X65617259Y-68445606D01*
X65590000Y-68547339D01*
X65590000Y-68652661D01*
X65617259Y-68754394D01*
X65669920Y-68845606D01*
X65674314Y-68850000D01*
X64711128Y-68850000D01*
X64705082Y-68857878D01*
X64708796Y-68914532D01*
X64677566Y-69006531D01*
X64613507Y-69079576D01*
X64526371Y-69122546D01*
X64429424Y-69128900D01*
X64337425Y-69097670D01*
X64285860Y-69058103D01*
X63903322Y-68675565D01*
X63849349Y-68594787D01*
X63830395Y-68499499D01*
X63849349Y-68404211D01*
X63903325Y-68323429D01*
X63984107Y-68269453D01*
X64079395Y-68250499D01*
X64089757Y-68250716D01*
G37*
%TD.AperFunction*%
%TA.AperFunction,Conductor*%
G36*
X62474174Y-54529454D02*
G01*
X62554952Y-54583427D01*
X62693123Y-54721598D01*
X62842269Y-54826031D01*
X62909452Y-54896211D01*
X62944665Y-54986760D01*
X62942546Y-55083892D01*
X62903417Y-55172819D01*
X62842270Y-55233967D01*
X62693125Y-55338400D01*
X62538401Y-55493124D01*
X62412898Y-55672360D01*
X62412894Y-55672368D01*
X62320426Y-55870666D01*
X62320425Y-55870670D01*
X62263793Y-56082023D01*
X62244723Y-56300000D01*
X62263793Y-56517977D01*
X62266668Y-56528705D01*
X62320008Y-56727777D01*
X62320425Y-56729330D01*
X62412898Y-56927639D01*
X62538402Y-57106877D01*
X62693123Y-57261598D01*
X62842706Y-57366337D01*
X62909889Y-57436517D01*
X62945102Y-57527066D01*
X62942983Y-57624198D01*
X62903854Y-57713125D01*
X62842706Y-57774274D01*
X62810428Y-57796875D01*
X63453554Y-58440000D01*
X63447339Y-58440000D01*
X63345606Y-58467259D01*
X63254394Y-58519920D01*
X63179920Y-58594394D01*
X63127259Y-58685606D01*
X63100000Y-58787339D01*
X63100000Y-58793553D01*
X62456875Y-58150428D01*
X62413335Y-58212610D01*
X62413333Y-58212612D01*
X62320896Y-58410844D01*
X62264288Y-58622108D01*
X62264286Y-58622123D01*
X62245225Y-58839994D01*
X62245225Y-58840005D01*
X62264286Y-59057876D01*
X62264288Y-59057891D01*
X62320896Y-59269155D01*
X62413334Y-59467390D01*
X62413337Y-59467394D01*
X62456872Y-59529570D01*
X62456874Y-59529570D01*
X63100000Y-58886444D01*
X63100000Y-58892661D01*
X63127259Y-58994394D01*
X63179920Y-59085606D01*
X63254394Y-59160080D01*
X63345606Y-59212741D01*
X63447339Y-59240000D01*
X63453553Y-59240000D01*
X62810428Y-59883125D01*
X62842705Y-59905725D01*
X62909889Y-59975907D01*
X62945101Y-60066456D01*
X62942982Y-60163588D01*
X62903853Y-60252515D01*
X62842706Y-60313662D01*
X62693125Y-60418400D01*
X62693123Y-60418401D01*
X62693123Y-60418402D01*
X62554952Y-60556572D01*
X62474174Y-60610546D01*
X62378886Y-60629500D01*
X61071074Y-60629500D01*
X61042244Y-60635234D01*
X61042245Y-60635235D01*
X60926090Y-60658340D01*
X60846076Y-60691482D01*
X60789507Y-60714914D01*
X60789503Y-60714916D01*
X60763508Y-60732286D01*
X60740270Y-60747813D01*
X60733465Y-60752360D01*
X60666582Y-60797049D01*
X59425570Y-62038062D01*
X59344788Y-62092038D01*
X59249500Y-62110992D01*
X59154212Y-62092038D01*
X59073430Y-62038062D01*
X59019454Y-61957280D01*
X59000500Y-61861992D01*
X59000500Y-55078222D01*
X59019454Y-54982934D01*
X59073430Y-54902152D01*
X59392152Y-54583430D01*
X59472934Y-54529454D01*
X59568222Y-54510500D01*
X62378886Y-54510500D01*
X62474174Y-54529454D01*
G37*
%TD.AperFunction*%
%TD*%
%TA.AperFunction,Conductor*%
%TO.N,unconnected-(D2-K-Pad1)*%
G36*
X145567539Y-101670185D02*
G01*
X145613294Y-101722989D01*
X145624500Y-101774500D01*
X145624500Y-104125500D01*
X145604815Y-104192539D01*
X145552011Y-104238294D01*
X145500500Y-104249500D01*
X144799000Y-104249500D01*
X144731961Y-104229815D01*
X144686206Y-104177011D01*
X144675000Y-104125500D01*
X144675000Y-103655000D01*
X143650278Y-103655000D01*
X143694333Y-103578694D01*
X143725000Y-103464244D01*
X143725000Y-103345756D01*
X143694333Y-103231306D01*
X143650278Y-103155000D01*
X144675000Y-103155000D01*
X144675000Y-102457172D01*
X144674999Y-102457155D01*
X144668598Y-102397627D01*
X144668596Y-102397620D01*
X144618354Y-102262913D01*
X144618350Y-102262906D01*
X144532190Y-102147812D01*
X144532187Y-102147809D01*
X144417093Y-102061649D01*
X144417086Y-102061645D01*
X144282379Y-102011403D01*
X144282372Y-102011401D01*
X144222844Y-102005000D01*
X143525000Y-102005000D01*
X143525000Y-103029722D01*
X143448694Y-102985667D01*
X143334244Y-102955000D01*
X143215756Y-102955000D01*
X143101306Y-102985667D01*
X143025000Y-103029722D01*
X143025000Y-102005000D01*
X142327155Y-102005000D01*
X142267627Y-102011401D01*
X142267620Y-102011403D01*
X142132913Y-102061645D01*
X142132906Y-102061649D01*
X142017812Y-102147809D01*
X142017809Y-102147812D01*
X141931649Y-102262906D01*
X141931645Y-102262913D01*
X141881403Y-102397620D01*
X141881401Y-102397627D01*
X141875000Y-102457155D01*
X141875000Y-103155000D01*
X142899722Y-103155000D01*
X142855667Y-103231306D01*
X142825000Y-103345756D01*
X142825000Y-103464244D01*
X142855667Y-103578694D01*
X142899722Y-103655000D01*
X141875000Y-103655000D01*
X141875000Y-104125500D01*
X141855315Y-104192539D01*
X141802511Y-104238294D01*
X141751000Y-104249500D01*
X138299500Y-104249500D01*
X138232461Y-104229815D01*
X138186706Y-104177011D01*
X138175500Y-104125500D01*
X138175500Y-101774500D01*
X138195185Y-101707461D01*
X138247989Y-101661706D01*
X138299500Y-101650500D01*
X145500500Y-101650500D01*
X145567539Y-101670185D01*
G37*
%TD.AperFunction*%
%TD*%
%TA.AperFunction,Conductor*%
%TO.N,unconnected-(D2-A-Pad2)*%
G36*
X142170263Y-104762817D02*
G01*
X142267517Y-104799091D01*
X142327127Y-104805500D01*
X142437693Y-104805499D01*
X142504730Y-104825183D01*
X142525372Y-104841818D01*
X143186415Y-105502861D01*
X143101306Y-105525667D01*
X142998694Y-105584910D01*
X142914910Y-105668694D01*
X142855667Y-105771306D01*
X142832861Y-105856414D01*
X142123812Y-105147365D01*
X142039516Y-105276391D01*
X142039514Y-105276395D01*
X141946317Y-105488864D01*
X141889361Y-105713781D01*
X141870202Y-105944994D01*
X141870202Y-105945005D01*
X141889361Y-106176218D01*
X141946317Y-106401135D01*
X142039516Y-106613609D01*
X142123811Y-106742633D01*
X142832861Y-106033584D01*
X142855667Y-106118694D01*
X142914910Y-106221306D01*
X142998694Y-106305090D01*
X143101306Y-106364333D01*
X143186414Y-106387138D01*
X142465135Y-107108417D01*
X142458876Y-107135946D01*
X142409009Y-107184885D01*
X142350606Y-107199500D01*
X138299500Y-107199500D01*
X138232461Y-107179815D01*
X138186706Y-107127011D01*
X138175500Y-107075500D01*
X138175500Y-104879000D01*
X138195185Y-104811961D01*
X138247989Y-104766206D01*
X138299500Y-104755000D01*
X142126931Y-104755000D01*
X142170263Y-104762817D01*
G37*
%TD.AperFunction*%
%TA.AperFunction,Conductor*%
G36*
X145567539Y-104774685D02*
G01*
X145613294Y-104827489D01*
X145624500Y-104879000D01*
X145624500Y-107075500D01*
X145604815Y-107142539D01*
X145552011Y-107188294D01*
X145500500Y-107199500D01*
X144199393Y-107199500D01*
X144132354Y-107179815D01*
X144086599Y-107127011D01*
X144082764Y-107106317D01*
X143363585Y-106387137D01*
X143448694Y-106364333D01*
X143551306Y-106305090D01*
X143635090Y-106221306D01*
X143694333Y-106118694D01*
X143717138Y-106033585D01*
X144426186Y-106742634D01*
X144510484Y-106613606D01*
X144603682Y-106401135D01*
X144660638Y-106176218D01*
X144679798Y-105945005D01*
X144679798Y-105944994D01*
X144660638Y-105713781D01*
X144603682Y-105488864D01*
X144510483Y-105276390D01*
X144426186Y-105147364D01*
X143717137Y-105856413D01*
X143694333Y-105771306D01*
X143635090Y-105668694D01*
X143551306Y-105584910D01*
X143448694Y-105525667D01*
X143363584Y-105502861D01*
X144024628Y-104841818D01*
X144085951Y-104808333D01*
X144112308Y-104805499D01*
X144222872Y-104805499D01*
X144282483Y-104799091D01*
X144379736Y-104762817D01*
X144423069Y-104755000D01*
X145500500Y-104755000D01*
X145567539Y-104774685D01*
G37*
%TD.AperFunction*%
%TD*%
%TA.AperFunction,Conductor*%
%TO.N,+3.3V*%
G36*
X89118644Y-101438360D02*
G01*
X89160927Y-101472295D01*
X97516734Y-109828102D01*
X97570710Y-109908884D01*
X97589664Y-110004172D01*
X97570710Y-110099460D01*
X97544634Y-110146991D01*
X97509435Y-110197260D01*
X97509428Y-110197272D01*
X97413262Y-110403500D01*
X97413261Y-110403503D01*
X97354365Y-110623305D01*
X97354363Y-110623320D01*
X97334532Y-110849994D01*
X97334532Y-110850005D01*
X97354363Y-111076679D01*
X97354365Y-111076694D01*
X97413261Y-111296496D01*
X97413262Y-111296499D01*
X97509428Y-111502727D01*
X97509436Y-111502741D01*
X97639949Y-111689134D01*
X97639953Y-111689139D01*
X97800861Y-111850047D01*
X97800864Y-111850049D01*
X97800865Y-111850050D01*
X97987258Y-111980563D01*
X97987262Y-111980565D01*
X97987266Y-111980568D01*
X97987270Y-111980569D01*
X97987272Y-111980571D01*
X98023158Y-111997305D01*
X98193504Y-112076739D01*
X98413308Y-112135635D01*
X98432984Y-112137356D01*
X98639994Y-112155468D01*
X98640000Y-112155468D01*
X98640006Y-112155468D01*
X98819668Y-112139749D01*
X98866692Y-112135635D01*
X99086496Y-112076739D01*
X99292734Y-111980568D01*
X99479139Y-111850047D01*
X99640047Y-111689139D01*
X99770568Y-111502734D01*
X99866739Y-111296496D01*
X99925635Y-111076692D01*
X99936720Y-110949988D01*
X99945468Y-110850005D01*
X99945468Y-110849994D01*
X99925636Y-110623320D01*
X99925635Y-110623308D01*
X99866739Y-110403504D01*
X99803106Y-110267043D01*
X99770571Y-110197272D01*
X99770563Y-110197258D01*
X99640050Y-110010865D01*
X99640049Y-110010864D01*
X99640047Y-110010861D01*
X99479139Y-109849953D01*
X99479135Y-109849950D01*
X99465872Y-109840663D01*
X99398689Y-109770481D01*
X99364479Y-109685269D01*
X99361658Y-109671088D01*
X99361658Y-109671087D01*
X99305084Y-109534505D01*
X99248265Y-109449469D01*
X99222952Y-109411584D01*
X96236938Y-106425570D01*
X96182962Y-106344788D01*
X96164008Y-106249500D01*
X96182962Y-106154212D01*
X96236938Y-106073430D01*
X96317720Y-106019454D01*
X96413008Y-106000500D01*
X97923204Y-106000500D01*
X98018492Y-106019454D01*
X98091457Y-106065947D01*
X98700000Y-106623778D01*
X107338437Y-106312081D01*
X107434342Y-106327587D01*
X107517017Y-106378615D01*
X107523481Y-106384849D01*
X111237562Y-110098930D01*
X111291538Y-110179712D01*
X111310492Y-110275000D01*
X111291538Y-110370288D01*
X111237563Y-110451069D01*
X111157287Y-110531345D01*
X111065184Y-110680668D01*
X111010002Y-110847197D01*
X111010001Y-110847204D01*
X110999500Y-110949988D01*
X110999500Y-113136993D01*
X110980546Y-113232281D01*
X110926570Y-113313063D01*
X110845788Y-113367039D01*
X110750500Y-113385993D01*
X110655212Y-113367039D01*
X110574433Y-113313065D01*
X107528416Y-110267048D01*
X107528412Y-110267045D01*
X107528410Y-110267043D01*
X107528411Y-110267043D01*
X107454732Y-110217815D01*
X107454731Y-110217814D01*
X107400035Y-110181268D01*
X107334400Y-110117050D01*
X107260049Y-110010864D01*
X107260047Y-110010861D01*
X107099139Y-109849953D01*
X107099135Y-109849950D01*
X107099134Y-109849949D01*
X106912741Y-109719436D01*
X106912727Y-109719428D01*
X106706499Y-109623262D01*
X106706496Y-109623261D01*
X106486694Y-109564365D01*
X106486679Y-109564363D01*
X106260006Y-109544532D01*
X106259994Y-109544532D01*
X106033320Y-109564363D01*
X106033305Y-109564365D01*
X105813503Y-109623261D01*
X105813500Y-109623262D01*
X105607272Y-109719428D01*
X105607258Y-109719436D01*
X105420865Y-109849949D01*
X105259949Y-110010865D01*
X105129436Y-110197258D01*
X105129428Y-110197272D01*
X105033262Y-110403500D01*
X105033261Y-110403503D01*
X104974365Y-110623305D01*
X104974363Y-110623320D01*
X104954532Y-110849994D01*
X104954532Y-110850005D01*
X104974363Y-111076679D01*
X104974365Y-111076694D01*
X105033261Y-111296496D01*
X105033262Y-111296499D01*
X105129428Y-111502727D01*
X105129436Y-111502741D01*
X105259949Y-111689134D01*
X105259953Y-111689139D01*
X105420861Y-111850047D01*
X105420864Y-111850049D01*
X105420865Y-111850050D01*
X105607258Y-111980563D01*
X105607262Y-111980565D01*
X105607266Y-111980568D01*
X105607270Y-111980569D01*
X105607272Y-111980571D01*
X105643158Y-111997305D01*
X105813504Y-112076739D01*
X106033308Y-112135635D01*
X106052984Y-112137356D01*
X106259994Y-112155468D01*
X106260000Y-112155468D01*
X106260006Y-112155468D01*
X106439668Y-112139749D01*
X106486692Y-112135635D01*
X106706496Y-112076739D01*
X106895528Y-111988591D01*
X106989892Y-111965500D01*
X107085916Y-111980279D01*
X107168976Y-112030680D01*
X107176825Y-112038193D01*
X110980714Y-115842082D01*
X111034690Y-115922864D01*
X111047401Y-115962743D01*
X111074665Y-116082194D01*
X111173256Y-116333395D01*
X111173257Y-116333398D01*
X111308188Y-116567107D01*
X111442345Y-116735333D01*
X111476439Y-116778085D01*
X111674259Y-116961635D01*
X111897226Y-117113651D01*
X112140359Y-117230738D01*
X112398228Y-117310280D01*
X112665071Y-117350500D01*
X112665074Y-117350500D01*
X112934926Y-117350500D01*
X112934929Y-117350500D01*
X113201772Y-117310280D01*
X113459641Y-117230738D01*
X113702775Y-117113651D01*
X113925741Y-116961635D01*
X114123561Y-116778085D01*
X114291815Y-116567102D01*
X114426743Y-116333398D01*
X114525334Y-116082195D01*
X114585383Y-115819103D01*
X114605549Y-115550000D01*
X114585383Y-115280897D01*
X114525334Y-115017805D01*
X114426743Y-114766602D01*
X114291815Y-114532898D01*
X114291813Y-114532895D01*
X114291811Y-114532892D01*
X114123562Y-114321916D01*
X114017774Y-114223759D01*
X113960815Y-114145053D01*
X113938311Y-114050540D01*
X113953689Y-113954609D01*
X114004607Y-113871866D01*
X114083313Y-113814907D01*
X114108804Y-113804871D01*
X114169334Y-113784814D01*
X114318656Y-113692712D01*
X114442712Y-113568656D01*
X114534814Y-113419334D01*
X114589999Y-113252797D01*
X114600500Y-113150009D01*
X114600499Y-110949992D01*
X114589999Y-110847203D01*
X114534814Y-110680666D01*
X114442712Y-110531344D01*
X114318656Y-110407288D01*
X114169334Y-110315186D01*
X114169332Y-110315185D01*
X114169330Y-110315184D01*
X114169332Y-110315184D01*
X114002802Y-110260002D01*
X114002798Y-110260001D01*
X114002797Y-110260001D01*
X113951403Y-110254750D01*
X113900011Y-110249500D01*
X113900009Y-110249500D01*
X113601515Y-110249500D01*
X113506227Y-110230546D01*
X113425445Y-110176570D01*
X113394479Y-110138836D01*
X113382955Y-110121589D01*
X113382949Y-110121582D01*
X113278416Y-110017048D01*
X113278416Y-110017049D01*
X111829758Y-108568390D01*
X111775782Y-108487608D01*
X111756828Y-108392320D01*
X111775782Y-108297032D01*
X111829758Y-108216250D01*
X111910540Y-108162274D01*
X112005828Y-108143320D01*
X112101116Y-108162274D01*
X112113867Y-108167980D01*
X112140359Y-108180738D01*
X112398228Y-108260280D01*
X112665071Y-108300500D01*
X112665074Y-108300500D01*
X112934926Y-108300500D01*
X112934929Y-108300500D01*
X113201772Y-108260280D01*
X113459641Y-108180738D01*
X113702775Y-108063651D01*
X113925741Y-107911635D01*
X114123561Y-107728085D01*
X114291815Y-107517102D01*
X114426743Y-107283398D01*
X114525334Y-107032195D01*
X114585383Y-106769103D01*
X114602324Y-106543032D01*
X114628346Y-106449428D01*
X114688208Y-106372906D01*
X114772797Y-106325117D01*
X114852120Y-106312646D01*
X116273969Y-106321211D01*
X116369139Y-106340738D01*
X116449594Y-106395200D01*
X116503083Y-106476305D01*
X116521466Y-106569373D01*
X116539082Y-111836437D01*
X116538977Y-111844529D01*
X116350000Y-118323755D01*
X116350000Y-118323784D01*
X116538828Y-122666834D01*
X116524031Y-122762856D01*
X116473614Y-122845905D01*
X116395254Y-122903340D01*
X116300879Y-122926415D01*
X116292829Y-122926635D01*
X114672453Y-122944639D01*
X114576961Y-122926744D01*
X114495584Y-122873669D01*
X114440714Y-122793492D01*
X114420702Y-122698420D01*
X114438597Y-122602928D01*
X114457760Y-122564934D01*
X114516857Y-122469122D01*
X114516859Y-122469120D01*
X114572004Y-122302701D01*
X114572005Y-122302694D01*
X114582499Y-122199981D01*
X114582500Y-122199971D01*
X114582500Y-121350001D01*
X114582499Y-121350000D01*
X113382501Y-121350000D01*
X113407521Y-121289598D01*
X113432500Y-121164019D01*
X113432500Y-121035981D01*
X113407521Y-120910402D01*
X113382501Y-120850000D01*
X114582498Y-120850000D01*
X114582499Y-120849999D01*
X114582499Y-120000032D01*
X114582498Y-120000015D01*
X114572005Y-119897300D01*
X114572004Y-119897297D01*
X114516859Y-119730880D01*
X114516858Y-119730878D01*
X114424818Y-119581658D01*
X114424815Y-119581654D01*
X114300845Y-119457684D01*
X114300841Y-119457681D01*
X114151621Y-119365641D01*
X114151620Y-119365640D01*
X113985201Y-119310495D01*
X113985194Y-119310494D01*
X113882481Y-119300000D01*
X113032501Y-119300000D01*
X113032500Y-119300001D01*
X113032500Y-120499998D01*
X112972098Y-120474979D01*
X112846519Y-120450000D01*
X112718481Y-120450000D01*
X112592902Y-120474979D01*
X112532500Y-120499998D01*
X112532500Y-119300001D01*
X112532499Y-119300000D01*
X111682523Y-119300000D01*
X111579800Y-119310494D01*
X111579797Y-119310495D01*
X111413380Y-119365640D01*
X111413378Y-119365641D01*
X111264158Y-119457681D01*
X111264154Y-119457684D01*
X111140184Y-119581654D01*
X111140181Y-119581658D01*
X111048141Y-119730878D01*
X111048140Y-119730879D01*
X110992995Y-119897298D01*
X110992994Y-119897305D01*
X110982500Y-120000018D01*
X110982500Y-120849999D01*
X110982501Y-120850000D01*
X112182499Y-120850000D01*
X112157479Y-120910402D01*
X112132500Y-121035981D01*
X112132500Y-121164019D01*
X112157479Y-121289598D01*
X112182499Y-121350000D01*
X110982502Y-121350000D01*
X110982501Y-121350001D01*
X110982501Y-122199984D01*
X110992994Y-122302699D01*
X110992995Y-122302702D01*
X111048140Y-122469119D01*
X111132931Y-122606587D01*
X111166822Y-122697639D01*
X111163290Y-122794729D01*
X111122871Y-122883078D01*
X111051720Y-122949234D01*
X110960668Y-122983125D01*
X110923769Y-122986290D01*
X106627266Y-123034030D01*
X106531773Y-123016136D01*
X106450397Y-122963060D01*
X106395526Y-122882883D01*
X106375514Y-122787812D01*
X106375499Y-122785045D01*
X106375499Y-122782493D01*
X106368424Y-122713234D01*
X106364999Y-122679703D01*
X106356713Y-122654699D01*
X106309814Y-122513167D01*
X106309814Y-122513166D01*
X106217712Y-122363844D01*
X106093656Y-122239788D01*
X105944334Y-122147686D01*
X105944332Y-122147685D01*
X105944330Y-122147684D01*
X105944332Y-122147684D01*
X105777802Y-122092502D01*
X105777798Y-122092501D01*
X105777797Y-122092501D01*
X105675009Y-122082000D01*
X105675005Y-122082000D01*
X103474993Y-122082000D01*
X103372199Y-122092501D01*
X103205667Y-122147685D01*
X103056346Y-122239786D01*
X102932286Y-122363846D01*
X102840185Y-122513167D01*
X102821944Y-122568215D01*
X102773979Y-122652705D01*
X102697332Y-122712407D01*
X102603673Y-122738234D01*
X102507260Y-122726253D01*
X102422770Y-122678288D01*
X102403059Y-122659262D01*
X102398561Y-122654414D01*
X102200738Y-122470862D01*
X101977778Y-122318850D01*
X101977773Y-122318848D01*
X101734649Y-122201765D01*
X101734644Y-122201763D01*
X101734641Y-122201762D01*
X101476772Y-122122220D01*
X101209929Y-122082000D01*
X100940071Y-122082000D01*
X100739938Y-122112165D01*
X100673227Y-122122220D01*
X100590672Y-122147685D01*
X100421124Y-122199984D01*
X100415353Y-122201764D01*
X100172227Y-122318848D01*
X99949257Y-122470866D01*
X99751437Y-122654416D01*
X99583189Y-122865392D01*
X99583182Y-122865402D01*
X99510678Y-122990983D01*
X99446619Y-123064028D01*
X99359483Y-123106999D01*
X99297805Y-123115468D01*
X98550000Y-123123777D01*
X98550000Y-126555005D01*
X98531046Y-126650293D01*
X98477070Y-126731075D01*
X98396288Y-126785051D01*
X98305037Y-126803972D01*
X89304141Y-126949932D01*
X89295902Y-126949930D01*
X83623640Y-126854196D01*
X83528685Y-126833636D01*
X83448826Y-126778304D01*
X83396221Y-126696624D01*
X83378872Y-126601354D01*
X83393564Y-125657999D01*
X83496182Y-119068898D01*
X83516618Y-118973919D01*
X83571846Y-118893988D01*
X83653458Y-118841276D01*
X83745152Y-118823778D01*
X86289225Y-118823778D01*
X86384513Y-118842732D01*
X86465295Y-118896708D01*
X86519271Y-118977490D01*
X86538225Y-119072778D01*
X86519271Y-119168066D01*
X86488557Y-119222001D01*
X86476647Y-119237909D01*
X86426403Y-119372621D01*
X86426401Y-119372628D01*
X86420000Y-119432167D01*
X86420000Y-120009999D01*
X86420001Y-120010000D01*
X87243893Y-120010000D01*
X87215437Y-120059288D01*
X87180000Y-120191541D01*
X87180000Y-120328459D01*
X87215437Y-120460712D01*
X87243893Y-120510000D01*
X86420001Y-120510000D01*
X86420000Y-120510001D01*
X86420000Y-121087832D01*
X86426401Y-121147371D01*
X86426403Y-121147378D01*
X86476646Y-121282087D01*
X86562810Y-121397187D01*
X86562812Y-121397189D01*
X86677912Y-121483353D01*
X86812621Y-121533596D01*
X86812628Y-121533598D01*
X86872167Y-121539999D01*
X86872175Y-121540000D01*
X87449999Y-121540000D01*
X87450000Y-121539999D01*
X87450000Y-120716106D01*
X87499288Y-120744563D01*
X87631541Y-120780000D01*
X87768459Y-120780000D01*
X87900712Y-120744563D01*
X87950000Y-120716106D01*
X87950000Y-121539999D01*
X87950001Y-121540000D01*
X88527825Y-121540000D01*
X88527832Y-121539999D01*
X88587371Y-121533598D01*
X88587378Y-121533596D01*
X88722087Y-121483353D01*
X88837187Y-121397189D01*
X88837189Y-121397187D01*
X88923353Y-121282087D01*
X88973596Y-121147378D01*
X88973598Y-121147371D01*
X88979999Y-121087832D01*
X88980000Y-121087825D01*
X88980000Y-120510001D01*
X88979999Y-120510000D01*
X88156107Y-120510000D01*
X88184563Y-120460712D01*
X88220000Y-120328459D01*
X88220000Y-120191541D01*
X88184563Y-120059288D01*
X88156107Y-120010000D01*
X88979999Y-120010000D01*
X88980000Y-120009999D01*
X88980000Y-119432175D01*
X88979999Y-119432167D01*
X88973598Y-119372628D01*
X88973596Y-119372621D01*
X88923352Y-119237909D01*
X88907655Y-119216941D01*
X88865723Y-119129301D01*
X88860522Y-119032286D01*
X88892843Y-118940664D01*
X88932498Y-118890084D01*
X88999999Y-118823778D01*
X89000000Y-118823778D01*
X89149513Y-110451069D01*
X89200000Y-107623779D01*
X89199999Y-107623778D01*
X89200000Y-107623778D01*
X89058454Y-107510541D01*
X88995888Y-107436214D01*
X88967763Y-107347500D01*
X88967751Y-107347503D01*
X88967735Y-107347412D01*
X88966527Y-107343602D01*
X88965955Y-107337851D01*
X88965863Y-107336794D01*
X88907872Y-107120370D01*
X88813181Y-106917305D01*
X88684667Y-106733767D01*
X88526233Y-106575333D01*
X88410032Y-106493968D01*
X88342849Y-106423788D01*
X88307636Y-106333239D01*
X88309755Y-106236107D01*
X88348884Y-106147180D01*
X88410033Y-106086031D01*
X88438716Y-106065947D01*
X88526233Y-106004667D01*
X88684667Y-105846233D01*
X88813181Y-105662696D01*
X88907872Y-105459630D01*
X88946372Y-105315944D01*
X88989340Y-105228814D01*
X89062384Y-105164755D01*
X89154383Y-105133524D01*
X89251330Y-105139878D01*
X89338466Y-105182848D01*
X89362956Y-105204324D01*
X94726570Y-110567937D01*
X94780546Y-110648719D01*
X94799500Y-110744007D01*
X94799500Y-121808000D01*
X94780546Y-121903288D01*
X94726570Y-121984070D01*
X94645788Y-122038046D01*
X94550502Y-122057000D01*
X94449994Y-122057000D01*
X94347199Y-122067501D01*
X94180667Y-122122685D01*
X94031346Y-122214786D01*
X93907286Y-122338846D01*
X93815185Y-122488167D01*
X93796944Y-122543215D01*
X93748979Y-122627705D01*
X93672332Y-122687407D01*
X93578673Y-122713234D01*
X93482260Y-122701253D01*
X93397770Y-122653288D01*
X93378059Y-122634262D01*
X93373561Y-122629414D01*
X93175738Y-122445862D01*
X92952778Y-122293850D01*
X92952773Y-122293848D01*
X92709649Y-122176765D01*
X92709644Y-122176763D01*
X92709641Y-122176762D01*
X92451772Y-122097220D01*
X92184929Y-122057000D01*
X91915071Y-122057000D01*
X91749200Y-122082001D01*
X91648227Y-122097220D01*
X91390353Y-122176764D01*
X91147227Y-122293848D01*
X90924257Y-122445866D01*
X90726437Y-122629416D01*
X90558189Y-122840392D01*
X90558188Y-122840392D01*
X90423257Y-123074101D01*
X90423256Y-123074104D01*
X90324667Y-123325301D01*
X90324663Y-123325312D01*
X90264616Y-123588399D01*
X90244451Y-123857500D01*
X90264616Y-124126600D01*
X90324663Y-124389687D01*
X90324667Y-124389698D01*
X90423256Y-124640895D01*
X90423257Y-124640898D01*
X90558188Y-124874607D01*
X90706272Y-125060297D01*
X90726439Y-125085585D01*
X90924259Y-125269135D01*
X91147226Y-125421151D01*
X91390359Y-125538238D01*
X91648228Y-125617780D01*
X91915071Y-125658000D01*
X91915074Y-125658000D01*
X92184926Y-125658000D01*
X92184929Y-125658000D01*
X92451772Y-125617780D01*
X92709641Y-125538238D01*
X92952775Y-125421151D01*
X93175741Y-125269135D01*
X93373561Y-125085585D01*
X93373567Y-125085577D01*
X93378052Y-125080745D01*
X93456759Y-125023785D01*
X93551271Y-125001281D01*
X93647202Y-125016659D01*
X93729945Y-125067576D01*
X93786905Y-125146283D01*
X93796944Y-125171785D01*
X93815184Y-125226831D01*
X93841279Y-125269137D01*
X93907288Y-125376156D01*
X94031344Y-125500212D01*
X94180666Y-125592314D01*
X94180669Y-125592315D01*
X94180667Y-125592315D01*
X94332962Y-125642780D01*
X94347203Y-125647499D01*
X94449991Y-125658000D01*
X96650008Y-125657999D01*
X96752797Y-125647499D01*
X96919334Y-125592314D01*
X97068656Y-125500212D01*
X97192712Y-125376156D01*
X97284814Y-125226834D01*
X97339999Y-125060297D01*
X97350500Y-124957509D01*
X97350499Y-122757492D01*
X97339999Y-122654703D01*
X97339903Y-122654414D01*
X97303055Y-122543215D01*
X97284814Y-122488166D01*
X97192712Y-122338844D01*
X97068656Y-122214788D01*
X96919334Y-122122686D01*
X96919332Y-122122685D01*
X96919330Y-122122684D01*
X96919332Y-122122684D01*
X96752802Y-122067502D01*
X96752798Y-122067501D01*
X96752797Y-122067501D01*
X96701403Y-122062250D01*
X96650011Y-122057000D01*
X96650009Y-122057000D01*
X96549500Y-122057000D01*
X96454212Y-122038046D01*
X96373430Y-121984070D01*
X96319454Y-121903288D01*
X96300500Y-121808000D01*
X96300500Y-110256081D01*
X96300499Y-110256079D01*
X96299190Y-110249500D01*
X96271658Y-110111087D01*
X96215084Y-109974505D01*
X96132951Y-109851584D01*
X96109469Y-109828102D01*
X96028416Y-109747048D01*
X96028416Y-109747049D01*
X89049470Y-102768102D01*
X88995494Y-102687320D01*
X88976540Y-102592032D01*
X88977488Y-102570329D01*
X88985391Y-102480003D01*
X88985391Y-102479995D01*
X88965864Y-102256806D01*
X88965863Y-102256794D01*
X88907872Y-102040370D01*
X88813181Y-101837305D01*
X88780887Y-101791184D01*
X88741759Y-101702259D01*
X88739640Y-101605127D01*
X88774852Y-101514578D01*
X88842036Y-101444396D01*
X88930963Y-101405267D01*
X89028095Y-101403148D01*
X89118644Y-101438360D01*
G37*
%TD.AperFunction*%
%TD*%
%TA.AperFunction,Conductor*%
%TO.N,+6V*%
G36*
X114345788Y-38819454D02*
G01*
X114426570Y-38873430D01*
X114480546Y-38954212D01*
X114499500Y-39049500D01*
X114499500Y-69587532D01*
X114529898Y-69759935D01*
X114529902Y-69759949D01*
X114589773Y-69924442D01*
X114589775Y-69924445D01*
X114677308Y-70076055D01*
X114789837Y-70210163D01*
X114923945Y-70322692D01*
X115057831Y-70399992D01*
X115075557Y-70410226D01*
X115240050Y-70470097D01*
X115240054Y-70470098D01*
X115240062Y-70470101D01*
X115354999Y-70490367D01*
X115412467Y-70500500D01*
X115412468Y-70500500D01*
X115434108Y-70500500D01*
X116250500Y-70500500D01*
X116345788Y-70519454D01*
X116426570Y-70573430D01*
X116480546Y-70654212D01*
X116499500Y-70749500D01*
X116499500Y-99918187D01*
X116499237Y-99922302D01*
X116499499Y-100000665D01*
X116499500Y-100001496D01*
X116499500Y-100079330D01*
X116499774Y-100083430D01*
X116518111Y-105565834D01*
X116499475Y-105661185D01*
X116445770Y-105742147D01*
X116365169Y-105796393D01*
X116269945Y-105815666D01*
X116267612Y-105815662D01*
X114855190Y-105807154D01*
X114855169Y-105807155D01*
X114855168Y-105807155D01*
X114855165Y-105807155D01*
X114822543Y-105809605D01*
X114773605Y-105813280D01*
X114694263Y-105825754D01*
X114684816Y-105827594D01*
X114587662Y-105827199D01*
X114498055Y-105789654D01*
X114429636Y-105720675D01*
X114421593Y-105707682D01*
X114368513Y-105615744D01*
X114291815Y-105482898D01*
X114123561Y-105271915D01*
X114017774Y-105173759D01*
X113960815Y-105095053D01*
X113938311Y-105000540D01*
X113953689Y-104904609D01*
X114004607Y-104821866D01*
X114083313Y-104764907D01*
X114108804Y-104754871D01*
X114169334Y-104734814D01*
X114318656Y-104642712D01*
X114442712Y-104518656D01*
X114534814Y-104369334D01*
X114589999Y-104202797D01*
X114600500Y-104100009D01*
X114600499Y-101899992D01*
X114589999Y-101797203D01*
X114534814Y-101630666D01*
X114442712Y-101481344D01*
X114318656Y-101357288D01*
X114169334Y-101265186D01*
X114169332Y-101265185D01*
X114169330Y-101265184D01*
X114169332Y-101265184D01*
X114002802Y-101210002D01*
X114002798Y-101210001D01*
X114002797Y-101210001D01*
X113900009Y-101199500D01*
X113900005Y-101199500D01*
X111699993Y-101199500D01*
X111597199Y-101210001D01*
X111430667Y-101265185D01*
X111281346Y-101357286D01*
X111157286Y-101481346D01*
X111065184Y-101630668D01*
X111010002Y-101797197D01*
X111010001Y-101797204D01*
X110999500Y-101899988D01*
X110999500Y-102200500D01*
X110980546Y-102295788D01*
X110926570Y-102376570D01*
X110845788Y-102430546D01*
X110750500Y-102449500D01*
X96642435Y-102449500D01*
X96547147Y-102430546D01*
X96466365Y-102376570D01*
X92823430Y-98733634D01*
X92769454Y-98652852D01*
X92750500Y-98557564D01*
X92750500Y-93717654D01*
X92742555Y-93677714D01*
X92737466Y-93652128D01*
X92724585Y-93587368D01*
X92721660Y-93572663D01*
X92721659Y-93572661D01*
X92687441Y-93490053D01*
X92676857Y-93464500D01*
X92665084Y-93436077D01*
X92610205Y-93353945D01*
X92610205Y-93353944D01*
X92582953Y-93313159D01*
X92582952Y-93313157D01*
X92360903Y-93091108D01*
X91973430Y-92703634D01*
X91919454Y-92622853D01*
X91900500Y-92527565D01*
X91900500Y-91741867D01*
X91900499Y-91741865D01*
X91892097Y-91699628D01*
X91871658Y-91596873D01*
X91815084Y-91460291D01*
X91815082Y-91460289D01*
X91815082Y-91460287D01*
X91789095Y-91421395D01*
X91763106Y-91382500D01*
X91732952Y-91337370D01*
X90573430Y-90177848D01*
X90519454Y-90097066D01*
X90500500Y-90001778D01*
X90500500Y-86176081D01*
X90500499Y-86176079D01*
X90493340Y-86140091D01*
X90471658Y-86031087D01*
X90415084Y-85894505D01*
X90367660Y-85823530D01*
X90332952Y-85771584D01*
X88986576Y-84425208D01*
X88932600Y-84344426D01*
X88922130Y-84313583D01*
X88910763Y-84271160D01*
X88907872Y-84260370D01*
X88813181Y-84057305D01*
X88684667Y-83873767D01*
X88526233Y-83715333D01*
X88410032Y-83633968D01*
X88342849Y-83563788D01*
X88307636Y-83473239D01*
X88309755Y-83376107D01*
X88348884Y-83287180D01*
X88410033Y-83226031D01*
X88526233Y-83144667D01*
X88684667Y-82986233D01*
X88813181Y-82802696D01*
X88907872Y-82599630D01*
X88965863Y-82383206D01*
X88985391Y-82160000D01*
X88985391Y-82159994D01*
X88965864Y-81936806D01*
X88965863Y-81936794D01*
X88907872Y-81720370D01*
X88813181Y-81517305D01*
X88684667Y-81333767D01*
X88526233Y-81175333D01*
X88410032Y-81093968D01*
X88342849Y-81023788D01*
X88307636Y-80933239D01*
X88309755Y-80836107D01*
X88348884Y-80747180D01*
X88410033Y-80686031D01*
X88526233Y-80604667D01*
X88684667Y-80446233D01*
X88813181Y-80262696D01*
X88907872Y-80059630D01*
X88965863Y-79843206D01*
X88985391Y-79620000D01*
X88985391Y-79619995D01*
X88985391Y-79619994D01*
X88965864Y-79396806D01*
X88965863Y-79396794D01*
X88907872Y-79180370D01*
X88813181Y-78977305D01*
X88684667Y-78793767D01*
X88526233Y-78635333D01*
X88526227Y-78635329D01*
X88410033Y-78553969D01*
X88342849Y-78483788D01*
X88307636Y-78393239D01*
X88309755Y-78296107D01*
X88348884Y-78207180D01*
X88410033Y-78146031D01*
X88526233Y-78064667D01*
X88684667Y-77906233D01*
X88813181Y-77722696D01*
X88907872Y-77519630D01*
X88965863Y-77303206D01*
X88985391Y-77080000D01*
X88985391Y-77079994D01*
X88965864Y-76856806D01*
X88965863Y-76856794D01*
X88907872Y-76640370D01*
X88813181Y-76437305D01*
X88684667Y-76253767D01*
X88526233Y-76095333D01*
X88526229Y-76095330D01*
X88526228Y-76095329D01*
X88409596Y-76013662D01*
X88342412Y-75943481D01*
X88307200Y-75852932D01*
X88309319Y-75755800D01*
X88348449Y-75666873D01*
X88409595Y-75605726D01*
X88411110Y-75604665D01*
X87845738Y-75039293D01*
X87900712Y-75024563D01*
X88019287Y-74956104D01*
X88116104Y-74859287D01*
X88184563Y-74740712D01*
X88199293Y-74685738D01*
X88764665Y-75251110D01*
X88812746Y-75182445D01*
X88812750Y-75182438D01*
X88907400Y-74979459D01*
X88965368Y-74763117D01*
X88965368Y-74763116D01*
X88984888Y-74540000D01*
X88965368Y-74316883D01*
X88965368Y-74316882D01*
X88907401Y-74100543D01*
X88812747Y-73897558D01*
X88764664Y-73828888D01*
X88199292Y-74394260D01*
X88184563Y-74339288D01*
X88116104Y-74220713D01*
X88019287Y-74123896D01*
X87900712Y-74055437D01*
X87845737Y-74040706D01*
X88411110Y-73475334D01*
X88411110Y-73475332D01*
X88342450Y-73427256D01*
X88342448Y-73427254D01*
X88139456Y-73332598D01*
X87923117Y-73274631D01*
X87700000Y-73255111D01*
X87476883Y-73274631D01*
X87476882Y-73274631D01*
X87260543Y-73332598D01*
X87057555Y-73427253D01*
X87057554Y-73427253D01*
X86988887Y-73475334D01*
X87554260Y-74040707D01*
X87499288Y-74055437D01*
X87380713Y-74123896D01*
X87283896Y-74220713D01*
X87215437Y-74339288D01*
X87200707Y-74394260D01*
X86635334Y-73828887D01*
X86587253Y-73897554D01*
X86587253Y-73897555D01*
X86492598Y-74100543D01*
X86434631Y-74316882D01*
X86434631Y-74316883D01*
X86415111Y-74540000D01*
X86434631Y-74763116D01*
X86434631Y-74763117D01*
X86492598Y-74979456D01*
X86587254Y-75182448D01*
X86587256Y-75182450D01*
X86635332Y-75251110D01*
X86635334Y-75251110D01*
X87200706Y-74685737D01*
X87215437Y-74740712D01*
X87283896Y-74859287D01*
X87380713Y-74956104D01*
X87499288Y-75024563D01*
X87554259Y-75039292D01*
X86988888Y-75604663D01*
X86988888Y-75604664D01*
X86990404Y-75605726D01*
X87057587Y-75675908D01*
X87092799Y-75766457D01*
X87090679Y-75863589D01*
X87051550Y-75952516D01*
X86990404Y-76013662D01*
X86873769Y-76095331D01*
X86715330Y-76253770D01*
X86586823Y-76437298D01*
X86586820Y-76437302D01*
X86492127Y-76640371D01*
X86434137Y-76856795D01*
X86434135Y-76856806D01*
X86414609Y-77079994D01*
X86414609Y-77080005D01*
X86434135Y-77303193D01*
X86434136Y-77303202D01*
X86434137Y-77303206D01*
X86448617Y-77357246D01*
X86487464Y-77502226D01*
X86492128Y-77519630D01*
X86586819Y-77722696D01*
X86715333Y-77906233D01*
X86873767Y-78064667D01*
X86873770Y-78064669D01*
X86873771Y-78064670D01*
X86989967Y-78146032D01*
X87057151Y-78216213D01*
X87092363Y-78306762D01*
X87090244Y-78403894D01*
X87051114Y-78492821D01*
X86989967Y-78553968D01*
X86873771Y-78635329D01*
X86715330Y-78793770D01*
X86586823Y-78977298D01*
X86586820Y-78977302D01*
X86492127Y-79180371D01*
X86434137Y-79396795D01*
X86434135Y-79396806D01*
X86414609Y-79619994D01*
X86414609Y-79619995D01*
X86414609Y-79620000D01*
X86425092Y-79739821D01*
X86414514Y-79836398D01*
X86367784Y-79921577D01*
X86292014Y-79982388D01*
X86198740Y-80009575D01*
X86154496Y-80009499D01*
X82428425Y-79670765D01*
X82335244Y-79643262D01*
X82259681Y-79582194D01*
X82213240Y-79496857D01*
X82201977Y-79420642D01*
X82202181Y-79396954D01*
X82249301Y-73930980D01*
X82269076Y-73835863D01*
X82298203Y-73784925D01*
X82308797Y-73770622D01*
X82332792Y-73742788D01*
X84352151Y-71723430D01*
X84432933Y-71669454D01*
X84528221Y-71650500D01*
X90371779Y-71650500D01*
X90467067Y-71669454D01*
X90547848Y-71723430D01*
X91126569Y-72302150D01*
X91180546Y-72382932D01*
X91199500Y-72478220D01*
X91199500Y-83123920D01*
X91228341Y-83268911D01*
X91228342Y-83268914D01*
X91284912Y-83405487D01*
X91284916Y-83405495D01*
X91304054Y-83434137D01*
X91304055Y-83434139D01*
X91367044Y-83528411D01*
X91367045Y-83528412D01*
X91367048Y-83528416D01*
X92109784Y-84271151D01*
X92776570Y-84937937D01*
X92830546Y-85018719D01*
X92849500Y-85114007D01*
X92849500Y-90723920D01*
X92878341Y-90868911D01*
X92878342Y-90868913D01*
X92934916Y-91005495D01*
X92961889Y-91045863D01*
X93017048Y-91128416D01*
X93485506Y-91596874D01*
X93926569Y-92037936D01*
X93980546Y-92118718D01*
X93999500Y-92214006D01*
X93999500Y-93123920D01*
X94028341Y-93268911D01*
X94028342Y-93268914D01*
X94084912Y-93405487D01*
X94084916Y-93405495D01*
X94101092Y-93429704D01*
X94101093Y-93429706D01*
X94167044Y-93528411D01*
X94167045Y-93528412D01*
X94167048Y-93528416D01*
X94878260Y-94239628D01*
X95254900Y-94616268D01*
X95308876Y-94697050D01*
X95327830Y-94792338D01*
X95326768Y-94815310D01*
X95323554Y-94849998D01*
X95343295Y-95063045D01*
X95343297Y-95063056D01*
X95401845Y-95268828D01*
X95401847Y-95268833D01*
X95401849Y-95268840D01*
X95401853Y-95268848D01*
X95497213Y-95460360D01*
X95497219Y-95460371D01*
X95626154Y-95631108D01*
X95626154Y-95631109D01*
X95626157Y-95631112D01*
X95626159Y-95631114D01*
X95784278Y-95775258D01*
X95784280Y-95775259D01*
X95784282Y-95775261D01*
X95802692Y-95786660D01*
X95873729Y-95852938D01*
X95913996Y-95941356D01*
X95917361Y-96038453D01*
X95883312Y-96129446D01*
X95817034Y-96200483D01*
X95728873Y-96240689D01*
X95721625Y-96242401D01*
X95586912Y-96292646D01*
X95471812Y-96378810D01*
X95471810Y-96378812D01*
X95385646Y-96493912D01*
X95335403Y-96628621D01*
X95335401Y-96628628D01*
X95329000Y-96688167D01*
X95329000Y-97139999D01*
X95329001Y-97140000D01*
X96167314Y-97140000D01*
X96162920Y-97144394D01*
X96110259Y-97235606D01*
X96083000Y-97337339D01*
X96083000Y-97442661D01*
X96110259Y-97544394D01*
X96162920Y-97635606D01*
X96167314Y-97640000D01*
X95329001Y-97640000D01*
X95329000Y-97640001D01*
X95329000Y-98091832D01*
X95335401Y-98151371D01*
X95335403Y-98151378D01*
X95385646Y-98286087D01*
X95471810Y-98401187D01*
X95471812Y-98401189D01*
X95586912Y-98487353D01*
X95721621Y-98537596D01*
X95721628Y-98537598D01*
X95781167Y-98543999D01*
X95781175Y-98544000D01*
X96232999Y-98544000D01*
X96233000Y-98543999D01*
X96233000Y-97705686D01*
X96237394Y-97710080D01*
X96328606Y-97762741D01*
X96430339Y-97790000D01*
X96535661Y-97790000D01*
X96637394Y-97762741D01*
X96728606Y-97710080D01*
X96733000Y-97705686D01*
X96733000Y-98543999D01*
X96733001Y-98544000D01*
X97184825Y-98544000D01*
X97184832Y-98543999D01*
X97244371Y-98537598D01*
X97244378Y-98537596D01*
X97379087Y-98487353D01*
X97494187Y-98401189D01*
X97494189Y-98401187D01*
X97580353Y-98286087D01*
X97630596Y-98151378D01*
X97630598Y-98151371D01*
X97636999Y-98091832D01*
X97637000Y-98091825D01*
X97637000Y-97640001D01*
X97636999Y-97640000D01*
X96798686Y-97640000D01*
X96803080Y-97635606D01*
X96855741Y-97544394D01*
X96883000Y-97442661D01*
X96883000Y-97337339D01*
X96855741Y-97235606D01*
X96803080Y-97144394D01*
X96798686Y-97140000D01*
X97636999Y-97140000D01*
X97637000Y-97139999D01*
X97637000Y-96688175D01*
X97636999Y-96688167D01*
X97630598Y-96628628D01*
X97630596Y-96628621D01*
X97580353Y-96493912D01*
X97494189Y-96378812D01*
X97494187Y-96378810D01*
X97379087Y-96292646D01*
X97244372Y-96242400D01*
X97237128Y-96240689D01*
X97148753Y-96200330D01*
X97082549Y-96129224D01*
X97048596Y-96038194D01*
X97052064Y-95941101D01*
X97092423Y-95852726D01*
X97163310Y-95786658D01*
X97181722Y-95775258D01*
X97339841Y-95631114D01*
X97468781Y-95460370D01*
X97564151Y-95268840D01*
X97599282Y-95145364D01*
X97622702Y-95063056D01*
X97622702Y-95063053D01*
X97622704Y-95063048D01*
X97642446Y-94850000D01*
X97622704Y-94636952D01*
X97622702Y-94636948D01*
X97622702Y-94636943D01*
X97564154Y-94431171D01*
X97564151Y-94431160D01*
X97516466Y-94335395D01*
X97468786Y-94239639D01*
X97468780Y-94239628D01*
X97339845Y-94068891D01*
X97339845Y-94068890D01*
X97339841Y-94068886D01*
X97181722Y-93924742D01*
X96999810Y-93812107D01*
X96999805Y-93812105D01*
X96989501Y-93806974D01*
X96990055Y-93805859D01*
X96918008Y-93760091D01*
X96862179Y-93680579D01*
X96841028Y-93585754D01*
X96857776Y-93490053D01*
X96909871Y-93408046D01*
X96989383Y-93352217D01*
X96999733Y-93347930D01*
X96999796Y-93347898D01*
X96999810Y-93347893D01*
X97181722Y-93235258D01*
X97339841Y-93091114D01*
X97468781Y-92920370D01*
X97564151Y-92728840D01*
X97622704Y-92523048D01*
X97642446Y-92310000D01*
X97622704Y-92096952D01*
X97622702Y-92096948D01*
X97622702Y-92096943D01*
X97564154Y-91891171D01*
X97564151Y-91891160D01*
X97489813Y-91741868D01*
X97468786Y-91699639D01*
X97468780Y-91699628D01*
X97339845Y-91528891D01*
X97339845Y-91528890D01*
X97339841Y-91528886D01*
X97181722Y-91384742D01*
X97105213Y-91337370D01*
X96999815Y-91272110D01*
X96999814Y-91272109D01*
X96999810Y-91272107D01*
X96999805Y-91272105D01*
X96989501Y-91266974D01*
X96990055Y-91265859D01*
X96918008Y-91220091D01*
X96862179Y-91140579D01*
X96841028Y-91045754D01*
X96857776Y-90950053D01*
X96909871Y-90868046D01*
X96989383Y-90812217D01*
X96999733Y-90807930D01*
X96999796Y-90807898D01*
X96999810Y-90807893D01*
X97181722Y-90695258D01*
X97339841Y-90551114D01*
X97468781Y-90380370D01*
X97564151Y-90188840D01*
X97622704Y-89983048D01*
X97642446Y-89770000D01*
X97622704Y-89556952D01*
X97622702Y-89556948D01*
X97622702Y-89556943D01*
X97564154Y-89351171D01*
X97564151Y-89351160D01*
X97496716Y-89215731D01*
X97468786Y-89159639D01*
X97468780Y-89159628D01*
X97339845Y-88988891D01*
X97339845Y-88988890D01*
X97339841Y-88988886D01*
X97181722Y-88844742D01*
X96999810Y-88732107D01*
X96999805Y-88732105D01*
X96989501Y-88726974D01*
X96990055Y-88725859D01*
X96918008Y-88680091D01*
X96862179Y-88600579D01*
X96841028Y-88505754D01*
X96857776Y-88410053D01*
X96909871Y-88328046D01*
X96989383Y-88272217D01*
X96999733Y-88267930D01*
X96999796Y-88267898D01*
X96999810Y-88267893D01*
X97181722Y-88155258D01*
X97339841Y-88011114D01*
X97468781Y-87840370D01*
X97564151Y-87648840D01*
X97616969Y-87463206D01*
X97622702Y-87443056D01*
X97622702Y-87443053D01*
X97622704Y-87443048D01*
X97642446Y-87230000D01*
X97622704Y-87016952D01*
X97622702Y-87016948D01*
X97622702Y-87016943D01*
X97564154Y-86811171D01*
X97564151Y-86811160D01*
X97516466Y-86715395D01*
X97468786Y-86619639D01*
X97468780Y-86619628D01*
X97339845Y-86448891D01*
X97339845Y-86448890D01*
X97339841Y-86448886D01*
X97181722Y-86304742D01*
X96999810Y-86192107D01*
X96999805Y-86192105D01*
X96989501Y-86186974D01*
X96990055Y-86185859D01*
X96918008Y-86140091D01*
X96862179Y-86060579D01*
X96841028Y-85965754D01*
X96857776Y-85870053D01*
X96909871Y-85788046D01*
X96989383Y-85732217D01*
X96999733Y-85727930D01*
X96999796Y-85727898D01*
X96999810Y-85727893D01*
X97181722Y-85615258D01*
X97302137Y-85505486D01*
X97385325Y-85455298D01*
X97469886Y-85440500D01*
X99383919Y-85440500D01*
X99383919Y-85440499D01*
X99528913Y-85411658D01*
X99615039Y-85375983D01*
X99665491Y-85355086D01*
X99665492Y-85355085D01*
X99665495Y-85355084D01*
X99714729Y-85322186D01*
X99788416Y-85272952D01*
X105451366Y-79610000D01*
X113357554Y-79610000D01*
X113377295Y-79823045D01*
X113377297Y-79823056D01*
X113435845Y-80028828D01*
X113435847Y-80028833D01*
X113435849Y-80028840D01*
X113435853Y-80028848D01*
X113531213Y-80220360D01*
X113531219Y-80220371D01*
X113660154Y-80391108D01*
X113660154Y-80391109D01*
X113660157Y-80391112D01*
X113660159Y-80391114D01*
X113818278Y-80535258D01*
X114000190Y-80647893D01*
X114000199Y-80647896D01*
X114010499Y-80653026D01*
X114009944Y-80654139D01*
X114081997Y-80699914D01*
X114137823Y-80779429D01*
X114158971Y-80874254D01*
X114142221Y-80969954D01*
X114090123Y-81051960D01*
X114010608Y-81107786D01*
X114000260Y-81112072D01*
X114000184Y-81112110D01*
X113818283Y-81224738D01*
X113818279Y-81224740D01*
X113818278Y-81224742D01*
X113739218Y-81296814D01*
X113660154Y-81368890D01*
X113660154Y-81368891D01*
X113531219Y-81539628D01*
X113531213Y-81539639D01*
X113435853Y-81731151D01*
X113435845Y-81731171D01*
X113377297Y-81936943D01*
X113377295Y-81936954D01*
X113357554Y-82150000D01*
X113377295Y-82363045D01*
X113377297Y-82363056D01*
X113435845Y-82568828D01*
X113435847Y-82568833D01*
X113435849Y-82568840D01*
X113435853Y-82568848D01*
X113531213Y-82760360D01*
X113531219Y-82760371D01*
X113660154Y-82931108D01*
X113660154Y-82931109D01*
X113660157Y-82931112D01*
X113660159Y-82931114D01*
X113818278Y-83075258D01*
X114000190Y-83187893D01*
X114000199Y-83187896D01*
X114010499Y-83193026D01*
X114009944Y-83194139D01*
X114081997Y-83239914D01*
X114137823Y-83319429D01*
X114158971Y-83414254D01*
X114142221Y-83509954D01*
X114090123Y-83591960D01*
X114010608Y-83647786D01*
X114000260Y-83652072D01*
X114000184Y-83652110D01*
X113818283Y-83764738D01*
X113818279Y-83764740D01*
X113818278Y-83764742D01*
X113810773Y-83771584D01*
X113660154Y-83908890D01*
X113660154Y-83908891D01*
X113531219Y-84079628D01*
X113531213Y-84079639D01*
X113435853Y-84271151D01*
X113435845Y-84271171D01*
X113377297Y-84476943D01*
X113377295Y-84476954D01*
X113357554Y-84690000D01*
X113377295Y-84903045D01*
X113377297Y-84903056D01*
X113435845Y-85108828D01*
X113435847Y-85108833D01*
X113435849Y-85108840D01*
X113435853Y-85108848D01*
X113531213Y-85300360D01*
X113531219Y-85300371D01*
X113660154Y-85471108D01*
X113660154Y-85471109D01*
X113660157Y-85471112D01*
X113660159Y-85471114D01*
X113818278Y-85615258D01*
X114000190Y-85727893D01*
X114000199Y-85727896D01*
X114010499Y-85733026D01*
X114009944Y-85734139D01*
X114081997Y-85779914D01*
X114137823Y-85859429D01*
X114158971Y-85954254D01*
X114142221Y-86049954D01*
X114090123Y-86131960D01*
X114010608Y-86187786D01*
X114000260Y-86192072D01*
X114000184Y-86192110D01*
X113818283Y-86304738D01*
X113818279Y-86304740D01*
X113818278Y-86304742D01*
X113789309Y-86331151D01*
X113660154Y-86448890D01*
X113660154Y-86448891D01*
X113531219Y-86619628D01*
X113531213Y-86619639D01*
X113435853Y-86811151D01*
X113435845Y-86811171D01*
X113377297Y-87016943D01*
X113377295Y-87016954D01*
X113357554Y-87230000D01*
X113377295Y-87443045D01*
X113377297Y-87443056D01*
X113435845Y-87648828D01*
X113435847Y-87648833D01*
X113435849Y-87648840D01*
X113435853Y-87648848D01*
X113531213Y-87840360D01*
X113531219Y-87840371D01*
X113660154Y-88011108D01*
X113660154Y-88011109D01*
X113660157Y-88011112D01*
X113660159Y-88011114D01*
X113818278Y-88155258D01*
X114000190Y-88267893D01*
X114000199Y-88267896D01*
X114010499Y-88273026D01*
X114009944Y-88274139D01*
X114081997Y-88319914D01*
X114137823Y-88399429D01*
X114158971Y-88494254D01*
X114142221Y-88589954D01*
X114090123Y-88671960D01*
X114010608Y-88727786D01*
X114000260Y-88732072D01*
X114000184Y-88732110D01*
X113818283Y-88844738D01*
X113818279Y-88844740D01*
X113818278Y-88844742D01*
X113739218Y-88916814D01*
X113660154Y-88988890D01*
X113660154Y-88988891D01*
X113531219Y-89159628D01*
X113531213Y-89159639D01*
X113435853Y-89351151D01*
X113435845Y-89351171D01*
X113377297Y-89556943D01*
X113377295Y-89556954D01*
X113357554Y-89770000D01*
X113377295Y-89983045D01*
X113377297Y-89983056D01*
X113435845Y-90188828D01*
X113435847Y-90188833D01*
X113435849Y-90188840D01*
X113435853Y-90188848D01*
X113531213Y-90380360D01*
X113531219Y-90380371D01*
X113660154Y-90551108D01*
X113660154Y-90551109D01*
X113660157Y-90551112D01*
X113660159Y-90551114D01*
X113818278Y-90695258D01*
X114000190Y-90807893D01*
X114000199Y-90807896D01*
X114010499Y-90813026D01*
X114009944Y-90814139D01*
X114081997Y-90859914D01*
X114137823Y-90939429D01*
X114158971Y-91034254D01*
X114142221Y-91129954D01*
X114090123Y-91211960D01*
X114010608Y-91267786D01*
X114000260Y-91272072D01*
X114000184Y-91272110D01*
X113818283Y-91384738D01*
X113818279Y-91384740D01*
X113818278Y-91384742D01*
X113739218Y-91456814D01*
X113660154Y-91528890D01*
X113660154Y-91528891D01*
X113531219Y-91699628D01*
X113531213Y-91699639D01*
X113435853Y-91891151D01*
X113435845Y-91891171D01*
X113377297Y-92096943D01*
X113377295Y-92096954D01*
X113357554Y-92310000D01*
X113377295Y-92523045D01*
X113377297Y-92523056D01*
X113435845Y-92728828D01*
X113435847Y-92728833D01*
X113435849Y-92728840D01*
X113435853Y-92728848D01*
X113531213Y-92920360D01*
X113531219Y-92920371D01*
X113660154Y-93091108D01*
X113660154Y-93091109D01*
X113660157Y-93091112D01*
X113660159Y-93091114D01*
X113818278Y-93235258D01*
X114000190Y-93347893D01*
X114000199Y-93347896D01*
X114010499Y-93353026D01*
X114009944Y-93354139D01*
X114081997Y-93399914D01*
X114137823Y-93479429D01*
X114158971Y-93574254D01*
X114142221Y-93669954D01*
X114090123Y-93751960D01*
X114010608Y-93807786D01*
X114000260Y-93812072D01*
X114000184Y-93812110D01*
X113818283Y-93924738D01*
X113818279Y-93924740D01*
X113818278Y-93924742D01*
X113739218Y-93996814D01*
X113660154Y-94068890D01*
X113660154Y-94068891D01*
X113531219Y-94239628D01*
X113531213Y-94239639D01*
X113435853Y-94431151D01*
X113435845Y-94431171D01*
X113377297Y-94636943D01*
X113377295Y-94636954D01*
X113357554Y-94850000D01*
X113377295Y-95063045D01*
X113377297Y-95063056D01*
X113435845Y-95268828D01*
X113435847Y-95268833D01*
X113435849Y-95268840D01*
X113435853Y-95268848D01*
X113531213Y-95460360D01*
X113531219Y-95460371D01*
X113660154Y-95631108D01*
X113660154Y-95631109D01*
X113660157Y-95631112D01*
X113660159Y-95631114D01*
X113818278Y-95775258D01*
X114000190Y-95887893D01*
X114000199Y-95887896D01*
X114010499Y-95893026D01*
X114009944Y-95894139D01*
X114081997Y-95939914D01*
X114137823Y-96019429D01*
X114158971Y-96114254D01*
X114142221Y-96209954D01*
X114090123Y-96291960D01*
X114010608Y-96347786D01*
X114000260Y-96352072D01*
X114000184Y-96352110D01*
X113818283Y-96464738D01*
X113818279Y-96464740D01*
X113818278Y-96464742D01*
X113786280Y-96493912D01*
X113660154Y-96608890D01*
X113660154Y-96608891D01*
X113531219Y-96779628D01*
X113531213Y-96779639D01*
X113435853Y-96971151D01*
X113435845Y-96971171D01*
X113377297Y-97176943D01*
X113377295Y-97176954D01*
X113357554Y-97390000D01*
X113377295Y-97603045D01*
X113377297Y-97603056D01*
X113435845Y-97808828D01*
X113435847Y-97808833D01*
X113435849Y-97808840D01*
X113435853Y-97808848D01*
X113531213Y-98000360D01*
X113531219Y-98000371D01*
X113660154Y-98171108D01*
X113660154Y-98171109D01*
X113660157Y-98171112D01*
X113660159Y-98171114D01*
X113818278Y-98315258D01*
X114000190Y-98427893D01*
X114199703Y-98505185D01*
X114199706Y-98505186D01*
X114410016Y-98544500D01*
X114410020Y-98544500D01*
X114623984Y-98544500D01*
X114834293Y-98505186D01*
X114834294Y-98505185D01*
X114834297Y-98505185D01*
X115033810Y-98427893D01*
X115215722Y-98315258D01*
X115373841Y-98171114D01*
X115502781Y-98000370D01*
X115598151Y-97808840D01*
X115646190Y-97640000D01*
X115656702Y-97603056D01*
X115656702Y-97603053D01*
X115656704Y-97603048D01*
X115676446Y-97390000D01*
X115656704Y-97176952D01*
X115656702Y-97176948D01*
X115656702Y-97176943D01*
X115598154Y-96971171D01*
X115598151Y-96971160D01*
X115523257Y-96820751D01*
X115502786Y-96779639D01*
X115502780Y-96779628D01*
X115373845Y-96608891D01*
X115373845Y-96608890D01*
X115335318Y-96573768D01*
X115215722Y-96464742D01*
X115069034Y-96373917D01*
X115033815Y-96352110D01*
X115033814Y-96352109D01*
X115033810Y-96352107D01*
X115033805Y-96352105D01*
X115023501Y-96346974D01*
X115024055Y-96345859D01*
X114952008Y-96300091D01*
X114896179Y-96220579D01*
X114875028Y-96125754D01*
X114891776Y-96030053D01*
X114943871Y-95948046D01*
X115023383Y-95892217D01*
X115033733Y-95887930D01*
X115033796Y-95887898D01*
X115033810Y-95887893D01*
X115215722Y-95775258D01*
X115373841Y-95631114D01*
X115502781Y-95460370D01*
X115598151Y-95268840D01*
X115633282Y-95145364D01*
X115656702Y-95063056D01*
X115656702Y-95063053D01*
X115656704Y-95063048D01*
X115676446Y-94850000D01*
X115656704Y-94636952D01*
X115656702Y-94636948D01*
X115656702Y-94636943D01*
X115598154Y-94431171D01*
X115598151Y-94431160D01*
X115550466Y-94335395D01*
X115502786Y-94239639D01*
X115502780Y-94239628D01*
X115373845Y-94068891D01*
X115373845Y-94068890D01*
X115373841Y-94068886D01*
X115215722Y-93924742D01*
X115033810Y-93812107D01*
X115033805Y-93812105D01*
X115023501Y-93806974D01*
X115024055Y-93805859D01*
X114952008Y-93760091D01*
X114896179Y-93680579D01*
X114875028Y-93585754D01*
X114891776Y-93490053D01*
X114943871Y-93408046D01*
X115023383Y-93352217D01*
X115033733Y-93347930D01*
X115033796Y-93347898D01*
X115033810Y-93347893D01*
X115215722Y-93235258D01*
X115373841Y-93091114D01*
X115502781Y-92920370D01*
X115598151Y-92728840D01*
X115656704Y-92523048D01*
X115676446Y-92310000D01*
X115656704Y-92096952D01*
X115656702Y-92096948D01*
X115656702Y-92096943D01*
X115598154Y-91891171D01*
X115598151Y-91891160D01*
X115523813Y-91741868D01*
X115502786Y-91699639D01*
X115502780Y-91699628D01*
X115373845Y-91528891D01*
X115373845Y-91528890D01*
X115373841Y-91528886D01*
X115215722Y-91384742D01*
X115139213Y-91337370D01*
X115033815Y-91272110D01*
X115033814Y-91272109D01*
X115033810Y-91272107D01*
X115033805Y-91272105D01*
X115023501Y-91266974D01*
X115024055Y-91265859D01*
X114952008Y-91220091D01*
X114896179Y-91140579D01*
X114875028Y-91045754D01*
X114891776Y-90950053D01*
X114943871Y-90868046D01*
X115023383Y-90812217D01*
X115033733Y-90807930D01*
X115033796Y-90807898D01*
X115033810Y-90807893D01*
X115215722Y-90695258D01*
X115373841Y-90551114D01*
X115502781Y-90380370D01*
X115598151Y-90188840D01*
X115656704Y-89983048D01*
X115676446Y-89770000D01*
X115656704Y-89556952D01*
X115656702Y-89556948D01*
X115656702Y-89556943D01*
X115598154Y-89351171D01*
X115598151Y-89351160D01*
X115530716Y-89215731D01*
X115502786Y-89159639D01*
X115502780Y-89159628D01*
X115373845Y-88988891D01*
X115373845Y-88988890D01*
X115373841Y-88988886D01*
X115215722Y-88844742D01*
X115033810Y-88732107D01*
X115033805Y-88732105D01*
X115023501Y-88726974D01*
X115024055Y-88725859D01*
X114952008Y-88680091D01*
X114896179Y-88600579D01*
X114875028Y-88505754D01*
X114891776Y-88410053D01*
X114943871Y-88328046D01*
X115023383Y-88272217D01*
X115033733Y-88267930D01*
X115033796Y-88267898D01*
X115033810Y-88267893D01*
X115215722Y-88155258D01*
X115373841Y-88011114D01*
X115502781Y-87840370D01*
X115598151Y-87648840D01*
X115650969Y-87463206D01*
X115656702Y-87443056D01*
X115656702Y-87443053D01*
X115656704Y-87443048D01*
X115676446Y-87230000D01*
X115656704Y-87016952D01*
X115656702Y-87016948D01*
X115656702Y-87016943D01*
X115598154Y-86811171D01*
X115598151Y-86811160D01*
X115550466Y-86715395D01*
X115502786Y-86619639D01*
X115502780Y-86619628D01*
X115373845Y-86448891D01*
X115373845Y-86448890D01*
X115373841Y-86448886D01*
X115215722Y-86304742D01*
X115033810Y-86192107D01*
X115033805Y-86192105D01*
X115023501Y-86186974D01*
X115024055Y-86185859D01*
X114952008Y-86140091D01*
X114896179Y-86060579D01*
X114875028Y-85965754D01*
X114891776Y-85870053D01*
X114943871Y-85788046D01*
X115023383Y-85732217D01*
X115033733Y-85727930D01*
X115033796Y-85727898D01*
X115033810Y-85727893D01*
X115215722Y-85615258D01*
X115373841Y-85471114D01*
X115502781Y-85300370D01*
X115598151Y-85108840D01*
X115656704Y-84903048D01*
X115676446Y-84690000D01*
X115656704Y-84476952D01*
X115656702Y-84476948D01*
X115656702Y-84476943D01*
X115598154Y-84271171D01*
X115598151Y-84271160D01*
X115509787Y-84093700D01*
X115502786Y-84079639D01*
X115502780Y-84079628D01*
X115373845Y-83908891D01*
X115373845Y-83908890D01*
X115373841Y-83908886D01*
X115215722Y-83764742D01*
X115033810Y-83652107D01*
X115033805Y-83652105D01*
X115023501Y-83646974D01*
X115024055Y-83645859D01*
X114952008Y-83600091D01*
X114896179Y-83520579D01*
X114875028Y-83425754D01*
X114891776Y-83330053D01*
X114943871Y-83248046D01*
X115023383Y-83192217D01*
X115033733Y-83187930D01*
X115033796Y-83187898D01*
X115033810Y-83187893D01*
X115215722Y-83075258D01*
X115373841Y-82931114D01*
X115502781Y-82760370D01*
X115598151Y-82568840D01*
X115656704Y-82363048D01*
X115676446Y-82150000D01*
X115656704Y-81936952D01*
X115656702Y-81936948D01*
X115656702Y-81936943D01*
X115598154Y-81731171D01*
X115598151Y-81731160D01*
X115550466Y-81635395D01*
X115502786Y-81539639D01*
X115502780Y-81539628D01*
X115373845Y-81368891D01*
X115373845Y-81368890D01*
X115335320Y-81333770D01*
X115215722Y-81224742D01*
X115033810Y-81112107D01*
X115033805Y-81112105D01*
X115023501Y-81106974D01*
X115024055Y-81105859D01*
X114952008Y-81060091D01*
X114896179Y-80980579D01*
X114875028Y-80885754D01*
X114891776Y-80790053D01*
X114943871Y-80708046D01*
X115023383Y-80652217D01*
X115033733Y-80647930D01*
X115033796Y-80647898D01*
X115033810Y-80647893D01*
X115215722Y-80535258D01*
X115373841Y-80391114D01*
X115502781Y-80220370D01*
X115598151Y-80028840D01*
X115656704Y-79823048D01*
X115676446Y-79610000D01*
X115656704Y-79396952D01*
X115656702Y-79396948D01*
X115656702Y-79396943D01*
X115598154Y-79191171D01*
X115598151Y-79191160D01*
X115550466Y-79095395D01*
X115502786Y-78999639D01*
X115502780Y-78999628D01*
X115373845Y-78828891D01*
X115373845Y-78828890D01*
X115335320Y-78793770D01*
X115215722Y-78684742D01*
X115033810Y-78572107D01*
X114980977Y-78551639D01*
X114834293Y-78494813D01*
X114623984Y-78455500D01*
X114623980Y-78455500D01*
X114410020Y-78455500D01*
X114410016Y-78455500D01*
X114199706Y-78494813D01*
X114000192Y-78572106D01*
X114000184Y-78572110D01*
X113818283Y-78684738D01*
X113818279Y-78684740D01*
X113818278Y-78684742D01*
X113739218Y-78756814D01*
X113660154Y-78828890D01*
X113660154Y-78828891D01*
X113531219Y-78999628D01*
X113531213Y-78999639D01*
X113435853Y-79191151D01*
X113435845Y-79191171D01*
X113377297Y-79396943D01*
X113377295Y-79396954D01*
X113357554Y-79610000D01*
X105451366Y-79610000D01*
X108265045Y-76796320D01*
X108345824Y-76742347D01*
X108441112Y-76723393D01*
X108514505Y-76734454D01*
X108598228Y-76760280D01*
X108865071Y-76800500D01*
X108865074Y-76800500D01*
X109134926Y-76800500D01*
X109134929Y-76800500D01*
X109401772Y-76760280D01*
X109659641Y-76680738D01*
X109902775Y-76563651D01*
X110125741Y-76411635D01*
X110323561Y-76228085D01*
X110491815Y-76017102D01*
X110626743Y-75783398D01*
X110725334Y-75532195D01*
X110785383Y-75269103D01*
X110805549Y-75000000D01*
X110785383Y-74730897D01*
X110725334Y-74467805D01*
X110626743Y-74216602D01*
X110491815Y-73982898D01*
X110491813Y-73982895D01*
X110491811Y-73982892D01*
X110323562Y-73771916D01*
X110217774Y-73673759D01*
X110160815Y-73595053D01*
X110138311Y-73500540D01*
X110153689Y-73404609D01*
X110204607Y-73321866D01*
X110283313Y-73264907D01*
X110308804Y-73254871D01*
X110369334Y-73234814D01*
X110518656Y-73142712D01*
X110642712Y-73018656D01*
X110734814Y-72869334D01*
X110789999Y-72702797D01*
X110800500Y-72600009D01*
X110800499Y-70399992D01*
X110789999Y-70297203D01*
X110734814Y-70130666D01*
X110642712Y-69981344D01*
X110518656Y-69857288D01*
X110518653Y-69857286D01*
X110518652Y-69857285D01*
X110394841Y-69780918D01*
X110323690Y-69714762D01*
X110283272Y-69626414D01*
X110279740Y-69529323D01*
X110313632Y-69438271D01*
X110367878Y-69376281D01*
X112600000Y-67550000D01*
X112600000Y-51050000D01*
X111600000Y-48050000D01*
X110773655Y-46893117D01*
X110733695Y-46804563D01*
X110730664Y-46707456D01*
X110733513Y-46693014D01*
X110750383Y-46619103D01*
X110770549Y-46350000D01*
X110750383Y-46080897D01*
X110690334Y-45817805D01*
X110591743Y-45566602D01*
X110456815Y-45332898D01*
X110456813Y-45332895D01*
X110456811Y-45332892D01*
X110288562Y-45121915D01*
X110182356Y-45023371D01*
X110125397Y-44944664D01*
X110102893Y-44850152D01*
X110118271Y-44754221D01*
X110169189Y-44671478D01*
X110247896Y-44614519D01*
X110273399Y-44604479D01*
X110334122Y-44584358D01*
X110483341Y-44492318D01*
X110483345Y-44492315D01*
X110607315Y-44368345D01*
X110607318Y-44368341D01*
X110699358Y-44219121D01*
X110699359Y-44219120D01*
X110754504Y-44052701D01*
X110754505Y-44052694D01*
X110764999Y-43949981D01*
X110765000Y-43949971D01*
X110765000Y-43100001D01*
X110764999Y-43100000D01*
X109565001Y-43100000D01*
X109590021Y-43039598D01*
X109615000Y-42914019D01*
X109615000Y-42785981D01*
X109590021Y-42660402D01*
X109565001Y-42600000D01*
X110764998Y-42600000D01*
X110764999Y-42599999D01*
X110764999Y-41750032D01*
X110764998Y-41750015D01*
X110754505Y-41647300D01*
X110754504Y-41647297D01*
X110699359Y-41480880D01*
X110699358Y-41480878D01*
X110607318Y-41331658D01*
X110607315Y-41331654D01*
X110483345Y-41207684D01*
X110483341Y-41207681D01*
X110334121Y-41115641D01*
X110334120Y-41115640D01*
X110167701Y-41060495D01*
X110167694Y-41060494D01*
X110064981Y-41050000D01*
X109215001Y-41050000D01*
X109215000Y-41050001D01*
X109215000Y-42249998D01*
X109154598Y-42224979D01*
X109029019Y-42200000D01*
X108900981Y-42200000D01*
X108775402Y-42224979D01*
X108715000Y-42249998D01*
X108715000Y-41050001D01*
X108714999Y-41050000D01*
X107865023Y-41050000D01*
X107762300Y-41060494D01*
X107762297Y-41060495D01*
X107595880Y-41115640D01*
X107595878Y-41115641D01*
X107446658Y-41207681D01*
X107446654Y-41207684D01*
X107322684Y-41331654D01*
X107322681Y-41331658D01*
X107230641Y-41480878D01*
X107230640Y-41480879D01*
X107175495Y-41647298D01*
X107175494Y-41647305D01*
X107165000Y-41750018D01*
X107165000Y-42599999D01*
X107165001Y-42600000D01*
X108364999Y-42600000D01*
X108339979Y-42660402D01*
X108315000Y-42785981D01*
X108315000Y-42914019D01*
X108339979Y-43039598D01*
X108364999Y-43100000D01*
X107165002Y-43100000D01*
X107165001Y-43100001D01*
X107165001Y-43949984D01*
X107175494Y-44052699D01*
X107175495Y-44052702D01*
X107230640Y-44219119D01*
X107230641Y-44219121D01*
X107322681Y-44368341D01*
X107322684Y-44368345D01*
X107378088Y-44423749D01*
X107432064Y-44504531D01*
X107451018Y-44599819D01*
X107432064Y-44695107D01*
X107378088Y-44775889D01*
X107297306Y-44829865D01*
X107241140Y-44845726D01*
X89915672Y-47602052D01*
X89818589Y-47598305D01*
X89730330Y-47557691D01*
X89664332Y-47486393D01*
X89630643Y-47395267D01*
X89629872Y-47373427D01*
X88946445Y-46690000D01*
X88952661Y-46690000D01*
X89054394Y-46662741D01*
X89145606Y-46610080D01*
X89220080Y-46535606D01*
X89272741Y-46444394D01*
X89300000Y-46342661D01*
X89300000Y-46336445D01*
X89979026Y-47015471D01*
X89979027Y-47015471D01*
X90030130Y-46942488D01*
X90030132Y-46942486D01*
X90126267Y-46736323D01*
X90185140Y-46516603D01*
X90185140Y-46516602D01*
X90204965Y-46290000D01*
X90185140Y-46063397D01*
X90185140Y-46063396D01*
X90126267Y-45843676D01*
X90030132Y-45637514D01*
X90030129Y-45637510D01*
X89979027Y-45564527D01*
X89979025Y-45564527D01*
X89300000Y-46243552D01*
X89300000Y-46237339D01*
X89272741Y-46135606D01*
X89220080Y-46044394D01*
X89145606Y-45969920D01*
X89054394Y-45917259D01*
X88952661Y-45890000D01*
X88946445Y-45890000D01*
X89625472Y-45210973D01*
X89552485Y-45159868D01*
X89552483Y-45159866D01*
X89346323Y-45063732D01*
X89126603Y-45004859D01*
X88900000Y-44985034D01*
X88673397Y-45004859D01*
X88673396Y-45004859D01*
X88453676Y-45063732D01*
X88247513Y-45159868D01*
X88174527Y-45210972D01*
X88853555Y-45890000D01*
X88847339Y-45890000D01*
X88745606Y-45917259D01*
X88654394Y-45969920D01*
X88579920Y-46044394D01*
X88527259Y-46135606D01*
X88500000Y-46237339D01*
X88500000Y-46243555D01*
X87820972Y-45564527D01*
X87769868Y-45637513D01*
X87673732Y-45843676D01*
X87614859Y-46063396D01*
X87614859Y-46063397D01*
X87595034Y-46290000D01*
X87614859Y-46516602D01*
X87614859Y-46516603D01*
X87673732Y-46736323D01*
X87769866Y-46942483D01*
X87769868Y-46942485D01*
X87820973Y-47015471D01*
X88500000Y-46336444D01*
X88500000Y-46342661D01*
X88527259Y-46444394D01*
X88579920Y-46535606D01*
X88654394Y-46610080D01*
X88745606Y-46662741D01*
X88847339Y-46690000D01*
X88853553Y-46690000D01*
X88163493Y-47380059D01*
X88159585Y-47415740D01*
X88112854Y-47500918D01*
X88037083Y-47561728D01*
X87943809Y-47588914D01*
X87902411Y-47589080D01*
X85574481Y-47404323D01*
X85480991Y-47377890D01*
X85404733Y-47317692D01*
X85357317Y-47232893D01*
X85345962Y-47136404D01*
X85372395Y-47042914D01*
X85394849Y-47006880D01*
X85443353Y-46942088D01*
X85493596Y-46807378D01*
X85493598Y-46807371D01*
X85499999Y-46747832D01*
X85500000Y-46747825D01*
X85500000Y-46050001D01*
X85499999Y-46050000D01*
X84590748Y-46050000D01*
X84612518Y-46012292D01*
X84650000Y-45872409D01*
X84650000Y-45727591D01*
X84612518Y-45587708D01*
X84590748Y-45550000D01*
X85499999Y-45550000D01*
X85500000Y-45549999D01*
X85500000Y-44852175D01*
X85499999Y-44852167D01*
X85493598Y-44792628D01*
X85493596Y-44792621D01*
X85443353Y-44657912D01*
X85357189Y-44542812D01*
X85357187Y-44542810D01*
X85242087Y-44456646D01*
X85107378Y-44406403D01*
X85107371Y-44406401D01*
X85047832Y-44400000D01*
X84350001Y-44400000D01*
X84350000Y-44400001D01*
X84350000Y-45309252D01*
X84312292Y-45287482D01*
X84172409Y-45250000D01*
X84027591Y-45250000D01*
X83887708Y-45287482D01*
X83850000Y-45309252D01*
X83850000Y-44400001D01*
X83849999Y-44400000D01*
X83152167Y-44400000D01*
X83092628Y-44406401D01*
X83092621Y-44406403D01*
X82957912Y-44456646D01*
X82842812Y-44542810D01*
X82842810Y-44542812D01*
X82756646Y-44657912D01*
X82706403Y-44792621D01*
X82706401Y-44792628D01*
X82700000Y-44852167D01*
X82700000Y-45549999D01*
X82700001Y-45550000D01*
X83609252Y-45550000D01*
X83587482Y-45587708D01*
X83550000Y-45727591D01*
X83550000Y-45872409D01*
X83587482Y-46012292D01*
X83609252Y-46050000D01*
X82700001Y-46050000D01*
X82700000Y-46050001D01*
X82700000Y-46496350D01*
X82681046Y-46591638D01*
X82627070Y-46672420D01*
X82546288Y-46726396D01*
X82451000Y-46745350D01*
X82355712Y-46726396D01*
X82305212Y-46698209D01*
X82269504Y-46672420D01*
X82229536Y-46643554D01*
X82185438Y-46611705D01*
X82119288Y-46540549D01*
X82085403Y-46449494D01*
X82083462Y-46434623D01*
X82059655Y-46196553D01*
X82066038Y-46110659D01*
X82086134Y-46031305D01*
X82105300Y-45800000D01*
X82086134Y-45568695D01*
X82029157Y-45343700D01*
X81974008Y-45217973D01*
X81954273Y-45142736D01*
X81727098Y-42870981D01*
X81736476Y-42774283D01*
X81782147Y-42688532D01*
X81857156Y-42626785D01*
X81950086Y-42598444D01*
X81972316Y-42597221D01*
X86600000Y-42550000D01*
X86600000Y-42549998D01*
X86598862Y-42452167D01*
X96000000Y-42452167D01*
X96000000Y-43249999D01*
X96000001Y-43250000D01*
X97066988Y-43250000D01*
X97034075Y-43307007D01*
X97000000Y-43434174D01*
X97000000Y-43565826D01*
X97034075Y-43692993D01*
X97066988Y-43750000D01*
X96000001Y-43750000D01*
X96000000Y-43750001D01*
X96000000Y-44547832D01*
X96006401Y-44607371D01*
X96006403Y-44607378D01*
X96056646Y-44742087D01*
X96142810Y-44857187D01*
X96142812Y-44857189D01*
X96257912Y-44943353D01*
X96392621Y-44993596D01*
X96392628Y-44993598D01*
X96452167Y-44999999D01*
X96452175Y-45000000D01*
X97249999Y-45000000D01*
X97250000Y-44999999D01*
X97250000Y-43933012D01*
X97307007Y-43965925D01*
X97434174Y-44000000D01*
X97565826Y-44000000D01*
X97692993Y-43965925D01*
X97750000Y-43933012D01*
X97750000Y-44999999D01*
X97750001Y-45000000D01*
X98547825Y-45000000D01*
X98547832Y-44999999D01*
X98607371Y-44993598D01*
X98607378Y-44993596D01*
X98742087Y-44943353D01*
X98857187Y-44857189D01*
X98857189Y-44857187D01*
X98943353Y-44742087D01*
X98993596Y-44607378D01*
X98993598Y-44607371D01*
X98999999Y-44547832D01*
X99000000Y-44547825D01*
X99000000Y-43750001D01*
X98999999Y-43750000D01*
X97933012Y-43750000D01*
X97965925Y-43692993D01*
X98000000Y-43565826D01*
X98000000Y-43434174D01*
X97965925Y-43307007D01*
X97933012Y-43250000D01*
X98999999Y-43250000D01*
X99000000Y-43249999D01*
X99000000Y-42452175D01*
X98999999Y-42452167D01*
X98993598Y-42392628D01*
X98993596Y-42392621D01*
X98943353Y-42257912D01*
X98857189Y-42142812D01*
X98857187Y-42142810D01*
X98742087Y-42056646D01*
X98607378Y-42006403D01*
X98607371Y-42006401D01*
X98547832Y-42000000D01*
X97750001Y-42000000D01*
X97750000Y-42000001D01*
X97750000Y-43066988D01*
X97692993Y-43034075D01*
X97565826Y-43000000D01*
X97434174Y-43000000D01*
X97307007Y-43034075D01*
X97250000Y-43066988D01*
X97250000Y-42000001D01*
X97249999Y-42000000D01*
X96452167Y-42000000D01*
X96392628Y-42006401D01*
X96392621Y-42006403D01*
X96257912Y-42056646D01*
X96142812Y-42142810D01*
X96142810Y-42142812D01*
X96056646Y-42257912D01*
X96006403Y-42392621D01*
X96006401Y-42392628D01*
X96000000Y-42452167D01*
X86598862Y-42452167D01*
X86559330Y-39052395D01*
X86577175Y-38956893D01*
X86630208Y-38875490D01*
X86710356Y-38820577D01*
X86805418Y-38800517D01*
X86808313Y-38800500D01*
X114250500Y-38800500D01*
X114345788Y-38819454D01*
G37*
%TD.AperFunction*%
%TD*%
M02*
