%TF.GenerationSoftware,KiCad,Pcbnew,8.0.8*%
%TF.CreationDate,2025-04-08T16:29:26-04:00*%
%TF.ProjectId,ESP32PCB,45535033-3250-4434-922e-6b696361645f,rev?*%
%TF.SameCoordinates,Original*%
%TF.FileFunction,Legend,Top*%
%TF.FilePolarity,Positive*%
%FSLAX46Y46*%
G04 Gerber Fmt 4.6, Leading zero omitted, Abs format (unit mm)*
G04 Created by KiCad (PCBNEW 8.0.8) date 2025-04-08 16:29:26*
%MOMM*%
%LPD*%
G01*
G04 APERTURE LIST*
%ADD10C,0.150000*%
%ADD11C,0.120000*%
%ADD12C,0.127000*%
%ADD13C,0.200000*%
G04 APERTURE END LIST*
D10*
X152774819Y-58606666D02*
X152298628Y-58939999D01*
X152774819Y-59178094D02*
X151774819Y-59178094D01*
X151774819Y-59178094D02*
X151774819Y-58797142D01*
X151774819Y-58797142D02*
X151822438Y-58701904D01*
X151822438Y-58701904D02*
X151870057Y-58654285D01*
X151870057Y-58654285D02*
X151965295Y-58606666D01*
X151965295Y-58606666D02*
X152108152Y-58606666D01*
X152108152Y-58606666D02*
X152203390Y-58654285D01*
X152203390Y-58654285D02*
X152251009Y-58701904D01*
X152251009Y-58701904D02*
X152298628Y-58797142D01*
X152298628Y-58797142D02*
X152298628Y-59178094D01*
X152774819Y-57654285D02*
X152774819Y-58225713D01*
X152774819Y-57939999D02*
X151774819Y-57939999D01*
X151774819Y-57939999D02*
X151917676Y-58035237D01*
X151917676Y-58035237D02*
X152012914Y-58130475D01*
X152012914Y-58130475D02*
X152060533Y-58225713D01*
X158608626Y-35818567D02*
X158608626Y-36628403D01*
X158608626Y-36628403D02*
X158656263Y-36723678D01*
X158656263Y-36723678D02*
X158703901Y-36771316D01*
X158703901Y-36771316D02*
X158799175Y-36818953D01*
X158799175Y-36818953D02*
X158989725Y-36818953D01*
X158989725Y-36818953D02*
X159085000Y-36771316D01*
X159085000Y-36771316D02*
X159132637Y-36723678D01*
X159132637Y-36723678D02*
X159180275Y-36628403D01*
X159180275Y-36628403D02*
X159180275Y-35818567D01*
X160180660Y-36818953D02*
X159609011Y-36818953D01*
X159894836Y-36818953D02*
X159894836Y-35818567D01*
X159894836Y-35818567D02*
X159799561Y-35961479D01*
X159799561Y-35961479D02*
X159704286Y-36056754D01*
X159704286Y-36056754D02*
X159609011Y-36104392D01*
X192706666Y-41388819D02*
X192706666Y-42103104D01*
X192706666Y-42103104D02*
X192659047Y-42245961D01*
X192659047Y-42245961D02*
X192563809Y-42341200D01*
X192563809Y-42341200D02*
X192420952Y-42388819D01*
X192420952Y-42388819D02*
X192325714Y-42388819D01*
X193135238Y-41484057D02*
X193182857Y-41436438D01*
X193182857Y-41436438D02*
X193278095Y-41388819D01*
X193278095Y-41388819D02*
X193516190Y-41388819D01*
X193516190Y-41388819D02*
X193611428Y-41436438D01*
X193611428Y-41436438D02*
X193659047Y-41484057D01*
X193659047Y-41484057D02*
X193706666Y-41579295D01*
X193706666Y-41579295D02*
X193706666Y-41674533D01*
X193706666Y-41674533D02*
X193659047Y-41817390D01*
X193659047Y-41817390D02*
X193087619Y-42388819D01*
X193087619Y-42388819D02*
X193706666Y-42388819D01*
X142566666Y-41364819D02*
X142566666Y-42079104D01*
X142566666Y-42079104D02*
X142519047Y-42221961D01*
X142519047Y-42221961D02*
X142423809Y-42317200D01*
X142423809Y-42317200D02*
X142280952Y-42364819D01*
X142280952Y-42364819D02*
X142185714Y-42364819D01*
X143566666Y-42364819D02*
X142995238Y-42364819D01*
X143280952Y-42364819D02*
X143280952Y-41364819D01*
X143280952Y-41364819D02*
X143185714Y-41507676D01*
X143185714Y-41507676D02*
X143090476Y-41602914D01*
X143090476Y-41602914D02*
X142995238Y-41650533D01*
D11*
%TO.C,R1*%
X148580000Y-55170000D02*
X148580000Y-61710000D01*
X148580000Y-61710000D02*
X148910000Y-61710000D01*
X148910000Y-55170000D02*
X148580000Y-55170000D01*
X150990000Y-55170000D02*
X151320000Y-55170000D01*
X151320000Y-55170000D02*
X151320000Y-61710000D01*
X151320000Y-61710000D02*
X150990000Y-61710000D01*
D12*
%TO.C,U1*%
X156250000Y-37660000D02*
X184150000Y-37660000D01*
X156250000Y-92060000D02*
X156250000Y-37660000D01*
X184150000Y-37660000D02*
X184150000Y-92060000D01*
X184150000Y-92060000D02*
X156250000Y-92060000D01*
D13*
X155700000Y-45050000D02*
G75*
G02*
X155500000Y-45050000I-100000J0D01*
G01*
X155500000Y-45050000D02*
G75*
G02*
X155700000Y-45050000I100000J0D01*
G01*
D11*
%TO.C,J2*%
X191710000Y-45974000D02*
X191710000Y-79054000D01*
X191710000Y-45974000D02*
X194370000Y-45974000D01*
X191710000Y-79054000D02*
X194370000Y-79054000D01*
X193040000Y-43374000D02*
X194370000Y-43374000D01*
X194370000Y-43374000D02*
X194370000Y-44704000D01*
X194370000Y-45974000D02*
X194370000Y-79054000D01*
%TO.C,J1*%
X141570000Y-45950000D02*
X141570000Y-73950000D01*
X141570000Y-45950000D02*
X144230000Y-45950000D01*
X141570000Y-73950000D02*
X144230000Y-73950000D01*
X142900000Y-43350000D02*
X144230000Y-43350000D01*
X144230000Y-43350000D02*
X144230000Y-44680000D01*
X144230000Y-45950000D02*
X144230000Y-73950000D01*
%TD*%
M02*
