M48
; DRILL file {KiCad 8.0.8} date 2025-04-09T16:19:07-0400
; FORMAT={-:-/ absolute / metric / decimal}
; #@! TF.CreationDate,2025-04-09T16:19:07-04:00
; #@! TF.GenerationSoftware,Kicad,Pcbnew,8.0.8
; #@! TF.FileFunction,MixedPlating,1,2
FMAT,2
METRIC
; #@! TA.AperFunction,Plated,PTH,ComponentDrill
T1C0.800
; #@! TA.AperFunction,Plated,PTH,ComponentDrill
T2C1.000
; #@! TA.AperFunction,Plated,PTH,ComponentDrill
T3C1.040
%
G90
G05
T1
X149.95Y-54.63
X149.95Y-62.25
T2
X142.9Y-44.68
X142.9Y-47.22
X142.9Y-49.76
X142.9Y-52.3
X142.9Y-54.84
X142.9Y-57.38
X142.9Y-59.92
X142.9Y-62.46
X142.9Y-65.0
X142.9Y-67.54
X142.9Y-70.08
X142.9Y-72.62
X193.04Y-44.704
X193.04Y-47.244
X193.04Y-49.784
X193.04Y-52.324
X193.04Y-54.864
X193.04Y-57.404
X193.04Y-59.944
X193.04Y-62.484
X193.04Y-65.024
X193.04Y-67.564
X193.04Y-70.104
X193.04Y-72.644
X193.04Y-75.184
X193.04Y-77.724
T3
X157.5Y-45.05
X157.5Y-47.59
X157.5Y-50.13
X157.5Y-52.67
X157.5Y-55.21
X157.5Y-57.75
X157.5Y-60.29
X157.5Y-62.83
X157.5Y-65.37
X157.5Y-67.91
X157.5Y-70.45
X157.5Y-72.99
X157.5Y-75.53
X157.5Y-78.07
X157.5Y-80.61
X157.5Y-83.15
X157.5Y-85.69
X157.5Y-88.23
X157.5Y-90.77
X182.9Y-45.05
X182.9Y-47.59
X182.9Y-50.13
X182.9Y-52.67
X182.9Y-55.21
X182.9Y-57.75
X182.9Y-60.29
X182.9Y-62.83
X182.9Y-65.37
X182.9Y-67.91
X182.9Y-70.45
X182.9Y-72.99
X182.9Y-75.53
X182.9Y-78.07
X182.9Y-80.61
X182.9Y-83.15
X182.9Y-85.69
X182.9Y-88.23
X182.9Y-90.77
M30
