%TF.GenerationSoftware,KiCad,Pcbnew,8.0.8*%
%TF.CreationDate,2025-04-09T16:19:13-04:00*%
%TF.ProjectId,ESP32PCB,45535033-3250-4434-922e-6b696361645f,rev?*%
%TF.SameCoordinates,Original*%
%TF.FileFunction,Copper,L1,Top*%
%TF.FilePolarity,Positive*%
%FSLAX46Y46*%
G04 Gerber Fmt 4.6, Leading zero omitted, Abs format (unit mm)*
G04 Created by KiCad (PCBNEW 8.0.8) date 2025-04-09 16:19:13*
%MOMM*%
%LPD*%
G01*
G04 APERTURE LIST*
%TA.AperFunction,ComponentPad*%
%ADD10C,1.600000*%
%TD*%
%TA.AperFunction,ComponentPad*%
%ADD11O,1.600000X1.600000*%
%TD*%
%TA.AperFunction,ComponentPad*%
%ADD12R,1.560000X1.560000*%
%TD*%
%TA.AperFunction,ComponentPad*%
%ADD13C,1.560000*%
%TD*%
%TA.AperFunction,ComponentPad*%
%ADD14R,1.700000X1.700000*%
%TD*%
%TA.AperFunction,ComponentPad*%
%ADD15O,1.700000X1.700000*%
%TD*%
G04 APERTURE END LIST*
D10*
%TO.P,R1,1*%
%TO.N,Net-(J1-Pin_5)*%
X149950000Y-54630000D03*
D11*
%TO.P,R1,2*%
%TO.N,Net-(U1-IO25)*%
X149950000Y-62250000D03*
%TD*%
D12*
%TO.P,U1,J2-1,3V3*%
%TO.N,Net-(J1-Pin_1)*%
X157500000Y-45050000D03*
D13*
%TO.P,U1,J2-2,EN*%
%TO.N,unconnected-(U1-EN-PadJ2-2)*%
X157500000Y-47590000D03*
%TO.P,U1,J2-3,SENSOR_VP*%
%TO.N,unconnected-(U1-SENSOR_VP-PadJ2-3)*%
X157500000Y-50130000D03*
%TO.P,U1,J2-4,SENSOR_VN*%
%TO.N,unconnected-(U1-SENSOR_VN-PadJ2-4)*%
X157500000Y-52670000D03*
%TO.P,U1,J2-5,IO34*%
%TO.N,unconnected-(U1-IO34-PadJ2-5)*%
X157500000Y-55210000D03*
%TO.P,U1,J2-6,IO35*%
%TO.N,Net-(J1-Pin_2)*%
X157500000Y-57750000D03*
%TO.P,U1,J2-7,IO32*%
%TO.N,Net-(J1-Pin_3)*%
X157500000Y-60290000D03*
%TO.P,U1,J2-8,IO33*%
%TO.N,Net-(J1-Pin_4)*%
X157500000Y-62830000D03*
%TO.P,U1,J2-9,IO25*%
%TO.N,Net-(U1-IO25)*%
X157500000Y-65370000D03*
%TO.P,U1,J2-10,IO26*%
%TO.N,Net-(J1-Pin_6)*%
X157500000Y-67910000D03*
%TO.P,U1,J2-11,IO27*%
%TO.N,Net-(J1-Pin_7)*%
X157500000Y-70450000D03*
%TO.P,U1,J2-12,IO14*%
%TO.N,Net-(J1-Pin_8)*%
X157500000Y-72990000D03*
%TO.P,U1,J2-13,IO12*%
%TO.N,Net-(J1-Pin_9)*%
X157500000Y-75530000D03*
%TO.P,U1,J2-14,GND1*%
%TO.N,Net-(J1-Pin_10)*%
X157500000Y-78070000D03*
%TO.P,U1,J2-15,IO13*%
%TO.N,Net-(J1-Pin_11)*%
X157500000Y-80610000D03*
%TO.P,U1,J2-16,SD2*%
%TO.N,unconnected-(U1-SD2-PadJ2-16)*%
X157500000Y-83150000D03*
%TO.P,U1,J2-17,SD3*%
%TO.N,unconnected-(U1-SD3-PadJ2-17)*%
X157500000Y-85690000D03*
%TO.P,U1,J2-18,CMD*%
%TO.N,unconnected-(U1-CMD-PadJ2-18)*%
X157500000Y-88230000D03*
%TO.P,U1,J2-19,EXT_5V*%
%TO.N,Net-(J1-Pin_12)*%
X157500000Y-90770000D03*
%TO.P,U1,J3-1,GND3*%
%TO.N,Net-(J1-Pin_10)*%
X182900000Y-45050000D03*
%TO.P,U1,J3-2,IO23*%
%TO.N,Net-(J2-Pin_2)*%
X182900000Y-47590000D03*
%TO.P,U1,J3-3,IO22*%
%TO.N,Net-(J2-Pin_3)*%
X182900000Y-50130000D03*
%TO.P,U1,J3-4,TXD0*%
%TO.N,unconnected-(U1-TXD0-PadJ3-4)*%
X182900000Y-52670000D03*
%TO.P,U1,J3-5,RXD0*%
%TO.N,unconnected-(U1-RXD0-PadJ3-5)*%
X182900000Y-55210000D03*
%TO.P,U1,J3-6,IO21*%
%TO.N,Net-(J2-Pin_4)*%
X182900000Y-57750000D03*
%TO.P,U1,J3-7,GND2*%
%TO.N,Net-(J1-Pin_10)*%
X182900000Y-60290000D03*
%TO.P,U1,J3-8,IO19*%
%TO.N,Net-(J2-Pin_5)*%
X182900000Y-62830000D03*
%TO.P,U1,J3-9,IO18*%
%TO.N,Net-(J2-Pin_6)*%
X182900000Y-65370000D03*
%TO.P,U1,J3-10,IO5*%
%TO.N,Net-(J2-Pin_7)*%
X182900000Y-67910000D03*
%TO.P,U1,J3-11,IO17*%
%TO.N,Net-(J2-Pin_8)*%
X182900000Y-70450000D03*
%TO.P,U1,J3-12,IO16*%
%TO.N,Net-(J2-Pin_9)*%
X182900000Y-72990000D03*
%TO.P,U1,J3-13,IO4*%
%TO.N,Net-(J2-Pin_10)*%
X182900000Y-75530000D03*
%TO.P,U1,J3-14,IO0*%
%TO.N,Net-(J2-Pin_11)*%
X182900000Y-78070000D03*
%TO.P,U1,J3-15,IO2*%
%TO.N,Net-(J2-Pin_12)*%
X182900000Y-80610000D03*
%TO.P,U1,J3-16,IO15*%
%TO.N,Net-(J2-Pin_13)*%
X182900000Y-83150000D03*
%TO.P,U1,J3-17,SD1*%
%TO.N,unconnected-(U1-SD1-PadJ3-17)*%
X182900000Y-85690000D03*
%TO.P,U1,J3-18,SD0*%
%TO.N,unconnected-(U1-SD0-PadJ3-18)*%
X182900000Y-88230000D03*
%TO.P,U1,J3-19,CLK*%
%TO.N,unconnected-(U1-CLK-PadJ3-19)*%
X182900000Y-90770000D03*
%TD*%
D14*
%TO.P,J2,1,Pin_1*%
%TO.N,Net-(J1-Pin_10)*%
X193040000Y-44704000D03*
D15*
%TO.P,J2,2,Pin_2*%
%TO.N,Net-(J2-Pin_2)*%
X193040000Y-47244000D03*
%TO.P,J2,3,Pin_3*%
%TO.N,Net-(J2-Pin_3)*%
X193040000Y-49784000D03*
%TO.P,J2,4,Pin_4*%
%TO.N,Net-(J2-Pin_4)*%
X193040000Y-52324000D03*
%TO.P,J2,5,Pin_5*%
%TO.N,Net-(J2-Pin_5)*%
X193040000Y-54864000D03*
%TO.P,J2,6,Pin_6*%
%TO.N,Net-(J2-Pin_6)*%
X193040000Y-57404000D03*
%TO.P,J2,7,Pin_7*%
%TO.N,Net-(J2-Pin_7)*%
X193040000Y-59944000D03*
%TO.P,J2,8,Pin_8*%
%TO.N,Net-(J2-Pin_8)*%
X193040000Y-62484000D03*
%TO.P,J2,9,Pin_9*%
%TO.N,Net-(J2-Pin_9)*%
X193040000Y-65024000D03*
%TO.P,J2,10,Pin_10*%
%TO.N,Net-(J2-Pin_10)*%
X193040000Y-67564000D03*
%TO.P,J2,11,Pin_11*%
%TO.N,Net-(J2-Pin_11)*%
X193040000Y-70104000D03*
%TO.P,J2,12,Pin_12*%
%TO.N,Net-(J2-Pin_12)*%
X193040000Y-72644000D03*
%TO.P,J2,13,Pin_13*%
%TO.N,Net-(J2-Pin_13)*%
X193040000Y-75184000D03*
%TO.P,J2,14,Pin_14*%
%TO.N,unconnected-(J2-Pin_14-Pad14)*%
X193040000Y-77724000D03*
%TD*%
D14*
%TO.P,J1,1,Pin_1*%
%TO.N,Net-(J1-Pin_1)*%
X142900000Y-44680000D03*
D15*
%TO.P,J1,2,Pin_2*%
%TO.N,Net-(J1-Pin_2)*%
X142900000Y-47220000D03*
%TO.P,J1,3,Pin_3*%
%TO.N,Net-(J1-Pin_3)*%
X142900000Y-49760000D03*
%TO.P,J1,4,Pin_4*%
%TO.N,Net-(J1-Pin_4)*%
X142900000Y-52300000D03*
%TO.P,J1,5,Pin_5*%
%TO.N,Net-(J1-Pin_5)*%
X142900000Y-54840000D03*
%TO.P,J1,6,Pin_6*%
%TO.N,Net-(J1-Pin_6)*%
X142900000Y-57380000D03*
%TO.P,J1,7,Pin_7*%
%TO.N,Net-(J1-Pin_7)*%
X142900000Y-59920000D03*
%TO.P,J1,8,Pin_8*%
%TO.N,Net-(J1-Pin_8)*%
X142900000Y-62460000D03*
%TO.P,J1,9,Pin_9*%
%TO.N,Net-(J1-Pin_9)*%
X142900000Y-65000000D03*
%TO.P,J1,10,Pin_10*%
%TO.N,Net-(J1-Pin_10)*%
X142900000Y-67540000D03*
%TO.P,J1,11,Pin_11*%
%TO.N,Net-(J1-Pin_11)*%
X142900000Y-70080000D03*
%TO.P,J1,12,Pin_12*%
%TO.N,Net-(J1-Pin_12)*%
X142900000Y-72620000D03*
%TD*%
M02*
