%TF.GenerationSoftware,KiCad,Pcbnew,8.0.8*%
%TF.CreationDate,2025-04-08T16:04:28-04:00*%
%TF.ProjectId,Power System,506f7765-7220-4537-9973-74656d2e6b69,rev?*%
%TF.SameCoordinates,Original*%
%TF.FileFunction,Copper,L2,Bot*%
%TF.FilePolarity,Positive*%
%FSLAX46Y46*%
G04 Gerber Fmt 4.6, Leading zero omitted, Abs format (unit mm)*
G04 Created by KiCad (PCBNEW 8.0.8) date 2025-04-08 16:04:28*
%MOMM*%
%LPD*%
G01*
G04 APERTURE LIST*
%TA.AperFunction,ComponentPad*%
%ADD10R,1.200000X1.200000*%
%TD*%
%TA.AperFunction,ComponentPad*%
%ADD11C,1.200000*%
%TD*%
%TA.AperFunction,ComponentPad*%
%ADD12C,1.600000*%
%TD*%
%TA.AperFunction,ComponentPad*%
%ADD13O,1.600000X1.600000*%
%TD*%
%TA.AperFunction,ComponentPad*%
%ADD14C,3.200000*%
%TD*%
%TA.AperFunction,ComponentPad*%
%ADD15R,1.700000X1.700000*%
%TD*%
%TA.AperFunction,ComponentPad*%
%ADD16O,1.700000X1.700000*%
%TD*%
%TA.AperFunction,ComponentPad*%
%ADD17R,2.250000X2.250000*%
%TD*%
%TA.AperFunction,ComponentPad*%
%ADD18C,2.250000*%
%TD*%
%TA.AperFunction,ComponentPad*%
%ADD19R,1.800000X1.800000*%
%TD*%
%TA.AperFunction,ComponentPad*%
%ADD20O,1.800000X1.800000*%
%TD*%
%TA.AperFunction,ComponentPad*%
%ADD21R,2.000000X2.000000*%
%TD*%
%TA.AperFunction,ComponentPad*%
%ADD22C,2.000000*%
%TD*%
%TA.AperFunction,Conductor*%
%ADD23C,0.550000*%
%TD*%
G04 APERTURE END LIST*
D10*
%TO.P,C2,1*%
%TO.N,Net-(J2-Pin_1)*%
X175900000Y-46187500D03*
D11*
%TO.P,C2,2*%
%TO.N,GNDREF*%
X175900000Y-49687500D03*
%TD*%
D12*
%TO.P,R3,1*%
%TO.N,GNDREF*%
X167950000Y-29250000D03*
D13*
%TO.P,R3,2*%
%TO.N,Net-(U1-FB)*%
X167950000Y-36870000D03*
%TD*%
D12*
%TO.P,R2,1*%
%TO.N,Net-(J5-Pin_2)*%
X179610000Y-24100000D03*
D13*
%TO.P,R2,2*%
%TO.N,GNDREF*%
X171990000Y-24100000D03*
%TD*%
D14*
%TO.P,L1,1,1*%
%TO.N,Net-(J2-Pin_1)*%
X193900000Y-48450000D03*
%TO.P,L1,2,2*%
%TO.N,Net-(D1-K)*%
X193900000Y-42450000D03*
%TD*%
D12*
%TO.P,R1,1*%
%TO.N,+6V*%
X183600000Y-32110000D03*
D13*
%TO.P,R1,2*%
%TO.N,Net-(J5-Pin_2)*%
X183600000Y-24490000D03*
%TD*%
D15*
%TO.P,J2,1,Pin_1*%
%TO.N,Net-(J2-Pin_1)*%
X202425000Y-36450000D03*
D16*
%TO.P,J2,2,Pin_2*%
X202425000Y-38990000D03*
%TD*%
D12*
%TO.P,R2-2,1*%
%TO.N,Net-(R2-1-Pad2)*%
X164840000Y-41850000D03*
D13*
%TO.P,R2-2,2*%
%TO.N,Net-(J2-Pin_1)*%
X172460000Y-41850000D03*
%TD*%
D17*
%TO.P,D1,1,K*%
%TO.N,Net-(D1-K)*%
X183750000Y-36300000D03*
D18*
%TO.P,D1,2,A*%
%TO.N,GNDREF*%
X183750000Y-56200000D03*
%TD*%
D15*
%TO.P,J1,1,Pin_1*%
%TO.N,GNDREF*%
X202425000Y-30310000D03*
D16*
%TO.P,J1,2,Pin_2*%
%TO.N,+6V*%
X202425000Y-32850000D03*
%TD*%
D19*
%TO.P,U1,1,VIN*%
%TO.N,+6V*%
X178700000Y-30450000D03*
D20*
%TO.P,U1,2,OUT*%
%TO.N,Net-(D1-K)*%
X177000000Y-34150000D03*
%TO.P,U1,3,GND*%
%TO.N,GNDREF*%
X175300000Y-30450000D03*
%TO.P,U1,4,FB*%
%TO.N,Net-(U1-FB)*%
X173600000Y-34150000D03*
%TO.P,U1,5,~{ON}/OFF*%
%TO.N,Net-(J5-Pin_1)*%
X171900000Y-30450000D03*
%TD*%
D15*
%TO.P,J3,1,Pin_1*%
%TO.N,Net-(J2-Pin_1)*%
X202425000Y-42610000D03*
D16*
%TO.P,J3,2,Pin_2*%
%TO.N,GNDREF*%
X202425000Y-45150000D03*
%TD*%
D12*
%TO.P,R2-1,1*%
%TO.N,Net-(U1-FB)*%
X163800000Y-29240000D03*
D13*
%TO.P,R2-1,2*%
%TO.N,Net-(R2-1-Pad2)*%
X163800000Y-36860000D03*
%TD*%
D15*
%TO.P,J5,1,Pin_1*%
%TO.N,Net-(J5-Pin_1)*%
X202425000Y-24200000D03*
D16*
%TO.P,J5,2,Pin_2*%
%TO.N,Net-(J5-Pin_2)*%
X202425000Y-26740000D03*
%TD*%
D15*
%TO.P,J4,1,Pin_1*%
%TO.N,GNDREF*%
X202400000Y-48750000D03*
D16*
%TO.P,J4,2,Pin_2*%
X202400000Y-51290000D03*
%TD*%
D21*
%TO.P,C1,1*%
%TO.N,+6V*%
X192200000Y-32967677D03*
D22*
%TO.P,C1,2*%
%TO.N,GNDREF*%
X192200000Y-27967677D03*
%TD*%
D23*
%TO.N,GNDREF*%
X171377500Y-23487500D02*
X162200000Y-23487500D01*
X171990000Y-24100000D02*
X171377500Y-23487500D01*
X177900000Y-27850000D02*
X175300000Y-30450000D01*
X167950000Y-28350000D02*
X167950000Y-29250000D01*
X202400000Y-51290000D02*
X202400000Y-48750000D01*
X203175000Y-45190000D02*
X204535000Y-45190000D01*
X202400000Y-51290000D02*
X202400000Y-45175000D01*
X203135000Y-45150000D02*
X203175000Y-45190000D01*
X171990000Y-24100000D02*
X171990000Y-24310000D01*
X192250000Y-27850000D02*
X177900000Y-27850000D01*
X202400000Y-45175000D02*
X202425000Y-45150000D01*
X171990000Y-24310000D02*
X167950000Y-28350000D01*
X202425000Y-45150000D02*
X203135000Y-45150000D01*
X201900000Y-51790000D02*
X202400000Y-51290000D01*
X201150000Y-51290000D02*
X202400000Y-51290000D01*
%TO.N,+6V*%
X179600000Y-30450000D02*
X181710000Y-32560000D01*
X183857677Y-32967677D02*
X202307323Y-32967677D01*
X181710000Y-32560000D02*
X183450000Y-32560000D01*
X202307323Y-32967677D02*
X202425000Y-32850000D01*
X178700000Y-30450000D02*
X179600000Y-30450000D01*
X183450000Y-32560000D02*
X183857677Y-32967677D01*
%TO.N,Net-(J2-Pin_1)*%
X193450000Y-49050000D02*
X199890000Y-42610000D01*
X176050000Y-41600000D02*
X186050000Y-41600000D01*
X202425000Y-36450000D02*
X202425000Y-42610000D01*
X175900000Y-46187500D02*
X174650000Y-44937500D01*
X173587500Y-44937500D02*
X172460000Y-43810000D01*
X174650000Y-44937500D02*
X173587500Y-44937500D01*
X172900000Y-41600000D02*
X176050000Y-41600000D01*
X172460000Y-43810000D02*
X172460000Y-41850000D01*
X186050000Y-41600000D02*
X193450000Y-49000000D01*
X193450000Y-49000000D02*
X193450000Y-49050000D01*
X199890000Y-42610000D02*
X202425000Y-42610000D01*
%TO.N,Net-(D1-K)*%
X186750000Y-36250000D02*
X192950000Y-42450000D01*
X192950000Y-42450000D02*
X193900000Y-42450000D01*
X179100000Y-36250000D02*
X186750000Y-36250000D01*
X177000000Y-34150000D02*
X179100000Y-36250000D01*
%TO.N,Net-(J5-Pin_2)*%
X179610000Y-24100000D02*
X199075000Y-24100000D01*
X201715000Y-26740000D02*
X202425000Y-26740000D01*
X199075000Y-24100000D02*
X199675000Y-24700000D01*
X199675000Y-24700000D02*
X201715000Y-26740000D01*
%TO.N,Net-(J5-Pin_1)*%
X177750000Y-21750000D02*
X199975000Y-21750000D01*
X171900000Y-28750000D02*
X175750000Y-24900000D01*
X171900000Y-30450000D02*
X171900000Y-28750000D01*
X175750000Y-23750000D02*
X177750000Y-21750000D01*
X175750000Y-24900000D02*
X175750000Y-23750000D01*
X199975000Y-21750000D02*
X202425000Y-24200000D01*
%TO.N,Net-(U1-FB)*%
X163800000Y-29240000D02*
X163800000Y-32720000D01*
X173600000Y-34150000D02*
X170880000Y-36870000D01*
X163800000Y-32720000D02*
X167950000Y-36870000D01*
X170880000Y-36870000D02*
X167950000Y-36870000D01*
%TO.N,Net-(R2-1-Pad2)*%
X164840000Y-37900000D02*
X163800000Y-36860000D01*
X164840000Y-41850000D02*
X164840000Y-37900000D01*
%TD*%
%TA.AperFunction,Conductor*%
%TO.N,+6V*%
G36*
X197280671Y-31303722D02*
G01*
X199288396Y-32207199D01*
X199288399Y-32207199D01*
X199288400Y-32207200D01*
X199288400Y-32207199D01*
X199288401Y-32207200D01*
X199383385Y-32201259D01*
X201085324Y-32094809D01*
X201153459Y-32110270D01*
X201202421Y-32160115D01*
X201216662Y-32228518D01*
X201205445Y-32270971D01*
X201151568Y-32386511D01*
X201151567Y-32386513D01*
X201094364Y-32599999D01*
X201094364Y-32600000D01*
X201991988Y-32600000D01*
X201959075Y-32657007D01*
X201925000Y-32784174D01*
X201925000Y-32915826D01*
X201959075Y-33042993D01*
X201991988Y-33100000D01*
X201094364Y-33100000D01*
X201151567Y-33313486D01*
X201151570Y-33313492D01*
X201251399Y-33527578D01*
X201386894Y-33721082D01*
X201553917Y-33888105D01*
X201747421Y-34023600D01*
X201961507Y-34123429D01*
X201961516Y-34123433D01*
X202175000Y-34180634D01*
X202175000Y-33283012D01*
X202232007Y-33315925D01*
X202359174Y-33350000D01*
X202490826Y-33350000D01*
X202617993Y-33315925D01*
X202675000Y-33283012D01*
X202675000Y-34180633D01*
X202888483Y-34123433D01*
X202888492Y-34123429D01*
X203102578Y-34023600D01*
X203296082Y-33888105D01*
X203463105Y-33721082D01*
X203598600Y-33527578D01*
X203698429Y-33313492D01*
X203698435Y-33313478D01*
X203700725Y-33304932D01*
X203737088Y-33245271D01*
X203799935Y-33214740D01*
X203869310Y-33223034D01*
X203923189Y-33267518D01*
X203944465Y-33334070D01*
X203944500Y-33337023D01*
X203944500Y-34486000D01*
X203924815Y-34553039D01*
X203872011Y-34598794D01*
X203820500Y-34610000D01*
X201294179Y-34610000D01*
X201257565Y-34604471D01*
X201244716Y-34600500D01*
X201242655Y-34599795D01*
X201241203Y-34599413D01*
X201099092Y-34576928D01*
X201099098Y-34576928D01*
X198932890Y-34546326D01*
X198821782Y-34557083D01*
X198821775Y-34557084D01*
X198768514Y-34568278D01*
X198666759Y-34601748D01*
X198627888Y-34607956D01*
X193558386Y-34602770D01*
X193491367Y-34583017D01*
X193445666Y-34530166D01*
X193435793Y-34460997D01*
X193464883Y-34397471D01*
X193484202Y-34379503D01*
X193557191Y-34324863D01*
X193643350Y-34209770D01*
X193643354Y-34209763D01*
X193693596Y-34075056D01*
X193693598Y-34075049D01*
X193699999Y-34015521D01*
X193700000Y-34015504D01*
X193700000Y-33217677D01*
X192633012Y-33217677D01*
X192665925Y-33160670D01*
X192700000Y-33033503D01*
X192700000Y-32901851D01*
X192665925Y-32774684D01*
X192633012Y-32717677D01*
X193700000Y-32717677D01*
X193700000Y-31919849D01*
X193699999Y-31919832D01*
X193693598Y-31860304D01*
X193693596Y-31860297D01*
X193643354Y-31725590D01*
X193643350Y-31725583D01*
X193557190Y-31610489D01*
X193557187Y-31610486D01*
X193434989Y-31519008D01*
X193436218Y-31517365D01*
X193395080Y-31476228D01*
X193380228Y-31407955D01*
X193404644Y-31342491D01*
X193460577Y-31300619D01*
X193503912Y-31292800D01*
X197229786Y-31292800D01*
X197280671Y-31303722D01*
G37*
%TD.AperFunction*%
%TA.AperFunction,Conductor*%
G36*
X180987342Y-29615694D02*
G01*
X181013025Y-29619815D01*
X187197996Y-31292799D01*
X187197998Y-31292800D01*
X187198000Y-31292800D01*
X190896088Y-31292800D01*
X190963127Y-31312485D01*
X191008882Y-31365289D01*
X191018826Y-31434447D01*
X190989801Y-31498003D01*
X190964530Y-31518366D01*
X190965011Y-31519008D01*
X190842812Y-31610486D01*
X190842809Y-31610489D01*
X190756649Y-31725583D01*
X190756645Y-31725590D01*
X190706403Y-31860297D01*
X190706401Y-31860304D01*
X190700000Y-31919832D01*
X190700000Y-32717677D01*
X191766988Y-32717677D01*
X191734075Y-32774684D01*
X191700000Y-32901851D01*
X191700000Y-33033503D01*
X191734075Y-33160670D01*
X191766988Y-33217677D01*
X190700000Y-33217677D01*
X190700000Y-34015521D01*
X190706401Y-34075049D01*
X190706403Y-34075056D01*
X190756645Y-34209763D01*
X190756649Y-34209770D01*
X190757510Y-34210920D01*
X190758011Y-34212265D01*
X190760897Y-34217549D01*
X190760137Y-34217963D01*
X190781928Y-34276384D01*
X190767077Y-34344657D01*
X190717672Y-34394063D01*
X190649399Y-34408915D01*
X190583935Y-34384499D01*
X190580223Y-34381609D01*
X189800000Y-33750000D01*
X180247695Y-33835572D01*
X180180482Y-33816489D01*
X180164312Y-33804352D01*
X179470431Y-33189024D01*
X178253656Y-32109997D01*
X182295034Y-32109997D01*
X182295034Y-32110002D01*
X182314858Y-32336599D01*
X182314860Y-32336610D01*
X182373730Y-32556317D01*
X182373735Y-32556331D01*
X182469863Y-32762478D01*
X182520974Y-32835472D01*
X183200000Y-32156446D01*
X183200000Y-32162661D01*
X183227259Y-32264394D01*
X183279920Y-32355606D01*
X183354394Y-32430080D01*
X183445606Y-32482741D01*
X183547339Y-32510000D01*
X183553553Y-32510000D01*
X182874526Y-33189025D01*
X182947513Y-33240132D01*
X182947521Y-33240136D01*
X183153668Y-33336264D01*
X183153682Y-33336269D01*
X183373389Y-33395139D01*
X183373400Y-33395141D01*
X183599998Y-33414966D01*
X183600002Y-33414966D01*
X183826599Y-33395141D01*
X183826610Y-33395139D01*
X184046317Y-33336269D01*
X184046331Y-33336264D01*
X184252478Y-33240136D01*
X184325471Y-33189024D01*
X183646447Y-32510000D01*
X183652661Y-32510000D01*
X183754394Y-32482741D01*
X183845606Y-32430080D01*
X183920080Y-32355606D01*
X183972741Y-32264394D01*
X184000000Y-32162661D01*
X184000000Y-32156447D01*
X184679024Y-32835471D01*
X184730136Y-32762478D01*
X184826264Y-32556331D01*
X184826269Y-32556317D01*
X184885139Y-32336610D01*
X184885141Y-32336599D01*
X184904966Y-32110002D01*
X184904966Y-32109997D01*
X184885141Y-31883400D01*
X184885139Y-31883389D01*
X184826269Y-31663682D01*
X184826264Y-31663668D01*
X184730136Y-31457521D01*
X184730132Y-31457513D01*
X184679025Y-31384526D01*
X184000000Y-32063551D01*
X184000000Y-32057339D01*
X183972741Y-31955606D01*
X183920080Y-31864394D01*
X183845606Y-31789920D01*
X183754394Y-31737259D01*
X183652661Y-31710000D01*
X183646445Y-31710000D01*
X184325472Y-31030974D01*
X184252478Y-30979863D01*
X184046331Y-30883735D01*
X184046317Y-30883730D01*
X183826610Y-30824860D01*
X183826599Y-30824858D01*
X183600002Y-30805034D01*
X183599998Y-30805034D01*
X183373400Y-30824858D01*
X183373389Y-30824860D01*
X183153682Y-30883730D01*
X183153673Y-30883734D01*
X182947516Y-30979866D01*
X182947512Y-30979868D01*
X182874526Y-31030973D01*
X182874526Y-31030974D01*
X183553553Y-31710000D01*
X183547339Y-31710000D01*
X183445606Y-31737259D01*
X183354394Y-31789920D01*
X183279920Y-31864394D01*
X183227259Y-31955606D01*
X183200000Y-32057339D01*
X183200000Y-32063552D01*
X182520974Y-31384526D01*
X182520973Y-31384526D01*
X182469868Y-31457512D01*
X182469866Y-31457516D01*
X182373734Y-31663673D01*
X182373730Y-31663682D01*
X182314860Y-31883389D01*
X182314858Y-31883400D01*
X182295034Y-32109997D01*
X178253656Y-32109997D01*
X178204915Y-32066774D01*
X178167818Y-32007568D01*
X178168619Y-31937703D01*
X178207066Y-31879362D01*
X178270950Y-31851068D01*
X178287188Y-31850000D01*
X178450000Y-31850000D01*
X178450000Y-30940747D01*
X178487708Y-30962518D01*
X178627591Y-31000000D01*
X178772409Y-31000000D01*
X178912292Y-30962518D01*
X178950000Y-30940747D01*
X178950000Y-31850000D01*
X179647828Y-31850000D01*
X179647844Y-31849999D01*
X179707372Y-31843598D01*
X179707379Y-31843596D01*
X179842086Y-31793354D01*
X179842093Y-31793350D01*
X179957187Y-31707190D01*
X179957190Y-31707187D01*
X180043350Y-31592093D01*
X180043354Y-31592086D01*
X180093596Y-31457379D01*
X180093598Y-31457372D01*
X180099999Y-31397844D01*
X180100000Y-31397827D01*
X180100000Y-30700000D01*
X179190748Y-30700000D01*
X179212518Y-30662292D01*
X179250000Y-30522409D01*
X179250000Y-30377591D01*
X179212518Y-30237708D01*
X179190748Y-30200000D01*
X180100000Y-30200000D01*
X180100000Y-29698612D01*
X180119685Y-29631573D01*
X180172489Y-29585818D01*
X180230688Y-29574793D01*
X180987342Y-29615694D01*
G37*
%TD.AperFunction*%
%TD*%
%TA.AperFunction,Conductor*%
%TO.N,Net-(J2-Pin_1)*%
G36*
X201091951Y-35082378D02*
G01*
X201158703Y-35103008D01*
X201203708Y-35156453D01*
X201212673Y-35225745D01*
X201189464Y-35280677D01*
X201131647Y-35357910D01*
X201131645Y-35357913D01*
X201081403Y-35492620D01*
X201081401Y-35492627D01*
X201075000Y-35552155D01*
X201075000Y-36200000D01*
X201991988Y-36200000D01*
X201959075Y-36257007D01*
X201925000Y-36384174D01*
X201925000Y-36515826D01*
X201959075Y-36642993D01*
X201991988Y-36700000D01*
X201075000Y-36700000D01*
X201075000Y-37347844D01*
X201081401Y-37407372D01*
X201081403Y-37407379D01*
X201131645Y-37542086D01*
X201131649Y-37542093D01*
X201217809Y-37657187D01*
X201217812Y-37657190D01*
X201332906Y-37743350D01*
X201332913Y-37743354D01*
X201464986Y-37792614D01*
X201520920Y-37834485D01*
X201545337Y-37899949D01*
X201530486Y-37968222D01*
X201509335Y-37996477D01*
X201386886Y-38118926D01*
X201251400Y-38312420D01*
X201251399Y-38312422D01*
X201151570Y-38526507D01*
X201151567Y-38526513D01*
X201094364Y-38739999D01*
X201094364Y-38740000D01*
X201991988Y-38740000D01*
X201959075Y-38797007D01*
X201925000Y-38924174D01*
X201925000Y-39055826D01*
X201959075Y-39182993D01*
X201991988Y-39240000D01*
X201094364Y-39240000D01*
X201151567Y-39453486D01*
X201151570Y-39453492D01*
X201251399Y-39667578D01*
X201386894Y-39861082D01*
X201553917Y-40028105D01*
X201747421Y-40163600D01*
X201961507Y-40263429D01*
X201961516Y-40263433D01*
X202175000Y-40320634D01*
X202175000Y-39423012D01*
X202232007Y-39455925D01*
X202359174Y-39490000D01*
X202490826Y-39490000D01*
X202617993Y-39455925D01*
X202675000Y-39423012D01*
X202675000Y-40320633D01*
X202888483Y-40263433D01*
X202888492Y-40263429D01*
X203102578Y-40163600D01*
X203296082Y-40028105D01*
X203463105Y-39861082D01*
X203529425Y-39766369D01*
X203584002Y-39722745D01*
X203653501Y-39715552D01*
X203715855Y-39747074D01*
X203751269Y-39807304D01*
X203755000Y-39837493D01*
X203755000Y-41247024D01*
X203735315Y-41314063D01*
X203682511Y-41359818D01*
X203613353Y-41369762D01*
X203556690Y-41346291D01*
X203517093Y-41316649D01*
X203517086Y-41316645D01*
X203382379Y-41266403D01*
X203382372Y-41266401D01*
X203322844Y-41260000D01*
X202675000Y-41260000D01*
X202675000Y-42176988D01*
X202617993Y-42144075D01*
X202490826Y-42110000D01*
X202359174Y-42110000D01*
X202232007Y-42144075D01*
X202175000Y-42176988D01*
X202175000Y-41260000D01*
X201527155Y-41260000D01*
X201467627Y-41266401D01*
X201467620Y-41266403D01*
X201332913Y-41316645D01*
X201332906Y-41316649D01*
X201217812Y-41402809D01*
X201217809Y-41402812D01*
X201131649Y-41517906D01*
X201131645Y-41517913D01*
X201081403Y-41652620D01*
X201081401Y-41652627D01*
X201075000Y-41712155D01*
X201075000Y-42360000D01*
X201991988Y-42360000D01*
X201959075Y-42417007D01*
X201925000Y-42544174D01*
X201925000Y-42675826D01*
X201959075Y-42802993D01*
X201991988Y-42860000D01*
X201075000Y-42860000D01*
X201075000Y-43507844D01*
X201081401Y-43567372D01*
X201081403Y-43567380D01*
X201116927Y-43662625D01*
X201121911Y-43732317D01*
X201088426Y-43793640D01*
X201027102Y-43827124D01*
X200998493Y-43829938D01*
X199350000Y-43800000D01*
X199350000Y-46953209D01*
X199330315Y-47020248D01*
X199319088Y-47035127D01*
X196072332Y-50724622D01*
X196017876Y-50760532D01*
X193065579Y-51728498D01*
X192995744Y-51730680D01*
X192947168Y-51705598D01*
X189073418Y-48450000D01*
X191795093Y-48450000D01*
X191814697Y-48736618D01*
X191814698Y-48736619D01*
X191873145Y-49017885D01*
X191873150Y-49017902D01*
X191969355Y-49288595D01*
X192101527Y-49543677D01*
X192101531Y-49543683D01*
X192246867Y-49749576D01*
X192246868Y-49749577D01*
X193184152Y-48812292D01*
X193191049Y-48828942D01*
X193278599Y-48959970D01*
X193390030Y-49071401D01*
X193521058Y-49158951D01*
X193537706Y-49165846D01*
X192602198Y-50101353D01*
X192686144Y-50169647D01*
X192686146Y-50169648D01*
X192931607Y-50318917D01*
X193195108Y-50433371D01*
X193471737Y-50510879D01*
X193471744Y-50510880D01*
X193756355Y-50550000D01*
X194043645Y-50550000D01*
X194328255Y-50510880D01*
X194328262Y-50510879D01*
X194604891Y-50433371D01*
X194868392Y-50318917D01*
X195113854Y-50169648D01*
X195197800Y-50101353D01*
X194262293Y-49165847D01*
X194278942Y-49158951D01*
X194409970Y-49071401D01*
X194521401Y-48959970D01*
X194608951Y-48828942D01*
X194615847Y-48812293D01*
X195553130Y-49749576D01*
X195553131Y-49749576D01*
X195698472Y-49543676D01*
X195830644Y-49288595D01*
X195926849Y-49017902D01*
X195926854Y-49017885D01*
X195985301Y-48736619D01*
X195985302Y-48736618D01*
X196004906Y-48450000D01*
X195985302Y-48163381D01*
X195985301Y-48163380D01*
X195926854Y-47882114D01*
X195926849Y-47882097D01*
X195830644Y-47611404D01*
X195698472Y-47356323D01*
X195553130Y-47150422D01*
X194615846Y-48087705D01*
X194608951Y-48071058D01*
X194521401Y-47940030D01*
X194409970Y-47828599D01*
X194278942Y-47741049D01*
X194262293Y-47734152D01*
X195197800Y-46798645D01*
X195113862Y-46730357D01*
X195113853Y-46730351D01*
X194868392Y-46581082D01*
X194604891Y-46466628D01*
X194328262Y-46389120D01*
X194328255Y-46389119D01*
X194043645Y-46350000D01*
X193756355Y-46350000D01*
X193471744Y-46389119D01*
X193471737Y-46389120D01*
X193195108Y-46466628D01*
X192931610Y-46581081D01*
X192686140Y-46730355D01*
X192686137Y-46730357D01*
X192602199Y-46798645D01*
X193537706Y-47734152D01*
X193521058Y-47741049D01*
X193390030Y-47828599D01*
X193278599Y-47940030D01*
X193191049Y-48071058D01*
X193184153Y-48087706D01*
X192246868Y-47150421D01*
X192246867Y-47150421D01*
X192101531Y-47356316D01*
X192101527Y-47356322D01*
X191969355Y-47611404D01*
X191873150Y-47882097D01*
X191873145Y-47882114D01*
X191814698Y-48163380D01*
X191814697Y-48163381D01*
X191795093Y-48450000D01*
X189073418Y-48450000D01*
X188299999Y-47799999D01*
X175151800Y-47949411D01*
X175084541Y-47930489D01*
X175063175Y-47913563D01*
X172664013Y-45539655D01*
X174800000Y-45539655D01*
X174800000Y-45937500D01*
X175553590Y-45937500D01*
X175503963Y-46023456D01*
X175475000Y-46131548D01*
X175475000Y-46243452D01*
X175503963Y-46351544D01*
X175553590Y-46437500D01*
X174800000Y-46437500D01*
X174800000Y-46835344D01*
X174806401Y-46894872D01*
X174806403Y-46894879D01*
X174856645Y-47029586D01*
X174856649Y-47029593D01*
X174942809Y-47144687D01*
X174942812Y-47144690D01*
X175057906Y-47230850D01*
X175057913Y-47230854D01*
X175192620Y-47281096D01*
X175192627Y-47281098D01*
X175252155Y-47287499D01*
X175252172Y-47287500D01*
X175650000Y-47287500D01*
X175650000Y-46533909D01*
X175735956Y-46583537D01*
X175844048Y-46612500D01*
X175955952Y-46612500D01*
X176064044Y-46583537D01*
X176150000Y-46533909D01*
X176150000Y-47287500D01*
X176547828Y-47287500D01*
X176547844Y-47287499D01*
X176607372Y-47281098D01*
X176607379Y-47281096D01*
X176742086Y-47230854D01*
X176742093Y-47230850D01*
X176857187Y-47144690D01*
X176857190Y-47144687D01*
X176943350Y-47029593D01*
X176943354Y-47029586D01*
X176993596Y-46894879D01*
X176993598Y-46894872D01*
X176999999Y-46835344D01*
X177000000Y-46835327D01*
X177000000Y-46437500D01*
X176246410Y-46437500D01*
X176296037Y-46351544D01*
X176325000Y-46243452D01*
X176325000Y-46131548D01*
X176296037Y-46023456D01*
X176246410Y-45937500D01*
X177000000Y-45937500D01*
X177000000Y-45539672D01*
X176999999Y-45539655D01*
X176993598Y-45480127D01*
X176993596Y-45480120D01*
X176943354Y-45345413D01*
X176943350Y-45345406D01*
X176857190Y-45230312D01*
X176857187Y-45230309D01*
X176742093Y-45144149D01*
X176742086Y-45144145D01*
X176607379Y-45093903D01*
X176607372Y-45093901D01*
X176547844Y-45087500D01*
X176150000Y-45087500D01*
X176150000Y-45841090D01*
X176064044Y-45791463D01*
X175955952Y-45762500D01*
X175844048Y-45762500D01*
X175735956Y-45791463D01*
X175650000Y-45841090D01*
X175650000Y-45087500D01*
X175252155Y-45087500D01*
X175192627Y-45093901D01*
X175192620Y-45093903D01*
X175057913Y-45144145D01*
X175057906Y-45144149D01*
X174942812Y-45230309D01*
X174942809Y-45230312D01*
X174856649Y-45345406D01*
X174856645Y-45345413D01*
X174806403Y-45480120D01*
X174806401Y-45480127D01*
X174800000Y-45539655D01*
X172664013Y-45539655D01*
X170350000Y-43250000D01*
X170349999Y-43250000D01*
X167831890Y-43250000D01*
X167764851Y-43230315D01*
X167719096Y-43177511D01*
X167708126Y-43118360D01*
X167801852Y-41599999D01*
X171181127Y-41599999D01*
X171181128Y-41600000D01*
X172144314Y-41600000D01*
X172139920Y-41604394D01*
X172087259Y-41695606D01*
X172060000Y-41797339D01*
X172060000Y-41902661D01*
X172087259Y-42004394D01*
X172139920Y-42095606D01*
X172144314Y-42100000D01*
X171181128Y-42100000D01*
X171233730Y-42296317D01*
X171233734Y-42296326D01*
X171329865Y-42502482D01*
X171460342Y-42688820D01*
X171621179Y-42849657D01*
X171807517Y-42980134D01*
X172013673Y-43076265D01*
X172013682Y-43076269D01*
X172209999Y-43128872D01*
X172210000Y-43128871D01*
X172210000Y-42165686D01*
X172214394Y-42170080D01*
X172305606Y-42222741D01*
X172407339Y-42250000D01*
X172512661Y-42250000D01*
X172614394Y-42222741D01*
X172705606Y-42170080D01*
X172710000Y-42165686D01*
X172710000Y-43128872D01*
X172906317Y-43076269D01*
X172906326Y-43076265D01*
X173112482Y-42980134D01*
X173298820Y-42849657D01*
X173459657Y-42688820D01*
X173590134Y-42502482D01*
X173686265Y-42296326D01*
X173686269Y-42296317D01*
X173738872Y-42100000D01*
X172775686Y-42100000D01*
X172780080Y-42095606D01*
X172832741Y-42004394D01*
X172860000Y-41902661D01*
X172860000Y-41797339D01*
X172832741Y-41695606D01*
X172780080Y-41604394D01*
X172775686Y-41600000D01*
X173738872Y-41600000D01*
X173738872Y-41599999D01*
X173686269Y-41403682D01*
X173686265Y-41403673D01*
X173590134Y-41197517D01*
X173459657Y-41011179D01*
X173298820Y-40850342D01*
X173112482Y-40719865D01*
X172906328Y-40623734D01*
X172710000Y-40571127D01*
X172710000Y-41534314D01*
X172705606Y-41529920D01*
X172614394Y-41477259D01*
X172512661Y-41450000D01*
X172407339Y-41450000D01*
X172305606Y-41477259D01*
X172214394Y-41529920D01*
X172210000Y-41534314D01*
X172210000Y-40571127D01*
X172013671Y-40623734D01*
X171807517Y-40719865D01*
X171621179Y-40850342D01*
X171460342Y-41011179D01*
X171329865Y-41197517D01*
X171233734Y-41403673D01*
X171233730Y-41403682D01*
X171181127Y-41599999D01*
X167801852Y-41599999D01*
X167822444Y-41266401D01*
X167942817Y-39316359D01*
X167966594Y-39250661D01*
X168022117Y-39208246D01*
X168066581Y-39200000D01*
X186943944Y-39200000D01*
X187010983Y-39219685D01*
X187037032Y-39242082D01*
X187560994Y-39837493D01*
X192500000Y-45450000D01*
X195849999Y-45450000D01*
X195850000Y-45450000D01*
X198800000Y-41100000D01*
X198800000Y-35175764D01*
X198819685Y-35108725D01*
X198872489Y-35062970D01*
X198925749Y-35051776D01*
X201091951Y-35082378D01*
G37*
%TD.AperFunction*%
%TA.AperFunction,Conductor*%
G36*
X202675000Y-38556988D02*
G01*
X202617993Y-38524075D01*
X202490826Y-38490000D01*
X202359174Y-38490000D01*
X202232007Y-38524075D01*
X202175000Y-38556988D01*
X202175000Y-36883012D01*
X202232007Y-36915925D01*
X202359174Y-36950000D01*
X202490826Y-36950000D01*
X202617993Y-36915925D01*
X202675000Y-36883012D01*
X202675000Y-38556988D01*
G37*
%TD.AperFunction*%
%TD*%
%TA.AperFunction,Conductor*%
%TO.N,Net-(D1-K)*%
G36*
X189289490Y-34946288D02*
G01*
X189354573Y-34967002D01*
X189463355Y-35039389D01*
X190398400Y-35661600D01*
X197823151Y-35711546D01*
X197890055Y-35731681D01*
X197935453Y-35784791D01*
X197946261Y-35839197D01*
X197801115Y-40762178D01*
X197779463Y-40828609D01*
X197777958Y-40830756D01*
X196152471Y-43098876D01*
X196097420Y-43141901D01*
X196027847Y-43148332D01*
X195965841Y-43116128D01*
X195931089Y-43055513D01*
X195930276Y-43001415D01*
X195985302Y-42736617D01*
X196004906Y-42450000D01*
X195985302Y-42163381D01*
X195985301Y-42163380D01*
X195926854Y-41882114D01*
X195926849Y-41882097D01*
X195830644Y-41611404D01*
X195698472Y-41356323D01*
X195553130Y-41150422D01*
X194615846Y-42087705D01*
X194608951Y-42071058D01*
X194521401Y-41940030D01*
X194409970Y-41828599D01*
X194278942Y-41741049D01*
X194262293Y-41734152D01*
X195197800Y-40798645D01*
X195113862Y-40730357D01*
X195113853Y-40730351D01*
X194868392Y-40581082D01*
X194604891Y-40466628D01*
X194328262Y-40389120D01*
X194328255Y-40389119D01*
X194043645Y-40350000D01*
X193756355Y-40350000D01*
X193471744Y-40389119D01*
X193471737Y-40389120D01*
X193195108Y-40466628D01*
X192931610Y-40581081D01*
X192686140Y-40730355D01*
X192686137Y-40730357D01*
X192602199Y-40798645D01*
X193537706Y-41734152D01*
X193521058Y-41741049D01*
X193390030Y-41828599D01*
X193278599Y-41940030D01*
X193191049Y-42071058D01*
X193184153Y-42087706D01*
X192246868Y-41150421D01*
X192246867Y-41150421D01*
X192101531Y-41356316D01*
X192101527Y-41356322D01*
X191969355Y-41611404D01*
X191873150Y-41882097D01*
X191873145Y-41882114D01*
X191814698Y-42163380D01*
X191814697Y-42163381D01*
X191795093Y-42450000D01*
X191805328Y-42599647D01*
X191790264Y-42667873D01*
X191740705Y-42717125D01*
X191672386Y-42731764D01*
X191606998Y-42707143D01*
X191589964Y-42691629D01*
X191481477Y-42572580D01*
X187452000Y-38150800D01*
X187451998Y-38150799D01*
X185073598Y-38140721D01*
X185006642Y-38120752D01*
X184961111Y-38067755D01*
X184951461Y-37998555D01*
X184980755Y-37935123D01*
X185030791Y-37900540D01*
X185117084Y-37868355D01*
X185117093Y-37868350D01*
X185232187Y-37782190D01*
X185232190Y-37782187D01*
X185318350Y-37667093D01*
X185318354Y-37667086D01*
X185368596Y-37532379D01*
X185368598Y-37532372D01*
X185374999Y-37472844D01*
X185375000Y-37472827D01*
X185375000Y-36550000D01*
X184458241Y-36550000D01*
X184471178Y-36518767D01*
X184500000Y-36373869D01*
X184500000Y-36226131D01*
X184471178Y-36081233D01*
X184458241Y-36050000D01*
X185375000Y-36050000D01*
X185375000Y-35127172D01*
X185374999Y-35127155D01*
X185368598Y-35067627D01*
X185368597Y-35067623D01*
X185344165Y-35002118D01*
X185339181Y-34932426D01*
X185372665Y-34871103D01*
X185433988Y-34837618D01*
X185463952Y-34834837D01*
X189289490Y-34946288D01*
G37*
%TD.AperFunction*%
%TA.AperFunction,Conductor*%
G36*
X178742115Y-34347487D02*
G01*
X178968399Y-34645600D01*
X179042853Y-34647769D01*
X182084696Y-34736388D01*
X182151130Y-34758015D01*
X182195328Y-34812129D01*
X182203253Y-34881548D01*
X182184730Y-34924491D01*
X182185897Y-34925128D01*
X182181645Y-34932913D01*
X182131403Y-35067620D01*
X182131401Y-35067627D01*
X182125000Y-35127155D01*
X182125000Y-36050000D01*
X183041759Y-36050000D01*
X183028822Y-36081233D01*
X183000000Y-36226131D01*
X183000000Y-36373869D01*
X183028822Y-36518767D01*
X183041759Y-36550000D01*
X182125000Y-36550000D01*
X182125000Y-37472844D01*
X182131401Y-37532372D01*
X182131403Y-37532379D01*
X182181645Y-37667086D01*
X182181649Y-37667093D01*
X182267809Y-37782187D01*
X182267812Y-37782190D01*
X182382906Y-37868350D01*
X182382915Y-37868355D01*
X182438777Y-37889190D01*
X182494711Y-37931061D01*
X182519129Y-37996525D01*
X182504278Y-38064798D01*
X182454873Y-38114204D01*
X182394920Y-38129371D01*
X175588520Y-38100531D01*
X175521564Y-38080562D01*
X175476033Y-38027565D01*
X175465059Y-37974692D01*
X175465707Y-37931061D01*
X175511693Y-34831740D01*
X175532370Y-34765001D01*
X175585847Y-34720035D01*
X175655145Y-34711118D01*
X175718263Y-34741083D01*
X175749235Y-34783771D01*
X175764516Y-34818609D01*
X175891414Y-35012842D01*
X176048558Y-35183545D01*
X176048562Y-35183548D01*
X176231644Y-35326047D01*
X176231648Y-35326050D01*
X176435697Y-35436476D01*
X176435706Y-35436479D01*
X176655139Y-35511811D01*
X176749999Y-35527640D01*
X176750000Y-35527639D01*
X176750000Y-34640747D01*
X176787708Y-34662518D01*
X176927591Y-34700000D01*
X177072409Y-34700000D01*
X177212292Y-34662518D01*
X177250000Y-34640747D01*
X177250000Y-35527640D01*
X177344860Y-35511811D01*
X177564293Y-35436479D01*
X177564302Y-35436476D01*
X177768351Y-35326050D01*
X177768355Y-35326047D01*
X177951437Y-35183548D01*
X177951441Y-35183545D01*
X178108585Y-35012842D01*
X178235483Y-34818609D01*
X178328682Y-34606135D01*
X178380883Y-34400000D01*
X177490748Y-34400000D01*
X177512518Y-34362292D01*
X177550000Y-34222409D01*
X177550000Y-34077591D01*
X177512518Y-33937708D01*
X177490748Y-33900000D01*
X178402446Y-33900000D01*
X178742115Y-34347487D01*
G37*
%TD.AperFunction*%
%TA.AperFunction,Conductor*%
G36*
X177155486Y-32269685D02*
G01*
X177187216Y-32299029D01*
X177400753Y-32580347D01*
X177425606Y-32645647D01*
X177411210Y-32714017D01*
X177362136Y-32763751D01*
X177293964Y-32779058D01*
X177281576Y-32777627D01*
X177250001Y-32772358D01*
X177250000Y-32772359D01*
X177250000Y-33659252D01*
X177212292Y-33637482D01*
X177072409Y-33600000D01*
X176927591Y-33600000D01*
X176787708Y-33637482D01*
X176750000Y-33659252D01*
X176750000Y-32772359D01*
X176749999Y-32772359D01*
X176655138Y-32788188D01*
X176435706Y-32863520D01*
X176435697Y-32863523D01*
X176231648Y-32973949D01*
X176231644Y-32973952D01*
X176048562Y-33116451D01*
X176048558Y-33116454D01*
X175891414Y-33287157D01*
X175761712Y-33485683D01*
X175760232Y-33484716D01*
X175716459Y-33528799D01*
X175648239Y-33543890D01*
X175582689Y-33519704D01*
X175540621Y-33463918D01*
X175532664Y-33418339D01*
X175548187Y-32372158D01*
X175568864Y-32305420D01*
X175622341Y-32260454D01*
X175672173Y-32250000D01*
X177088447Y-32250000D01*
X177155486Y-32269685D01*
G37*
%TD.AperFunction*%
%TD*%
%TA.AperFunction,Conductor*%
%TO.N,GNDREF*%
G36*
X202650000Y-50856988D02*
G01*
X202592993Y-50824075D01*
X202465826Y-50790000D01*
X202334174Y-50790000D01*
X202207007Y-50824075D01*
X202150000Y-50856988D01*
X202150000Y-49183012D01*
X202207007Y-49215925D01*
X202334174Y-49250000D01*
X202465826Y-49250000D01*
X202592993Y-49215925D01*
X202650000Y-49183012D01*
X202650000Y-50856988D01*
G37*
%TD.AperFunction*%
%TA.AperFunction,Conductor*%
G36*
X173617456Y-21899542D02*
G01*
X173684424Y-21919457D01*
X173729996Y-21972419D01*
X173740721Y-22032221D01*
X173552999Y-24707259D01*
X173528670Y-24772756D01*
X173521253Y-24781772D01*
X169465386Y-29264572D01*
X169405812Y-29301078D01*
X169335958Y-29299580D01*
X169278004Y-29260554D01*
X169250348Y-29196391D01*
X169249908Y-29192186D01*
X169235141Y-29023400D01*
X169235139Y-29023389D01*
X169176269Y-28803682D01*
X169176264Y-28803668D01*
X169080136Y-28597521D01*
X169080132Y-28597513D01*
X169029025Y-28524526D01*
X168350000Y-29203551D01*
X168350000Y-29197339D01*
X168322741Y-29095606D01*
X168270080Y-29004394D01*
X168195606Y-28929920D01*
X168104394Y-28877259D01*
X168002661Y-28850000D01*
X167996445Y-28850000D01*
X168675472Y-28170974D01*
X168602478Y-28119863D01*
X168396331Y-28023735D01*
X168396317Y-28023730D01*
X168176610Y-27964860D01*
X168176599Y-27964858D01*
X167950002Y-27945034D01*
X167949998Y-27945034D01*
X167723400Y-27964858D01*
X167723389Y-27964860D01*
X167503682Y-28023730D01*
X167503673Y-28023734D01*
X167297516Y-28119866D01*
X167297512Y-28119868D01*
X167224526Y-28170973D01*
X167224526Y-28170974D01*
X167903553Y-28850000D01*
X167897339Y-28850000D01*
X167795606Y-28877259D01*
X167704394Y-28929920D01*
X167629920Y-29004394D01*
X167577259Y-29095606D01*
X167550000Y-29197339D01*
X167550000Y-29203552D01*
X166870974Y-28524526D01*
X166870973Y-28524526D01*
X166816761Y-28601951D01*
X166814707Y-28600512D01*
X166771687Y-28641435D01*
X166703064Y-28654575D01*
X166638231Y-28628530D01*
X166597770Y-28571567D01*
X166591004Y-28530068D01*
X166600000Y-27500000D01*
X162000000Y-27500000D01*
X162000000Y-44299999D01*
X162000000Y-44300000D01*
X170099108Y-44399375D01*
X170165900Y-44419881D01*
X170185778Y-44436199D01*
X174399999Y-48699999D01*
X174400000Y-48700000D01*
X175255335Y-48706289D01*
X175289519Y-48723557D01*
X175292373Y-48726321D01*
X175831828Y-49265774D01*
X175735956Y-49291463D01*
X175639044Y-49347416D01*
X175559916Y-49426544D01*
X175503963Y-49523456D01*
X175478274Y-49619328D01*
X174962533Y-49103587D01*
X174960755Y-49105942D01*
X174960754Y-49105943D01*
X174869886Y-49288430D01*
X174869883Y-49288436D01*
X174814097Y-49484507D01*
X174814096Y-49484510D01*
X174795287Y-49687499D01*
X174795287Y-49687500D01*
X174814096Y-49890489D01*
X174814097Y-49890492D01*
X174869883Y-50086563D01*
X174869886Y-50086569D01*
X174960751Y-50269051D01*
X174962533Y-50271411D01*
X175478274Y-49755671D01*
X175503963Y-49851544D01*
X175559916Y-49948456D01*
X175639044Y-50027584D01*
X175735956Y-50083537D01*
X175831827Y-50109225D01*
X175319311Y-50621740D01*
X175407585Y-50676397D01*
X175597678Y-50750039D01*
X175798072Y-50787500D01*
X176001928Y-50787500D01*
X176202322Y-50750039D01*
X176392412Y-50676399D01*
X176392416Y-50676397D01*
X176480686Y-50621741D01*
X176480686Y-50621740D01*
X175968173Y-50109225D01*
X176064044Y-50083537D01*
X176160956Y-50027584D01*
X176240084Y-49948456D01*
X176296037Y-49851544D01*
X176321725Y-49755672D01*
X176837465Y-50271412D01*
X176839247Y-50269053D01*
X176839248Y-50269051D01*
X176930113Y-50086569D01*
X176930116Y-50086563D01*
X176985902Y-49890492D01*
X176985903Y-49890489D01*
X177004713Y-49687500D01*
X177004713Y-49687499D01*
X176985903Y-49484510D01*
X176985902Y-49484507D01*
X176930116Y-49288436D01*
X176930113Y-49288430D01*
X176839249Y-49105949D01*
X176839247Y-49105947D01*
X176837465Y-49103587D01*
X176321725Y-49619327D01*
X176296037Y-49523456D01*
X176240084Y-49426544D01*
X176160956Y-49347416D01*
X176064044Y-49291463D01*
X175968172Y-49265774D01*
X176505283Y-48728663D01*
X176529104Y-48715655D01*
X187953662Y-48799659D01*
X188020555Y-48819836D01*
X188034758Y-48830647D01*
X190298362Y-50826513D01*
X192648811Y-52898952D01*
X192649999Y-52899999D01*
X192650000Y-52900000D01*
X196950000Y-51150000D01*
X199557598Y-47852155D01*
X201050000Y-47852155D01*
X201050000Y-48500000D01*
X201966988Y-48500000D01*
X201934075Y-48557007D01*
X201900000Y-48684174D01*
X201900000Y-48815826D01*
X201934075Y-48942993D01*
X201966988Y-49000000D01*
X201050000Y-49000000D01*
X201050000Y-49647844D01*
X201056401Y-49707372D01*
X201056403Y-49707379D01*
X201106645Y-49842086D01*
X201106649Y-49842093D01*
X201192809Y-49957187D01*
X201192812Y-49957190D01*
X201307906Y-50043350D01*
X201307913Y-50043354D01*
X201439986Y-50092614D01*
X201495920Y-50134485D01*
X201520337Y-50199949D01*
X201505486Y-50268222D01*
X201484335Y-50296477D01*
X201361886Y-50418926D01*
X201226400Y-50612420D01*
X201226399Y-50612422D01*
X201126570Y-50826507D01*
X201126567Y-50826513D01*
X201069364Y-51039999D01*
X201069364Y-51040000D01*
X201966988Y-51040000D01*
X201934075Y-51097007D01*
X201900000Y-51224174D01*
X201900000Y-51355826D01*
X201934075Y-51482993D01*
X201966988Y-51540000D01*
X201069364Y-51540000D01*
X201126567Y-51753486D01*
X201126570Y-51753492D01*
X201226399Y-51967578D01*
X201361894Y-52161082D01*
X201528917Y-52328105D01*
X201722421Y-52463600D01*
X201936507Y-52563429D01*
X201936516Y-52563433D01*
X202150000Y-52620634D01*
X202150000Y-51723012D01*
X202207007Y-51755925D01*
X202334174Y-51790000D01*
X202465826Y-51790000D01*
X202592993Y-51755925D01*
X202650000Y-51723012D01*
X202650000Y-52620633D01*
X202863483Y-52563433D01*
X202863492Y-52563429D01*
X203077578Y-52463600D01*
X203271082Y-52328105D01*
X203438105Y-52161082D01*
X203573600Y-51967578D01*
X203673429Y-51753492D01*
X203673432Y-51753486D01*
X203730636Y-51540000D01*
X202833012Y-51540000D01*
X202865925Y-51482993D01*
X202900000Y-51355826D01*
X202900000Y-51224174D01*
X202865925Y-51097007D01*
X202833012Y-51040000D01*
X203730636Y-51040000D01*
X203730635Y-51039999D01*
X203673432Y-50826513D01*
X203673429Y-50826507D01*
X203573600Y-50612422D01*
X203573599Y-50612420D01*
X203438113Y-50418926D01*
X203438108Y-50418920D01*
X203315665Y-50296477D01*
X203282180Y-50235154D01*
X203287164Y-50165462D01*
X203329036Y-50109529D01*
X203360013Y-50092614D01*
X203492086Y-50043354D01*
X203492093Y-50043350D01*
X203607187Y-49957190D01*
X203607190Y-49957187D01*
X203693350Y-49842093D01*
X203693354Y-49842086D01*
X203743596Y-49707379D01*
X203743598Y-49707372D01*
X203749999Y-49647844D01*
X203750000Y-49647827D01*
X203750000Y-49000000D01*
X202833012Y-49000000D01*
X202865925Y-48942993D01*
X202900000Y-48815826D01*
X202900000Y-48684174D01*
X202865925Y-48557007D01*
X202833012Y-48500000D01*
X203750000Y-48500000D01*
X203750000Y-47852172D01*
X203749999Y-47852155D01*
X203743598Y-47792627D01*
X203743596Y-47792620D01*
X203693354Y-47657913D01*
X203693350Y-47657906D01*
X203607190Y-47542812D01*
X203607187Y-47542809D01*
X203492093Y-47456649D01*
X203492086Y-47456645D01*
X203357379Y-47406403D01*
X203357372Y-47406401D01*
X203297844Y-47400000D01*
X202650000Y-47400000D01*
X202650000Y-48316988D01*
X202592993Y-48284075D01*
X202465826Y-48250000D01*
X202334174Y-48250000D01*
X202207007Y-48284075D01*
X202150000Y-48316988D01*
X202150000Y-47400000D01*
X201502155Y-47400000D01*
X201442627Y-47406401D01*
X201442620Y-47406403D01*
X201307913Y-47456645D01*
X201307906Y-47456649D01*
X201192812Y-47542809D01*
X201192809Y-47542812D01*
X201106649Y-47657906D01*
X201106645Y-47657913D01*
X201056403Y-47792620D01*
X201056401Y-47792627D01*
X201050000Y-47852155D01*
X199557598Y-47852155D01*
X200350000Y-46850000D01*
X200350000Y-44450015D01*
X200369685Y-44382976D01*
X200422489Y-44337221D01*
X200476243Y-44326036D01*
X200989314Y-44335355D01*
X201047976Y-44333010D01*
X201076585Y-44330196D01*
X201106717Y-44325453D01*
X201175997Y-44334474D01*
X201229406Y-44379520D01*
X201249983Y-44446291D01*
X201238376Y-44500349D01*
X201151571Y-44686502D01*
X201151567Y-44686513D01*
X201094364Y-44899999D01*
X201094364Y-44900000D01*
X201991988Y-44900000D01*
X201959075Y-44957007D01*
X201925000Y-45084174D01*
X201925000Y-45215826D01*
X201959075Y-45342993D01*
X201991988Y-45400000D01*
X201094364Y-45400000D01*
X201151567Y-45613486D01*
X201151570Y-45613492D01*
X201251399Y-45827578D01*
X201386894Y-46021082D01*
X201553917Y-46188105D01*
X201747421Y-46323600D01*
X201961507Y-46423429D01*
X201961516Y-46423433D01*
X202175000Y-46480634D01*
X202175000Y-45583012D01*
X202232007Y-45615925D01*
X202359174Y-45650000D01*
X202490826Y-45650000D01*
X202617993Y-45615925D01*
X202675000Y-45583012D01*
X202675000Y-46480633D01*
X202888483Y-46423433D01*
X202888492Y-46423429D01*
X203102578Y-46323600D01*
X203296082Y-46188105D01*
X203463105Y-46021082D01*
X203598600Y-45827578D01*
X203698429Y-45613492D01*
X203698432Y-45613486D01*
X203755636Y-45400000D01*
X202858012Y-45400000D01*
X202890925Y-45342993D01*
X202925000Y-45215826D01*
X202925000Y-45084174D01*
X202890925Y-44957007D01*
X202858012Y-44900000D01*
X203755636Y-44900000D01*
X203755635Y-44899999D01*
X203698432Y-44686513D01*
X203698430Y-44686507D01*
X203619694Y-44517659D01*
X203609202Y-44448582D01*
X203637722Y-44384798D01*
X203696198Y-44346558D01*
X203733586Y-44341263D01*
X204450000Y-44350000D01*
X204450000Y-31400000D01*
X203892385Y-31400000D01*
X203825346Y-31380315D01*
X203779591Y-31327511D01*
X203769096Y-31262743D01*
X203774999Y-31207841D01*
X203775000Y-31207827D01*
X203775000Y-30560000D01*
X202858012Y-30560000D01*
X202890925Y-30502993D01*
X202925000Y-30375826D01*
X202925000Y-30244174D01*
X202890925Y-30117007D01*
X202858012Y-30060000D01*
X203775000Y-30060000D01*
X203775000Y-29412172D01*
X203774999Y-29412155D01*
X203768598Y-29352627D01*
X203768596Y-29352620D01*
X203718354Y-29217913D01*
X203718350Y-29217906D01*
X203632190Y-29102812D01*
X203594149Y-29074334D01*
X203552279Y-29018400D01*
X203547295Y-28948708D01*
X203580781Y-28887385D01*
X203642105Y-28853901D01*
X203668317Y-28851068D01*
X204584010Y-28850071D01*
X204651069Y-28869683D01*
X204686919Y-28904695D01*
X205328277Y-29854855D01*
X205349468Y-29921432D01*
X205349500Y-29924228D01*
X205349500Y-54325500D01*
X205329815Y-54392539D01*
X205277011Y-54438294D01*
X205225500Y-54449500D01*
X186734108Y-54449500D01*
X186606812Y-54483608D01*
X186492686Y-54549500D01*
X186492683Y-54549502D01*
X186399502Y-54642683D01*
X186399500Y-54642686D01*
X186333608Y-54756812D01*
X186299500Y-54884108D01*
X186299500Y-57825500D01*
X186279815Y-57892539D01*
X186227011Y-57938294D01*
X186175500Y-57949500D01*
X184396054Y-57949500D01*
X184329015Y-57929815D01*
X184283260Y-57877011D01*
X184273316Y-57807853D01*
X184302341Y-57744297D01*
X184348602Y-57710939D01*
X184490012Y-57652365D01*
X184490015Y-57652363D01*
X184708103Y-57518719D01*
X184711912Y-57515464D01*
X184074025Y-56877578D01*
X184105258Y-56864641D01*
X184228097Y-56782563D01*
X184332563Y-56678097D01*
X184414641Y-56555258D01*
X184427577Y-56524025D01*
X185065464Y-57161912D01*
X185068719Y-57158103D01*
X185202363Y-56940015D01*
X185202365Y-56940012D01*
X185300247Y-56703702D01*
X185359957Y-56454989D01*
X185380024Y-56200000D01*
X185359957Y-55945010D01*
X185300247Y-55696297D01*
X185202365Y-55459987D01*
X185202363Y-55459984D01*
X185068719Y-55241898D01*
X185068712Y-55241888D01*
X185065465Y-55238087D01*
X185065464Y-55238087D01*
X184427577Y-55875973D01*
X184414641Y-55844742D01*
X184332563Y-55721903D01*
X184228097Y-55617437D01*
X184105258Y-55535359D01*
X184074024Y-55522421D01*
X184711911Y-54884535D01*
X184711911Y-54884533D01*
X184708110Y-54881286D01*
X184708095Y-54881275D01*
X184490015Y-54747636D01*
X184490012Y-54747634D01*
X184253702Y-54649752D01*
X184004988Y-54590042D01*
X184004989Y-54590042D01*
X183750000Y-54569975D01*
X183495010Y-54590042D01*
X183246297Y-54649752D01*
X183009987Y-54747634D01*
X183009984Y-54747636D01*
X182791897Y-54881280D01*
X182788087Y-54884534D01*
X183425975Y-55522421D01*
X183394742Y-55535359D01*
X183271903Y-55617437D01*
X183167437Y-55721903D01*
X183085359Y-55844742D01*
X183072421Y-55875975D01*
X182434533Y-55238087D01*
X182431280Y-55241897D01*
X182297636Y-55459984D01*
X182297634Y-55459987D01*
X182199752Y-55696297D01*
X182140042Y-55945010D01*
X182119975Y-56200000D01*
X182140042Y-56454989D01*
X182199752Y-56703702D01*
X182297634Y-56940012D01*
X182297636Y-56940015D01*
X182431275Y-57158095D01*
X182431286Y-57158110D01*
X182434533Y-57161911D01*
X182434535Y-57161911D01*
X183072421Y-56524024D01*
X183085359Y-56555258D01*
X183167437Y-56678097D01*
X183271903Y-56782563D01*
X183394742Y-56864641D01*
X183425974Y-56877577D01*
X182788087Y-57515464D01*
X182788087Y-57515465D01*
X182791888Y-57518712D01*
X182791898Y-57518719D01*
X183009984Y-57652363D01*
X183009987Y-57652365D01*
X183151398Y-57710939D01*
X183205802Y-57754780D01*
X183227867Y-57821074D01*
X183210588Y-57888773D01*
X183159451Y-57936384D01*
X183103946Y-57949500D01*
X180633976Y-57949500D01*
X180566937Y-57929815D01*
X180521182Y-57877011D01*
X180509977Y-57826102D01*
X180488001Y-53299040D01*
X180488000Y-53298438D01*
X180488000Y-53234075D01*
X180487874Y-53233150D01*
X180487806Y-53232639D01*
X180487684Y-53231715D01*
X180484656Y-53220632D01*
X180470627Y-53169274D01*
X180453892Y-53106814D01*
X180453890Y-53106810D01*
X180453880Y-53106773D01*
X180453508Y-53105886D01*
X180453300Y-53105387D01*
X180452966Y-53104582D01*
X180452949Y-53104553D01*
X180452949Y-53104552D01*
X180420327Y-53048679D01*
X180388000Y-52992686D01*
X180387980Y-52992651D01*
X180387489Y-52992018D01*
X180387125Y-52991546D01*
X180386533Y-52990775D01*
X180340769Y-52945453D01*
X180340342Y-52945028D01*
X180294777Y-52899463D01*
X180294104Y-52898952D01*
X180293603Y-52898570D01*
X180292908Y-52898036D01*
X180258453Y-52878366D01*
X180236919Y-52866072D01*
X180236548Y-52865859D01*
X180180647Y-52833585D01*
X180179833Y-52833253D01*
X180179296Y-52833032D01*
X180178462Y-52832686D01*
X180116092Y-52816298D01*
X180115513Y-52816144D01*
X180053357Y-52799490D01*
X180052552Y-52799388D01*
X180051966Y-52799312D01*
X180051009Y-52799186D01*
X180050962Y-52799186D01*
X179987737Y-52799493D01*
X179986511Y-52799499D01*
X179985910Y-52799500D01*
X160649977Y-52799500D01*
X160582938Y-52779815D01*
X160537183Y-52727011D01*
X160525977Y-52675405D01*
X160533298Y-43076739D01*
X160547962Y-23849999D01*
X170711127Y-23849999D01*
X170711128Y-23850000D01*
X171674314Y-23850000D01*
X171669920Y-23854394D01*
X171617259Y-23945606D01*
X171590000Y-24047339D01*
X171590000Y-24152661D01*
X171617259Y-24254394D01*
X171669920Y-24345606D01*
X171674314Y-24350000D01*
X170711128Y-24350000D01*
X170763730Y-24546317D01*
X170763734Y-24546326D01*
X170859865Y-24752482D01*
X170990342Y-24938820D01*
X171151179Y-25099657D01*
X171337517Y-25230134D01*
X171543673Y-25326265D01*
X171543682Y-25326269D01*
X171739999Y-25378872D01*
X171740000Y-25378871D01*
X171740000Y-24415686D01*
X171744394Y-24420080D01*
X171835606Y-24472741D01*
X171937339Y-24500000D01*
X172042661Y-24500000D01*
X172144394Y-24472741D01*
X172235606Y-24420080D01*
X172240000Y-24415686D01*
X172240000Y-25378872D01*
X172436317Y-25326269D01*
X172436326Y-25326265D01*
X172642482Y-25230134D01*
X172828820Y-25099657D01*
X172989657Y-24938820D01*
X173120134Y-24752482D01*
X173216265Y-24546326D01*
X173216269Y-24546317D01*
X173268872Y-24350000D01*
X172305686Y-24350000D01*
X172310080Y-24345606D01*
X172362741Y-24254394D01*
X172390000Y-24152661D01*
X172390000Y-24047339D01*
X172362741Y-23945606D01*
X172310080Y-23854394D01*
X172305686Y-23850000D01*
X173268872Y-23850000D01*
X173268872Y-23849999D01*
X173216269Y-23653682D01*
X173216265Y-23653673D01*
X173120134Y-23447517D01*
X172989657Y-23261179D01*
X172828820Y-23100342D01*
X172642482Y-22969865D01*
X172436328Y-22873734D01*
X172240000Y-22821127D01*
X172240000Y-23784314D01*
X172235606Y-23779920D01*
X172144394Y-23727259D01*
X172042661Y-23700000D01*
X171937339Y-23700000D01*
X171835606Y-23727259D01*
X171744394Y-23779920D01*
X171740000Y-23784314D01*
X171740000Y-22821127D01*
X171543671Y-22873734D01*
X171337517Y-22969865D01*
X171151179Y-23100342D01*
X170990342Y-23261179D01*
X170859865Y-23447517D01*
X170763734Y-23653673D01*
X170763730Y-23653682D01*
X170711127Y-23849999D01*
X160547962Y-23849999D01*
X160549389Y-21978809D01*
X160569125Y-21911788D01*
X160621964Y-21866073D01*
X160673809Y-21854909D01*
X173617456Y-21899542D01*
G37*
%TD.AperFunction*%
%TA.AperFunction,Conductor*%
G36*
X198253429Y-25519685D02*
G01*
X198287105Y-25551665D01*
X198824549Y-26300000D01*
X199490852Y-27227759D01*
X199492316Y-27229842D01*
X199829257Y-27719938D01*
X200609200Y-28854400D01*
X201177783Y-28853780D01*
X201244842Y-28873392D01*
X201290654Y-28926146D01*
X201300673Y-28995293D01*
X201271717Y-29058881D01*
X201252228Y-29077046D01*
X201217809Y-29102812D01*
X201131649Y-29217906D01*
X201131645Y-29217913D01*
X201081403Y-29352620D01*
X201081401Y-29352627D01*
X201075000Y-29412155D01*
X201075000Y-30060000D01*
X201991988Y-30060000D01*
X201959075Y-30117007D01*
X201925000Y-30244174D01*
X201925000Y-30375826D01*
X201959075Y-30502993D01*
X201991988Y-30560000D01*
X201075000Y-30560000D01*
X201075000Y-31207841D01*
X201080904Y-31262743D01*
X201068500Y-31331503D01*
X201020890Y-31382641D01*
X200957615Y-31400000D01*
X199635275Y-31400000D01*
X199570006Y-31381432D01*
X197254001Y-29947677D01*
X197253999Y-29947676D01*
X187152135Y-30027565D01*
X187124207Y-30024606D01*
X180950002Y-28650000D01*
X180949995Y-28649999D01*
X177300000Y-28799999D01*
X176599814Y-29593544D01*
X176540699Y-29630789D01*
X176470832Y-29630162D01*
X176412396Y-29591861D01*
X176408984Y-29587670D01*
X176408585Y-29587158D01*
X176251441Y-29416454D01*
X176251437Y-29416451D01*
X176068355Y-29273952D01*
X176068351Y-29273949D01*
X175864302Y-29163523D01*
X175864293Y-29163520D01*
X175644861Y-29088188D01*
X175550000Y-29072359D01*
X175550000Y-29959252D01*
X175512292Y-29937482D01*
X175372409Y-29900000D01*
X175227591Y-29900000D01*
X175087708Y-29937482D01*
X175050000Y-29959252D01*
X175050000Y-29072359D01*
X175049999Y-29072359D01*
X174955138Y-29088188D01*
X174735706Y-29163520D01*
X174735697Y-29163523D01*
X174531648Y-29273949D01*
X174531644Y-29273952D01*
X174348562Y-29416451D01*
X174348558Y-29416454D01*
X174191414Y-29587157D01*
X174064516Y-29781390D01*
X173971317Y-29993864D01*
X173919117Y-30200000D01*
X174809252Y-30200000D01*
X174787482Y-30237708D01*
X174750000Y-30377591D01*
X174750000Y-30522409D01*
X174787482Y-30662292D01*
X174809252Y-30700000D01*
X173919117Y-30700000D01*
X173971317Y-30906135D01*
X174064516Y-31118609D01*
X174191414Y-31312842D01*
X174348558Y-31483545D01*
X174348562Y-31483548D01*
X174531644Y-31626047D01*
X174531648Y-31626050D01*
X174541302Y-31631274D01*
X174590893Y-31680493D01*
X174606003Y-31748709D01*
X174581833Y-31814265D01*
X174526057Y-31856347D01*
X174480149Y-31864312D01*
X173771863Y-31852101D01*
X173705172Y-31831263D01*
X173660334Y-31777678D01*
X173650000Y-31728119D01*
X173650000Y-29352831D01*
X173669685Y-29285792D01*
X173688102Y-29263403D01*
X175037083Y-27967671D01*
X190694859Y-27967671D01*
X190694859Y-27967682D01*
X190715385Y-28215406D01*
X190715387Y-28215415D01*
X190776412Y-28456394D01*
X190876267Y-28684044D01*
X190976562Y-28837558D01*
X191717037Y-28097085D01*
X191734075Y-28160670D01*
X191799901Y-28274684D01*
X191892993Y-28367776D01*
X192007007Y-28433602D01*
X192070591Y-28450639D01*
X191329943Y-29191286D01*
X191376768Y-29227732D01*
X191376771Y-29227734D01*
X191595385Y-29346041D01*
X191595396Y-29346046D01*
X191830506Y-29426760D01*
X192075707Y-29467677D01*
X192324293Y-29467677D01*
X192569493Y-29426760D01*
X192804603Y-29346046D01*
X192804614Y-29346041D01*
X193023230Y-29227733D01*
X193023236Y-29227728D01*
X193070055Y-29191287D01*
X193070056Y-29191286D01*
X192329408Y-28450639D01*
X192392993Y-28433602D01*
X192507007Y-28367776D01*
X192600099Y-28274684D01*
X192665925Y-28160670D01*
X192682962Y-28097086D01*
X193423435Y-28837559D01*
X193523733Y-28684041D01*
X193623587Y-28456394D01*
X193684612Y-28215415D01*
X193684614Y-28215406D01*
X193705141Y-27967682D01*
X193705141Y-27967671D01*
X193684614Y-27719947D01*
X193684612Y-27719938D01*
X193623587Y-27478959D01*
X193523732Y-27251309D01*
X193423435Y-27097793D01*
X192682962Y-27838267D01*
X192665925Y-27774684D01*
X192600099Y-27660670D01*
X192507007Y-27567578D01*
X192392993Y-27501752D01*
X192329409Y-27484714D01*
X193070055Y-26744066D01*
X193070055Y-26744065D01*
X193023236Y-26707624D01*
X193023231Y-26707621D01*
X192804614Y-26589312D01*
X192804603Y-26589307D01*
X192569493Y-26508593D01*
X192324293Y-26467677D01*
X192075707Y-26467677D01*
X191830506Y-26508593D01*
X191595396Y-26589307D01*
X191595385Y-26589312D01*
X191376770Y-26707620D01*
X191329943Y-26744066D01*
X192070591Y-27484714D01*
X192007007Y-27501752D01*
X191892993Y-27567578D01*
X191799901Y-27660670D01*
X191734075Y-27774684D01*
X191717037Y-27838267D01*
X190976563Y-27097794D01*
X190876267Y-27251310D01*
X190876265Y-27251314D01*
X190776412Y-27478959D01*
X190715387Y-27719938D01*
X190715385Y-27719947D01*
X190694859Y-27967671D01*
X175037083Y-27967671D01*
X177414814Y-25683797D01*
X177476798Y-25651553D01*
X177498779Y-25649240D01*
X180630443Y-25600460D01*
X180686584Y-25612922D01*
X182100000Y-26300000D01*
X185199998Y-26300000D01*
X185200000Y-26300000D01*
X186115383Y-25529150D01*
X186179342Y-25501025D01*
X186195256Y-25500000D01*
X198186390Y-25500000D01*
X198253429Y-25519685D01*
G37*
%TD.AperFunction*%
%TD*%
M02*
