M48
; DRILL file {KiCad 8.0.8} date 2025-04-15T16:40:58-0400
; FORMAT={-:-/ absolute / metric / decimal}
; #@! TF.CreationDate,2025-04-15T16:40:58-04:00
; #@! TF.GenerationSoftware,Kicad,Pcbnew,8.0.8
; #@! TF.FileFunction,MixedPlating,1,2
FMAT,2
METRIC
; #@! TA.AperFunction,Plated,PTH,ComponentDrill
T1C0.800
; #@! TA.AperFunction,Plated,PTH,ComponentDrill
T2C0.850
; #@! TA.AperFunction,Plated,PTH,ComponentDrill
T3C1.000
; #@! TA.AperFunction,Plated,PTH,ComponentDrill
T4C1.346
; #@! TA.AperFunction,Plated,PTH,ComponentDrill
T5C1.500
; #@! TA.AperFunction,Plated,PTH,ComponentDrill
T6C1.600
%
G90
G05
T1
X160.274Y-39.878
X161.29Y-58.42
X161.29Y-63.5
X161.29Y-68.072
X167.894Y-39.878
X168.91Y-58.42
X168.91Y-63.5
X168.91Y-68.072
X183.0Y-39.69
X183.0Y-47.31
T2
X175.11Y-66.548
X175.11Y-70.048
T3
X194.056Y-45.72
X194.056Y-50.72
X202.692Y-41.656
X202.692Y-44.196
X202.692Y-46.736
X202.692Y-49.276
X202.692Y-51.816
X202.692Y-54.356
X202.692Y-56.896
X202.692Y-59.436
X202.692Y-61.976
X202.692Y-64.516
T4
X171.018Y-46.787
X172.72Y-50.8
X174.422Y-46.787
X176.124Y-50.8
X177.825Y-46.787
T5
X182.96Y-52.612
X182.96Y-72.512
T6
X190.0Y-60.5
X196.0Y-60.5
M30
