%TF.GenerationSoftware,KiCad,Pcbnew,8.0.8*%
%TF.CreationDate,2025-04-15T16:41:00-04:00*%
%TF.ProjectId,Power System,506f7765-7220-4537-9973-74656d2e6b69,rev?*%
%TF.SameCoordinates,Original*%
%TF.FileFunction,Copper,L2,Bot*%
%TF.FilePolarity,Positive*%
%FSLAX46Y46*%
G04 Gerber Fmt 4.6, Leading zero omitted, Abs format (unit mm)*
G04 Created by KiCad (PCBNEW 8.0.8) date 2025-04-15 16:41:00*
%MOMM*%
%LPD*%
G01*
G04 APERTURE LIST*
%TA.AperFunction,ComponentPad*%
%ADD10R,1.700000X1.700000*%
%TD*%
%TA.AperFunction,ComponentPad*%
%ADD11O,1.700000X1.700000*%
%TD*%
%TA.AperFunction,ComponentPad*%
%ADD12R,2.019300X2.019300*%
%TD*%
%TA.AperFunction,ComponentPad*%
%ADD13C,2.019300*%
%TD*%
%TA.AperFunction,ComponentPad*%
%ADD14R,1.200000X1.200000*%
%TD*%
%TA.AperFunction,ComponentPad*%
%ADD15C,1.200000*%
%TD*%
%TA.AperFunction,ComponentPad*%
%ADD16C,1.600000*%
%TD*%
%TA.AperFunction,ComponentPad*%
%ADD17O,1.600000X1.600000*%
%TD*%
%TA.AperFunction,ComponentPad*%
%ADD18C,3.200000*%
%TD*%
%TA.AperFunction,ComponentPad*%
%ADD19R,2.250000X2.250000*%
%TD*%
%TA.AperFunction,ComponentPad*%
%ADD20C,2.250000*%
%TD*%
%TA.AperFunction,ComponentPad*%
%ADD21R,2.000000X2.000000*%
%TD*%
%TA.AperFunction,ComponentPad*%
%ADD22C,2.000000*%
%TD*%
%TA.AperFunction,Conductor*%
%ADD23C,1.000000*%
%TD*%
G04 APERTURE END LIST*
D10*
%TO.P,J1,1,Pin_1*%
%TO.N,Net-(J1-Pin_1)*%
X202692000Y-41656000D03*
D11*
%TO.P,J1,2,Pin_2*%
%TO.N,Net-(J1-Pin_2)*%
X202692000Y-44196000D03*
%TO.P,J1,3,Pin_3*%
%TO.N,GNDREF*%
X202692000Y-46736000D03*
%TO.P,J1,4,Pin_4*%
%TO.N,+6V*%
X202692000Y-49276000D03*
%TO.P,J1,5,Pin_5*%
%TO.N,Net-(J1-Pin_5)*%
X202692000Y-51816000D03*
%TO.P,J1,6,Pin_6*%
X202692000Y-54356000D03*
%TO.P,J1,7,Pin_7*%
X202692000Y-56896000D03*
%TO.P,J1,8,Pin_8*%
%TO.N,GNDREF*%
X202692000Y-59436000D03*
%TO.P,J1,9,Pin_9*%
X202692000Y-61976000D03*
%TO.P,J1,10,Pin_10*%
X202692000Y-64516000D03*
%TD*%
D12*
%TO.P,U1,1,VIN*%
%TO.N,+6V*%
X177825400Y-46786800D03*
D13*
%TO.P,U1,2,OUT*%
%TO.N,Net-(D1-K)*%
X176123600Y-50800000D03*
%TO.P,U1,3,GND*%
%TO.N,GNDREF*%
X174421800Y-46786800D03*
%TO.P,U1,4,FB*%
%TO.N,Net-(U1-FB)*%
X172720000Y-50800000D03*
%TO.P,U1,5,~{ON}/OFF*%
%TO.N,Net-(J1-Pin_2)*%
X171018200Y-46786800D03*
%TD*%
D14*
%TO.P,C2,1*%
%TO.N,Net-(J1-Pin_5)*%
X175110000Y-66548000D03*
D15*
%TO.P,C2,2*%
%TO.N,GNDREF*%
X175110000Y-70048000D03*
%TD*%
D16*
%TO.P,R2,1*%
%TO.N,Net-(J1-Pin_1)*%
X167894000Y-39878000D03*
D17*
%TO.P,R2,2*%
%TO.N,GNDREF*%
X160274000Y-39878000D03*
%TD*%
D18*
%TO.P,L1,1,1*%
%TO.N,Net-(J1-Pin_5)*%
X196000000Y-60500000D03*
%TO.P,L1,2,2*%
%TO.N,Net-(D1-K)*%
X190000000Y-60500000D03*
%TD*%
D16*
%TO.P,R1,1*%
%TO.N,+6V*%
X183000000Y-47310000D03*
D17*
%TO.P,R1,2*%
%TO.N,Net-(J1-Pin_1)*%
X183000000Y-39690000D03*
%TD*%
D16*
%TO.P,R2-2,1*%
%TO.N,Net-(R2-1-Pad2)*%
X161290000Y-68072000D03*
D17*
%TO.P,R2-2,2*%
%TO.N,Net-(J1-Pin_5)*%
X168910000Y-68072000D03*
%TD*%
D19*
%TO.P,D1,1,K*%
%TO.N,Net-(D1-K)*%
X182960000Y-52612000D03*
D20*
%TO.P,D1,2,A*%
%TO.N,GNDREF*%
X182960000Y-72512000D03*
%TD*%
D16*
%TO.P,R2-1,1*%
%TO.N,Net-(U1-FB)*%
X168910000Y-63500000D03*
D17*
%TO.P,R2-1,2*%
%TO.N,Net-(R2-1-Pad2)*%
X161290000Y-63500000D03*
%TD*%
D16*
%TO.P,R3,1*%
%TO.N,GNDREF*%
X161290000Y-58420000D03*
D17*
%TO.P,R3,2*%
%TO.N,Net-(U1-FB)*%
X168910000Y-58420000D03*
%TD*%
D21*
%TO.P,C1,1*%
%TO.N,+6V*%
X194056000Y-50720000D03*
D22*
%TO.P,C1,2*%
%TO.N,GNDREF*%
X194056000Y-45720000D03*
%TD*%
D23*
%TO.N,GNDREF*%
X206500000Y-48500000D02*
X206500000Y-58168000D01*
X204736000Y-46736000D02*
X206500000Y-48500000D01*
X202692000Y-46736000D02*
X204736000Y-46736000D01*
X206500000Y-58168000D02*
X202692000Y-61976000D01*
%TO.N,Net-(J1-Pin_2)*%
X172000000Y-42000000D02*
X199888000Y-42000000D01*
X171018200Y-42981800D02*
X172000000Y-42000000D01*
X171018200Y-46786800D02*
X171018200Y-42981800D01*
X199888000Y-42000000D02*
X202388000Y-44500000D01*
%TO.N,+6V*%
X195500000Y-49276000D02*
X194056000Y-50720000D01*
X202692000Y-49276000D02*
X195500000Y-49276000D01*
%TO.N,GNDREF*%
X160274000Y-57404000D02*
X161290000Y-58420000D01*
X160274000Y-39878000D02*
X160274000Y-57404000D01*
%TO.N,Net-(U1-FB)*%
X168910000Y-54610000D02*
X172720000Y-50800000D01*
X168910000Y-58420000D02*
X168910000Y-54610000D01*
X168910000Y-63500000D02*
X168910000Y-58420000D01*
%TO.N,Net-(R2-1-Pad2)*%
X161290000Y-63500000D02*
X161290000Y-68072000D01*
%TO.N,GNDREF*%
X194696000Y-72512000D02*
X202692000Y-64516000D01*
X182960000Y-72512000D02*
X194696000Y-72512000D01*
X174512000Y-72512000D02*
X173500000Y-71500000D01*
X182960000Y-72512000D02*
X174512000Y-72512000D01*
X173500000Y-71500000D02*
X173658000Y-71500000D01*
X159000000Y-71500000D02*
X173500000Y-71500000D01*
X173658000Y-71500000D02*
X175110000Y-70048000D01*
X158000000Y-61710000D02*
X158000000Y-70500000D01*
X158000000Y-70500000D02*
X159000000Y-71500000D01*
X161290000Y-58420000D02*
X158000000Y-61710000D01*
X202692000Y-59436000D02*
X202692000Y-64516000D01*
%TO.N,Net-(J1-Pin_5)*%
X202692000Y-51816000D02*
X202692000Y-56896000D01*
X199604000Y-56896000D02*
X202692000Y-56896000D01*
X196000000Y-60500000D02*
X199604000Y-56896000D01*
X171482000Y-65500000D02*
X190000000Y-65500000D01*
X190000000Y-65500000D02*
X195000000Y-60500000D01*
X195000000Y-60500000D02*
X196000000Y-60500000D01*
X168910000Y-68072000D02*
X171482000Y-65500000D01*
%TO.N,Net-(D1-K)*%
X190000000Y-60000000D02*
X190000000Y-60500000D01*
X180800000Y-50800000D02*
X190000000Y-60000000D01*
X176123600Y-50800000D02*
X180800000Y-50800000D01*
%TO.N,GNDREF*%
X199253919Y-44500000D02*
X201489919Y-46736000D01*
X201489919Y-46736000D02*
X202692000Y-46736000D01*
X175280740Y-44500000D02*
X199253919Y-44500000D01*
X174421800Y-46786800D02*
X174421800Y-45358940D01*
X174421800Y-45358940D02*
X175280740Y-44500000D01*
%TO.N,+6V*%
X184966000Y-49276000D02*
X183000000Y-47310000D01*
X202692000Y-49276000D02*
X184966000Y-49276000D01*
X177825400Y-46786800D02*
X182786800Y-46786800D01*
%TO.N,Net-(J1-Pin_1)*%
X167894000Y-39878000D02*
X200914000Y-39878000D01*
X200914000Y-39878000D02*
X202692000Y-41656000D01*
%TD*%
%TA.AperFunction,Conductor*%
%TO.N,GNDREF*%
G36*
X166141585Y-36080713D02*
G01*
X166270780Y-36139714D01*
X166378119Y-36232724D01*
X166454906Y-36352208D01*
X166494921Y-36488485D01*
X166500000Y-36559500D01*
X166500000Y-58501000D01*
X166479787Y-58641585D01*
X166420786Y-58770780D01*
X166327776Y-58878119D01*
X166208292Y-58954906D01*
X166072015Y-58994921D01*
X166001000Y-59000000D01*
X163088785Y-59000000D01*
X162948200Y-58979787D01*
X162819005Y-58920786D01*
X162711666Y-58827776D01*
X162634879Y-58708292D01*
X162594864Y-58572015D01*
X162591684Y-58457506D01*
X162594965Y-58419997D01*
X162575140Y-58193393D01*
X162516266Y-57973674D01*
X162493104Y-57924002D01*
X160794002Y-59623104D01*
X160843675Y-59646267D01*
X160843677Y-59646268D01*
X160997876Y-59687585D01*
X161128439Y-59743494D01*
X161237962Y-59833923D01*
X161317571Y-59951545D01*
X161360818Y-60086831D01*
X161364198Y-60228821D01*
X161327438Y-60366012D01*
X161253517Y-60487289D01*
X161193472Y-60548451D01*
X159500000Y-61999999D01*
X159500000Y-62000000D01*
X159500000Y-70500000D01*
X170500000Y-70500000D01*
X171178006Y-70047996D01*
X174005287Y-70047996D01*
X174005287Y-70048003D01*
X174024095Y-70250985D01*
X174024097Y-70250992D01*
X174063037Y-70387853D01*
X174402892Y-70047999D01*
X174346941Y-69992048D01*
X174685000Y-69992048D01*
X174685000Y-70103952D01*
X174713963Y-70212044D01*
X174769916Y-70308956D01*
X174849044Y-70388084D01*
X174945956Y-70444037D01*
X175054048Y-70473000D01*
X175165952Y-70473000D01*
X175274044Y-70444037D01*
X175370956Y-70388084D01*
X175450084Y-70308956D01*
X175506037Y-70212044D01*
X175535000Y-70103952D01*
X175535000Y-70047999D01*
X175817106Y-70047999D01*
X176156961Y-70387853D01*
X176195901Y-70250996D01*
X176195904Y-70250980D01*
X176214713Y-70048004D01*
X176214713Y-70047996D01*
X176195904Y-69845019D01*
X176195901Y-69845004D01*
X176156961Y-69708145D01*
X176156960Y-69708145D01*
X175817106Y-70047999D01*
X175535000Y-70047999D01*
X175535000Y-69992048D01*
X175506037Y-69883956D01*
X175450084Y-69787044D01*
X175370956Y-69707916D01*
X175274044Y-69651963D01*
X175165952Y-69623000D01*
X175054048Y-69623000D01*
X174945956Y-69651963D01*
X174849044Y-69707916D01*
X174769916Y-69787044D01*
X174713963Y-69883956D01*
X174685000Y-69992048D01*
X174346941Y-69992048D01*
X174063037Y-69708144D01*
X174063037Y-69708145D01*
X174024096Y-69845009D01*
X174005287Y-70047996D01*
X171178006Y-70047996D01*
X172809600Y-68960267D01*
X173374290Y-68583807D01*
X173502475Y-68522643D01*
X173642700Y-68500070D01*
X173651085Y-68500000D01*
X174259686Y-68500000D01*
X174400271Y-68520213D01*
X174529466Y-68579214D01*
X174636805Y-68672224D01*
X174713592Y-68791708D01*
X174753607Y-68927985D01*
X174753607Y-68984500D01*
X175110000Y-69340892D01*
X175464519Y-68986372D01*
X175462818Y-68960267D01*
X175493883Y-68821676D01*
X175562734Y-68697450D01*
X175663796Y-68597654D01*
X175788879Y-68530373D01*
X175927851Y-68501057D01*
X175960313Y-68500000D01*
X176382202Y-68500000D01*
X176522787Y-68520213D01*
X176605362Y-68552681D01*
X179500000Y-70000000D01*
X179500002Y-70000000D01*
X182269531Y-70000000D01*
X182410116Y-70020213D01*
X182539311Y-70079214D01*
X182646650Y-70172224D01*
X182723437Y-70291708D01*
X182763452Y-70427985D01*
X182763452Y-70570015D01*
X182723437Y-70706292D01*
X182646650Y-70825776D01*
X182539311Y-70918786D01*
X182460490Y-70960016D01*
X182219985Y-71059635D01*
X182219978Y-71059639D01*
X182216733Y-71061627D01*
X182917107Y-71762000D01*
X182886131Y-71762000D01*
X182741233Y-71790822D01*
X182604742Y-71847359D01*
X182481903Y-71929437D01*
X182377437Y-72033903D01*
X182295359Y-72156742D01*
X182238822Y-72293233D01*
X182210000Y-72438131D01*
X182210000Y-72469106D01*
X181509627Y-71768733D01*
X181507639Y-71771978D01*
X181507635Y-71771985D01*
X181409754Y-72008292D01*
X181409753Y-72008296D01*
X181350042Y-72257011D01*
X181350042Y-72257015D01*
X181329975Y-72512000D01*
X181350042Y-72766984D01*
X181350042Y-72766988D01*
X181409753Y-73015702D01*
X181507638Y-73252018D01*
X181509628Y-73255265D01*
X182210000Y-72554893D01*
X182210000Y-72585869D01*
X182238822Y-72730767D01*
X182295359Y-72867258D01*
X182377437Y-72990097D01*
X182481903Y-73094563D01*
X182604742Y-73176641D01*
X182741233Y-73233178D01*
X182886131Y-73262000D01*
X182917107Y-73262000D01*
X182063758Y-74115347D01*
X181950057Y-74200462D01*
X181816982Y-74250096D01*
X181710912Y-74261500D01*
X181708086Y-74261500D01*
X181641227Y-74251887D01*
X181633112Y-74254492D01*
X181549777Y-74261500D01*
X157463500Y-74261500D01*
X157322915Y-74241287D01*
X157193720Y-74182286D01*
X157086381Y-74089276D01*
X157009594Y-73969792D01*
X156969579Y-73833515D01*
X156964500Y-73762500D01*
X156964500Y-71095709D01*
X174769395Y-71095709D01*
X174807678Y-71110540D01*
X175008061Y-71147998D01*
X175008073Y-71148000D01*
X175211927Y-71148000D01*
X175211930Y-71147999D01*
X175412319Y-71110540D01*
X175450603Y-71095708D01*
X175110001Y-70755106D01*
X174769395Y-71095709D01*
X156964500Y-71095709D01*
X156964500Y-58419999D01*
X159985034Y-58419999D01*
X159985034Y-58420000D01*
X160004859Y-58646604D01*
X160063734Y-58866329D01*
X160086894Y-58915996D01*
X160582892Y-58419999D01*
X160530232Y-58367339D01*
X160890000Y-58367339D01*
X160890000Y-58472661D01*
X160917259Y-58574394D01*
X160969920Y-58665606D01*
X161044394Y-58740080D01*
X161135606Y-58792741D01*
X161237339Y-58820000D01*
X161342661Y-58820000D01*
X161444394Y-58792741D01*
X161535606Y-58740080D01*
X161610080Y-58665606D01*
X161662741Y-58574394D01*
X161690000Y-58472661D01*
X161690000Y-58367339D01*
X161662741Y-58265606D01*
X161610080Y-58174394D01*
X161535606Y-58099920D01*
X161444394Y-58047259D01*
X161342661Y-58020000D01*
X161237339Y-58020000D01*
X161135606Y-58047259D01*
X161044394Y-58099920D01*
X160969920Y-58174394D01*
X160917259Y-58265606D01*
X160890000Y-58367339D01*
X160530232Y-58367339D01*
X160086894Y-57924001D01*
X160063731Y-57973678D01*
X160004859Y-58193392D01*
X159985034Y-58419999D01*
X156964500Y-58419999D01*
X156964500Y-57216894D01*
X160794001Y-57216894D01*
X161289999Y-57712892D01*
X161785996Y-57216894D01*
X161736329Y-57193734D01*
X161516604Y-57134859D01*
X161290001Y-57115034D01*
X161289999Y-57115034D01*
X161063392Y-57134859D01*
X160843678Y-57193731D01*
X160794001Y-57216894D01*
X156964500Y-57216894D01*
X156964500Y-40378000D01*
X159072762Y-40378000D01*
X159143864Y-40530479D01*
X159274340Y-40716819D01*
X159435180Y-40877659D01*
X159621517Y-41008133D01*
X159621518Y-41008134D01*
X159774000Y-41079236D01*
X159774000Y-41079235D01*
X160774000Y-41079235D01*
X160926481Y-41008134D01*
X160926482Y-41008133D01*
X161112819Y-40877659D01*
X161273659Y-40716819D01*
X161404135Y-40530479D01*
X161475238Y-40378000D01*
X160774000Y-40378000D01*
X160774000Y-41079235D01*
X159774000Y-41079235D01*
X159774000Y-40378000D01*
X159072762Y-40378000D01*
X156964500Y-40378000D01*
X156964500Y-39825339D01*
X159874000Y-39825339D01*
X159874000Y-39930661D01*
X159901259Y-40032394D01*
X159953920Y-40123606D01*
X160028394Y-40198080D01*
X160119606Y-40250741D01*
X160221339Y-40278000D01*
X160326661Y-40278000D01*
X160428394Y-40250741D01*
X160519606Y-40198080D01*
X160594080Y-40123606D01*
X160646741Y-40032394D01*
X160674000Y-39930661D01*
X160674000Y-39825339D01*
X160646741Y-39723606D01*
X160594080Y-39632394D01*
X160519606Y-39557920D01*
X160428394Y-39505259D01*
X160326661Y-39478000D01*
X160221339Y-39478000D01*
X160119606Y-39505259D01*
X160028394Y-39557920D01*
X159953920Y-39632394D01*
X159901259Y-39723606D01*
X159874000Y-39825339D01*
X156964500Y-39825339D01*
X156964500Y-39378000D01*
X159072762Y-39378000D01*
X159774000Y-39378000D01*
X160774000Y-39378000D01*
X161475238Y-39378000D01*
X161404135Y-39225520D01*
X161273659Y-39039180D01*
X161112819Y-38878340D01*
X160926479Y-38747864D01*
X160774000Y-38676761D01*
X160774000Y-39378000D01*
X159774000Y-39378000D01*
X159774000Y-38676761D01*
X159621520Y-38747864D01*
X159435180Y-38878340D01*
X159274340Y-39039180D01*
X159143864Y-39225520D01*
X159072762Y-39378000D01*
X156964500Y-39378000D01*
X156964500Y-36559500D01*
X156984713Y-36418915D01*
X157043714Y-36289720D01*
X157136724Y-36182381D01*
X157256208Y-36105594D01*
X157392485Y-36065579D01*
X157463500Y-36060500D01*
X166001000Y-36060500D01*
X166141585Y-36080713D01*
G37*
%TD.AperFunction*%
%TA.AperFunction,Conductor*%
G36*
X207421085Y-36080713D02*
G01*
X207550280Y-36139714D01*
X207657619Y-36232724D01*
X207734406Y-36352208D01*
X207774421Y-36488485D01*
X207779500Y-36559500D01*
X207779500Y-73762500D01*
X207759287Y-73903085D01*
X207700286Y-74032280D01*
X207607276Y-74139619D01*
X207487792Y-74216406D01*
X207351515Y-74256421D01*
X207280500Y-74261500D01*
X184370123Y-74261500D01*
X184292784Y-74250380D01*
X184247512Y-74260229D01*
X184211914Y-74261500D01*
X184209086Y-74261500D01*
X184068501Y-74241287D01*
X183939306Y-74182286D01*
X183856240Y-74115346D01*
X183002895Y-73262000D01*
X183033869Y-73262000D01*
X183178767Y-73233178D01*
X183315258Y-73176641D01*
X183438097Y-73094563D01*
X183542563Y-72990097D01*
X183624641Y-72867258D01*
X183681178Y-72730767D01*
X183710000Y-72585869D01*
X183710000Y-72554894D01*
X184410370Y-73255264D01*
X184410371Y-73255264D01*
X184412359Y-73252021D01*
X184412365Y-73252010D01*
X184510243Y-73015712D01*
X184510246Y-73015703D01*
X184569957Y-72766988D01*
X184569957Y-72766984D01*
X184590024Y-72512000D01*
X184569957Y-72257015D01*
X184569957Y-72257011D01*
X184510246Y-72008297D01*
X184412362Y-71771983D01*
X184410370Y-71768734D01*
X183710000Y-72469105D01*
X183710000Y-72438131D01*
X183681178Y-72293233D01*
X183624641Y-72156742D01*
X183542563Y-72033903D01*
X183438097Y-71929437D01*
X183315258Y-71847359D01*
X183178767Y-71790822D01*
X183033869Y-71762000D01*
X183002893Y-71762000D01*
X183703265Y-71061628D01*
X183700018Y-71059638D01*
X183459509Y-70960016D01*
X183337361Y-70887542D01*
X183240580Y-70783590D01*
X183177005Y-70656583D01*
X183151787Y-70516810D01*
X183166969Y-70375593D01*
X183221322Y-70244375D01*
X183310442Y-70133784D01*
X183427109Y-70052781D01*
X183561871Y-70007928D01*
X183650469Y-70000000D01*
X194000001Y-70000000D01*
X198984001Y-65016000D01*
X201435592Y-65016000D01*
X201518398Y-65193576D01*
X201518398Y-65193577D01*
X201653890Y-65387078D01*
X201653894Y-65387083D01*
X201820918Y-65554107D01*
X202014422Y-65689600D01*
X202192000Y-65772405D01*
X203192000Y-65772405D01*
X203369577Y-65689600D01*
X203563081Y-65554107D01*
X203730105Y-65387083D01*
X203730109Y-65387078D01*
X203865601Y-65193577D01*
X203865601Y-65193576D01*
X203948407Y-65016000D01*
X203192000Y-65016000D01*
X203192000Y-65772405D01*
X202192000Y-65772405D01*
X202192000Y-65016000D01*
X201435592Y-65016000D01*
X198984001Y-65016000D01*
X199549827Y-64450174D01*
X202192000Y-64450174D01*
X202192000Y-64581826D01*
X202226075Y-64708993D01*
X202291901Y-64823007D01*
X202384993Y-64916099D01*
X202499007Y-64981925D01*
X202626174Y-65016000D01*
X202757826Y-65016000D01*
X202884993Y-64981925D01*
X202999007Y-64916099D01*
X203092099Y-64823007D01*
X203157925Y-64708993D01*
X203192000Y-64581826D01*
X203192000Y-64450174D01*
X203157925Y-64323007D01*
X203092099Y-64208993D01*
X202999007Y-64115901D01*
X202884993Y-64050075D01*
X202757826Y-64016000D01*
X203192000Y-64016000D01*
X203948406Y-64016000D01*
X203865601Y-63838424D01*
X203865598Y-63838420D01*
X203730111Y-63644923D01*
X203730106Y-63644917D01*
X203684035Y-63598846D01*
X203598919Y-63485145D01*
X203549285Y-63352070D01*
X203539152Y-63210402D01*
X203569343Y-63071617D01*
X203637411Y-62946960D01*
X203684035Y-62893154D01*
X203730105Y-62847083D01*
X203730109Y-62847078D01*
X203865601Y-62653577D01*
X203865601Y-62653576D01*
X203948407Y-62476000D01*
X203192000Y-62476000D01*
X203192000Y-64016000D01*
X202757826Y-64016000D01*
X202626174Y-64016000D01*
X202499007Y-64050075D01*
X202384993Y-64115901D01*
X202291901Y-64208993D01*
X202226075Y-64323007D01*
X202192000Y-64450174D01*
X199549827Y-64450174D01*
X200000000Y-64000001D01*
X200000000Y-62476000D01*
X201435592Y-62476000D01*
X201518398Y-62653576D01*
X201518398Y-62653577D01*
X201653890Y-62847078D01*
X201653894Y-62847083D01*
X201699965Y-62893154D01*
X201785081Y-63006855D01*
X201834715Y-63139930D01*
X201844848Y-63281598D01*
X201814657Y-63420383D01*
X201746589Y-63545040D01*
X201699965Y-63598846D01*
X201653893Y-63644917D01*
X201653888Y-63644923D01*
X201518401Y-63838420D01*
X201518398Y-63838424D01*
X201435594Y-64016000D01*
X202192000Y-64016000D01*
X202192000Y-62476000D01*
X201435592Y-62476000D01*
X200000000Y-62476000D01*
X200000000Y-61910174D01*
X202192000Y-61910174D01*
X202192000Y-62041826D01*
X202226075Y-62168993D01*
X202291901Y-62283007D01*
X202384993Y-62376099D01*
X202499007Y-62441925D01*
X202626174Y-62476000D01*
X202757826Y-62476000D01*
X202884993Y-62441925D01*
X202999007Y-62376099D01*
X203092099Y-62283007D01*
X203157925Y-62168993D01*
X203192000Y-62041826D01*
X203192000Y-61910174D01*
X203157925Y-61783007D01*
X203092099Y-61668993D01*
X202999007Y-61575901D01*
X202884993Y-61510075D01*
X202757826Y-61476000D01*
X203192000Y-61476000D01*
X203948406Y-61476000D01*
X203865601Y-61298424D01*
X203865598Y-61298420D01*
X203730111Y-61104923D01*
X203730106Y-61104917D01*
X203684035Y-61058846D01*
X203598919Y-60945145D01*
X203549285Y-60812070D01*
X203539152Y-60670402D01*
X203569343Y-60531617D01*
X203637411Y-60406960D01*
X203684035Y-60353154D01*
X203730105Y-60307083D01*
X203730109Y-60307078D01*
X203865601Y-60113577D01*
X203865601Y-60113576D01*
X203948407Y-59936000D01*
X203192000Y-59936000D01*
X203192000Y-61476000D01*
X202757826Y-61476000D01*
X202626174Y-61476000D01*
X202499007Y-61510075D01*
X202384993Y-61575901D01*
X202291901Y-61668993D01*
X202226075Y-61783007D01*
X202192000Y-61910174D01*
X200000000Y-61910174D01*
X200000000Y-59936000D01*
X201435592Y-59936000D01*
X201518398Y-60113576D01*
X201518398Y-60113577D01*
X201653890Y-60307078D01*
X201653894Y-60307083D01*
X201699965Y-60353154D01*
X201785081Y-60466855D01*
X201834715Y-60599930D01*
X201844848Y-60741598D01*
X201814657Y-60880383D01*
X201746589Y-61005040D01*
X201699965Y-61058846D01*
X201653893Y-61104917D01*
X201653888Y-61104923D01*
X201518401Y-61298420D01*
X201518398Y-61298424D01*
X201435594Y-61476000D01*
X202192000Y-61476000D01*
X202192000Y-59936000D01*
X201435592Y-59936000D01*
X200000000Y-59936000D01*
X200000000Y-59499000D01*
X200020213Y-59358415D01*
X200079214Y-59229220D01*
X200172224Y-59121881D01*
X200291708Y-59045094D01*
X200427985Y-59005079D01*
X200499000Y-59000000D01*
X200864591Y-59000000D01*
X202447175Y-59000000D01*
X202384993Y-59035901D01*
X202291901Y-59128993D01*
X202226075Y-59243007D01*
X202192000Y-59370174D01*
X202192000Y-59501826D01*
X202226075Y-59628993D01*
X202291901Y-59743007D01*
X202384993Y-59836099D01*
X202499007Y-59901925D01*
X202626174Y-59936000D01*
X202757826Y-59936000D01*
X202884993Y-59901925D01*
X202999007Y-59836099D01*
X203092099Y-59743007D01*
X203157925Y-59628993D01*
X203192000Y-59501826D01*
X203192000Y-59370174D01*
X203157925Y-59243007D01*
X203092099Y-59128993D01*
X202999007Y-59035901D01*
X202936825Y-59000000D01*
X206000000Y-59000000D01*
X206000000Y-48499999D01*
X204500000Y-47500000D01*
X204390354Y-47500000D01*
X204249769Y-47479787D01*
X204120574Y-47420786D01*
X204013235Y-47327776D01*
X203969501Y-47269112D01*
X203948406Y-47236000D01*
X202757826Y-47236000D01*
X202884993Y-47201925D01*
X202999007Y-47136099D01*
X203092099Y-47043007D01*
X203157925Y-46928993D01*
X203192000Y-46801826D01*
X203192000Y-46670174D01*
X203157925Y-46543007D01*
X203092099Y-46428993D01*
X202999007Y-46335901D01*
X202884993Y-46270075D01*
X202757826Y-46236000D01*
X203948406Y-46236000D01*
X203936229Y-46209886D01*
X203895135Y-46073931D01*
X203894008Y-45931905D01*
X203932941Y-45795315D01*
X204008778Y-45675226D01*
X204115376Y-45581368D01*
X204244099Y-45521343D01*
X204384519Y-45500016D01*
X204388477Y-45500000D01*
X204500000Y-45500000D01*
X204500000Y-36559500D01*
X204520213Y-36418915D01*
X204579214Y-36289720D01*
X204672224Y-36182381D01*
X204791708Y-36105594D01*
X204927985Y-36065579D01*
X204999000Y-36060500D01*
X207280500Y-36060500D01*
X207421085Y-36080713D01*
G37*
%TD.AperFunction*%
%TA.AperFunction,Conductor*%
G36*
X193024941Y-44020213D02*
G01*
X193154136Y-44079214D01*
X193261475Y-44172224D01*
X193338262Y-44291708D01*
X193339695Y-44296590D01*
X194056000Y-45012894D01*
X194056001Y-45012894D01*
X194772118Y-44296775D01*
X194773347Y-44292562D01*
X194849909Y-44172934D01*
X194957074Y-44079722D01*
X195086158Y-44020478D01*
X195226704Y-44000001D01*
X195227642Y-44000000D01*
X199293308Y-44000000D01*
X199433893Y-44020213D01*
X199563088Y-44079214D01*
X199646154Y-44146154D01*
X200999999Y-45500000D01*
X201002378Y-45500985D01*
X201136108Y-45520213D01*
X201265303Y-45579214D01*
X201372642Y-45672224D01*
X201449429Y-45791708D01*
X201489444Y-45927985D01*
X201489444Y-46070015D01*
X201449429Y-46206292D01*
X201447771Y-46209886D01*
X201435594Y-46236000D01*
X202626174Y-46236000D01*
X202499007Y-46270075D01*
X202384993Y-46335901D01*
X202291901Y-46428993D01*
X202226075Y-46543007D01*
X202192000Y-46670174D01*
X202192000Y-46801826D01*
X202226075Y-46928993D01*
X202291901Y-47043007D01*
X202384993Y-47136099D01*
X202499007Y-47201925D01*
X202626174Y-47236000D01*
X201435594Y-47236000D01*
X201414499Y-47269112D01*
X201321915Y-47376819D01*
X201202738Y-47454080D01*
X201066620Y-47494635D01*
X200993646Y-47500000D01*
X200006413Y-47500000D01*
X199993584Y-47499835D01*
X195359943Y-47380664D01*
X195285382Y-47367979D01*
X195250787Y-47375505D01*
X195202293Y-47376609D01*
X195199392Y-47376534D01*
X195059376Y-47352695D01*
X194931749Y-47290374D01*
X194859442Y-47230547D01*
X194056001Y-46427106D01*
X193301155Y-47181950D01*
X193187454Y-47267065D01*
X193054379Y-47316699D01*
X193006353Y-47320134D01*
X192865237Y-47316504D01*
X192773926Y-47296641D01*
X192751491Y-47287648D01*
X192749513Y-47286799D01*
X192629296Y-47213384D01*
X192612088Y-47227848D01*
X192482021Y-47284900D01*
X192341148Y-47302997D01*
X192335823Y-47302888D01*
X189209352Y-47222481D01*
X189069333Y-47198660D01*
X188958973Y-47147583D01*
X186659657Y-45720000D01*
X192550859Y-45720000D01*
X192571388Y-45967742D01*
X192571388Y-45967747D01*
X192632410Y-46208714D01*
X192632412Y-46208719D01*
X192701855Y-46367036D01*
X193348894Y-45719999D01*
X193283069Y-45654174D01*
X193556000Y-45654174D01*
X193556000Y-45785826D01*
X193590075Y-45912993D01*
X193655901Y-46027007D01*
X193748993Y-46120099D01*
X193863007Y-46185925D01*
X193990174Y-46220000D01*
X194121826Y-46220000D01*
X194248993Y-46185925D01*
X194363007Y-46120099D01*
X194456099Y-46027007D01*
X194521925Y-45912993D01*
X194556000Y-45785826D01*
X194556000Y-45720000D01*
X194763106Y-45720000D01*
X194763106Y-45720001D01*
X195410141Y-46367036D01*
X195410143Y-46367036D01*
X195479587Y-46208719D01*
X195479589Y-46208712D01*
X195540611Y-45967747D01*
X195540611Y-45967742D01*
X195561140Y-45720000D01*
X195540611Y-45472257D01*
X195540611Y-45472252D01*
X195479588Y-45231280D01*
X195410143Y-45072962D01*
X195410142Y-45072962D01*
X194763106Y-45720000D01*
X194556000Y-45720000D01*
X194556000Y-45654174D01*
X194521925Y-45527007D01*
X194456099Y-45412993D01*
X194363007Y-45319901D01*
X194248993Y-45254075D01*
X194121826Y-45220000D01*
X193990174Y-45220000D01*
X193863007Y-45254075D01*
X193748993Y-45319901D01*
X193655901Y-45412993D01*
X193590075Y-45527007D01*
X193556000Y-45654174D01*
X193283069Y-45654174D01*
X192701856Y-45072961D01*
X192632411Y-45231285D01*
X192571388Y-45472255D01*
X192571388Y-45472257D01*
X192550859Y-45720000D01*
X186659657Y-45720000D01*
X185500000Y-45000000D01*
X185499999Y-45000000D01*
X176500000Y-45000000D01*
X176453821Y-45323245D01*
X176413928Y-45459558D01*
X176388171Y-45503015D01*
X176389056Y-45503498D01*
X176371954Y-45534816D01*
X176321658Y-45669668D01*
X176320136Y-45683827D01*
X176285008Y-45821444D01*
X176212531Y-45943591D01*
X176108578Y-46040370D01*
X175981570Y-46103943D01*
X175841796Y-46129157D01*
X175790665Y-46125040D01*
X175128199Y-46787506D01*
X175094900Y-46812433D01*
X175094900Y-46720505D01*
X175069033Y-46590464D01*
X175018294Y-46467968D01*
X174944631Y-46357724D01*
X174850876Y-46263969D01*
X174740632Y-46190306D01*
X174618136Y-46139567D01*
X174488095Y-46113700D01*
X174355505Y-46113700D01*
X174225464Y-46139567D01*
X174102968Y-46190306D01*
X173992724Y-46263969D01*
X173898969Y-46357724D01*
X173825306Y-46467968D01*
X173774567Y-46590464D01*
X173748700Y-46720505D01*
X173748700Y-46816371D01*
X173715400Y-46787506D01*
X173054141Y-46126247D01*
X172954523Y-46131587D01*
X172816299Y-46098924D01*
X172692877Y-46028641D01*
X172594255Y-45926434D01*
X172528424Y-45800582D01*
X172500715Y-45661281D01*
X172500000Y-45634573D01*
X172500000Y-45424257D01*
X173766363Y-45424257D01*
X174421799Y-46079693D01*
X175077235Y-45424258D01*
X175077234Y-45424257D01*
X174889749Y-45346597D01*
X174658693Y-45291126D01*
X174421800Y-45272482D01*
X174184906Y-45291126D01*
X173953852Y-45346597D01*
X173953843Y-45346600D01*
X173766364Y-45424256D01*
X173766363Y-45424257D01*
X172500000Y-45424257D01*
X172500000Y-44909082D01*
X172520213Y-44768497D01*
X172579214Y-44639302D01*
X172672224Y-44531963D01*
X172791708Y-44455176D01*
X172901134Y-44419773D01*
X174951550Y-44009690D01*
X175049412Y-44000000D01*
X192884356Y-44000000D01*
X193024941Y-44020213D01*
G37*
%TD.AperFunction*%
%TD*%
%TA.AperFunction,Conductor*%
%TO.N,+6V*%
G36*
X201126587Y-48520213D02*
G01*
X201255782Y-48579214D01*
X201363121Y-48672224D01*
X201406855Y-48730888D01*
X201435594Y-48776000D01*
X202193000Y-48776000D01*
X202333585Y-48796213D01*
X202439353Y-48844515D01*
X202384993Y-48875901D01*
X202291901Y-48968993D01*
X202226075Y-49083007D01*
X202192000Y-49210174D01*
X202192000Y-49341826D01*
X202226075Y-49468993D01*
X202291901Y-49583007D01*
X202384993Y-49676099D01*
X202437975Y-49706688D01*
X202400292Y-49730906D01*
X202264015Y-49770921D01*
X202193000Y-49776000D01*
X201435592Y-49776000D01*
X201518398Y-49953576D01*
X201518398Y-49953577D01*
X201653890Y-50147078D01*
X201653894Y-50147083D01*
X201654965Y-50148154D01*
X201656389Y-50150057D01*
X201667896Y-50163770D01*
X201667133Y-50164409D01*
X201740081Y-50261855D01*
X201789715Y-50394930D01*
X201799848Y-50536598D01*
X201769657Y-50675383D01*
X201701589Y-50800040D01*
X201601159Y-50900470D01*
X201476502Y-50968538D01*
X201337717Y-50998729D01*
X201302119Y-51000000D01*
X201000000Y-51000000D01*
X200926571Y-52019843D01*
X200896314Y-52158613D01*
X200828186Y-52283237D01*
X200727708Y-52383620D01*
X200603019Y-52451628D01*
X200464220Y-52481753D01*
X200410911Y-52482684D01*
X196033623Y-52325137D01*
X195893856Y-52299881D01*
X195766867Y-52236270D01*
X195662942Y-52139460D01*
X195590502Y-52017292D01*
X195555415Y-51879663D01*
X195555430Y-51781171D01*
X195555285Y-51781164D01*
X195555431Y-51778438D01*
X195555432Y-51773105D01*
X195556000Y-51767823D01*
X195556000Y-51220000D01*
X194121826Y-51220000D01*
X194248993Y-51185925D01*
X194363007Y-51120099D01*
X194456099Y-51027007D01*
X194521925Y-50912993D01*
X194556000Y-50785826D01*
X194556000Y-50654174D01*
X194521925Y-50527007D01*
X194456099Y-50412993D01*
X194363007Y-50319901D01*
X194248993Y-50254075D01*
X194121826Y-50220000D01*
X195556000Y-50220000D01*
X195556000Y-49672175D01*
X195549597Y-49612625D01*
X195499352Y-49477910D01*
X195499351Y-49477909D01*
X195413186Y-49362808D01*
X195402224Y-49351846D01*
X195317108Y-49238145D01*
X195267474Y-49105070D01*
X195257341Y-48963402D01*
X195287532Y-48824617D01*
X195355600Y-48699960D01*
X195456030Y-48599530D01*
X195580687Y-48531462D01*
X195719472Y-48501271D01*
X195755070Y-48500000D01*
X200986002Y-48500000D01*
X201126587Y-48520213D01*
G37*
%TD.AperFunction*%
%TA.AperFunction,Conductor*%
G36*
X181533783Y-46020213D02*
G01*
X181662978Y-46079214D01*
X181770317Y-46172224D01*
X181847104Y-46291708D01*
X181887119Y-46427985D01*
X181887119Y-46570015D01*
X181847104Y-46706292D01*
X181845446Y-46709886D01*
X181773733Y-46863673D01*
X181714859Y-47083395D01*
X181695034Y-47309999D01*
X181695034Y-47310000D01*
X181714859Y-47536604D01*
X181773734Y-47756329D01*
X181796894Y-47805996D01*
X182293600Y-47309292D01*
X182407301Y-47224177D01*
X182540376Y-47174543D01*
X182623783Y-47168577D01*
X182600000Y-47257339D01*
X182600000Y-47362661D01*
X182627259Y-47464394D01*
X182679920Y-47555606D01*
X182754394Y-47630080D01*
X182845606Y-47682741D01*
X182947339Y-47710000D01*
X183052661Y-47710000D01*
X183154394Y-47682741D01*
X183245606Y-47630080D01*
X183320080Y-47555606D01*
X183372741Y-47464394D01*
X183400000Y-47362661D01*
X183400000Y-47257339D01*
X183375364Y-47165396D01*
X183389151Y-47164410D01*
X183527936Y-47194601D01*
X183652593Y-47262669D01*
X183706399Y-47309292D01*
X184203103Y-47805996D01*
X184226268Y-47756321D01*
X184285140Y-47536606D01*
X184304966Y-47310000D01*
X184304966Y-47309999D01*
X184285140Y-47083395D01*
X184226266Y-46863673D01*
X184154554Y-46709886D01*
X184113460Y-46573931D01*
X184112333Y-46431905D01*
X184151266Y-46295315D01*
X184227103Y-46175226D01*
X184333701Y-46081368D01*
X184462424Y-46021343D01*
X184602844Y-46000016D01*
X184606802Y-46000000D01*
X184842798Y-46000000D01*
X184983383Y-46020213D01*
X185112578Y-46079214D01*
X185128792Y-46090090D01*
X186871764Y-47309292D01*
X188573998Y-48499999D01*
X188573999Y-48499999D01*
X188574000Y-48500000D01*
X192356930Y-48500000D01*
X192497515Y-48520213D01*
X192626710Y-48579214D01*
X192734049Y-48672224D01*
X192810836Y-48791708D01*
X192850851Y-48927985D01*
X192850851Y-49070015D01*
X192810836Y-49206292D01*
X192734049Y-49325776D01*
X192709776Y-49351846D01*
X192698813Y-49362808D01*
X192612648Y-49477909D01*
X192612647Y-49477910D01*
X192562402Y-49612625D01*
X192556000Y-49672175D01*
X192556000Y-50220000D01*
X193990174Y-50220000D01*
X193863007Y-50254075D01*
X193748993Y-50319901D01*
X193655901Y-50412993D01*
X193590075Y-50527007D01*
X193556000Y-50654174D01*
X193556000Y-50785826D01*
X193590075Y-50912993D01*
X193655901Y-51027007D01*
X193748993Y-51120099D01*
X193863007Y-51185925D01*
X193990174Y-51220000D01*
X192556000Y-51220000D01*
X192556000Y-51682688D01*
X192535787Y-51823273D01*
X192476786Y-51952468D01*
X192383776Y-52059807D01*
X192264292Y-52136594D01*
X192128015Y-52176609D01*
X192039052Y-52181365D01*
X187164915Y-52005935D01*
X187025148Y-51980679D01*
X186898159Y-51917068D01*
X186871140Y-51896912D01*
X186726455Y-51781164D01*
X184500000Y-50000000D01*
X183399126Y-49449563D01*
X183282426Y-49368615D01*
X183193257Y-49258064D01*
X183138845Y-49126870D01*
X183123599Y-48985661D01*
X183148754Y-48845876D01*
X183212272Y-48718840D01*
X183309007Y-48614845D01*
X183431122Y-48542316D01*
X183444591Y-48537075D01*
X183495996Y-48513103D01*
X182999999Y-48017106D01*
X182498282Y-48518823D01*
X182501312Y-48614252D01*
X182465642Y-48751730D01*
X182392684Y-48873589D01*
X182288350Y-48969958D01*
X182161091Y-49033029D01*
X182067280Y-49054090D01*
X178612312Y-49485961D01*
X178470306Y-49483341D01*
X178392621Y-49464207D01*
X177482353Y-49160784D01*
X177355375Y-49097151D01*
X177251468Y-49000323D01*
X177179049Y-48878142D01*
X177143986Y-48740508D01*
X177149120Y-48598570D01*
X177194034Y-48463829D01*
X177275089Y-48347199D01*
X177287306Y-48334544D01*
X177325400Y-48296450D01*
X178325400Y-48296450D01*
X178882875Y-48296450D01*
X178942424Y-48290047D01*
X179077139Y-48239802D01*
X179077140Y-48239801D01*
X179192238Y-48153638D01*
X179278401Y-48038540D01*
X179278402Y-48038539D01*
X179328647Y-47903824D01*
X179335050Y-47844274D01*
X179335050Y-47286800D01*
X178325400Y-47286800D01*
X178325400Y-48296450D01*
X177325400Y-48296450D01*
X177325400Y-47285800D01*
X177331319Y-47244626D01*
X177396324Y-47309631D01*
X177506568Y-47383294D01*
X177629064Y-47434033D01*
X177759105Y-47459900D01*
X177891695Y-47459900D01*
X178021736Y-47434033D01*
X178144232Y-47383294D01*
X178254476Y-47309631D01*
X178348231Y-47215876D01*
X178421894Y-47105632D01*
X178472633Y-46983136D01*
X178498500Y-46853095D01*
X178498500Y-46720505D01*
X178472633Y-46590464D01*
X178421894Y-46467968D01*
X178348231Y-46357724D01*
X178280450Y-46289943D01*
X178324400Y-46286800D01*
X179335051Y-46286800D01*
X179475697Y-46146154D01*
X179589398Y-46061038D01*
X179722473Y-46011404D01*
X179828543Y-46000000D01*
X181393198Y-46000000D01*
X181533783Y-46020213D01*
G37*
%TD.AperFunction*%
%TD*%
%TA.AperFunction,Conductor*%
%TO.N,Net-(D1-K)*%
G36*
X178192734Y-50098962D02*
G01*
X180994246Y-50499178D01*
X181005707Y-50500952D01*
X181039519Y-50506587D01*
X181174869Y-50549635D01*
X181292607Y-50629072D01*
X181383196Y-50738463D01*
X181439297Y-50868943D01*
X181456364Y-51009944D01*
X181433016Y-51150042D01*
X181395453Y-51237939D01*
X181391649Y-51244904D01*
X181341402Y-51379625D01*
X181335000Y-51439175D01*
X181335000Y-52112000D01*
X182399340Y-52112000D01*
X182377437Y-52133903D01*
X182295359Y-52256742D01*
X182238822Y-52393233D01*
X182210000Y-52538131D01*
X182210000Y-52685869D01*
X182238822Y-52830767D01*
X182295359Y-52967258D01*
X182377437Y-53090097D01*
X182399340Y-53112000D01*
X181335000Y-53112000D01*
X181335000Y-53784824D01*
X181341402Y-53844374D01*
X181391647Y-53979089D01*
X181391648Y-53979090D01*
X181477811Y-54094188D01*
X181592909Y-54180351D01*
X181592910Y-54180352D01*
X181727625Y-54230597D01*
X181787175Y-54237000D01*
X182460000Y-54237000D01*
X182460000Y-53172660D01*
X182481903Y-53194563D01*
X182604742Y-53276641D01*
X182741233Y-53333178D01*
X182886131Y-53362000D01*
X183033869Y-53362000D01*
X183178767Y-53333178D01*
X183315258Y-53276641D01*
X183438097Y-53194563D01*
X183460000Y-53172660D01*
X183460000Y-54237000D01*
X184132825Y-54237000D01*
X184192374Y-54230597D01*
X184327089Y-54180352D01*
X184327090Y-54180351D01*
X184442188Y-54094188D01*
X184528351Y-53979090D01*
X184528352Y-53979089D01*
X184578597Y-53844374D01*
X184585000Y-53784824D01*
X184585000Y-53112000D01*
X183520660Y-53112000D01*
X183542563Y-53090097D01*
X183624641Y-52967258D01*
X183681178Y-52830767D01*
X183710000Y-52685869D01*
X183710000Y-52538131D01*
X183681178Y-52393233D01*
X183624641Y-52256742D01*
X183542563Y-52133903D01*
X183520660Y-52112000D01*
X184620697Y-52112000D01*
X184742426Y-52066597D01*
X184884094Y-52056463D01*
X185022879Y-52086653D01*
X185147536Y-52154719D01*
X185201346Y-52201346D01*
X186999999Y-54000000D01*
X187000000Y-54000000D01*
X191466625Y-54000000D01*
X191607210Y-54020213D01*
X191736405Y-54079214D01*
X191843744Y-54172224D01*
X191920531Y-54291708D01*
X191960546Y-54427985D01*
X191964520Y-54532193D01*
X191717786Y-58233194D01*
X191688266Y-58372123D01*
X191620801Y-58497107D01*
X191520857Y-58598022D01*
X191396530Y-58666691D01*
X191257894Y-58697552D01*
X191116178Y-58688104D01*
X190982865Y-58639113D01*
X190973280Y-58633616D01*
X190968387Y-58631081D01*
X190704896Y-58516630D01*
X190704883Y-58516626D01*
X190428260Y-58439120D01*
X190428249Y-58439117D01*
X190143644Y-58400000D01*
X189856356Y-58400000D01*
X189571750Y-58439117D01*
X189571739Y-58439120D01*
X189295116Y-58516626D01*
X189295103Y-58516630D01*
X189031612Y-58631081D01*
X189031602Y-58631086D01*
X188911331Y-58704224D01*
X188911330Y-58704224D01*
X189909445Y-59702339D01*
X189766649Y-59730743D01*
X189621058Y-59791049D01*
X189490030Y-59878599D01*
X189378599Y-59990030D01*
X189291049Y-60121058D01*
X189230743Y-60266649D01*
X189202339Y-60409445D01*
X188200739Y-59407845D01*
X188200737Y-59407845D01*
X188069361Y-59661391D01*
X188069352Y-59661411D01*
X187973151Y-59932095D01*
X187973148Y-59932106D01*
X187914698Y-60213378D01*
X187895093Y-60500000D01*
X187914698Y-60786622D01*
X187914699Y-60786623D01*
X187938150Y-60899476D01*
X187946962Y-61041233D01*
X187915480Y-61179730D01*
X187846254Y-61303747D01*
X187744893Y-61403238D01*
X187619607Y-61470142D01*
X187480548Y-61499039D01*
X187449587Y-61500000D01*
X172065259Y-61500000D01*
X171924674Y-61479787D01*
X171795479Y-61420786D01*
X171688140Y-61327776D01*
X171611353Y-61208292D01*
X171571338Y-61072015D01*
X171570112Y-60939107D01*
X172437500Y-54000000D01*
X172483563Y-53631490D01*
X172521058Y-53494501D01*
X172579510Y-53393986D01*
X173503093Y-52162541D01*
X175468163Y-52162541D01*
X175468163Y-52162542D01*
X175655651Y-52240202D01*
X175886705Y-52295673D01*
X176123600Y-52314317D01*
X176360494Y-52295673D01*
X176591543Y-52240204D01*
X176779035Y-52162541D01*
X176123599Y-51507105D01*
X175468163Y-52162541D01*
X173503093Y-52162541D01*
X173564675Y-52080432D01*
X173639779Y-52000412D01*
X173791139Y-51871139D01*
X173945515Y-51690389D01*
X173980746Y-51632896D01*
X174071431Y-51523595D01*
X174189242Y-51444266D01*
X174324631Y-51401341D01*
X174466628Y-51398298D01*
X174503562Y-51404215D01*
X174761058Y-51455434D01*
X175417200Y-50799293D01*
X175450500Y-50774364D01*
X175450500Y-50866295D01*
X175476367Y-50996336D01*
X175527106Y-51118832D01*
X175600769Y-51229076D01*
X175694524Y-51322831D01*
X175804768Y-51396494D01*
X175927264Y-51447233D01*
X176057305Y-51473100D01*
X176189895Y-51473100D01*
X176319936Y-51447233D01*
X176442432Y-51396494D01*
X176552676Y-51322831D01*
X176646431Y-51229076D01*
X176720094Y-51118832D01*
X176770833Y-50996336D01*
X176796700Y-50866295D01*
X176796700Y-50770438D01*
X176829999Y-50799293D01*
X177486141Y-51455434D01*
X177563804Y-51267943D01*
X177619273Y-51036894D01*
X177637917Y-50800000D01*
X177624703Y-50632100D01*
X177633823Y-50490363D01*
X177682506Y-50356936D01*
X177766807Y-50242630D01*
X177879897Y-50156705D01*
X178012615Y-50106121D01*
X178154207Y-50094977D01*
X178192734Y-50098962D01*
G37*
%TD.AperFunction*%
%TD*%
%TA.AperFunction,Conductor*%
%TO.N,Net-(J1-Pin_5)*%
G36*
X197815733Y-61608625D02*
G01*
X197825655Y-61608518D01*
X197962359Y-61647049D01*
X198082670Y-61722533D01*
X198176841Y-61828855D01*
X198237244Y-61957401D01*
X198255160Y-62041288D01*
X198469729Y-63757831D01*
X198467109Y-63899837D01*
X198424588Y-64035353D01*
X198345610Y-64153400D01*
X198327428Y-64172571D01*
X194146154Y-68353846D01*
X194032453Y-68438962D01*
X193899378Y-68488596D01*
X193793308Y-68500000D01*
X179617798Y-68500000D01*
X179477213Y-68479787D01*
X179394639Y-68447319D01*
X177500001Y-67500000D01*
X177500000Y-67500000D01*
X176709000Y-67500000D01*
X176568415Y-67479787D01*
X176439220Y-67420786D01*
X176331881Y-67327776D01*
X176255094Y-67208292D01*
X176215079Y-67072015D01*
X176213620Y-67051619D01*
X176210001Y-67048000D01*
X174009999Y-67048000D01*
X174002107Y-67055891D01*
X173989787Y-67141585D01*
X173930786Y-67270780D01*
X173837776Y-67378119D01*
X173718292Y-67454906D01*
X173582015Y-67494921D01*
X173511000Y-67500000D01*
X172999999Y-67500000D01*
X170916946Y-68888702D01*
X170788761Y-68949866D01*
X170648536Y-68972439D01*
X170507631Y-68954591D01*
X170377463Y-68897768D01*
X170268576Y-68806575D01*
X170219298Y-68741621D01*
X170111238Y-68572000D01*
X167708762Y-68572000D01*
X167779864Y-68724479D01*
X167790759Y-68743350D01*
X167788249Y-68744799D01*
X167837154Y-68841539D01*
X167862926Y-68981211D01*
X167848305Y-69122487D01*
X167794473Y-69253920D01*
X167705793Y-69364863D01*
X167589449Y-69446329D01*
X167454866Y-69491716D01*
X167364319Y-69500000D01*
X164499000Y-69500000D01*
X164358415Y-69479787D01*
X164229220Y-69420786D01*
X164121881Y-69327776D01*
X164045094Y-69208292D01*
X164005079Y-69072015D01*
X164000000Y-69001000D01*
X164000000Y-68019339D01*
X168510000Y-68019339D01*
X168510000Y-68124661D01*
X168537259Y-68226394D01*
X168589920Y-68317606D01*
X168664394Y-68392080D01*
X168755606Y-68444741D01*
X168857339Y-68472000D01*
X168962661Y-68472000D01*
X169064394Y-68444741D01*
X169155606Y-68392080D01*
X169230080Y-68317606D01*
X169282741Y-68226394D01*
X169310000Y-68124661D01*
X169310000Y-68019339D01*
X169282741Y-67917606D01*
X169230080Y-67826394D01*
X169155606Y-67751920D01*
X169064394Y-67699259D01*
X168962661Y-67672000D01*
X168857339Y-67672000D01*
X168755606Y-67699259D01*
X168664394Y-67751920D01*
X168589920Y-67826394D01*
X168537259Y-67917606D01*
X168510000Y-68019339D01*
X164000000Y-68019339D01*
X164000000Y-67572000D01*
X167708762Y-67572000D01*
X168410000Y-67572000D01*
X169410000Y-67572000D01*
X170111238Y-67572000D01*
X170040135Y-67419520D01*
X169909659Y-67233180D01*
X169748819Y-67072340D01*
X169562479Y-66941864D01*
X169410000Y-66870761D01*
X169410000Y-67572000D01*
X168410000Y-67572000D01*
X168410000Y-66866247D01*
X168383392Y-66843375D01*
X168296364Y-66918786D01*
X168276083Y-66931147D01*
X168257521Y-66941863D01*
X168071180Y-67072340D01*
X167910340Y-67233180D01*
X167779864Y-67419520D01*
X167708762Y-67572000D01*
X164000000Y-67572000D01*
X164000000Y-66499000D01*
X164001000Y-66492048D01*
X174685000Y-66492048D01*
X174685000Y-66603952D01*
X174713963Y-66712044D01*
X174769916Y-66808956D01*
X174849044Y-66888084D01*
X174945956Y-66944037D01*
X175054048Y-66973000D01*
X175165952Y-66973000D01*
X175274044Y-66944037D01*
X175370956Y-66888084D01*
X175450084Y-66808956D01*
X175506037Y-66712044D01*
X175535000Y-66603952D01*
X175535000Y-66492048D01*
X175506037Y-66383956D01*
X175450084Y-66287044D01*
X175370956Y-66207916D01*
X175274044Y-66151963D01*
X175165952Y-66123000D01*
X175054048Y-66123000D01*
X174945956Y-66151963D01*
X174849044Y-66207916D01*
X174769916Y-66287044D01*
X174713963Y-66383956D01*
X174685000Y-66492048D01*
X164001000Y-66492048D01*
X164020213Y-66358415D01*
X164079214Y-66229220D01*
X164172224Y-66121881D01*
X164291708Y-66045094D01*
X164427985Y-66005079D01*
X164499000Y-66000000D01*
X168026584Y-66000000D01*
X168167169Y-66020213D01*
X168296364Y-66079214D01*
X168341752Y-66118543D01*
X168426957Y-66044121D01*
X168442943Y-66036743D01*
X168441836Y-66034898D01*
X168499999Y-66000000D01*
X168500000Y-66000000D01*
X168666375Y-65900175D01*
X174010000Y-65900175D01*
X174010000Y-66048000D01*
X174610000Y-66048000D01*
X175610000Y-66048000D01*
X176210000Y-66048000D01*
X176210000Y-65900175D01*
X176203597Y-65840625D01*
X176153352Y-65705910D01*
X176153351Y-65705909D01*
X176067188Y-65590811D01*
X175952090Y-65504648D01*
X175952089Y-65504647D01*
X175817374Y-65454402D01*
X175757825Y-65448000D01*
X175610000Y-65448000D01*
X175610000Y-66048000D01*
X174610000Y-66048000D01*
X174610000Y-65448000D01*
X174462175Y-65448000D01*
X174402625Y-65454402D01*
X174267910Y-65504647D01*
X174267909Y-65504648D01*
X174152811Y-65590811D01*
X174066648Y-65705909D01*
X174066647Y-65705910D01*
X174016402Y-65840625D01*
X174010000Y-65900175D01*
X168666375Y-65900175D01*
X171000000Y-64500000D01*
X173867789Y-62588140D01*
X173995973Y-62526977D01*
X174136198Y-62504404D01*
X174158828Y-62504537D01*
X188031766Y-62900907D01*
X191499999Y-63000000D01*
X191499999Y-62999999D01*
X191500000Y-63000000D01*
X193241381Y-61171548D01*
X193352965Y-61083694D01*
X193484790Y-61030829D01*
X193626169Y-61017245D01*
X193765649Y-61044043D01*
X193891928Y-61109051D01*
X193994778Y-61207003D01*
X194061963Y-61323214D01*
X194062562Y-61322955D01*
X194064823Y-61328162D01*
X194065865Y-61329963D01*
X194067605Y-61334564D01*
X194069360Y-61338606D01*
X194200737Y-61592154D01*
X194200738Y-61592154D01*
X195202339Y-60590553D01*
X195230743Y-60733351D01*
X195291049Y-60878942D01*
X195378599Y-61009970D01*
X195490030Y-61121401D01*
X195621058Y-61208951D01*
X195766649Y-61269257D01*
X195909444Y-61297660D01*
X194911330Y-62295774D01*
X195031600Y-62368912D01*
X195031612Y-62368918D01*
X195295103Y-62483369D01*
X195295116Y-62483373D01*
X195571739Y-62560879D01*
X195571750Y-62560882D01*
X195856356Y-62600000D01*
X196143644Y-62600000D01*
X196428249Y-62560882D01*
X196428260Y-62560879D01*
X196704883Y-62483373D01*
X196704902Y-62483367D01*
X196968381Y-62368922D01*
X196968395Y-62368914D01*
X197088668Y-62295774D01*
X196090555Y-61297660D01*
X196233351Y-61269257D01*
X196378942Y-61208951D01*
X196509970Y-61121401D01*
X196621401Y-61009970D01*
X196708951Y-60878942D01*
X196769257Y-60733351D01*
X196797660Y-60590553D01*
X197815733Y-61608625D01*
G37*
%TD.AperFunction*%
%TA.AperFunction,Conductor*%
G36*
X204641585Y-51020213D02*
G01*
X204770780Y-51079214D01*
X204878119Y-51172224D01*
X204954906Y-51291708D01*
X204994921Y-51427985D01*
X205000000Y-51499000D01*
X205000000Y-52254679D01*
X204997380Y-52272900D01*
X205000000Y-52311696D01*
X205000000Y-53860306D01*
X204995986Y-53888218D01*
X204999996Y-53915339D01*
X205000000Y-53917319D01*
X205000000Y-54794679D01*
X204997380Y-54812900D01*
X205000000Y-54851696D01*
X205000000Y-56400306D01*
X204995986Y-56428218D01*
X204999996Y-56455339D01*
X205000000Y-56457319D01*
X205000000Y-57334679D01*
X204979787Y-57475264D01*
X204920786Y-57604459D01*
X204827776Y-57711798D01*
X204708292Y-57788585D01*
X204572015Y-57828600D01*
X204429985Y-57828600D01*
X204293708Y-57788585D01*
X204174224Y-57711798D01*
X204081214Y-57604459D01*
X204080148Y-57602791D01*
X203948408Y-57396000D01*
X202757826Y-57396000D01*
X202884993Y-57361925D01*
X202999007Y-57296099D01*
X203092099Y-57203007D01*
X203157925Y-57088993D01*
X203192000Y-56961826D01*
X203192000Y-56830174D01*
X203157925Y-56703007D01*
X203092099Y-56588993D01*
X202999007Y-56495901D01*
X202884993Y-56430075D01*
X202757826Y-56396000D01*
X203192000Y-56396000D01*
X203948406Y-56396000D01*
X203948406Y-56395999D01*
X203865601Y-56218425D01*
X203865598Y-56218420D01*
X203730111Y-56024923D01*
X203730106Y-56024917D01*
X203684035Y-55978846D01*
X203598919Y-55865145D01*
X203549285Y-55732070D01*
X203539152Y-55590402D01*
X203569343Y-55451617D01*
X203637411Y-55326960D01*
X203684035Y-55273154D01*
X203730105Y-55227083D01*
X203730109Y-55227078D01*
X203865601Y-55033577D01*
X203865601Y-55033576D01*
X203948407Y-54856000D01*
X203192000Y-54856000D01*
X203192000Y-56396000D01*
X202757826Y-56396000D01*
X202626174Y-56396000D01*
X202499007Y-56430075D01*
X202384993Y-56495901D01*
X202291901Y-56588993D01*
X202226075Y-56703007D01*
X202192000Y-56830174D01*
X202192000Y-56961826D01*
X202226075Y-57088993D01*
X202291901Y-57203007D01*
X202384993Y-57296099D01*
X202499007Y-57361925D01*
X202626174Y-57396000D01*
X201435594Y-57396000D01*
X201423812Y-57414493D01*
X201427311Y-57426069D01*
X201428438Y-57568095D01*
X201389505Y-57704685D01*
X201313668Y-57824774D01*
X201207070Y-57918632D01*
X201078347Y-57978657D01*
X200937927Y-57999984D01*
X200933969Y-58000000D01*
X199999999Y-58000000D01*
X198552060Y-59447938D01*
X198438359Y-59533054D01*
X198305284Y-59582688D01*
X198163616Y-59592821D01*
X198024831Y-59562630D01*
X197900174Y-59494562D01*
X197816059Y-59410446D01*
X197799260Y-59407844D01*
X196797660Y-60409444D01*
X196769257Y-60266649D01*
X196708951Y-60121058D01*
X196621401Y-59990030D01*
X196509970Y-59878599D01*
X196378942Y-59791049D01*
X196233351Y-59730743D01*
X196090552Y-59702339D01*
X197088667Y-58704223D01*
X196968407Y-58631091D01*
X196968396Y-58631085D01*
X196698645Y-58513915D01*
X196577753Y-58439366D01*
X196482760Y-58333777D01*
X196421363Y-58205703D01*
X196398536Y-58065519D01*
X196416127Y-57924583D01*
X196472713Y-57794311D01*
X196536096Y-57712098D01*
X199256189Y-54856000D01*
X201435592Y-54856000D01*
X201518398Y-55033576D01*
X201518398Y-55033577D01*
X201653890Y-55227078D01*
X201653894Y-55227083D01*
X201699965Y-55273154D01*
X201785081Y-55386855D01*
X201834715Y-55519930D01*
X201844848Y-55661598D01*
X201814657Y-55800383D01*
X201746589Y-55925040D01*
X201699965Y-55978846D01*
X201653893Y-56024917D01*
X201653888Y-56024923D01*
X201518401Y-56218420D01*
X201518398Y-56218424D01*
X201435594Y-56396000D01*
X202192000Y-56396000D01*
X202192000Y-54856000D01*
X201435592Y-54856000D01*
X199256189Y-54856000D01*
X199795071Y-54290174D01*
X202192000Y-54290174D01*
X202192000Y-54421826D01*
X202226075Y-54548993D01*
X202291901Y-54663007D01*
X202384993Y-54756099D01*
X202499007Y-54821925D01*
X202626174Y-54856000D01*
X202757826Y-54856000D01*
X202884993Y-54821925D01*
X202999007Y-54756099D01*
X203092099Y-54663007D01*
X203157925Y-54548993D01*
X203192000Y-54421826D01*
X203192000Y-54290174D01*
X203157925Y-54163007D01*
X203092099Y-54048993D01*
X202999007Y-53955901D01*
X202884993Y-53890075D01*
X202757826Y-53856000D01*
X203192000Y-53856000D01*
X203948406Y-53856000D01*
X203948406Y-53855999D01*
X203865601Y-53678425D01*
X203865598Y-53678420D01*
X203730111Y-53484923D01*
X203730106Y-53484917D01*
X203684035Y-53438846D01*
X203598919Y-53325145D01*
X203549285Y-53192070D01*
X203539152Y-53050402D01*
X203569343Y-52911617D01*
X203637411Y-52786960D01*
X203684035Y-52733154D01*
X203730105Y-52687083D01*
X203730109Y-52687078D01*
X203865601Y-52493577D01*
X203865601Y-52493576D01*
X203948407Y-52316000D01*
X203192000Y-52316000D01*
X203192000Y-53856000D01*
X202757826Y-53856000D01*
X202626174Y-53856000D01*
X202499007Y-53890075D01*
X202384993Y-53955901D01*
X202291901Y-54048993D01*
X202226075Y-54163007D01*
X202192000Y-54290174D01*
X199795071Y-54290174D01*
X200511522Y-53537900D01*
X200623111Y-53450041D01*
X200754936Y-53397177D01*
X200896316Y-53383593D01*
X201035795Y-53410391D01*
X201162074Y-53475399D01*
X201264924Y-53573351D01*
X201336011Y-53696311D01*
X201337339Y-53701772D01*
X201435593Y-53856000D01*
X202192000Y-53856000D01*
X202192000Y-52315000D01*
X202212213Y-52174415D01*
X202260515Y-52068646D01*
X202291901Y-52123007D01*
X202384993Y-52216099D01*
X202499007Y-52281925D01*
X202626174Y-52316000D01*
X202757826Y-52316000D01*
X202884993Y-52281925D01*
X202999007Y-52216099D01*
X203092099Y-52123007D01*
X203157925Y-52008993D01*
X203192000Y-51881826D01*
X203192000Y-51750174D01*
X203157925Y-51623007D01*
X203092099Y-51508993D01*
X202999007Y-51415901D01*
X202946024Y-51385311D01*
X202983708Y-51361094D01*
X203119985Y-51321079D01*
X203191000Y-51316000D01*
X203948407Y-51316000D01*
X204002629Y-51230888D01*
X204095212Y-51123180D01*
X204214390Y-51045920D01*
X204350507Y-51005365D01*
X204423481Y-51000000D01*
X204501000Y-51000000D01*
X204641585Y-51020213D01*
G37*
%TD.AperFunction*%
%TD*%
M02*
