%TF.GenerationSoftware,KiCad,Pcbnew,8.0.8*%
%TF.CreationDate,2025-04-16T10:37:28-04:00*%
%TF.ProjectId,DFPlayer and LCD,4446506c-6179-4657-9220-616e64204c43,rev?*%
%TF.SameCoordinates,Original*%
%TF.FileFunction,Copper,L2,Bot*%
%TF.FilePolarity,Positive*%
%FSLAX46Y46*%
G04 Gerber Fmt 4.6, Leading zero omitted, Abs format (unit mm)*
G04 Created by KiCad (PCBNEW 8.0.8) date 2025-04-16 10:37:28*
%MOMM*%
%LPD*%
G01*
G04 APERTURE LIST*
%TA.AperFunction,ComponentPad*%
%ADD10R,1.700000X1.700000*%
%TD*%
%TA.AperFunction,ComponentPad*%
%ADD11O,1.700000X1.700000*%
%TD*%
%TA.AperFunction,ComponentPad*%
%ADD12C,1.700000*%
%TD*%
%TA.AperFunction,Conductor*%
%ADD13C,1.000000*%
%TD*%
%TA.AperFunction,Conductor*%
%ADD14C,0.500000*%
%TD*%
G04 APERTURE END LIST*
D10*
%TO.P,J1,1,Pin_1*%
%TO.N,Net-(J1-Pin_1)*%
X162051998Y-74168000D03*
D11*
%TO.P,J1,2,Pin_2*%
%TO.N,Net-(J1-Pin_2)*%
X162051998Y-71628000D03*
%TO.P,J1,3,Pin_3*%
%TO.N,Net-(J1-Pin_3)*%
X162051998Y-69088000D03*
%TO.P,J1,4,Pin_4*%
%TO.N,Net-(J1-Pin_4)*%
X162051998Y-66548000D03*
%TO.P,J1,5,Pin_5*%
%TO.N,Net-(J1-Pin_5)*%
X162051998Y-64008000D03*
%TO.P,J1,6,Pin_6*%
%TO.N,Net-(J1-Pin_6)*%
X162051998Y-61468000D03*
%TD*%
D10*
%TO.P,U1,1,VCC*%
%TO.N,Net-(J1-Pin_1)*%
X169290998Y-74140000D03*
D12*
%TO.P,U1,2,RX*%
%TO.N,Net-(J1-Pin_2)*%
X169290998Y-71600000D03*
%TO.P,U1,3,TX*%
%TO.N,Net-(J1-Pin_3)*%
X169290998Y-69060000D03*
%TO.P,U1,4,DAC_R*%
%TO.N,unconnected-(U1-DAC_R-Pad4)*%
X169290998Y-66520000D03*
%TO.P,U1,5,DAC_L*%
%TO.N,unconnected-(U1-DAC_L-Pad5)*%
X169290998Y-63980000D03*
%TO.P,U1,6,SPK1*%
%TO.N,Net-(J1-Pin_4)*%
X169290998Y-61440000D03*
%TO.P,U1,7,GND*%
%TO.N,Net-(J1-Pin_5)*%
X169290998Y-58900000D03*
%TO.P,U1,8,SPK2*%
%TO.N,Net-(J1-Pin_6)*%
X169290998Y-56360000D03*
%TO.P,U1,9,IO1*%
%TO.N,unconnected-(U1-IO1-Pad9)*%
X187324998Y-56360000D03*
%TO.P,U1,10,GND__1*%
%TO.N,unconnected-(U1-GND__1-Pad10)*%
X187324998Y-58900000D03*
%TO.P,U1,11,IO2*%
%TO.N,unconnected-(U1-IO2-Pad11)*%
X187324998Y-61440000D03*
%TO.P,U1,12,ADKEY1*%
%TO.N,unconnected-(U1-ADKEY1-Pad12)*%
X187324998Y-63980000D03*
%TO.P,U1,13,ADKEY2*%
%TO.N,unconnected-(U1-ADKEY2-Pad13)*%
X187324998Y-66520000D03*
%TO.P,U1,14,USB+*%
%TO.N,unconnected-(U1-USB+-Pad14)*%
X187324998Y-69060000D03*
%TO.P,U1,15,USB-*%
%TO.N,unconnected-(U1-USB--Pad15)*%
X187324998Y-71600000D03*
%TO.P,U1,16,BUSY*%
%TO.N,unconnected-(U1-BUSY-Pad16)*%
X187324998Y-74140000D03*
%TD*%
D13*
%TO.N,Net-(J1-Pin_5)*%
X165000000Y-59500000D02*
X165600000Y-58900000D01*
X164182998Y-64008000D02*
X165000000Y-63190998D01*
X165600000Y-58900000D02*
X169290998Y-58900000D01*
X165000000Y-63190998D02*
X165000000Y-59500000D01*
%TO.N,Net-(J1-Pin_6)*%
X162051998Y-58448002D02*
X164140000Y-56360000D01*
X164140000Y-56360000D02*
X169290998Y-56360000D01*
X162051998Y-61468000D02*
X162051998Y-58448002D01*
%TO.N,Net-(J1-Pin_4)*%
X168560000Y-61440000D02*
X169290998Y-61440000D01*
X167000000Y-63000000D02*
X168560000Y-61440000D01*
X167000000Y-64500000D02*
X167000000Y-63000000D01*
X164952000Y-66548000D02*
X167000000Y-64500000D01*
X162051998Y-66548000D02*
X164952000Y-66548000D01*
D14*
%TO.N,Net-(J1-Pin_2)*%
X169273998Y-71583000D02*
X169290998Y-71600000D01*
X162096998Y-71583000D02*
X169273998Y-71583000D01*
X162051998Y-71628000D02*
X162096998Y-71583000D01*
%TO.N,Net-(J1-Pin_3)*%
X162079998Y-69060000D02*
X168752998Y-69060000D01*
D13*
X162051998Y-69088000D02*
X162079998Y-69060000D01*
D14*
%TO.N,Net-(J1-Pin_1)*%
X161426998Y-74123000D02*
X168769998Y-74123000D01*
D13*
%TO.N,Net-(J1-Pin_5)*%
X162051998Y-64008000D02*
X164182998Y-64008000D01*
%TD*%
%TA.AperFunction,Conductor*%
%TO.N,Net-(J1-Pin_1)*%
G36*
X171269565Y-73362944D02*
G01*
X171315558Y-73415541D01*
X171326998Y-73467562D01*
X171326998Y-75819280D01*
X171307313Y-75886319D01*
X171254509Y-75932074D01*
X171203279Y-75943280D01*
X160425078Y-75967720D01*
X160357994Y-75948187D01*
X160312120Y-75895487D01*
X160300803Y-75844924D01*
X160296242Y-75375190D01*
X160278208Y-73517637D01*
X160297241Y-73450410D01*
X160349598Y-73404145D01*
X160401636Y-73392436D01*
X160577442Y-73391640D01*
X160644564Y-73411020D01*
X160690558Y-73463616D01*
X160701998Y-73515638D01*
X160701998Y-73918000D01*
X161736312Y-73918000D01*
X161731918Y-73922394D01*
X161679257Y-74013606D01*
X161651998Y-74115339D01*
X161651998Y-74220661D01*
X161679257Y-74322394D01*
X161731918Y-74413606D01*
X161736312Y-74418000D01*
X160701998Y-74418000D01*
X160701998Y-75065844D01*
X160708399Y-75125372D01*
X160708401Y-75125379D01*
X160758643Y-75260086D01*
X160758647Y-75260093D01*
X160844807Y-75375187D01*
X160844810Y-75375190D01*
X160959904Y-75461350D01*
X160959911Y-75461354D01*
X161094618Y-75511596D01*
X161094625Y-75511598D01*
X161154153Y-75517999D01*
X161154170Y-75518000D01*
X161801998Y-75518000D01*
X161801998Y-74483686D01*
X161806392Y-74488080D01*
X161897604Y-74540741D01*
X161999337Y-74568000D01*
X162104659Y-74568000D01*
X162206392Y-74540741D01*
X162297604Y-74488080D01*
X162301998Y-74483686D01*
X162301998Y-75518000D01*
X162949826Y-75518000D01*
X162949842Y-75517999D01*
X163009370Y-75511598D01*
X163009377Y-75511596D01*
X163144084Y-75461354D01*
X163144091Y-75461350D01*
X163259185Y-75375190D01*
X163259188Y-75375187D01*
X163345348Y-75260093D01*
X163345352Y-75260086D01*
X163395594Y-75125379D01*
X163395596Y-75125372D01*
X163401997Y-75065844D01*
X163401998Y-75065827D01*
X163401998Y-74418000D01*
X162367684Y-74418000D01*
X162372078Y-74413606D01*
X162424739Y-74322394D01*
X162451998Y-74220661D01*
X162451998Y-74115339D01*
X162424739Y-74013606D01*
X162372078Y-73922394D01*
X162367684Y-73918000D01*
X163401998Y-73918000D01*
X163401998Y-73502299D01*
X163421683Y-73435260D01*
X163474487Y-73389505D01*
X163525431Y-73378301D01*
X167816440Y-73358884D01*
X167883565Y-73378265D01*
X167929558Y-73430862D01*
X167940998Y-73482883D01*
X167940998Y-73890000D01*
X168975312Y-73890000D01*
X168970918Y-73894394D01*
X168918257Y-73985606D01*
X168890998Y-74087339D01*
X168890998Y-74192661D01*
X168918257Y-74294394D01*
X168970918Y-74385606D01*
X168975312Y-74390000D01*
X167940998Y-74390000D01*
X167940998Y-75037844D01*
X167947399Y-75097372D01*
X167947401Y-75097379D01*
X167997643Y-75232086D01*
X167997647Y-75232093D01*
X168083807Y-75347187D01*
X168083810Y-75347190D01*
X168198904Y-75433350D01*
X168198911Y-75433354D01*
X168333618Y-75483596D01*
X168333625Y-75483598D01*
X168393153Y-75489999D01*
X168393170Y-75490000D01*
X169040998Y-75490000D01*
X169040998Y-74455686D01*
X169045392Y-74460080D01*
X169136604Y-74512741D01*
X169238337Y-74540000D01*
X169343659Y-74540000D01*
X169445392Y-74512741D01*
X169536604Y-74460080D01*
X169540998Y-74455686D01*
X169540998Y-75490000D01*
X170188826Y-75490000D01*
X170188842Y-75489999D01*
X170248370Y-75483598D01*
X170248377Y-75483596D01*
X170383084Y-75433354D01*
X170383091Y-75433350D01*
X170498185Y-75347190D01*
X170498188Y-75347187D01*
X170584348Y-75232093D01*
X170584352Y-75232086D01*
X170634594Y-75097379D01*
X170634596Y-75097372D01*
X170640997Y-75037844D01*
X170640998Y-75037827D01*
X170640998Y-74390000D01*
X169606684Y-74390000D01*
X169611078Y-74385606D01*
X169663739Y-74294394D01*
X169690998Y-74192661D01*
X169690998Y-74087339D01*
X169663739Y-73985606D01*
X169611078Y-73894394D01*
X169606684Y-73890000D01*
X170640998Y-73890000D01*
X170640998Y-73469544D01*
X170660683Y-73402505D01*
X170713487Y-73356750D01*
X170764434Y-73345545D01*
X171202439Y-73343563D01*
X171269565Y-73362944D01*
G37*
%TD.AperFunction*%
%TD*%
%TA.AperFunction,Conductor*%
%TO.N,Net-(J1-Pin_6)*%
G36*
X168965042Y-55578341D02*
G01*
X168969428Y-55583634D01*
X169290132Y-56355511D01*
X169290141Y-56364466D01*
X169290132Y-56364489D01*
X168969428Y-57136365D01*
X168963089Y-57142690D01*
X168956246Y-57143332D01*
X167600321Y-56861934D01*
X167592916Y-56856897D01*
X167590998Y-56850478D01*
X167590998Y-55869521D01*
X167594425Y-55861248D01*
X167600320Y-55858065D01*
X168956247Y-55576667D01*
X168965042Y-55578341D01*
G37*
%TD.AperFunction*%
%TD*%
%TA.AperFunction,Conductor*%
%TO.N,Net-(J1-Pin_5)*%
G36*
X168965042Y-58118341D02*
G01*
X168969428Y-58123634D01*
X169290132Y-58895511D01*
X169290141Y-58904466D01*
X169290132Y-58904489D01*
X168969428Y-59676365D01*
X168963089Y-59682690D01*
X168956246Y-59683332D01*
X167600321Y-59401934D01*
X167592916Y-59396897D01*
X167590998Y-59390478D01*
X167590998Y-58409521D01*
X167594425Y-58401248D01*
X167600320Y-58398065D01*
X168956247Y-58116667D01*
X168965042Y-58118341D01*
G37*
%TD.AperFunction*%
%TD*%
%TA.AperFunction,Conductor*%
%TO.N,Net-(J1-Pin_4)*%
G36*
X168697363Y-60846348D02*
G01*
X169288263Y-61435860D01*
X169291700Y-61444129D01*
X169291700Y-61444153D01*
X169291006Y-62280314D01*
X169287572Y-62288584D01*
X169281480Y-62291800D01*
X168219329Y-62492702D01*
X168210564Y-62490873D01*
X168208882Y-62489479D01*
X167515387Y-61795984D01*
X167511960Y-61787711D01*
X167515387Y-61779438D01*
X167516341Y-61778584D01*
X168681790Y-60845497D01*
X168690388Y-60843002D01*
X168697363Y-60846348D01*
G37*
%TD.AperFunction*%
%TD*%
%TA.AperFunction,Conductor*%
%TO.N,Net-(J1-Pin_3)*%
G36*
X168964008Y-68279045D02*
G01*
X168970106Y-68285267D01*
X169290132Y-69055511D01*
X169290141Y-69064466D01*
X169290132Y-69064489D01*
X168970106Y-69834732D01*
X168963767Y-69841057D01*
X168955056Y-69841146D01*
X167598453Y-69312902D01*
X167591987Y-69306706D01*
X167590998Y-69301999D01*
X167590998Y-68818000D01*
X167594425Y-68809727D01*
X167598453Y-68807097D01*
X168955056Y-68278853D01*
X168964008Y-68279045D01*
G37*
%TD.AperFunction*%
%TD*%
%TA.AperFunction,Conductor*%
%TO.N,Net-(J1-Pin_2)*%
G36*
X168964071Y-70818986D02*
G01*
X168970062Y-70825161D01*
X169290132Y-71595511D01*
X169290141Y-71604466D01*
X169290132Y-71604489D01*
X168970157Y-72374610D01*
X168963818Y-72380935D01*
X168954981Y-72380974D01*
X167601708Y-71835951D01*
X167595314Y-71829681D01*
X167594379Y-71825098D01*
X167594379Y-71341085D01*
X167597806Y-71332812D01*
X167601943Y-71330141D01*
X168955122Y-70818706D01*
X168964071Y-70818986D01*
G37*
%TD.AperFunction*%
%TD*%
%TA.AperFunction,Conductor*%
%TO.N,Net-(J1-Pin_5)*%
G36*
X163742675Y-63506065D02*
G01*
X163750080Y-63511102D01*
X163751998Y-63517521D01*
X163751998Y-64498478D01*
X163748571Y-64506751D01*
X163742675Y-64509934D01*
X162386749Y-64791332D01*
X162377953Y-64789658D01*
X162373567Y-64784365D01*
X162052863Y-64012489D01*
X162052854Y-64003534D01*
X162052863Y-64003511D01*
X162373568Y-63231632D01*
X162379906Y-63225309D01*
X162386747Y-63224667D01*
X163742675Y-63506065D01*
G37*
%TD.AperFunction*%
%TD*%
%TA.AperFunction,Conductor*%
%TO.N,Net-(J1-Pin_4)*%
G36*
X163742675Y-66046065D02*
G01*
X163750080Y-66051102D01*
X163751998Y-66057521D01*
X163751998Y-67038478D01*
X163748571Y-67046751D01*
X163742675Y-67049934D01*
X162386749Y-67331332D01*
X162377953Y-67329658D01*
X162373567Y-67324365D01*
X162052863Y-66552489D01*
X162052854Y-66543534D01*
X162052863Y-66543511D01*
X162373568Y-65771632D01*
X162379906Y-65765309D01*
X162386747Y-65764667D01*
X163742675Y-66046065D01*
G37*
%TD.AperFunction*%
%TD*%
%TA.AperFunction,Conductor*%
%TO.N,Net-(J1-Pin_3)*%
G36*
X163738793Y-68807171D02*
G01*
X163745360Y-68813259D01*
X163746428Y-68818142D01*
X163746428Y-69302161D01*
X163743001Y-69310434D01*
X163739180Y-69312981D01*
X162388062Y-69868861D01*
X162379107Y-69868840D01*
X162372805Y-69862530D01*
X162052863Y-69092489D01*
X162052854Y-69083534D01*
X162052863Y-69083511D01*
X162166503Y-68810000D01*
X162372962Y-68313091D01*
X162379300Y-68306768D01*
X162387829Y-68306611D01*
X163738793Y-68807171D01*
G37*
%TD.AperFunction*%
%TD*%
%TA.AperFunction,Conductor*%
%TO.N,Net-(J1-Pin_2)*%
G36*
X163735301Y-71330219D02*
G01*
X163741929Y-71336239D01*
X163743047Y-71341230D01*
X163743047Y-71825259D01*
X163739620Y-71833532D01*
X163735922Y-71836027D01*
X162388133Y-72408685D01*
X162379179Y-72408767D01*
X162372790Y-72402492D01*
X162372768Y-72402441D01*
X162052862Y-71632488D01*
X162052854Y-71623534D01*
X162052863Y-71623511D01*
X162172221Y-71336239D01*
X162373005Y-70852987D01*
X162379344Y-70846663D01*
X162387761Y-70846465D01*
X163735301Y-71330219D01*
G37*
%TD.AperFunction*%
%TD*%
M02*
