M48
; DRILL file {KiCad 8.0.8} date 2025-04-16T10:37:25-0400
; FORMAT={-:-/ absolute / metric / decimal}
; #@! TF.CreationDate,2025-04-16T10:37:25-04:00
; #@! TF.GenerationSoftware,Kicad,Pcbnew,8.0.8
; #@! TF.FileFunction,MixedPlating,1,2
FMAT,2
METRIC
; #@! TA.AperFunction,Plated,PTH,ComponentDrill
T1C0.800
%
G90
G05
T1
X162.052Y-61.468
X162.052Y-64.008
X162.052Y-66.548
X162.052Y-69.088
X162.052Y-71.628
X162.052Y-74.168
X169.291Y-56.36
X169.291Y-58.9
X169.291Y-61.44
X169.291Y-63.98
X169.291Y-66.52
X169.291Y-69.06
X169.291Y-71.6
X169.291Y-74.14
X187.325Y-56.36
X187.325Y-58.9
X187.325Y-61.44
X187.325Y-63.98
X187.325Y-66.52
X187.325Y-69.06
X187.325Y-71.6
X187.325Y-74.14
M30
