%TF.GenerationSoftware,KiCad,Pcbnew,8.0.8*%
%TF.CreationDate,2025-04-09T11:10:21-04:00*%
%TF.ProjectId,DFPlayer and LCD,4446506c-6179-4657-9220-616e64204c43,rev?*%
%TF.SameCoordinates,Original*%
%TF.FileFunction,Drillmap*%
%TF.FilePolarity,Positive*%
%FSLAX45Y45*%
G04 Gerber Fmt 4.5, Leading zero omitted, Abs format (unit mm)*
G04 Created by KiCad (PCBNEW 8.0.8) date 2025-04-09 11:10:21*
%MOMM*%
%LPD*%
G01*
G04 APERTURE LIST*
%ADD10C,0.050000*%
%ADD11C,0.200000*%
%ADD12C,0.100000*%
G04 APERTURE END LIST*
D10*
X12735000Y-5395000D02*
X15585000Y-5395000D01*
X15585000Y-10510000D01*
X12735000Y-10510000D01*
X12735000Y-5395000D01*
D11*
D12*
X13578300Y-5596000D02*
X13658300Y-5676000D01*
X13658300Y-5596000D02*
X13578300Y-5676000D01*
X13578300Y-5850000D02*
X13658300Y-5930000D01*
X13658300Y-5850000D02*
X13578300Y-5930000D01*
X13578300Y-6104000D02*
X13658300Y-6184000D01*
X13658300Y-6104000D02*
X13578300Y-6184000D01*
X13578300Y-6358000D02*
X13658300Y-6438000D01*
X13658300Y-6358000D02*
X13578300Y-6438000D01*
X13578300Y-6612000D02*
X13658300Y-6692000D01*
X13658300Y-6612000D02*
X13578300Y-6692000D01*
X13578300Y-6866000D02*
X13658300Y-6946000D01*
X13658300Y-6866000D02*
X13578300Y-6946000D01*
X13578300Y-7120000D02*
X13658300Y-7200000D01*
X13658300Y-7120000D02*
X13578300Y-7200000D01*
X13578300Y-7374000D02*
X13658300Y-7454000D01*
X13658300Y-7374000D02*
X13578300Y-7454000D01*
X13760000Y-7979000D02*
X13840000Y-8059000D01*
X13840000Y-7979000D02*
X13760000Y-8059000D01*
X13760000Y-8233000D02*
X13840000Y-8313000D01*
X13840000Y-8233000D02*
X13760000Y-8313000D01*
X13760000Y-8487000D02*
X13840000Y-8567000D01*
X13840000Y-8487000D02*
X13760000Y-8567000D01*
X13760000Y-8741000D02*
X13840000Y-8821000D01*
X13840000Y-8741000D02*
X13760000Y-8821000D01*
X13760000Y-8995000D02*
X13840000Y-9075000D01*
X13840000Y-8995000D02*
X13760000Y-9075000D01*
X13760000Y-9249000D02*
X13840000Y-9329000D01*
X13840000Y-9249000D02*
X13760000Y-9329000D01*
X13760000Y-9503000D02*
X13840000Y-9583000D01*
X13840000Y-9503000D02*
X13760000Y-9583000D01*
X13760000Y-9757000D02*
X13840000Y-9837000D01*
X13840000Y-9757000D02*
X13760000Y-9837000D01*
X13760000Y-10011000D02*
X13840000Y-10091000D01*
X13840000Y-10011000D02*
X13760000Y-10091000D01*
X15030000Y-7979000D02*
X15110000Y-8059000D01*
X15110000Y-7979000D02*
X15030000Y-8059000D01*
X15030000Y-8233000D02*
X15110000Y-8313000D01*
X15110000Y-8233000D02*
X15030000Y-8313000D01*
X15030000Y-8487000D02*
X15110000Y-8567000D01*
X15110000Y-8487000D02*
X15030000Y-8567000D01*
X15030000Y-8741000D02*
X15110000Y-8821000D01*
X15110000Y-8741000D02*
X15030000Y-8821000D01*
X15030000Y-8995000D02*
X15110000Y-9075000D01*
X15110000Y-8995000D02*
X15030000Y-9075000D01*
X15030000Y-9249000D02*
X15110000Y-9329000D01*
X15110000Y-9249000D02*
X15030000Y-9329000D01*
X15030000Y-9503000D02*
X15110000Y-9583000D01*
X15110000Y-9503000D02*
X15030000Y-9583000D01*
X15030000Y-9757000D02*
X15110000Y-9837000D01*
X15110000Y-9757000D02*
X15030000Y-9837000D01*
X15030000Y-10011000D02*
X15110000Y-10091000D01*
X15110000Y-10011000D02*
X15030000Y-10091000D01*
X15381700Y-5596000D02*
X15461700Y-5676000D01*
X15461700Y-5596000D02*
X15381700Y-5676000D01*
X15381700Y-5850000D02*
X15461700Y-5930000D01*
X15461700Y-5850000D02*
X15381700Y-5930000D01*
X15381700Y-6104000D02*
X15461700Y-6184000D01*
X15461700Y-6104000D02*
X15381700Y-6184000D01*
X15381700Y-6358000D02*
X15461700Y-6438000D01*
X15461700Y-6358000D02*
X15381700Y-6438000D01*
X15381700Y-6612000D02*
X15461700Y-6692000D01*
X15461700Y-6612000D02*
X15381700Y-6692000D01*
X15381700Y-6866000D02*
X15461700Y-6946000D01*
X15461700Y-6866000D02*
X15381700Y-6946000D01*
X15381700Y-7120000D02*
X15461700Y-7200000D01*
X15461700Y-7120000D02*
X15381700Y-7200000D01*
X15381700Y-7374000D02*
X15461700Y-7454000D01*
X15461700Y-7374000D02*
X15381700Y-7454000D01*
X12972500Y-6172500D02*
G75*
G02*
X12872500Y-6172500I-50000J0D01*
G01*
X12872500Y-6172500D02*
G75*
G02*
X12972500Y-6172500I50000J0D01*
G01*
X12972500Y-6426500D02*
G75*
G02*
X12872500Y-6426500I-50000J0D01*
G01*
X12872500Y-6426500D02*
G75*
G02*
X12972500Y-6426500I50000J0D01*
G01*
X12972500Y-6680500D02*
G75*
G02*
X12872500Y-6680500I-50000J0D01*
G01*
X12872500Y-6680500D02*
G75*
G02*
X12972500Y-6680500I50000J0D01*
G01*
X12972500Y-6934500D02*
G75*
G02*
X12872500Y-6934500I-50000J0D01*
G01*
X12872500Y-6934500D02*
G75*
G02*
X12972500Y-6934500I50000J0D01*
G01*
X12972500Y-7188500D02*
G75*
G02*
X12872500Y-7188500I-50000J0D01*
G01*
X12872500Y-7188500D02*
G75*
G02*
X12972500Y-7188500I50000J0D01*
G01*
X12972500Y-7442500D02*
G75*
G02*
X12872500Y-7442500I-50000J0D01*
G01*
X12872500Y-7442500D02*
G75*
G02*
X12972500Y-7442500I50000J0D01*
G01*
X12980000Y-8001000D02*
G75*
G02*
X12880000Y-8001000I-50000J0D01*
G01*
X12880000Y-8001000D02*
G75*
G02*
X12980000Y-8001000I50000J0D01*
G01*
X12980000Y-8255000D02*
G75*
G02*
X12880000Y-8255000I-50000J0D01*
G01*
X12880000Y-8255000D02*
G75*
G02*
X12980000Y-8255000I50000J0D01*
G01*
X12980000Y-8509000D02*
G75*
G02*
X12880000Y-8509000I-50000J0D01*
G01*
X12880000Y-8509000D02*
G75*
G02*
X12980000Y-8509000I50000J0D01*
G01*
X12980000Y-8763000D02*
G75*
G02*
X12880000Y-8763000I-50000J0D01*
G01*
X12880000Y-8763000D02*
G75*
G02*
X12980000Y-8763000I50000J0D01*
G01*
X12980000Y-9017000D02*
G75*
G02*
X12880000Y-9017000I-50000J0D01*
G01*
X12880000Y-9017000D02*
G75*
G02*
X12980000Y-9017000I50000J0D01*
G01*
X12980000Y-9271000D02*
G75*
G02*
X12880000Y-9271000I-50000J0D01*
G01*
X12880000Y-9271000D02*
G75*
G02*
X12980000Y-9271000I50000J0D01*
G01*
X12980000Y-9525000D02*
G75*
G02*
X12880000Y-9525000I-50000J0D01*
G01*
X12880000Y-9525000D02*
G75*
G02*
X12980000Y-9525000I50000J0D01*
G01*
X12980000Y-9779000D02*
G75*
G02*
X12880000Y-9779000I-50000J0D01*
G01*
X12880000Y-9779000D02*
G75*
G02*
X12980000Y-9779000I50000J0D01*
G01*
X12980000Y-10033000D02*
G75*
G02*
X12880000Y-10033000I-50000J0D01*
G01*
X12880000Y-10033000D02*
G75*
G02*
X12980000Y-10033000I50000J0D01*
G01*
X12980000Y-10287000D02*
G75*
G02*
X12880000Y-10287000I-50000J0D01*
G01*
X12880000Y-10287000D02*
G75*
G02*
X12980000Y-10287000I50000J0D01*
G01*
D11*
X12993277Y-10823984D02*
X12993277Y-10623984D01*
X12993277Y-10623984D02*
X13040896Y-10623984D01*
X13040896Y-10623984D02*
X13069467Y-10633508D01*
X13069467Y-10633508D02*
X13088515Y-10652555D01*
X13088515Y-10652555D02*
X13098039Y-10671603D01*
X13098039Y-10671603D02*
X13107562Y-10709698D01*
X13107562Y-10709698D02*
X13107562Y-10738270D01*
X13107562Y-10738270D02*
X13098039Y-10776365D01*
X13098039Y-10776365D02*
X13088515Y-10795412D01*
X13088515Y-10795412D02*
X13069467Y-10814460D01*
X13069467Y-10814460D02*
X13040896Y-10823984D01*
X13040896Y-10823984D02*
X12993277Y-10823984D01*
X13193277Y-10823984D02*
X13193277Y-10690650D01*
X13193277Y-10728746D02*
X13202801Y-10709698D01*
X13202801Y-10709698D02*
X13212324Y-10700174D01*
X13212324Y-10700174D02*
X13231372Y-10690650D01*
X13231372Y-10690650D02*
X13250420Y-10690650D01*
X13317086Y-10823984D02*
X13317086Y-10690650D01*
X13317086Y-10623984D02*
X13307562Y-10633508D01*
X13307562Y-10633508D02*
X13317086Y-10643031D01*
X13317086Y-10643031D02*
X13326610Y-10633508D01*
X13326610Y-10633508D02*
X13317086Y-10623984D01*
X13317086Y-10623984D02*
X13317086Y-10643031D01*
X13440896Y-10823984D02*
X13421848Y-10814460D01*
X13421848Y-10814460D02*
X13412324Y-10795412D01*
X13412324Y-10795412D02*
X13412324Y-10623984D01*
X13545658Y-10823984D02*
X13526610Y-10814460D01*
X13526610Y-10814460D02*
X13517086Y-10795412D01*
X13517086Y-10795412D02*
X13517086Y-10623984D01*
X13774229Y-10823984D02*
X13774229Y-10623984D01*
X13774229Y-10623984D02*
X13840896Y-10766841D01*
X13840896Y-10766841D02*
X13907562Y-10623984D01*
X13907562Y-10623984D02*
X13907562Y-10823984D01*
X14088515Y-10823984D02*
X14088515Y-10719222D01*
X14088515Y-10719222D02*
X14078991Y-10700174D01*
X14078991Y-10700174D02*
X14059943Y-10690650D01*
X14059943Y-10690650D02*
X14021848Y-10690650D01*
X14021848Y-10690650D02*
X14002801Y-10700174D01*
X14088515Y-10814460D02*
X14069467Y-10823984D01*
X14069467Y-10823984D02*
X14021848Y-10823984D01*
X14021848Y-10823984D02*
X14002801Y-10814460D01*
X14002801Y-10814460D02*
X13993277Y-10795412D01*
X13993277Y-10795412D02*
X13993277Y-10776365D01*
X13993277Y-10776365D02*
X14002801Y-10757317D01*
X14002801Y-10757317D02*
X14021848Y-10747793D01*
X14021848Y-10747793D02*
X14069467Y-10747793D01*
X14069467Y-10747793D02*
X14088515Y-10738270D01*
X14183753Y-10690650D02*
X14183753Y-10890650D01*
X14183753Y-10700174D02*
X14202801Y-10690650D01*
X14202801Y-10690650D02*
X14240896Y-10690650D01*
X14240896Y-10690650D02*
X14259943Y-10700174D01*
X14259943Y-10700174D02*
X14269467Y-10709698D01*
X14269467Y-10709698D02*
X14278991Y-10728746D01*
X14278991Y-10728746D02*
X14278991Y-10785889D01*
X14278991Y-10785889D02*
X14269467Y-10804936D01*
X14269467Y-10804936D02*
X14259943Y-10814460D01*
X14259943Y-10814460D02*
X14240896Y-10823984D01*
X14240896Y-10823984D02*
X14202801Y-10823984D01*
X14202801Y-10823984D02*
X14183753Y-10814460D01*
X14364705Y-10804936D02*
X14374229Y-10814460D01*
X14374229Y-10814460D02*
X14364705Y-10823984D01*
X14364705Y-10823984D02*
X14355182Y-10814460D01*
X14355182Y-10814460D02*
X14364705Y-10804936D01*
X14364705Y-10804936D02*
X14364705Y-10823984D01*
X14364705Y-10700174D02*
X14374229Y-10709698D01*
X14374229Y-10709698D02*
X14364705Y-10719222D01*
X14364705Y-10719222D02*
X14355182Y-10709698D01*
X14355182Y-10709698D02*
X14364705Y-10700174D01*
X14364705Y-10700174D02*
X14364705Y-10719222D01*
D12*
X12652500Y-11112500D02*
X12732500Y-11192500D01*
X12732500Y-11112500D02*
X12652500Y-11192500D01*
D11*
X13031372Y-11043984D02*
X13050420Y-11043984D01*
X13050420Y-11043984D02*
X13069467Y-11053508D01*
X13069467Y-11053508D02*
X13078991Y-11063031D01*
X13078991Y-11063031D02*
X13088515Y-11082079D01*
X13088515Y-11082079D02*
X13098039Y-11120174D01*
X13098039Y-11120174D02*
X13098039Y-11167793D01*
X13098039Y-11167793D02*
X13088515Y-11205888D01*
X13088515Y-11205888D02*
X13078991Y-11224936D01*
X13078991Y-11224936D02*
X13069467Y-11234460D01*
X13069467Y-11234460D02*
X13050420Y-11243984D01*
X13050420Y-11243984D02*
X13031372Y-11243984D01*
X13031372Y-11243984D02*
X13012324Y-11234460D01*
X13012324Y-11234460D02*
X13002801Y-11224936D01*
X13002801Y-11224936D02*
X12993277Y-11205888D01*
X12993277Y-11205888D02*
X12983753Y-11167793D01*
X12983753Y-11167793D02*
X12983753Y-11120174D01*
X12983753Y-11120174D02*
X12993277Y-11082079D01*
X12993277Y-11082079D02*
X13002801Y-11063031D01*
X13002801Y-11063031D02*
X13012324Y-11053508D01*
X13012324Y-11053508D02*
X13031372Y-11043984D01*
X13183753Y-11224936D02*
X13193277Y-11234460D01*
X13193277Y-11234460D02*
X13183753Y-11243984D01*
X13183753Y-11243984D02*
X13174229Y-11234460D01*
X13174229Y-11234460D02*
X13183753Y-11224936D01*
X13183753Y-11224936D02*
X13183753Y-11243984D01*
X13307562Y-11129698D02*
X13288515Y-11120174D01*
X13288515Y-11120174D02*
X13278991Y-11110650D01*
X13278991Y-11110650D02*
X13269467Y-11091603D01*
X13269467Y-11091603D02*
X13269467Y-11082079D01*
X13269467Y-11082079D02*
X13278991Y-11063031D01*
X13278991Y-11063031D02*
X13288515Y-11053508D01*
X13288515Y-11053508D02*
X13307562Y-11043984D01*
X13307562Y-11043984D02*
X13345658Y-11043984D01*
X13345658Y-11043984D02*
X13364705Y-11053508D01*
X13364705Y-11053508D02*
X13374229Y-11063031D01*
X13374229Y-11063031D02*
X13383753Y-11082079D01*
X13383753Y-11082079D02*
X13383753Y-11091603D01*
X13383753Y-11091603D02*
X13374229Y-11110650D01*
X13374229Y-11110650D02*
X13364705Y-11120174D01*
X13364705Y-11120174D02*
X13345658Y-11129698D01*
X13345658Y-11129698D02*
X13307562Y-11129698D01*
X13307562Y-11129698D02*
X13288515Y-11139222D01*
X13288515Y-11139222D02*
X13278991Y-11148746D01*
X13278991Y-11148746D02*
X13269467Y-11167793D01*
X13269467Y-11167793D02*
X13269467Y-11205888D01*
X13269467Y-11205888D02*
X13278991Y-11224936D01*
X13278991Y-11224936D02*
X13288515Y-11234460D01*
X13288515Y-11234460D02*
X13307562Y-11243984D01*
X13307562Y-11243984D02*
X13345658Y-11243984D01*
X13345658Y-11243984D02*
X13364705Y-11234460D01*
X13364705Y-11234460D02*
X13374229Y-11224936D01*
X13374229Y-11224936D02*
X13383753Y-11205888D01*
X13383753Y-11205888D02*
X13383753Y-11167793D01*
X13383753Y-11167793D02*
X13374229Y-11148746D01*
X13374229Y-11148746D02*
X13364705Y-11139222D01*
X13364705Y-11139222D02*
X13345658Y-11129698D01*
X13507562Y-11043984D02*
X13526610Y-11043984D01*
X13526610Y-11043984D02*
X13545658Y-11053508D01*
X13545658Y-11053508D02*
X13555182Y-11063031D01*
X13555182Y-11063031D02*
X13564705Y-11082079D01*
X13564705Y-11082079D02*
X13574229Y-11120174D01*
X13574229Y-11120174D02*
X13574229Y-11167793D01*
X13574229Y-11167793D02*
X13564705Y-11205888D01*
X13564705Y-11205888D02*
X13555182Y-11224936D01*
X13555182Y-11224936D02*
X13545658Y-11234460D01*
X13545658Y-11234460D02*
X13526610Y-11243984D01*
X13526610Y-11243984D02*
X13507562Y-11243984D01*
X13507562Y-11243984D02*
X13488515Y-11234460D01*
X13488515Y-11234460D02*
X13478991Y-11224936D01*
X13478991Y-11224936D02*
X13469467Y-11205888D01*
X13469467Y-11205888D02*
X13459943Y-11167793D01*
X13459943Y-11167793D02*
X13459943Y-11120174D01*
X13459943Y-11120174D02*
X13469467Y-11082079D01*
X13469467Y-11082079D02*
X13478991Y-11063031D01*
X13478991Y-11063031D02*
X13488515Y-11053508D01*
X13488515Y-11053508D02*
X13507562Y-11043984D01*
X13698039Y-11043984D02*
X13717086Y-11043984D01*
X13717086Y-11043984D02*
X13736134Y-11053508D01*
X13736134Y-11053508D02*
X13745658Y-11063031D01*
X13745658Y-11063031D02*
X13755182Y-11082079D01*
X13755182Y-11082079D02*
X13764705Y-11120174D01*
X13764705Y-11120174D02*
X13764705Y-11167793D01*
X13764705Y-11167793D02*
X13755182Y-11205888D01*
X13755182Y-11205888D02*
X13745658Y-11224936D01*
X13745658Y-11224936D02*
X13736134Y-11234460D01*
X13736134Y-11234460D02*
X13717086Y-11243984D01*
X13717086Y-11243984D02*
X13698039Y-11243984D01*
X13698039Y-11243984D02*
X13678991Y-11234460D01*
X13678991Y-11234460D02*
X13669467Y-11224936D01*
X13669467Y-11224936D02*
X13659943Y-11205888D01*
X13659943Y-11205888D02*
X13650420Y-11167793D01*
X13650420Y-11167793D02*
X13650420Y-11120174D01*
X13650420Y-11120174D02*
X13659943Y-11082079D01*
X13659943Y-11082079D02*
X13669467Y-11063031D01*
X13669467Y-11063031D02*
X13678991Y-11053508D01*
X13678991Y-11053508D02*
X13698039Y-11043984D01*
X13850420Y-11243984D02*
X13850420Y-11110650D01*
X13850420Y-11129698D02*
X13859943Y-11120174D01*
X13859943Y-11120174D02*
X13878991Y-11110650D01*
X13878991Y-11110650D02*
X13907563Y-11110650D01*
X13907563Y-11110650D02*
X13926610Y-11120174D01*
X13926610Y-11120174D02*
X13936134Y-11139222D01*
X13936134Y-11139222D02*
X13936134Y-11243984D01*
X13936134Y-11139222D02*
X13945658Y-11120174D01*
X13945658Y-11120174D02*
X13964705Y-11110650D01*
X13964705Y-11110650D02*
X13993277Y-11110650D01*
X13993277Y-11110650D02*
X14012324Y-11120174D01*
X14012324Y-11120174D02*
X14021848Y-11139222D01*
X14021848Y-11139222D02*
X14021848Y-11243984D01*
X14117086Y-11243984D02*
X14117086Y-11110650D01*
X14117086Y-11129698D02*
X14126610Y-11120174D01*
X14126610Y-11120174D02*
X14145658Y-11110650D01*
X14145658Y-11110650D02*
X14174229Y-11110650D01*
X14174229Y-11110650D02*
X14193277Y-11120174D01*
X14193277Y-11120174D02*
X14202801Y-11139222D01*
X14202801Y-11139222D02*
X14202801Y-11243984D01*
X14202801Y-11139222D02*
X14212324Y-11120174D01*
X14212324Y-11120174D02*
X14231372Y-11110650D01*
X14231372Y-11110650D02*
X14259943Y-11110650D01*
X14259943Y-11110650D02*
X14278991Y-11120174D01*
X14278991Y-11120174D02*
X14288515Y-11139222D01*
X14288515Y-11139222D02*
X14288515Y-11243984D01*
X14678991Y-11034460D02*
X14507563Y-11291603D01*
X14936134Y-11043984D02*
X14955182Y-11043984D01*
X14955182Y-11043984D02*
X14974229Y-11053508D01*
X14974229Y-11053508D02*
X14983753Y-11063031D01*
X14983753Y-11063031D02*
X14993277Y-11082079D01*
X14993277Y-11082079D02*
X15002801Y-11120174D01*
X15002801Y-11120174D02*
X15002801Y-11167793D01*
X15002801Y-11167793D02*
X14993277Y-11205888D01*
X14993277Y-11205888D02*
X14983753Y-11224936D01*
X14983753Y-11224936D02*
X14974229Y-11234460D01*
X14974229Y-11234460D02*
X14955182Y-11243984D01*
X14955182Y-11243984D02*
X14936134Y-11243984D01*
X14936134Y-11243984D02*
X14917086Y-11234460D01*
X14917086Y-11234460D02*
X14907563Y-11224936D01*
X14907563Y-11224936D02*
X14898039Y-11205888D01*
X14898039Y-11205888D02*
X14888515Y-11167793D01*
X14888515Y-11167793D02*
X14888515Y-11120174D01*
X14888515Y-11120174D02*
X14898039Y-11082079D01*
X14898039Y-11082079D02*
X14907563Y-11063031D01*
X14907563Y-11063031D02*
X14917086Y-11053508D01*
X14917086Y-11053508D02*
X14936134Y-11043984D01*
X15088515Y-11224936D02*
X15098039Y-11234460D01*
X15098039Y-11234460D02*
X15088515Y-11243984D01*
X15088515Y-11243984D02*
X15078991Y-11234460D01*
X15078991Y-11234460D02*
X15088515Y-11224936D01*
X15088515Y-11224936D02*
X15088515Y-11243984D01*
X15221848Y-11043984D02*
X15240896Y-11043984D01*
X15240896Y-11043984D02*
X15259944Y-11053508D01*
X15259944Y-11053508D02*
X15269467Y-11063031D01*
X15269467Y-11063031D02*
X15278991Y-11082079D01*
X15278991Y-11082079D02*
X15288515Y-11120174D01*
X15288515Y-11120174D02*
X15288515Y-11167793D01*
X15288515Y-11167793D02*
X15278991Y-11205888D01*
X15278991Y-11205888D02*
X15269467Y-11224936D01*
X15269467Y-11224936D02*
X15259944Y-11234460D01*
X15259944Y-11234460D02*
X15240896Y-11243984D01*
X15240896Y-11243984D02*
X15221848Y-11243984D01*
X15221848Y-11243984D02*
X15202801Y-11234460D01*
X15202801Y-11234460D02*
X15193277Y-11224936D01*
X15193277Y-11224936D02*
X15183753Y-11205888D01*
X15183753Y-11205888D02*
X15174229Y-11167793D01*
X15174229Y-11167793D02*
X15174229Y-11120174D01*
X15174229Y-11120174D02*
X15183753Y-11082079D01*
X15183753Y-11082079D02*
X15193277Y-11063031D01*
X15193277Y-11063031D02*
X15202801Y-11053508D01*
X15202801Y-11053508D02*
X15221848Y-11043984D01*
X15355182Y-11043984D02*
X15478991Y-11043984D01*
X15478991Y-11043984D02*
X15412325Y-11120174D01*
X15412325Y-11120174D02*
X15440896Y-11120174D01*
X15440896Y-11120174D02*
X15459944Y-11129698D01*
X15459944Y-11129698D02*
X15469467Y-11139222D01*
X15469467Y-11139222D02*
X15478991Y-11158270D01*
X15478991Y-11158270D02*
X15478991Y-11205888D01*
X15478991Y-11205888D02*
X15469467Y-11224936D01*
X15469467Y-11224936D02*
X15459944Y-11234460D01*
X15459944Y-11234460D02*
X15440896Y-11243984D01*
X15440896Y-11243984D02*
X15383753Y-11243984D01*
X15383753Y-11243984D02*
X15364706Y-11234460D01*
X15364706Y-11234460D02*
X15355182Y-11224936D01*
X15669467Y-11243984D02*
X15555182Y-11243984D01*
X15612325Y-11243984D02*
X15612325Y-11043984D01*
X15612325Y-11043984D02*
X15593277Y-11072555D01*
X15593277Y-11072555D02*
X15574229Y-11091603D01*
X15574229Y-11091603D02*
X15555182Y-11101127D01*
X15850420Y-11043984D02*
X15755182Y-11043984D01*
X15755182Y-11043984D02*
X15745658Y-11139222D01*
X15745658Y-11139222D02*
X15755182Y-11129698D01*
X15755182Y-11129698D02*
X15774229Y-11120174D01*
X15774229Y-11120174D02*
X15821848Y-11120174D01*
X15821848Y-11120174D02*
X15840896Y-11129698D01*
X15840896Y-11129698D02*
X15850420Y-11139222D01*
X15850420Y-11139222D02*
X15859944Y-11158270D01*
X15859944Y-11158270D02*
X15859944Y-11205888D01*
X15859944Y-11205888D02*
X15850420Y-11224936D01*
X15850420Y-11224936D02*
X15840896Y-11234460D01*
X15840896Y-11234460D02*
X15821848Y-11243984D01*
X15821848Y-11243984D02*
X15774229Y-11243984D01*
X15774229Y-11243984D02*
X15755182Y-11234460D01*
X15755182Y-11234460D02*
X15745658Y-11224936D01*
X15936134Y-11043984D02*
X15936134Y-11082079D01*
X16012325Y-11043984D02*
X16012325Y-11082079D01*
X16307563Y-11320174D02*
X16298039Y-11310650D01*
X16298039Y-11310650D02*
X16278991Y-11282079D01*
X16278991Y-11282079D02*
X16269468Y-11263031D01*
X16269468Y-11263031D02*
X16259944Y-11234460D01*
X16259944Y-11234460D02*
X16250420Y-11186841D01*
X16250420Y-11186841D02*
X16250420Y-11148746D01*
X16250420Y-11148746D02*
X16259944Y-11101127D01*
X16259944Y-11101127D02*
X16269468Y-11072555D01*
X16269468Y-11072555D02*
X16278991Y-11053508D01*
X16278991Y-11053508D02*
X16298039Y-11024936D01*
X16298039Y-11024936D02*
X16307563Y-11015412D01*
X16364706Y-11043984D02*
X16488515Y-11043984D01*
X16488515Y-11043984D02*
X16421848Y-11120174D01*
X16421848Y-11120174D02*
X16450420Y-11120174D01*
X16450420Y-11120174D02*
X16469468Y-11129698D01*
X16469468Y-11129698D02*
X16478991Y-11139222D01*
X16478991Y-11139222D02*
X16488515Y-11158270D01*
X16488515Y-11158270D02*
X16488515Y-11205888D01*
X16488515Y-11205888D02*
X16478991Y-11224936D01*
X16478991Y-11224936D02*
X16469468Y-11234460D01*
X16469468Y-11234460D02*
X16450420Y-11243984D01*
X16450420Y-11243984D02*
X16393277Y-11243984D01*
X16393277Y-11243984D02*
X16374229Y-11234460D01*
X16374229Y-11234460D02*
X16364706Y-11224936D01*
X16659944Y-11110650D02*
X16659944Y-11243984D01*
X16612325Y-11034460D02*
X16564706Y-11177317D01*
X16564706Y-11177317D02*
X16688515Y-11177317D01*
X16917087Y-11243984D02*
X16917087Y-11043984D01*
X17002801Y-11243984D02*
X17002801Y-11139222D01*
X17002801Y-11139222D02*
X16993277Y-11120174D01*
X16993277Y-11120174D02*
X16974230Y-11110650D01*
X16974230Y-11110650D02*
X16945658Y-11110650D01*
X16945658Y-11110650D02*
X16926611Y-11120174D01*
X16926611Y-11120174D02*
X16917087Y-11129698D01*
X17126611Y-11243984D02*
X17107563Y-11234460D01*
X17107563Y-11234460D02*
X17098039Y-11224936D01*
X17098039Y-11224936D02*
X17088515Y-11205888D01*
X17088515Y-11205888D02*
X17088515Y-11148746D01*
X17088515Y-11148746D02*
X17098039Y-11129698D01*
X17098039Y-11129698D02*
X17107563Y-11120174D01*
X17107563Y-11120174D02*
X17126611Y-11110650D01*
X17126611Y-11110650D02*
X17155182Y-11110650D01*
X17155182Y-11110650D02*
X17174230Y-11120174D01*
X17174230Y-11120174D02*
X17183753Y-11129698D01*
X17183753Y-11129698D02*
X17193277Y-11148746D01*
X17193277Y-11148746D02*
X17193277Y-11205888D01*
X17193277Y-11205888D02*
X17183753Y-11224936D01*
X17183753Y-11224936D02*
X17174230Y-11234460D01*
X17174230Y-11234460D02*
X17155182Y-11243984D01*
X17155182Y-11243984D02*
X17126611Y-11243984D01*
X17307563Y-11243984D02*
X17288515Y-11234460D01*
X17288515Y-11234460D02*
X17278992Y-11215412D01*
X17278992Y-11215412D02*
X17278992Y-11043984D01*
X17459944Y-11234460D02*
X17440896Y-11243984D01*
X17440896Y-11243984D02*
X17402801Y-11243984D01*
X17402801Y-11243984D02*
X17383753Y-11234460D01*
X17383753Y-11234460D02*
X17374230Y-11215412D01*
X17374230Y-11215412D02*
X17374230Y-11139222D01*
X17374230Y-11139222D02*
X17383753Y-11120174D01*
X17383753Y-11120174D02*
X17402801Y-11110650D01*
X17402801Y-11110650D02*
X17440896Y-11110650D01*
X17440896Y-11110650D02*
X17459944Y-11120174D01*
X17459944Y-11120174D02*
X17469468Y-11139222D01*
X17469468Y-11139222D02*
X17469468Y-11158270D01*
X17469468Y-11158270D02*
X17374230Y-11177317D01*
X17545658Y-11234460D02*
X17564706Y-11243984D01*
X17564706Y-11243984D02*
X17602801Y-11243984D01*
X17602801Y-11243984D02*
X17621849Y-11234460D01*
X17621849Y-11234460D02*
X17631373Y-11215412D01*
X17631373Y-11215412D02*
X17631373Y-11205888D01*
X17631373Y-11205888D02*
X17621849Y-11186841D01*
X17621849Y-11186841D02*
X17602801Y-11177317D01*
X17602801Y-11177317D02*
X17574230Y-11177317D01*
X17574230Y-11177317D02*
X17555182Y-11167793D01*
X17555182Y-11167793D02*
X17545658Y-11148746D01*
X17545658Y-11148746D02*
X17545658Y-11139222D01*
X17545658Y-11139222D02*
X17555182Y-11120174D01*
X17555182Y-11120174D02*
X17574230Y-11110650D01*
X17574230Y-11110650D02*
X17602801Y-11110650D01*
X17602801Y-11110650D02*
X17621849Y-11120174D01*
X17698039Y-11320174D02*
X17707563Y-11310650D01*
X17707563Y-11310650D02*
X17726611Y-11282079D01*
X17726611Y-11282079D02*
X17736134Y-11263031D01*
X17736134Y-11263031D02*
X17745658Y-11234460D01*
X17745658Y-11234460D02*
X17755182Y-11186841D01*
X17755182Y-11186841D02*
X17755182Y-11148746D01*
X17755182Y-11148746D02*
X17745658Y-11101127D01*
X17745658Y-11101127D02*
X17736134Y-11072555D01*
X17736134Y-11072555D02*
X17726611Y-11053508D01*
X17726611Y-11053508D02*
X17707563Y-11024936D01*
X17707563Y-11024936D02*
X17698039Y-11015412D01*
D12*
X12732500Y-11416500D02*
G75*
G02*
X12632500Y-11416500I-50000J0D01*
G01*
X12632500Y-11416500D02*
G75*
G02*
X12732500Y-11416500I50000J0D01*
G01*
D11*
X13098039Y-11507984D02*
X12983753Y-11507984D01*
X13040896Y-11507984D02*
X13040896Y-11307984D01*
X13040896Y-11307984D02*
X13021848Y-11336555D01*
X13021848Y-11336555D02*
X13002801Y-11355603D01*
X13002801Y-11355603D02*
X12983753Y-11365127D01*
X13183753Y-11488936D02*
X13193277Y-11498460D01*
X13193277Y-11498460D02*
X13183753Y-11507984D01*
X13183753Y-11507984D02*
X13174229Y-11498460D01*
X13174229Y-11498460D02*
X13183753Y-11488936D01*
X13183753Y-11488936D02*
X13183753Y-11507984D01*
X13317086Y-11307984D02*
X13336134Y-11307984D01*
X13336134Y-11307984D02*
X13355182Y-11317508D01*
X13355182Y-11317508D02*
X13364705Y-11327031D01*
X13364705Y-11327031D02*
X13374229Y-11346079D01*
X13374229Y-11346079D02*
X13383753Y-11384174D01*
X13383753Y-11384174D02*
X13383753Y-11431793D01*
X13383753Y-11431793D02*
X13374229Y-11469888D01*
X13374229Y-11469888D02*
X13364705Y-11488936D01*
X13364705Y-11488936D02*
X13355182Y-11498460D01*
X13355182Y-11498460D02*
X13336134Y-11507984D01*
X13336134Y-11507984D02*
X13317086Y-11507984D01*
X13317086Y-11507984D02*
X13298039Y-11498460D01*
X13298039Y-11498460D02*
X13288515Y-11488936D01*
X13288515Y-11488936D02*
X13278991Y-11469888D01*
X13278991Y-11469888D02*
X13269467Y-11431793D01*
X13269467Y-11431793D02*
X13269467Y-11384174D01*
X13269467Y-11384174D02*
X13278991Y-11346079D01*
X13278991Y-11346079D02*
X13288515Y-11327031D01*
X13288515Y-11327031D02*
X13298039Y-11317508D01*
X13298039Y-11317508D02*
X13317086Y-11307984D01*
X13507562Y-11307984D02*
X13526610Y-11307984D01*
X13526610Y-11307984D02*
X13545658Y-11317508D01*
X13545658Y-11317508D02*
X13555182Y-11327031D01*
X13555182Y-11327031D02*
X13564705Y-11346079D01*
X13564705Y-11346079D02*
X13574229Y-11384174D01*
X13574229Y-11384174D02*
X13574229Y-11431793D01*
X13574229Y-11431793D02*
X13564705Y-11469888D01*
X13564705Y-11469888D02*
X13555182Y-11488936D01*
X13555182Y-11488936D02*
X13545658Y-11498460D01*
X13545658Y-11498460D02*
X13526610Y-11507984D01*
X13526610Y-11507984D02*
X13507562Y-11507984D01*
X13507562Y-11507984D02*
X13488515Y-11498460D01*
X13488515Y-11498460D02*
X13478991Y-11488936D01*
X13478991Y-11488936D02*
X13469467Y-11469888D01*
X13469467Y-11469888D02*
X13459943Y-11431793D01*
X13459943Y-11431793D02*
X13459943Y-11384174D01*
X13459943Y-11384174D02*
X13469467Y-11346079D01*
X13469467Y-11346079D02*
X13478991Y-11327031D01*
X13478991Y-11327031D02*
X13488515Y-11317508D01*
X13488515Y-11317508D02*
X13507562Y-11307984D01*
X13698039Y-11307984D02*
X13717086Y-11307984D01*
X13717086Y-11307984D02*
X13736134Y-11317508D01*
X13736134Y-11317508D02*
X13745658Y-11327031D01*
X13745658Y-11327031D02*
X13755182Y-11346079D01*
X13755182Y-11346079D02*
X13764705Y-11384174D01*
X13764705Y-11384174D02*
X13764705Y-11431793D01*
X13764705Y-11431793D02*
X13755182Y-11469888D01*
X13755182Y-11469888D02*
X13745658Y-11488936D01*
X13745658Y-11488936D02*
X13736134Y-11498460D01*
X13736134Y-11498460D02*
X13717086Y-11507984D01*
X13717086Y-11507984D02*
X13698039Y-11507984D01*
X13698039Y-11507984D02*
X13678991Y-11498460D01*
X13678991Y-11498460D02*
X13669467Y-11488936D01*
X13669467Y-11488936D02*
X13659943Y-11469888D01*
X13659943Y-11469888D02*
X13650420Y-11431793D01*
X13650420Y-11431793D02*
X13650420Y-11384174D01*
X13650420Y-11384174D02*
X13659943Y-11346079D01*
X13659943Y-11346079D02*
X13669467Y-11327031D01*
X13669467Y-11327031D02*
X13678991Y-11317508D01*
X13678991Y-11317508D02*
X13698039Y-11307984D01*
X13850420Y-11507984D02*
X13850420Y-11374650D01*
X13850420Y-11393698D02*
X13859943Y-11384174D01*
X13859943Y-11384174D02*
X13878991Y-11374650D01*
X13878991Y-11374650D02*
X13907563Y-11374650D01*
X13907563Y-11374650D02*
X13926610Y-11384174D01*
X13926610Y-11384174D02*
X13936134Y-11403222D01*
X13936134Y-11403222D02*
X13936134Y-11507984D01*
X13936134Y-11403222D02*
X13945658Y-11384174D01*
X13945658Y-11384174D02*
X13964705Y-11374650D01*
X13964705Y-11374650D02*
X13993277Y-11374650D01*
X13993277Y-11374650D02*
X14012324Y-11384174D01*
X14012324Y-11384174D02*
X14021848Y-11403222D01*
X14021848Y-11403222D02*
X14021848Y-11507984D01*
X14117086Y-11507984D02*
X14117086Y-11374650D01*
X14117086Y-11393698D02*
X14126610Y-11384174D01*
X14126610Y-11384174D02*
X14145658Y-11374650D01*
X14145658Y-11374650D02*
X14174229Y-11374650D01*
X14174229Y-11374650D02*
X14193277Y-11384174D01*
X14193277Y-11384174D02*
X14202801Y-11403222D01*
X14202801Y-11403222D02*
X14202801Y-11507984D01*
X14202801Y-11403222D02*
X14212324Y-11384174D01*
X14212324Y-11384174D02*
X14231372Y-11374650D01*
X14231372Y-11374650D02*
X14259943Y-11374650D01*
X14259943Y-11374650D02*
X14278991Y-11384174D01*
X14278991Y-11384174D02*
X14288515Y-11403222D01*
X14288515Y-11403222D02*
X14288515Y-11507984D01*
X14678991Y-11298460D02*
X14507563Y-11555603D01*
X14936134Y-11307984D02*
X14955182Y-11307984D01*
X14955182Y-11307984D02*
X14974229Y-11317508D01*
X14974229Y-11317508D02*
X14983753Y-11327031D01*
X14983753Y-11327031D02*
X14993277Y-11346079D01*
X14993277Y-11346079D02*
X15002801Y-11384174D01*
X15002801Y-11384174D02*
X15002801Y-11431793D01*
X15002801Y-11431793D02*
X14993277Y-11469888D01*
X14993277Y-11469888D02*
X14983753Y-11488936D01*
X14983753Y-11488936D02*
X14974229Y-11498460D01*
X14974229Y-11498460D02*
X14955182Y-11507984D01*
X14955182Y-11507984D02*
X14936134Y-11507984D01*
X14936134Y-11507984D02*
X14917086Y-11498460D01*
X14917086Y-11498460D02*
X14907563Y-11488936D01*
X14907563Y-11488936D02*
X14898039Y-11469888D01*
X14898039Y-11469888D02*
X14888515Y-11431793D01*
X14888515Y-11431793D02*
X14888515Y-11384174D01*
X14888515Y-11384174D02*
X14898039Y-11346079D01*
X14898039Y-11346079D02*
X14907563Y-11327031D01*
X14907563Y-11327031D02*
X14917086Y-11317508D01*
X14917086Y-11317508D02*
X14936134Y-11307984D01*
X15088515Y-11488936D02*
X15098039Y-11498460D01*
X15098039Y-11498460D02*
X15088515Y-11507984D01*
X15088515Y-11507984D02*
X15078991Y-11498460D01*
X15078991Y-11498460D02*
X15088515Y-11488936D01*
X15088515Y-11488936D02*
X15088515Y-11507984D01*
X15221848Y-11307984D02*
X15240896Y-11307984D01*
X15240896Y-11307984D02*
X15259944Y-11317508D01*
X15259944Y-11317508D02*
X15269467Y-11327031D01*
X15269467Y-11327031D02*
X15278991Y-11346079D01*
X15278991Y-11346079D02*
X15288515Y-11384174D01*
X15288515Y-11384174D02*
X15288515Y-11431793D01*
X15288515Y-11431793D02*
X15278991Y-11469888D01*
X15278991Y-11469888D02*
X15269467Y-11488936D01*
X15269467Y-11488936D02*
X15259944Y-11498460D01*
X15259944Y-11498460D02*
X15240896Y-11507984D01*
X15240896Y-11507984D02*
X15221848Y-11507984D01*
X15221848Y-11507984D02*
X15202801Y-11498460D01*
X15202801Y-11498460D02*
X15193277Y-11488936D01*
X15193277Y-11488936D02*
X15183753Y-11469888D01*
X15183753Y-11469888D02*
X15174229Y-11431793D01*
X15174229Y-11431793D02*
X15174229Y-11384174D01*
X15174229Y-11384174D02*
X15183753Y-11346079D01*
X15183753Y-11346079D02*
X15193277Y-11327031D01*
X15193277Y-11327031D02*
X15202801Y-11317508D01*
X15202801Y-11317508D02*
X15221848Y-11307984D01*
X15355182Y-11307984D02*
X15478991Y-11307984D01*
X15478991Y-11307984D02*
X15412325Y-11384174D01*
X15412325Y-11384174D02*
X15440896Y-11384174D01*
X15440896Y-11384174D02*
X15459944Y-11393698D01*
X15459944Y-11393698D02*
X15469467Y-11403222D01*
X15469467Y-11403222D02*
X15478991Y-11422269D01*
X15478991Y-11422269D02*
X15478991Y-11469888D01*
X15478991Y-11469888D02*
X15469467Y-11488936D01*
X15469467Y-11488936D02*
X15459944Y-11498460D01*
X15459944Y-11498460D02*
X15440896Y-11507984D01*
X15440896Y-11507984D02*
X15383753Y-11507984D01*
X15383753Y-11507984D02*
X15364706Y-11498460D01*
X15364706Y-11498460D02*
X15355182Y-11488936D01*
X15574229Y-11507984D02*
X15612325Y-11507984D01*
X15612325Y-11507984D02*
X15631372Y-11498460D01*
X15631372Y-11498460D02*
X15640896Y-11488936D01*
X15640896Y-11488936D02*
X15659944Y-11460365D01*
X15659944Y-11460365D02*
X15669467Y-11422269D01*
X15669467Y-11422269D02*
X15669467Y-11346079D01*
X15669467Y-11346079D02*
X15659944Y-11327031D01*
X15659944Y-11327031D02*
X15650420Y-11317508D01*
X15650420Y-11317508D02*
X15631372Y-11307984D01*
X15631372Y-11307984D02*
X15593277Y-11307984D01*
X15593277Y-11307984D02*
X15574229Y-11317508D01*
X15574229Y-11317508D02*
X15564706Y-11327031D01*
X15564706Y-11327031D02*
X15555182Y-11346079D01*
X15555182Y-11346079D02*
X15555182Y-11393698D01*
X15555182Y-11393698D02*
X15564706Y-11412746D01*
X15564706Y-11412746D02*
X15574229Y-11422269D01*
X15574229Y-11422269D02*
X15593277Y-11431793D01*
X15593277Y-11431793D02*
X15631372Y-11431793D01*
X15631372Y-11431793D02*
X15650420Y-11422269D01*
X15650420Y-11422269D02*
X15659944Y-11412746D01*
X15659944Y-11412746D02*
X15669467Y-11393698D01*
X15840896Y-11374650D02*
X15840896Y-11507984D01*
X15793277Y-11298460D02*
X15745658Y-11441317D01*
X15745658Y-11441317D02*
X15869467Y-11441317D01*
X15936134Y-11307984D02*
X15936134Y-11346079D01*
X16012325Y-11307984D02*
X16012325Y-11346079D01*
X16307563Y-11584174D02*
X16298039Y-11574650D01*
X16298039Y-11574650D02*
X16278991Y-11546079D01*
X16278991Y-11546079D02*
X16269468Y-11527031D01*
X16269468Y-11527031D02*
X16259944Y-11498460D01*
X16259944Y-11498460D02*
X16250420Y-11450841D01*
X16250420Y-11450841D02*
X16250420Y-11412746D01*
X16250420Y-11412746D02*
X16259944Y-11365127D01*
X16259944Y-11365127D02*
X16269468Y-11336555D01*
X16269468Y-11336555D02*
X16278991Y-11317508D01*
X16278991Y-11317508D02*
X16298039Y-11288936D01*
X16298039Y-11288936D02*
X16307563Y-11279412D01*
X16488515Y-11507984D02*
X16374229Y-11507984D01*
X16431372Y-11507984D02*
X16431372Y-11307984D01*
X16431372Y-11307984D02*
X16412325Y-11336555D01*
X16412325Y-11336555D02*
X16393277Y-11355603D01*
X16393277Y-11355603D02*
X16374229Y-11365127D01*
X16659944Y-11307984D02*
X16621848Y-11307984D01*
X16621848Y-11307984D02*
X16602801Y-11317508D01*
X16602801Y-11317508D02*
X16593277Y-11327031D01*
X16593277Y-11327031D02*
X16574229Y-11355603D01*
X16574229Y-11355603D02*
X16564706Y-11393698D01*
X16564706Y-11393698D02*
X16564706Y-11469888D01*
X16564706Y-11469888D02*
X16574229Y-11488936D01*
X16574229Y-11488936D02*
X16583753Y-11498460D01*
X16583753Y-11498460D02*
X16602801Y-11507984D01*
X16602801Y-11507984D02*
X16640896Y-11507984D01*
X16640896Y-11507984D02*
X16659944Y-11498460D01*
X16659944Y-11498460D02*
X16669468Y-11488936D01*
X16669468Y-11488936D02*
X16678991Y-11469888D01*
X16678991Y-11469888D02*
X16678991Y-11422269D01*
X16678991Y-11422269D02*
X16669468Y-11403222D01*
X16669468Y-11403222D02*
X16659944Y-11393698D01*
X16659944Y-11393698D02*
X16640896Y-11384174D01*
X16640896Y-11384174D02*
X16602801Y-11384174D01*
X16602801Y-11384174D02*
X16583753Y-11393698D01*
X16583753Y-11393698D02*
X16574229Y-11403222D01*
X16574229Y-11403222D02*
X16564706Y-11422269D01*
X16917087Y-11507984D02*
X16917087Y-11307984D01*
X17002801Y-11507984D02*
X17002801Y-11403222D01*
X17002801Y-11403222D02*
X16993277Y-11384174D01*
X16993277Y-11384174D02*
X16974230Y-11374650D01*
X16974230Y-11374650D02*
X16945658Y-11374650D01*
X16945658Y-11374650D02*
X16926611Y-11384174D01*
X16926611Y-11384174D02*
X16917087Y-11393698D01*
X17126611Y-11507984D02*
X17107563Y-11498460D01*
X17107563Y-11498460D02*
X17098039Y-11488936D01*
X17098039Y-11488936D02*
X17088515Y-11469888D01*
X17088515Y-11469888D02*
X17088515Y-11412746D01*
X17088515Y-11412746D02*
X17098039Y-11393698D01*
X17098039Y-11393698D02*
X17107563Y-11384174D01*
X17107563Y-11384174D02*
X17126611Y-11374650D01*
X17126611Y-11374650D02*
X17155182Y-11374650D01*
X17155182Y-11374650D02*
X17174230Y-11384174D01*
X17174230Y-11384174D02*
X17183753Y-11393698D01*
X17183753Y-11393698D02*
X17193277Y-11412746D01*
X17193277Y-11412746D02*
X17193277Y-11469888D01*
X17193277Y-11469888D02*
X17183753Y-11488936D01*
X17183753Y-11488936D02*
X17174230Y-11498460D01*
X17174230Y-11498460D02*
X17155182Y-11507984D01*
X17155182Y-11507984D02*
X17126611Y-11507984D01*
X17307563Y-11507984D02*
X17288515Y-11498460D01*
X17288515Y-11498460D02*
X17278992Y-11479412D01*
X17278992Y-11479412D02*
X17278992Y-11307984D01*
X17459944Y-11498460D02*
X17440896Y-11507984D01*
X17440896Y-11507984D02*
X17402801Y-11507984D01*
X17402801Y-11507984D02*
X17383753Y-11498460D01*
X17383753Y-11498460D02*
X17374230Y-11479412D01*
X17374230Y-11479412D02*
X17374230Y-11403222D01*
X17374230Y-11403222D02*
X17383753Y-11384174D01*
X17383753Y-11384174D02*
X17402801Y-11374650D01*
X17402801Y-11374650D02*
X17440896Y-11374650D01*
X17440896Y-11374650D02*
X17459944Y-11384174D01*
X17459944Y-11384174D02*
X17469468Y-11403222D01*
X17469468Y-11403222D02*
X17469468Y-11422269D01*
X17469468Y-11422269D02*
X17374230Y-11441317D01*
X17545658Y-11498460D02*
X17564706Y-11507984D01*
X17564706Y-11507984D02*
X17602801Y-11507984D01*
X17602801Y-11507984D02*
X17621849Y-11498460D01*
X17621849Y-11498460D02*
X17631373Y-11479412D01*
X17631373Y-11479412D02*
X17631373Y-11469888D01*
X17631373Y-11469888D02*
X17621849Y-11450841D01*
X17621849Y-11450841D02*
X17602801Y-11441317D01*
X17602801Y-11441317D02*
X17574230Y-11441317D01*
X17574230Y-11441317D02*
X17555182Y-11431793D01*
X17555182Y-11431793D02*
X17545658Y-11412746D01*
X17545658Y-11412746D02*
X17545658Y-11403222D01*
X17545658Y-11403222D02*
X17555182Y-11384174D01*
X17555182Y-11384174D02*
X17574230Y-11374650D01*
X17574230Y-11374650D02*
X17602801Y-11374650D01*
X17602801Y-11374650D02*
X17621849Y-11384174D01*
X17698039Y-11584174D02*
X17707563Y-11574650D01*
X17707563Y-11574650D02*
X17726611Y-11546079D01*
X17726611Y-11546079D02*
X17736134Y-11527031D01*
X17736134Y-11527031D02*
X17745658Y-11498460D01*
X17745658Y-11498460D02*
X17755182Y-11450841D01*
X17755182Y-11450841D02*
X17755182Y-11412746D01*
X17755182Y-11412746D02*
X17745658Y-11365127D01*
X17745658Y-11365127D02*
X17736134Y-11336555D01*
X17736134Y-11336555D02*
X17726611Y-11317508D01*
X17726611Y-11317508D02*
X17707563Y-11288936D01*
X17707563Y-11288936D02*
X17698039Y-11279412D01*
M02*
