%TF.GenerationSoftware,KiCad,Pcbnew,8.0.8*%
%TF.CreationDate,2025-04-10T20:03:44-04:00*%
%TF.ProjectId,DFPlayer and LCD,4446506c-6179-4657-9220-616e64204c43,rev?*%
%TF.SameCoordinates,Original*%
%TF.FileFunction,Copper,L2,Bot*%
%TF.FilePolarity,Positive*%
%FSLAX46Y46*%
G04 Gerber Fmt 4.6, Leading zero omitted, Abs format (unit mm)*
G04 Created by KiCad (PCBNEW 8.0.8) date 2025-04-10 20:03:44*
%MOMM*%
%LPD*%
G01*
G04 APERTURE LIST*
%TA.AperFunction,ComponentPad*%
%ADD10R,1.700000X1.700000*%
%TD*%
%TA.AperFunction,ComponentPad*%
%ADD11O,1.700000X1.700000*%
%TD*%
%TA.AperFunction,ComponentPad*%
%ADD12R,1.308000X1.308000*%
%TD*%
%TA.AperFunction,ComponentPad*%
%ADD13C,1.308000*%
%TD*%
%TA.AperFunction,Conductor*%
%ADD14C,0.500000*%
%TD*%
G04 APERTURE END LIST*
D10*
%TO.P,J1,1,Pin_1*%
%TO.N,Net-(J1-Pin_1)*%
X162051998Y-74168000D03*
D11*
%TO.P,J1,2,Pin_2*%
%TO.N,Net-(J1-Pin_2)*%
X162051998Y-71628000D03*
%TO.P,J1,3,Pin_3*%
%TO.N,Net-(J1-Pin_3)*%
X162051998Y-69088000D03*
%TO.P,J1,4,Pin_4*%
%TO.N,Net-(J1-Pin_4)*%
X162051998Y-66548000D03*
%TO.P,J1,5,Pin_5*%
%TO.N,Net-(EYESPI_18IN_BREAKOUT_BOARD1-Gnd)*%
X162051998Y-64008000D03*
%TO.P,J1,6,Pin_6*%
%TO.N,Net-(J1-Pin_6)*%
X162051998Y-61468000D03*
%TD*%
D12*
%TO.P,U1,1,VCC*%
%TO.N,Net-(J1-Pin_1)*%
X169290998Y-74140000D03*
D13*
%TO.P,U1,2,RX*%
%TO.N,Net-(J1-Pin_2)*%
X169290998Y-71600000D03*
%TO.P,U1,3,TX*%
%TO.N,Net-(J1-Pin_3)*%
X169290998Y-69060000D03*
%TO.P,U1,4,DAC_R*%
%TO.N,unconnected-(U1-DAC_R-Pad4)*%
X169290998Y-66520000D03*
%TO.P,U1,5,DAC_L*%
%TO.N,unconnected-(U1-DAC_L-Pad5)*%
X169290998Y-63980000D03*
%TO.P,U1,6,SPK1*%
%TO.N,Net-(J1-Pin_4)*%
X169290998Y-61440000D03*
%TO.P,U1,7,GND*%
%TO.N,Net-(EYESPI_18IN_BREAKOUT_BOARD1-Gnd)*%
X169290998Y-58900000D03*
%TO.P,U1,8,SPK2*%
%TO.N,Net-(J1-Pin_6)*%
X169290998Y-56360000D03*
%TO.P,U1,9,IO1*%
%TO.N,unconnected-(U1-IO1-Pad9)*%
X187324998Y-56360000D03*
%TO.P,U1,10,GND__1*%
%TO.N,unconnected-(U1-GND__1-Pad10)*%
X187324998Y-58900000D03*
%TO.P,U1,11,IO2*%
%TO.N,unconnected-(U1-IO2-Pad11)*%
X187324998Y-61440000D03*
%TO.P,U1,12,ADKEY1*%
%TO.N,unconnected-(U1-ADKEY1-Pad12)*%
X187324998Y-63980000D03*
%TO.P,U1,13,ADKEY2*%
%TO.N,unconnected-(U1-ADKEY2-Pad13)*%
X187324998Y-66520000D03*
%TO.P,U1,14,USB+*%
%TO.N,unconnected-(U1-USB+-Pad14)*%
X187324998Y-69060000D03*
%TO.P,U1,15,USB-*%
%TO.N,unconnected-(U1-USB--Pad15)*%
X187324998Y-71600000D03*
%TO.P,U1,16,BUSY*%
%TO.N,unconnected-(U1-BUSY-Pad16)*%
X187324998Y-74140000D03*
%TD*%
D14*
%TO.N,Net-(J1-Pin_6)*%
X167859998Y-56360000D02*
X169290998Y-56360000D01*
X162796998Y-61423000D02*
X167859998Y-56360000D01*
X161426998Y-61423000D02*
X162796998Y-61423000D01*
%TO.N,Net-(J1-Pin_4)*%
X161426998Y-66503000D02*
X163416998Y-66503000D01*
X163416998Y-66503000D02*
X168736998Y-61183000D01*
%TO.N,Net-(J1-Pin_1)*%
X161426998Y-74123000D02*
X168769998Y-74123000D01*
%TO.N,Net-(J1-Pin_3)*%
X161426998Y-69043000D02*
X168769998Y-69043000D01*
%TO.N,Net-(J1-Pin_2)*%
X161426998Y-71583000D02*
X168769998Y-71583000D01*
%TD*%
%TA.AperFunction,Conductor*%
%TO.N,Net-(EYESPI_18IN_BREAKOUT_BOARD1-Gnd)*%
G36*
X188701437Y-54367454D02*
G01*
X188782219Y-54421430D01*
X188836195Y-54502212D01*
X188855149Y-54597500D01*
X188855084Y-54603184D01*
X188829175Y-55737842D01*
X188808051Y-55832673D01*
X188752244Y-55912201D01*
X188670252Y-55964319D01*
X188574556Y-55981093D01*
X188479725Y-55959969D01*
X188400197Y-55904162D01*
X188357345Y-55843148D01*
X188310779Y-55749630D01*
X188310778Y-55749628D01*
X188181843Y-55578891D01*
X188181843Y-55578890D01*
X188181839Y-55578886D01*
X188023720Y-55434742D01*
X187841808Y-55322107D01*
X187788975Y-55301639D01*
X187642291Y-55244813D01*
X187431982Y-55205500D01*
X187431978Y-55205500D01*
X187218018Y-55205500D01*
X187218014Y-55205500D01*
X187007704Y-55244813D01*
X186808190Y-55322106D01*
X186808182Y-55322110D01*
X186626281Y-55434738D01*
X186626277Y-55434740D01*
X186626276Y-55434742D01*
X186547216Y-55506814D01*
X186468152Y-55578890D01*
X186468152Y-55578891D01*
X186339217Y-55749628D01*
X186339211Y-55749639D01*
X186243851Y-55941151D01*
X186243843Y-55941171D01*
X186185295Y-56146943D01*
X186185293Y-56146954D01*
X186165552Y-56360000D01*
X186185293Y-56573045D01*
X186185295Y-56573056D01*
X186243843Y-56778828D01*
X186243845Y-56778833D01*
X186243847Y-56778840D01*
X186243851Y-56778848D01*
X186339211Y-56970360D01*
X186339217Y-56970371D01*
X186468152Y-57141108D01*
X186468152Y-57141109D01*
X186468155Y-57141112D01*
X186468157Y-57141114D01*
X186626276Y-57285258D01*
X186808188Y-57397893D01*
X186808197Y-57397896D01*
X186818497Y-57403026D01*
X186817942Y-57404139D01*
X186889995Y-57449914D01*
X186945821Y-57529429D01*
X186966969Y-57624254D01*
X186950219Y-57719954D01*
X186898121Y-57801960D01*
X186818606Y-57857786D01*
X186808258Y-57862072D01*
X186808182Y-57862110D01*
X186626281Y-57974738D01*
X186626277Y-57974740D01*
X186626276Y-57974742D01*
X186547216Y-58046814D01*
X186468152Y-58118890D01*
X186468152Y-58118891D01*
X186339217Y-58289628D01*
X186339211Y-58289639D01*
X186243851Y-58481151D01*
X186243843Y-58481171D01*
X186185295Y-58686943D01*
X186185293Y-58686954D01*
X186165552Y-58900000D01*
X186185293Y-59113045D01*
X186185295Y-59113056D01*
X186243843Y-59318828D01*
X186243845Y-59318833D01*
X186243847Y-59318840D01*
X186243851Y-59318848D01*
X186339211Y-59510360D01*
X186339217Y-59510371D01*
X186468152Y-59681108D01*
X186468152Y-59681109D01*
X186468155Y-59681112D01*
X186468157Y-59681114D01*
X186626276Y-59825258D01*
X186808188Y-59937893D01*
X186808197Y-59937896D01*
X186818497Y-59943026D01*
X186817942Y-59944139D01*
X186889995Y-59989914D01*
X186945821Y-60069429D01*
X186966969Y-60164254D01*
X186950219Y-60259954D01*
X186898121Y-60341960D01*
X186818606Y-60397786D01*
X186808258Y-60402072D01*
X186808182Y-60402110D01*
X186626281Y-60514738D01*
X186626277Y-60514740D01*
X186626276Y-60514742D01*
X186547216Y-60586814D01*
X186468152Y-60658890D01*
X186468152Y-60658891D01*
X186339217Y-60829628D01*
X186339211Y-60829639D01*
X186243851Y-61021151D01*
X186243843Y-61021171D01*
X186185295Y-61226943D01*
X186185293Y-61226954D01*
X186165552Y-61440000D01*
X186185293Y-61653045D01*
X186185295Y-61653056D01*
X186243843Y-61858828D01*
X186243845Y-61858833D01*
X186243847Y-61858840D01*
X186243851Y-61858848D01*
X186339211Y-62050360D01*
X186339217Y-62050371D01*
X186468152Y-62221108D01*
X186468152Y-62221109D01*
X186468155Y-62221112D01*
X186468157Y-62221114D01*
X186626276Y-62365258D01*
X186808188Y-62477893D01*
X186808197Y-62477896D01*
X186818497Y-62483026D01*
X186817942Y-62484139D01*
X186889995Y-62529914D01*
X186945821Y-62609429D01*
X186966969Y-62704254D01*
X186950219Y-62799954D01*
X186898121Y-62881960D01*
X186818606Y-62937786D01*
X186808258Y-62942072D01*
X186808182Y-62942110D01*
X186626281Y-63054738D01*
X186626277Y-63054740D01*
X186626276Y-63054742D01*
X186580517Y-63096457D01*
X186468152Y-63198890D01*
X186468152Y-63198891D01*
X186339217Y-63369628D01*
X186339211Y-63369639D01*
X186243851Y-63561151D01*
X186243843Y-63561171D01*
X186185295Y-63766943D01*
X186185293Y-63766954D01*
X186165552Y-63980000D01*
X186185293Y-64193045D01*
X186185295Y-64193056D01*
X186243843Y-64398828D01*
X186243845Y-64398833D01*
X186243847Y-64398840D01*
X186243851Y-64398848D01*
X186339211Y-64590360D01*
X186339217Y-64590371D01*
X186468152Y-64761108D01*
X186468152Y-64761109D01*
X186468155Y-64761112D01*
X186468157Y-64761114D01*
X186626276Y-64905258D01*
X186808188Y-65017893D01*
X186808197Y-65017896D01*
X186818497Y-65023026D01*
X186817942Y-65024139D01*
X186889995Y-65069914D01*
X186945821Y-65149429D01*
X186966969Y-65244254D01*
X186950219Y-65339954D01*
X186898121Y-65421960D01*
X186818606Y-65477786D01*
X186808258Y-65482072D01*
X186808182Y-65482110D01*
X186626281Y-65594738D01*
X186626277Y-65594740D01*
X186626276Y-65594742D01*
X186553514Y-65661073D01*
X186468152Y-65738890D01*
X186468152Y-65738891D01*
X186339217Y-65909628D01*
X186339211Y-65909639D01*
X186243851Y-66101151D01*
X186243843Y-66101171D01*
X186185295Y-66306943D01*
X186185293Y-66306954D01*
X186165552Y-66520000D01*
X186185293Y-66733045D01*
X186185295Y-66733056D01*
X186243843Y-66938828D01*
X186243845Y-66938833D01*
X186243847Y-66938840D01*
X186243851Y-66938848D01*
X186339211Y-67130360D01*
X186339217Y-67130371D01*
X186468152Y-67301108D01*
X186468152Y-67301109D01*
X186468155Y-67301112D01*
X186468157Y-67301114D01*
X186626276Y-67445258D01*
X186808188Y-67557893D01*
X186808197Y-67557896D01*
X186818497Y-67563026D01*
X186817942Y-67564139D01*
X186889995Y-67609914D01*
X186945821Y-67689429D01*
X186966969Y-67784254D01*
X186950219Y-67879954D01*
X186898121Y-67961960D01*
X186818606Y-68017786D01*
X186808258Y-68022072D01*
X186808182Y-68022110D01*
X186626281Y-68134738D01*
X186626277Y-68134740D01*
X186626276Y-68134742D01*
X186547216Y-68206814D01*
X186468152Y-68278890D01*
X186468152Y-68278891D01*
X186339217Y-68449628D01*
X186339211Y-68449639D01*
X186243851Y-68641151D01*
X186243843Y-68641171D01*
X186185295Y-68846943D01*
X186185293Y-68846954D01*
X186165552Y-69060000D01*
X186185293Y-69273045D01*
X186185295Y-69273056D01*
X186243843Y-69478828D01*
X186243845Y-69478833D01*
X186243847Y-69478840D01*
X186243851Y-69478848D01*
X186339211Y-69670360D01*
X186339217Y-69670371D01*
X186468152Y-69841108D01*
X186468152Y-69841109D01*
X186468155Y-69841112D01*
X186468157Y-69841114D01*
X186626276Y-69985258D01*
X186808188Y-70097893D01*
X186808197Y-70097896D01*
X186818497Y-70103026D01*
X186817942Y-70104139D01*
X186889995Y-70149914D01*
X186945821Y-70229429D01*
X186966969Y-70324254D01*
X186950219Y-70419954D01*
X186898121Y-70501960D01*
X186818606Y-70557786D01*
X186808258Y-70562072D01*
X186808182Y-70562110D01*
X186626281Y-70674738D01*
X186626277Y-70674740D01*
X186626276Y-70674742D01*
X186547216Y-70746814D01*
X186468152Y-70818890D01*
X186468152Y-70818891D01*
X186339217Y-70989628D01*
X186339211Y-70989639D01*
X186243851Y-71181151D01*
X186243843Y-71181171D01*
X186185295Y-71386943D01*
X186185293Y-71386954D01*
X186165552Y-71600000D01*
X186185293Y-71813045D01*
X186185295Y-71813056D01*
X186243843Y-72018828D01*
X186243845Y-72018833D01*
X186243847Y-72018840D01*
X186243851Y-72018848D01*
X186339211Y-72210360D01*
X186339217Y-72210371D01*
X186468152Y-72381108D01*
X186468152Y-72381109D01*
X186468155Y-72381112D01*
X186468157Y-72381114D01*
X186626276Y-72525258D01*
X186808188Y-72637893D01*
X186808197Y-72637896D01*
X186818497Y-72643026D01*
X186817942Y-72644139D01*
X186889995Y-72689914D01*
X186945821Y-72769429D01*
X186966969Y-72864254D01*
X186950219Y-72959954D01*
X186898121Y-73041960D01*
X186818606Y-73097786D01*
X186808258Y-73102072D01*
X186808182Y-73102110D01*
X186626281Y-73214738D01*
X186626277Y-73214740D01*
X186626276Y-73214742D01*
X186565521Y-73270127D01*
X186468152Y-73358890D01*
X186468152Y-73358891D01*
X186339217Y-73529628D01*
X186339211Y-73529639D01*
X186243851Y-73721151D01*
X186243843Y-73721171D01*
X186185295Y-73926943D01*
X186185293Y-73926954D01*
X186165552Y-74140000D01*
X186185293Y-74353045D01*
X186185295Y-74353056D01*
X186243843Y-74558828D01*
X186243845Y-74558833D01*
X186243847Y-74558840D01*
X186243851Y-74558848D01*
X186339211Y-74750360D01*
X186339217Y-74750371D01*
X186468152Y-74921108D01*
X186468158Y-74921115D01*
X186567297Y-75011492D01*
X186624947Y-75089694D01*
X186648281Y-75184005D01*
X186633748Y-75280067D01*
X186583560Y-75363255D01*
X186505358Y-75420905D01*
X186411047Y-75444239D01*
X186403889Y-75444467D01*
X172465340Y-75687581D01*
X172369736Y-75670292D01*
X172288026Y-75617732D01*
X172232649Y-75537905D01*
X172212036Y-75442961D01*
X172211998Y-75438619D01*
X172211998Y-60452001D01*
X172211998Y-60452000D01*
X172211997Y-60452000D01*
X169959234Y-60452000D01*
X169863946Y-60433046D01*
X169828157Y-60414706D01*
X169807808Y-60402107D01*
X169807320Y-60401918D01*
X169806932Y-60401671D01*
X169797499Y-60396974D01*
X169797988Y-60395990D01*
X169725315Y-60349824D01*
X169669486Y-60270312D01*
X169648335Y-60175487D01*
X169665081Y-60079786D01*
X169717176Y-59997779D01*
X169796688Y-59941950D01*
X169807327Y-59937543D01*
X169807588Y-59937441D01*
X169910910Y-59873466D01*
X169337444Y-59300000D01*
X169343659Y-59300000D01*
X169445392Y-59272741D01*
X169536604Y-59220080D01*
X169611078Y-59145606D01*
X169663739Y-59054394D01*
X169690998Y-58952661D01*
X169690998Y-58946446D01*
X170267017Y-59522465D01*
X170276351Y-59510106D01*
X170371682Y-59318655D01*
X170371682Y-59318654D01*
X170430207Y-59112963D01*
X170430209Y-59112951D01*
X170449941Y-58900000D01*
X170430209Y-58687048D01*
X170430207Y-58687036D01*
X170371682Y-58481345D01*
X170371682Y-58481344D01*
X170276350Y-58289893D01*
X170267017Y-58277532D01*
X169690998Y-58853551D01*
X169690998Y-58847339D01*
X169663739Y-58745606D01*
X169611078Y-58654394D01*
X169536604Y-58579920D01*
X169445392Y-58527259D01*
X169343659Y-58500000D01*
X169337443Y-58500000D01*
X169910910Y-57926533D01*
X169910910Y-57926532D01*
X169811054Y-57864704D01*
X169740016Y-57798426D01*
X169699750Y-57710008D01*
X169696384Y-57612912D01*
X169730432Y-57521918D01*
X169796710Y-57450880D01*
X169885128Y-57410614D01*
X169942136Y-57404000D01*
X172211997Y-57404000D01*
X172211998Y-57404000D01*
X172211998Y-54597500D01*
X172230952Y-54502212D01*
X172284928Y-54421430D01*
X172365710Y-54367454D01*
X172460998Y-54348500D01*
X188606149Y-54348500D01*
X188701437Y-54367454D01*
G37*
%TD.AperFunction*%
%TA.AperFunction,Conductor*%
G36*
X168735149Y-57422954D02*
G01*
X168815931Y-57476930D01*
X168869907Y-57557712D01*
X168888861Y-57653000D01*
X168869907Y-57748288D01*
X168815931Y-57829070D01*
X168770941Y-57864705D01*
X168671084Y-57926532D01*
X168671084Y-57926533D01*
X169244551Y-58500000D01*
X169238337Y-58500000D01*
X169136604Y-58527259D01*
X169045392Y-58579920D01*
X168970918Y-58654394D01*
X168918257Y-58745606D01*
X168890998Y-58847339D01*
X168890998Y-58853553D01*
X168314978Y-58277533D01*
X168305644Y-58289894D01*
X168305640Y-58289901D01*
X168210317Y-58481335D01*
X168210313Y-58481345D01*
X168151788Y-58687036D01*
X168151786Y-58687048D01*
X168132054Y-58900000D01*
X168151786Y-59112951D01*
X168151788Y-59112963D01*
X168210313Y-59318654D01*
X168210317Y-59318664D01*
X168305644Y-59510105D01*
X168305643Y-59510105D01*
X168314977Y-59522465D01*
X168890998Y-58946444D01*
X168890998Y-58952661D01*
X168918257Y-59054394D01*
X168970918Y-59145606D01*
X169045392Y-59220080D01*
X169136604Y-59272741D01*
X169238337Y-59300000D01*
X169244550Y-59300000D01*
X168671083Y-59873466D01*
X168774406Y-59937440D01*
X168774413Y-59937444D01*
X168774676Y-59937546D01*
X168774886Y-59937680D01*
X168784721Y-59942577D01*
X168784210Y-59943602D01*
X168856682Y-59989642D01*
X168912510Y-60069155D01*
X168933661Y-60163980D01*
X168916913Y-60259681D01*
X168864817Y-60341687D01*
X168785304Y-60397515D01*
X168774680Y-60401916D01*
X168774189Y-60402106D01*
X168765574Y-60406396D01*
X168675221Y-60430978D01*
X168675253Y-60431301D01*
X168673345Y-60431488D01*
X168671827Y-60431902D01*
X168667695Y-60432045D01*
X168663077Y-60432500D01*
X168589104Y-60447215D01*
X168540525Y-60452000D01*
X168147999Y-60452000D01*
X168147998Y-60452000D01*
X166946953Y-61653045D01*
X163622033Y-64977964D01*
X163541251Y-65031940D01*
X163445963Y-65050894D01*
X163350675Y-65031940D01*
X163269893Y-64977964D01*
X163215917Y-64897182D01*
X163196963Y-64801894D01*
X163215917Y-64706606D01*
X163221350Y-64695594D01*
X163221003Y-64695432D01*
X163325431Y-64471485D01*
X163325431Y-64471483D01*
X163382634Y-64258001D01*
X163382634Y-64258000D01*
X162485010Y-64258000D01*
X162517923Y-64200993D01*
X162551998Y-64073826D01*
X162551998Y-63942174D01*
X162517923Y-63815007D01*
X162485010Y-63758000D01*
X163382634Y-63758000D01*
X163382634Y-63757998D01*
X163325431Y-63544516D01*
X163325427Y-63544505D01*
X163225601Y-63330428D01*
X163225597Y-63330420D01*
X163090108Y-63136923D01*
X162923073Y-62969888D01*
X162883635Y-62942273D01*
X162816452Y-62872091D01*
X162781240Y-62781542D01*
X162783360Y-62684410D01*
X162822489Y-62595483D01*
X162883654Y-62534324D01*
X162891236Y-62529016D01*
X162980167Y-62489897D01*
X163034035Y-62484000D01*
X163067999Y-62484000D01*
X163068000Y-62484000D01*
X168075070Y-57476930D01*
X168155852Y-57422954D01*
X168251140Y-57404000D01*
X168639861Y-57404000D01*
X168735149Y-57422954D01*
G37*
%TD.AperFunction*%
%TD*%
%TA.AperFunction,Conductor*%
%TO.N,Net-(J1-Pin_1)*%
G36*
X171269565Y-72862944D02*
G01*
X171315558Y-72915541D01*
X171326998Y-72967562D01*
X171326998Y-75819280D01*
X171307313Y-75886319D01*
X171254509Y-75932074D01*
X171203279Y-75943280D01*
X160425272Y-75967720D01*
X160358188Y-75948187D01*
X160312314Y-75895487D01*
X160300995Y-75844731D01*
X160278009Y-73017440D01*
X160297148Y-72950246D01*
X160349578Y-72904063D01*
X160401439Y-72892436D01*
X160649893Y-72891312D01*
X160717019Y-72910693D01*
X160763012Y-72963290D01*
X160773268Y-73032403D01*
X160761654Y-73067567D01*
X160761744Y-73067601D01*
X160760865Y-73069955D01*
X160759289Y-73074730D01*
X160758645Y-73075909D01*
X160708401Y-73210620D01*
X160708399Y-73210627D01*
X160701998Y-73270155D01*
X160701998Y-73918000D01*
X161618986Y-73918000D01*
X161586073Y-73975007D01*
X161551998Y-74102174D01*
X161551998Y-74233826D01*
X161586073Y-74360993D01*
X161618986Y-74418000D01*
X160701998Y-74418000D01*
X160701998Y-75065844D01*
X160708399Y-75125372D01*
X160708401Y-75125379D01*
X160758643Y-75260086D01*
X160758647Y-75260093D01*
X160844807Y-75375187D01*
X160844810Y-75375190D01*
X160959904Y-75461350D01*
X160959911Y-75461354D01*
X161094618Y-75511596D01*
X161094625Y-75511598D01*
X161154153Y-75517999D01*
X161154170Y-75518000D01*
X161801998Y-75518000D01*
X161801998Y-74601012D01*
X161859005Y-74633925D01*
X161986172Y-74668000D01*
X162117824Y-74668000D01*
X162244991Y-74633925D01*
X162301998Y-74601012D01*
X162301998Y-75518000D01*
X162949826Y-75518000D01*
X162949842Y-75517999D01*
X163009370Y-75511598D01*
X163009377Y-75511596D01*
X163144084Y-75461354D01*
X163144091Y-75461350D01*
X163259185Y-75375190D01*
X163259188Y-75375187D01*
X163345348Y-75260093D01*
X163345352Y-75260086D01*
X163395594Y-75125379D01*
X163395596Y-75125372D01*
X163401997Y-75065844D01*
X163401998Y-75065827D01*
X163401998Y-74418000D01*
X162485010Y-74418000D01*
X162517923Y-74360993D01*
X162551998Y-74233826D01*
X162551998Y-74102174D01*
X162517923Y-73975007D01*
X162485010Y-73918000D01*
X163401998Y-73918000D01*
X163401998Y-73270172D01*
X163401997Y-73270155D01*
X163395596Y-73210627D01*
X163395594Y-73210620D01*
X163345352Y-73075913D01*
X163341101Y-73068128D01*
X163342552Y-73067335D01*
X163321730Y-73011517D01*
X163336579Y-72943243D01*
X163385981Y-72893835D01*
X163444849Y-72878665D01*
X168270009Y-72856832D01*
X168337136Y-72876213D01*
X168383129Y-72928810D01*
X168393385Y-72997922D01*
X168364648Y-73061609D01*
X168344881Y-73080097D01*
X168279807Y-73128812D01*
X168193647Y-73243906D01*
X168193643Y-73243913D01*
X168143401Y-73378620D01*
X168143399Y-73378627D01*
X168136998Y-73438155D01*
X168136998Y-73890000D01*
X168975312Y-73890000D01*
X168970918Y-73894394D01*
X168918257Y-73985606D01*
X168890998Y-74087339D01*
X168890998Y-74192661D01*
X168918257Y-74294394D01*
X168970918Y-74385606D01*
X168975312Y-74390000D01*
X168136998Y-74390000D01*
X168136998Y-74841844D01*
X168143399Y-74901372D01*
X168143401Y-74901379D01*
X168193643Y-75036086D01*
X168193647Y-75036093D01*
X168279807Y-75151187D01*
X168279810Y-75151190D01*
X168394904Y-75237350D01*
X168394911Y-75237354D01*
X168529618Y-75287596D01*
X168529625Y-75287598D01*
X168589153Y-75293999D01*
X168589170Y-75294000D01*
X169040998Y-75294000D01*
X169040998Y-74455686D01*
X169045392Y-74460080D01*
X169136604Y-74512741D01*
X169238337Y-74540000D01*
X169343659Y-74540000D01*
X169445392Y-74512741D01*
X169536604Y-74460080D01*
X169540998Y-74455686D01*
X169540998Y-75294000D01*
X169992826Y-75294000D01*
X169992842Y-75293999D01*
X170052370Y-75287598D01*
X170052377Y-75287596D01*
X170187084Y-75237354D01*
X170187091Y-75237350D01*
X170302185Y-75151190D01*
X170302188Y-75151187D01*
X170388348Y-75036093D01*
X170388352Y-75036086D01*
X170438594Y-74901379D01*
X170438596Y-74901372D01*
X170444997Y-74841844D01*
X170444998Y-74841827D01*
X170444998Y-74390000D01*
X169606684Y-74390000D01*
X169611078Y-74385606D01*
X169663739Y-74294394D01*
X169690998Y-74192661D01*
X169690998Y-74087339D01*
X169663739Y-73985606D01*
X169611078Y-73894394D01*
X169606684Y-73890000D01*
X170444998Y-73890000D01*
X170444998Y-73438172D01*
X170444997Y-73438155D01*
X170438596Y-73378627D01*
X170438594Y-73378620D01*
X170388352Y-73243913D01*
X170388348Y-73243906D01*
X170302188Y-73128812D01*
X170302185Y-73128809D01*
X170224853Y-73070918D01*
X170182982Y-73014984D01*
X170177998Y-72945293D01*
X170211484Y-72883970D01*
X170272807Y-72850486D01*
X170298599Y-72847653D01*
X171202439Y-72843563D01*
X171269565Y-72862944D01*
G37*
%TD.AperFunction*%
%TD*%
M02*
