<?xml version="1.0" encoding="UTF-8"?>
<svg id="Layer_1" data-name="Layer 1" xmlns="http://www.w3.org/2000/svg" viewBox="0 0 184.66 59.02">
  <defs>
    <style>
      .cls-1 {
        fill: #231f20;
      }

      .cls-2 {
        fill: #fff;
      }
    </style>
  </defs>
  <path class="cls-1" d="M169.78.17c-8.22,0-14.88,6.66-14.88,14.88s6.66,14.88,14.88,14.88,14.88-6.66,14.88-14.88S178,.17,169.78.17ZM169.29,20.4c0,.53-.58.85-1.03.57l-4.47-2.85h-3.9c-.48,0-.86-.38-.86-.86v-4.31c0-.47.38-.86.86-.86h3.69l4.65-3.28c.45-.31,1.06.01,1.06.55v11.04ZM180.26,16.19h-6.8c-.53,0-.95-.43-.95-.95v-.23c0-.53.43-.95.95-.95h6.8c.53,0,.95.43.95.95v.23c0,.53-.43.95-.95.95Z"/>
  <rect class="cls-2" x="175.79" y="48.72" width="2.13" height="8.7" rx=".95" ry=".95" transform="translate(229.93 -123.78) rotate(90)"/>
  <path class="cls-1" d="M135.33,0c-8.22,0-14.88,6.66-14.88,14.88s6.66,14.88,14.88,14.88,14.88-6.66,14.88-14.88-6.66-14.88-14.88-14.88ZM134.9,20.23c0,.53-.58.85-1.03.57l-4.47-2.85h-3.9c-.48,0-.86-.38-.86-.86v-4.31c0-.47.38-.86.86-.86h3.69l4.65-3.28c.45-.31,1.06.01,1.06.55v11.04ZM145.27,15.45h-2.58v2.38c0,.51-.41.92-.92.92s-.92-.41-.92-.92v-2.38h-2.18c-.51,0-.93-.41-.93-.92s.42-.92.93-.92h2.18v-2.38c0-.51.41-.92.92-.92s.92.41.92.92v2.38h2.58c.51,0,.92.41.92.92s-.41.92-.92.92Z"/>
  <path class="cls-2" d="M169.29,47.31v11.04c0,.53-.58.85-1.03.57l-4.47-2.85h-3.9c-.48,0-.86-.38-.86-.86v-4.31c0-.47.38-.86.86-.86h3.69l4.65-3.28c.45-.31,1.06.01,1.06.55Z"/>
  <path class="cls-1" d="M14.88.46C6.66.46,0,7.12,0,15.34s6.66,14.88,14.88,14.88,14.88-6.66,14.88-14.88S23.1.46,14.88.46ZM21.13,16.36l-9.01,5.32c-.65.38-1.46-.1-1.46-.86v-10.63c0-.77.81-1.25,1.46-.86l9.01,5.32c.65.38.65,1.34,0,1.73Z"/>
  <path class="cls-1" d="M82.37,1.01c-8.22,0-14.88,6.66-14.88,14.88s6.66,14.88,14.88,14.88,14.88-6.66,14.88-14.88-6.66-14.88-14.88-14.88ZM89.86,19.99c0,.38-.31.69-.69.69h-13.6c-.38,0-.69-.31-.69-.69v-.11c0-.38.31-.69.69-.69h13.6c.38,0,.69.31.69.69v.11ZM89.86,15.19c0,.38-.31.69-.69.69h-13.6c-.38,0-.69-.31-.69-.69v-.11c0-.38.31-.69.69-.69h13.6c.38,0,.69.31.69.69v.11ZM89.86,10.4c0,.38-.31.69-.69.69h-13.6c-.38,0-.69-.31-.69-.69v-.11c0-.38.31-.69.69-.69h13.6c.38,0,.69.31.69.69v.11Z"/>
  <g>
    <path class="cls-1" d="M48.94,12.5c-1.5,0-2.72,1.22-2.72,2.72s1.22,2.72,2.72,2.72,2.72-1.22,2.72-2.72-1.22-2.72-2.72-2.72Z"/>
    <path class="cls-1" d="M48.62.73c-8.22,0-14.88,6.66-14.88,14.88s6.66,14.88,14.88,14.88,14.88-6.66,14.88-14.88S56.84.73,48.62.73ZM53.54,9.7l1.96-1.96c.3-.3.79-.3,1.1,0s.3.79,0,1.1l-1.96,1.96c-.3.3-.79.3-1.1,0-.3-.3-.3-.79,0-1.1ZM48.41,5.55c0-.38.31-.69.69-.69h.03c.38,0,.69.31.69.69v2.94c0,.38-.31.69-.69.69h-.03c-.38,0-.69-.31-.69-.69v-2.94ZM41.36,7.76l.04-.04c.29-.29.77-.29,1.06,0l2,2c.29.29.29.77,0,1.06l-.04.04c-.29.29-.77.29-1.06,0l-2-2c-.29-.29-.29-.77,0-1.06ZM38.44,15.08v-.03c0-.41.33-.73.73-.73h2.81c.41,0,.73.33.73.73v.03c0,.41-.33.73-.73.73h-2.81c-.41,0-.73-.33-.73-.73ZM44.62,20.38l-2.07,2.07c-.27.27-.71.27-.98,0l-.03-.03c-.27-.27-.27-.71,0-.98l2.07-2.07c.27-.27.71-.27.98,0l.03.03c.27.27.27.71,0,.98ZM49.57,24.77c0,.42-.34.76-.76.76h-.09c-.42,0-.76-.34-.76-.76v-2.81c0-.42.34-.76.76-.76h.09c.42,0,.76.34.76.76v2.81ZM48.94,19.31c-2.26,0-4.09-1.83-4.09-4.09s1.83-4.09,4.09-4.09,4.09,1.83,4.09,4.09-1.83,4.09-4.09,4.09ZM56.17,22.59h0c-.31.31-.8.31-1.11,0l-1.95-1.95c-.31-.31-.31-.8,0-1.11s.8-.31,1.11,0l1.95,1.95c.31.31.31.8,0,1.11ZM58.57,16.09h-2.53c-.4,0-.72-.32-.72-.72v-.1c0-.4.32-.72.72-.72h2.53c.4,0,.72.32.72.72v.1c0,.4-.32.72-.72.72Z"/>
  </g>
</svg>